<svg width="14" height="14" viewBox="0 0 14 14" fill="none" xmlns="http://www.w3.org/2000/svg">
<g clip-path="url(#clip0_449_3509)">
<path fill-rule="evenodd" clip-rule="evenodd" d="M12.216 8.75C12.5621 8.75 12.9005 8.64736 13.1882 8.45507C13.476 8.26278 13.7003 7.98947 13.8328 7.6697C13.9652 7.34993 13.9999 6.99806 13.9324 6.65859C13.8648 6.31913 13.6982 6.00731 13.4534 5.76256C13.2087 5.51782 12.8969 5.35115 12.5574 5.28363C12.2179 5.2161 11.8661 5.25076 11.5463 5.38321C11.2265 5.51566 10.9532 5.73997 10.7609 6.02775C10.5686 6.31554 10.466 6.65388 10.466 7C10.4659 7.22985 10.511 7.45747 10.5989 7.66985C10.6868 7.88223 10.8157 8.0752 10.9783 8.23773C11.1408 8.40026 11.3338 8.52916 11.5461 8.61706C11.7585 8.70496 11.9861 8.75013 12.216 8.75V8.75ZM6.966 8.75C7.31212 8.75 7.65046 8.64736 7.93825 8.45507C8.22603 8.26278 8.45034 7.98947 8.58279 7.6697C8.71524 7.34993 8.7499 6.99806 8.68237 6.65859C8.61485 6.31913 8.44818 6.00731 8.20344 5.76256C7.95869 5.51782 7.64687 5.35115 7.30741 5.28363C6.96794 5.2161 6.61607 5.25076 6.2963 5.38321C5.97653 5.51566 5.70322 5.73997 5.51093 6.02775C5.31864 6.31554 5.216 6.65388 5.216 7C5.21587 7.22985 5.26104 7.45747 5.34894 7.66985C5.43684 7.88223 5.56574 8.0752 5.72827 8.23773C5.8908 8.40026 6.08377 8.52916 6.29615 8.61706C6.50853 8.70496 6.73615 8.75013 6.966 8.75V8.75ZM1.716 8.75C2.06212 8.75 2.40046 8.64736 2.68825 8.45507C2.97603 8.26278 3.20034 7.98947 3.33279 7.6697C3.46524 7.34993 3.4999 6.99806 3.43237 6.65859C3.36485 6.31913 3.19818 6.00731 2.95344 5.76256C2.70869 5.51782 2.39687 5.35115 2.05741 5.28363C1.71794 5.2161 1.36607 5.25076 1.0463 5.38321C0.726533 5.51566 0.453221 5.73997 0.260928 6.02775C0.0686356 6.31554 -0.0340001 6.65388 -0.0340001 7C-0.0341316 7.22985 0.0110438 7.45747 0.098943 7.66985C0.186842 7.88223 0.315741 8.0752 0.47827 8.23773C0.640799 8.40026 0.833769 8.52916 1.04615 8.61706C1.25853 8.70496 1.48615 8.75013 1.716 8.75V8.75Z" fill="#444A58"/>
</g>
<defs>
<clipPath id="clip0_449_3509">
<rect width="14" height="14" fill="white"/>
</clipPath>
</defs>
</svg>
