<svg width="14" height="14" viewBox="0 0 14 14" fill="none" xmlns="http://www.w3.org/2000/svg">
<path d="M12.991 1.20996H5.315C5.04925 1.21124 4.7946 1.3167 4.60576 1.50367C4.41691 1.69065 4.30892 1.94424 4.305 2.20996V2.61696C4.30527 2.88475 4.41176 3.14149 4.60112 3.33085C4.79047 3.5202 5.04721 3.6267 5.315 3.62696H12.991C13.2583 3.62643 13.5145 3.5201 13.7035 3.3312C13.8926 3.14231 13.9992 2.88623 14 2.61896V2.21196C13.9969 1.94598 13.8893 1.69189 13.7006 1.50445C13.5118 1.31702 13.257 1.21125 12.991 1.20996Z" fill="#444A58"/>
<path d="M12.991 5.79102H5.315C5.04925 5.7923 4.7946 5.89775 4.60576 6.08473C4.41691 6.27171 4.30892 6.52529 4.305 6.79102V7.20002C4.30527 7.46771 4.41179 7.72435 4.60118 7.91355C4.79056 8.10274 5.04731 8.20902 5.315 8.20902H12.991C13.2585 8.20875 13.515 8.10236 13.7042 7.91319C13.8933 7.72403 13.9997 7.46754 14 7.20002V6.79202C13.9966 6.52621 13.8889 6.27237 13.7002 6.08515C13.5115 5.89793 13.2568 5.7923 12.991 5.79102V5.79102Z" fill="#444A58"/>
<path d="M8.141 10.3708H5.315C5.04925 10.3721 4.7946 10.4776 4.60576 10.6646C4.41691 10.8515 4.30892 11.1051 4.305 11.3708V11.7778C4.30553 12.0455 4.41214 12.302 4.60147 12.4911C4.79079 12.6802 5.04739 12.7866 5.315 12.7868H8.141C8.40879 12.7868 8.66564 12.6806 8.85518 12.4914C9.04472 12.3023 9.15147 12.0456 9.152 11.7778V11.3698C9.14781 11.1041 9.03958 10.8506 8.85054 10.6639C8.66151 10.4771 8.40675 10.3719 8.141 10.3708V10.3708Z" fill="#444A58"/>
<path d="M1.211 3.62796C1.87871 3.62796 2.42 3.08667 2.42 2.41896C2.42 1.75125 1.87871 1.20996 1.211 1.20996C0.543287 1.20996 0.0019989 1.75125 0.0019989 2.41896C0.0019989 3.08667 0.543287 3.62796 1.211 3.62796Z" fill="#444A58"/>
<path d="M1.211 8.20902C1.87871 8.20902 2.42 7.66773 2.42 7.00002C2.42 6.3323 1.87871 5.79102 1.211 5.79102C0.543287 5.79102 0.0019989 6.3323 0.0019989 7.00002C0.0019989 7.66773 0.543287 8.20902 1.211 8.20902Z" fill="#444A58"/>
<path d="M1.211 12.7901C1.87871 12.7901 2.42 12.2488 2.42 11.5811C2.42 10.9134 1.87871 10.3721 1.211 10.3721C0.543287 10.3721 0.0019989 10.9134 0.0019989 11.5811C0.0019989 12.2488 0.543287 12.7901 1.211 12.7901Z" fill="#444A58"/>
</svg>
