<svg width="14" height="14" viewBox="0 0 14 14" fill="none" xmlns="http://www.w3.org/2000/svg">
<g clip-path="url(#clip0_449_3735)">
<path d="M9.936 10.4491C9.49466 10.7519 9.01817 11.0001 8.517 11.1881C7.76329 11.4467 6.95692 11.513 6.17108 11.381C5.38524 11.249 4.64481 10.9228 4.017 10.4321C3.88062 10.3266 3.72426 10.2498 3.55738 10.2064C3.39049 10.163 3.21654 10.1538 3.04603 10.1795C2.87551 10.2052 2.71198 10.2652 2.5653 10.3559C2.41862 10.4465 2.29184 10.566 2.19261 10.707C2.09338 10.8481 2.02377 11.0077 1.98798 11.1764C1.95218 11.3451 1.95095 11.5193 1.98435 11.6885C2.01775 11.8576 2.0851 12.0183 2.18232 12.1607C2.27954 12.3031 2.40462 12.4243 2.55 12.5171C3.84565 13.457 5.3995 13.9749 7 14.0001C8.58 13.9782 10.1155 13.4733 11.4 12.5531C11.5519 12.4652 11.684 12.347 11.7882 12.2058C11.8924 12.0647 11.9664 11.9035 12.0056 11.7325C12.0448 11.5615 12.0484 11.3842 12.0161 11.2118C11.9839 11.0393 11.9164 10.8753 11.818 10.7301C11.7159 10.5842 11.5852 10.4606 11.4338 10.3669C11.2824 10.2732 11.1135 10.2113 10.9374 10.185C10.7613 10.1587 10.5817 10.1686 10.4095 10.214C10.2374 10.2594 10.0762 10.3394 9.936 10.4491V10.4491Z" fill="#444A58"/>
<path d="M2.911 3.87201C2.939 2.98601 2.941 2.09901 2.911 1.21301C2.90682 1.04656 2.86932 0.882639 2.80072 0.730928C2.73212 0.579217 2.63381 0.442793 2.5116 0.329716C2.38939 0.21664 2.24575 0.129204 2.08918 0.072574C1.93261 0.0159445 1.76627 -0.00873003 1.6 8.24535e-06C1.27146 0.00264889 0.957305 0.135152 0.726111 0.368594C0.494918 0.602036 0.365461 0.917458 0.366 1.24601C0.351 1.67001 0.366 2.09501 0.366 2.52001C0.366 2.94501 0.355 3.39401 0.366 3.83101C0.364284 3.99682 0.395264 4.16135 0.457167 4.31518C0.519071 4.46902 0.610684 4.60915 0.726772 4.72755C0.84286 4.84596 0.981146 4.94033 1.13372 5.00527C1.2863 5.07021 1.45018 5.10444 1.616 5.10601C1.78209 5.11013 1.94735 5.08147 2.10235 5.02166C2.25735 4.96186 2.39904 4.87208 2.51932 4.75747C2.63959 4.64286 2.73609 4.50567 2.8033 4.35373C2.87051 4.20179 2.90711 4.0381 2.911 3.87201V3.87201Z" fill="#444A58"/>
<path d="M13.636 1.279C13.6376 1.11156 13.6062 0.945458 13.5435 0.790165C13.4809 0.634872 13.3883 0.493433 13.271 0.373924C13.1538 0.254415 13.0141 0.159176 12.86 0.0936456C12.7059 0.028115 12.5404 -0.0064243 12.373 -0.00800017C12.2056 -0.00957603 12.0395 0.0218424 11.8842 0.0844612C11.7289 0.14708 11.5874 0.239673 11.4679 0.356953C11.2266 0.593812 11.0892 0.916849 11.086 1.255C11.064 2.11633 11.064 2.97767 11.086 3.839C11.0968 4.17089 11.2367 4.48547 11.4759 4.71581C11.7151 4.94614 12.0348 5.07407 12.3668 5.07238C12.6989 5.07068 13.0172 4.9395 13.254 4.70674C13.4909 4.47397 13.6275 4.15799 13.635 3.826C13.648 3.402 13.635 2.977 13.635 2.553C13.635 2.129 13.648 1.7 13.636 1.279Z" fill="#444A58"/>
<path d="M4.91 8.91798C5.21197 8.93897 5.51503 8.93897 5.817 8.91798C5.855 8.91798 5.889 8.92998 5.928 8.92598C6.53977 8.82267 7.10061 8.52112 7.52416 8.06775C7.94771 7.61439 8.21048 7.03436 8.272 6.41698C8.286 4.70698 8.281 2.99698 8.272 1.28698C8.27422 1.11699 8.24239 0.948268 8.1784 0.790763C8.1144 0.633259 8.01953 0.490156 7.89936 0.369887C7.7792 0.249618 7.63619 0.154616 7.47874 0.0904779C7.32129 0.0263398 7.1526 -0.00563681 6.9826 -0.00356775C6.81261 -0.00149868 6.64474 0.0345742 6.4889 0.102525C6.33306 0.170477 6.1924 0.268932 6.0752 0.39209C5.958 0.515247 5.86664 0.660617 5.80649 0.819632C5.74635 0.978648 5.71864 1.14809 5.725 1.31798C5.725 2.98898 5.725 4.66098 5.725 6.36098H5.702C5.408 6.35298 5.302 6.35398 4.936 6.36098C4.59692 6.35754 4.27036 6.48893 4.02815 6.72626C3.78595 6.96358 3.64795 7.2874 3.6445 7.62648C3.64105 7.96556 3.77244 8.29212 4.00977 8.53433C4.2471 8.77653 4.57092 8.91454 4.91 8.91798V8.91798Z" fill="#444A58"/>
</g>
<defs>
<clipPath id="clip0_449_3735">
<rect width="14" height="14" fill="white"/>
</clipPath>
</defs>
</svg>
