<svg width="14" height="14" viewBox="0 0 14 14" fill="none" xmlns="http://www.w3.org/2000/svg">
<g clip-path="url(#clip0_449_3384)">
<path d="M7.023 10.3682L6.103 11.2882C5.64634 11.6999 5.04907 11.9207 4.4344 11.9049C3.81974 11.8892 3.23457 11.6381 2.7996 11.2035C2.36463 10.7689 2.11304 10.184 2.09675 9.56932C2.08045 8.95467 2.30067 8.3572 2.712 7.90018L3.632 6.98018C3.82083 6.79161 3.92702 6.53575 3.92721 6.26888C3.9274 6.00202 3.82157 5.74601 3.633 5.55718C3.44443 5.36834 3.18857 5.26215 2.92171 5.26196C2.65484 5.26178 2.39883 5.36761 2.21 5.55618L1.291 6.47618C0.464452 7.30272 0.000102997 8.42376 0.000102997 9.59268C0.000102997 10.7616 0.464452 11.8826 1.291 12.7092C2.11755 13.5357 3.23859 14.0001 4.4075 14.0001C5.57641 14.0001 6.69745 13.5357 7.524 12.7092L8.444 11.7902C8.63257 11.6017 8.73856 11.3461 8.73865 11.0795C8.73875 10.8129 8.63294 10.5572 8.4445 10.3687C8.25606 10.1801 8.00044 10.0741 7.73385 10.074C7.46727 10.0739 7.21157 10.1797 7.023 10.3682Z" fill="#444A58"/>
<path d="M7.711 4.86803L4.868 7.71103C4.67956 7.89947 4.5737 8.15504 4.5737 8.42153C4.5737 8.68802 4.67956 8.94359 4.868 9.13203C5.05644 9.32047 5.31201 9.42633 5.5785 9.42633C5.84499 9.42633 6.10056 9.32047 6.289 9.13203L9.132 6.28903C9.32044 6.10059 9.4263 5.84502 9.4263 5.57853C9.4263 5.31204 9.32044 5.05647 9.132 4.86803C8.94356 4.67959 8.68799 4.57373 8.4215 4.57373C8.15501 4.57373 7.89944 4.67959 7.711 4.86803V4.86803Z" fill="#444A58"/>
<path d="M12.709 1.29106C12.2998 0.881749 11.8139 0.557061 11.2792 0.335539C10.7444 0.114017 10.1713 0 9.5925 0C9.0137 0 8.44056 0.114017 7.90583 0.335539C7.3711 0.557061 6.88524 0.881749 6.476 1.29106L5.556 2.21006C5.36743 2.3985 5.26144 2.65412 5.26135 2.92071C5.26125 3.18729 5.36706 3.44299 5.5555 3.63156C5.74394 3.82013 5.99956 3.92612 6.26615 3.92621C6.53273 3.92631 6.78843 3.8205 6.977 3.63206L7.897 2.71206C8.35366 2.30033 8.95093 2.07957 9.56559 2.09533C10.1803 2.11108 10.7654 2.36215 11.2004 2.79673C11.6354 3.23132 11.887 3.81627 11.9033 4.43092C11.9196 5.04557 11.6993 5.64303 11.288 6.10006L10.368 7.02006C10.1792 7.20863 10.073 7.46449 10.0728 7.73135C10.0726 7.99822 10.1784 8.25423 10.367 8.44306C10.5556 8.6319 10.8114 8.73809 11.0783 8.73827C11.3452 8.73846 11.6012 8.63263 11.79 8.44406L12.709 7.52406C13.1183 7.11482 13.443 6.62896 13.6645 6.09423C13.886 5.5595 14.0001 4.98636 14.0001 4.40756C14.0001 3.82876 13.886 3.25563 13.6645 2.72089C13.443 2.18616 13.1183 1.7003 12.709 1.29106V1.29106Z" fill="#444A58"/>
</g>
<defs>
<clipPath id="clip0_449_3384">
<rect width="14" height="14" fill="white"/>
</clipPath>
</defs>
</svg>
