<svg width="14" height="14" viewBox="0 0 14 14" fill="none" xmlns="http://www.w3.org/2000/svg">
<g clip-path="url(#clip0_449_3769)">
<path d="M2.265 9.61502C1.99287 8.77546 1.96751 7.87543 2.19193 7.02188C2.41635 6.16833 2.88112 5.39716 3.531 4.80002C4.05745 4.30975 4.71378 3.9812 5.42175 3.85354C6.12972 3.72588 6.85947 3.8045 7.524 4.08002C8.28405 4.34635 8.95308 4.82257 9.45359 5.45352C9.9541 6.08446 10.2656 6.84431 10.352 7.64502C10.3555 7.73449 10.3785 7.82211 10.4193 7.90181C10.4601 7.98152 10.5177 8.05139 10.5882 8.10657C10.6587 8.16176 10.7404 8.20094 10.8276 8.22139C10.9147 8.24185 11.0053 8.24309 11.093 8.22502C11.1811 8.21137 11.2654 8.17907 11.34 8.13028C11.4147 8.08148 11.4781 8.01732 11.526 7.94207C11.5739 7.86683 11.6052 7.78223 11.6177 7.69393C11.6303 7.60563 11.6239 7.51566 11.599 7.43002C11.4752 6.40752 11.0663 5.44046 10.4189 4.63939C9.7715 3.83833 8.91178 3.23557 7.938 2.90002C7.06955 2.53321 6.11389 2.42405 5.18509 2.58559C4.2563 2.74713 3.3936 3.17253 2.7 3.81102C2.07372 4.36464 1.57836 5.05056 1.24975 5.81915C0.92115 6.58773 0.767526 7.41976 0.799999 8.25502C0.809999 8.43102 0.808999 8.69402 0.843999 8.95502C1.01762 10.7227 1.74204 12.3912 2.915 13.725C2.98184 13.8262 3.07683 13.9055 3.18825 13.9533C3.29967 14.0011 3.42264 14.0153 3.542 13.994C3.65962 13.9774 3.77018 13.928 3.86105 13.8514C3.95191 13.7749 4.0194 13.6743 4.05581 13.5613C4.09221 13.4482 4.09606 13.3271 4.06692 13.212C4.03778 13.0968 3.97681 12.9922 3.891 12.91C3.07391 11.9703 2.51377 10.8352 2.265 9.61502V9.61502Z" fill="#444A58"/>
<path d="M13.743 11.3761C13.6963 11.2972 13.6335 11.2291 13.5587 11.1761C13.4839 11.1231 13.3988 11.0864 13.3089 11.0685C13.219 11.0506 13.1263 11.0518 13.0369 11.072C12.9475 11.0923 12.8634 11.1311 12.79 11.1861C12.645 11.2691 12.501 11.3531 12.353 11.4311C11.6084 11.8755 10.7239 12.0238 9.87504 11.8463C9.02621 11.6688 8.27516 11.1786 7.771 10.4731C7.20712 9.72906 6.8544 8.84673 6.75 7.91905C6.74658 7.83186 6.72506 7.74633 6.68679 7.6679C6.64853 7.58947 6.59437 7.51986 6.52775 7.4635C6.46113 7.40714 6.38351 7.36525 6.29983 7.34051C6.21615 7.31577 6.12823 7.30871 6.04167 7.31978C5.95512 7.33085 5.87181 7.35982 5.79705 7.40482C5.72229 7.44983 5.65771 7.50991 5.60743 7.58123C5.55714 7.65254 5.52224 7.73354 5.50495 7.81908C5.48766 7.90461 5.48836 7.9928 5.507 8.07805C5.57342 8.83919 5.78776 9.58004 6.138 10.2591C6.48025 11.0707 7.04133 11.7712 7.75861 12.2824C8.4759 12.7936 9.32115 13.0954 10.2 13.1541C11.3427 13.1863 12.4698 12.8821 13.441 12.2791C13.5222 12.2419 13.5948 12.1884 13.6545 12.1221C13.7142 12.0557 13.7595 11.9777 13.7879 11.8931C13.8162 11.8084 13.8268 11.7188 13.8191 11.6299C13.8114 11.541 13.7855 11.4546 13.743 11.3761V11.3761Z" fill="#444A58"/>
<path d="M12.871 3.6801C12.375 2.82966 11.7157 2.08578 10.9309 1.49134C10.1461 0.896896 9.25141 0.463651 8.29841 0.216571C7.34542 -0.0305083 6.35295 -0.0865365 5.3782 0.0517158C4.40345 0.189968 3.4657 0.519767 2.619 1.0221C1.90858 1.42147 1.26178 1.92469 0.7 2.51511L0.26 2.9621C0.159245 3.0976 0.113982 3.26643 0.133445 3.43415C0.152907 3.60187 0.235628 3.75585 0.364732 3.86467C0.493836 3.97349 0.659595 4.02895 0.828191 4.01974C0.996788 4.01053 1.15552 3.93734 1.272 3.8151L1.432 3.6411C1.578 3.4741 1.725 3.3151 1.898 3.1411C3.05024 2.00322 4.60461 1.36544 6.224 1.3661C6.463 1.3841 6.762 1.3991 7.059 1.4311C8.3356 1.57985 9.5368 2.11325 10.5032 2.96054C11.4696 3.80782 12.1556 4.92893 12.47 6.17511C12.7027 7.00644 12.6431 7.89247 12.301 8.68511C12.1605 8.97047 11.9375 9.20704 11.661 9.36413C11.3844 9.52122 11.067 9.59159 10.75 9.5661C10.4798 9.56688 10.2175 9.47482 10.0071 9.30535C9.79667 9.13587 9.65083 8.89926 9.594 8.63511C9.351 8.00011 9.138 7.3461 8.885 6.7121C8.70713 6.12257 8.33309 5.61155 7.82491 5.26378C7.31672 4.91602 6.70493 4.75242 6.091 4.80011C5.50586 4.80198 4.93459 4.97847 4.45037 5.30699C3.96615 5.63551 3.59101 6.10109 3.373 6.6441C3.18562 7.17642 3.08665 7.73582 3.08 8.30011C3.08133 9.71459 3.53705 11.0912 4.38 12.2271C4.77192 12.8188 5.26235 13.339 5.83 13.7651L5.968 13.8651C6.10589 13.9609 6.2756 13.9995 6.44136 13.9726C6.60713 13.9458 6.75599 13.8557 6.8566 13.7212C6.95721 13.5868 7.0017 13.4185 6.98069 13.2519C6.95969 13.0853 6.87483 12.9334 6.744 12.8281C6.3356 12.5439 5.98615 12.1833 5.715 11.7661C5.22476 11.2059 4.85632 10.55 4.63304 9.83989C4.40977 9.12979 4.33654 8.38102 4.418 7.6411C4.45887 7.25484 4.62773 6.89334 4.89772 6.61411C5.16772 6.33488 5.52333 6.15395 5.908 6.1001C6.27535 6.02299 6.65827 6.08641 6.98115 6.27784C7.30402 6.46927 7.54339 6.7748 7.652 7.1341C7.734 7.3191 7.804 7.51111 7.872 7.70211C8.072 8.25611 8.222 8.8271 8.46 9.3611C8.60407 9.72638 8.83763 10.0496 9.13923 10.301C9.44082 10.5525 9.80077 10.7241 10.186 10.8001C10.625 10.8945 11.0794 10.8902 11.5165 10.7875C11.9536 10.6848 12.3624 10.4863 12.7134 10.2063C13.0644 9.92631 13.3488 9.57184 13.546 9.16851C13.7433 8.76518 13.8485 8.32306 13.854 7.8741C13.9766 6.40744 13.6326 4.93953 12.871 3.6801V3.6801Z" fill="#444A58"/>
</g>
<defs>
<clipPath id="clip0_449_3769">
<rect width="14" height="14" fill="white"/>
</clipPath>
</defs>
</svg>
