<svg width="14" height="14" viewBox="0 0 14 14" fill="none" xmlns="http://www.w3.org/2000/svg">
<g clip-path="url(#clip0_449_3904)">
<path fill-rule="evenodd" clip-rule="evenodd" d="M8.385 10.5391L13.585 5.53905C13.7938 5.30832 13.9312 5.02195 13.9805 4.71469C14.0298 4.40742 13.9888 4.09245 13.8626 3.808C13.7364 3.52354 13.5304 3.2818 13.2696 3.11212C13.0087 2.94244 12.7042 2.8521 12.393 2.85205H1.611C1.30077 2.85296 0.997416 2.9436 0.737532 3.11304C0.477649 3.28248 0.272328 3.52347 0.146328 3.80697C0.0203283 4.09047 -0.0209707 4.40437 0.0274112 4.71081C0.075793 5.01725 0.21179 5.30316 0.419003 5.53405L5.619 10.5391C5.79426 10.7316 6.0078 10.8855 6.24595 10.9907C6.48411 11.096 6.74162 11.1504 7.002 11.1504C7.26239 11.1504 7.5199 11.096 7.75805 10.9907C7.9962 10.8855 8.20975 10.7316 8.385 10.5391Z" fill="#444A58"/>
</g>
<defs>
<clipPath id="clip0_449_3904">
<rect width="14" height="14" fill="white"/>
</clipPath>
</defs>
</svg>
