<svg width="14" height="14" viewBox="0 0 14 14" fill="none" xmlns="http://www.w3.org/2000/svg">
<g clip-path="url(#clip0_449_3762)">
<path d="M13.737 3.30901L8.1 0.277005C7.76172 0.0956398 7.38384 0.000732422 7 0.000732422C6.61616 0.000732422 6.23828 0.0956398 5.9 0.277005L0.263 3.30901C0.183534 3.35178 0.117127 3.41527 0.0708237 3.49274C0.0245206 3.5702 4.73733e-05 3.65876 0 3.74901L0 4.34901C0 4.48161 0.0526784 4.60879 0.146447 4.70256C0.240215 4.79633 0.367392 4.84901 0.5 4.84901H13.5C13.6326 4.84901 13.7598 4.79633 13.8536 4.70256C13.9473 4.60879 14 4.48161 14 4.34901V3.74901C14 3.65876 13.9755 3.5702 13.9292 3.49274C13.8829 3.41527 13.8165 3.35178 13.737 3.30901V3.30901Z" fill="#444A58"/>
<path d="M7 6.07593C7.26522 6.07593 7.51957 6.18128 7.70711 6.36882C7.89464 6.55636 8 6.81071 8 7.07593V9.57593C8 9.84114 7.89464 10.0955 7.70711 10.283C7.51957 10.4706 7.26522 10.5759 7 10.5759C6.73478 10.5759 6.48043 10.4706 6.29289 10.283C6.10536 10.0955 6 9.84114 6 9.57593V7.07593C6 6.81071 6.10536 6.55636 6.29289 6.36882C6.48043 6.18128 6.73478 6.07593 7 6.07593V6.07593Z" fill="#444A58"/>
<path d="M11.564 6.07593C11.8292 6.07593 12.0836 6.18128 12.2711 6.36882C12.4586 6.55636 12.564 6.81071 12.564 7.07593V9.57593C12.564 9.84114 12.4586 10.0955 12.2711 10.283C12.0836 10.4706 11.8292 10.5759 11.564 10.5759C11.2988 10.5759 11.0444 10.4706 10.8569 10.283C10.6694 10.0955 10.564 9.84114 10.564 9.57593V7.07593C10.564 6.81071 10.6694 6.55636 10.8569 6.36882C11.0444 6.18128 11.2988 6.07593 11.564 6.07593V6.07593Z" fill="#444A58"/>
<path d="M2.43401 6.07593C2.69922 6.07593 2.95358 6.18128 3.14111 6.36882C3.32865 6.55636 3.43401 6.81071 3.43401 7.07593V9.57593C3.43401 9.84114 3.32865 10.0955 3.14111 10.283C2.95358 10.4706 2.69922 10.5759 2.43401 10.5759C2.16879 10.5759 1.91444 10.4706 1.7269 10.283C1.53936 10.0955 1.43401 9.84114 1.43401 9.57593V7.07593C1.43401 6.81071 1.53936 6.55636 1.7269 6.36882C1.91444 6.18128 2.16879 6.07593 2.43401 6.07593V6.07593Z" fill="#444A58"/>
<path d="M12.954 11.908H1.046C0.46831 11.908 0 12.3763 0 12.954C0 13.5316 0.46831 14 1.046 14H12.954C13.5317 14 14 13.5316 14 12.954C14 12.3763 13.5317 11.908 12.954 11.908Z" fill="#444A58"/>
</g>
<defs>
<clipPath id="clip0_449_3762">
<rect width="14" height="14" fill="white"/>
</clipPath>
</defs>
</svg>
