<svg width="14" height="14" viewBox="0 0 14 14" fill="none" xmlns="http://www.w3.org/2000/svg">
<g clip-path="url(#clip0_449_3818)">
<path fill-rule="evenodd" clip-rule="evenodd" d="M12.887 7.51488H11.687L9.674 1.37588C9.59737 1.15147 9.45214 0.956813 9.25884 0.819442C9.06554 0.682072 8.83396 0.608935 8.59682 0.610372C8.35969 0.61181 8.129 0.687748 7.93738 0.827451C7.74576 0.967154 7.6029 1.16355 7.529 1.38888L5.829 8.20488C5.82242 8.23164 5.80737 8.25556 5.78611 8.27308C5.76484 8.2906 5.73849 8.3008 5.71097 8.30214C5.68345 8.30349 5.65623 8.29592 5.63335 8.28056C5.61047 8.2652 5.59317 8.24287 5.584 8.21688L4.134 4.09388C4.07199 3.88112 3.94715 3.69204 3.77585 3.55143C3.60455 3.41082 3.39477 3.32524 3.174 3.30588C2.95204 3.28084 2.72764 3.32231 2.52929 3.42505C2.33094 3.52778 2.1676 3.68714 2.06 3.88288L0.13 7.50688C-0.00172251 7.75229 -0.0354445 8.03854 0.0356395 8.30784C0.106723 8.57714 0.27732 8.80945 0.513 8.95788V8.95788C0.640848 9.03962 0.784225 9.09401 0.934113 9.11765C1.084 9.14129 1.23716 9.13367 1.38396 9.09525C1.53076 9.05684 1.66802 8.98847 1.78712 8.89444C1.90622 8.80041 2.00457 8.68276 2.076 8.54888L2.915 6.99988L4.689 12.5899C4.75939 12.819 4.9008 13.0198 5.0928 13.1632C5.2848 13.3067 5.51744 13.3854 5.7571 13.388C5.99676 13.3905 6.23102 13.3168 6.42604 13.1775C6.62106 13.0382 6.76673 12.8404 6.842 12.6129L8.772 5.54288L9.772 8.85688C9.84413 9.08265 9.98726 9.27909 10.1801 9.41693C10.3729 9.55478 10.605 9.62666 10.842 9.62188H12.888C13.0319 9.63075 13.176 9.61007 13.3116 9.56111C13.4472 9.51215 13.5713 9.43596 13.6763 9.33721C13.7814 9.23847 13.865 9.11927 13.9222 8.98696C13.9794 8.85465 14.009 8.71203 14.009 8.56788C14.009 8.42374 13.9794 8.28112 13.9222 8.14881C13.865 8.01649 13.7814 7.8973 13.6763 7.79855C13.5713 7.69981 13.4472 7.62361 13.3116 7.57466C13.176 7.5257 13.0319 7.50502 12.888 7.51388L12.887 7.51488Z" fill="#444A58"/>
</g>
<defs>
<clipPath id="clip0_449_3818">
<rect width="14" height="14" fill="white"/>
</clipPath>
</defs>
</svg>
