<svg width="14" height="14" viewBox="0 0 14 14" fill="none" xmlns="http://www.w3.org/2000/svg">
<g clip-path="url(#clip0_449_3748)">
<path d="M7 0C3.486 0 0.834999 1.262 0.834999 2.936C0.834999 4.61 3.486 5.871 7 5.871C10.514 5.871 13.165 4.609 13.165 2.936C13.165 1.263 10.514 0 7 0Z" fill="#444A58"/>
<path d="M7 7.73409C4.83962 7.82471 2.69899 7.28998 0.834999 6.19409V7.00009C0.834999 8.67409 3.486 9.93609 7 9.93609C10.514 9.93609 13.165 8.67409 13.165 7.00009V6.19409C11.301 7.28998 9.16038 7.82471 7 7.73409V7.73409Z" fill="#444A58"/>
<path d="M7 11.8001C4.83962 11.8907 2.69899 11.3559 0.834999 10.2601V11.0661C0.834999 12.7381 3.486 14.0001 7 14.0001C10.514 14.0001 13.165 12.7381 13.165 11.0641V10.2581C11.3012 11.3546 9.16057 11.8901 7 11.8001V11.8001Z" fill="#444A58"/>
</g>
<defs>
<clipPath id="clip0_449_3748">
<rect width="14" height="14" fill="white"/>
</clipPath>
</defs>
</svg>
