<svg width="14" height="14" viewBox="0 0 14 14" fill="none" xmlns="http://www.w3.org/2000/svg">
<path d="M8.246 0.774V13.226C8.246 13.6535 8.59253 14 9.02 14H9.021C9.44847 14 9.795 13.6535 9.795 13.226V0.774C9.795 0.346532 9.44847 0 9.021 0H9.02C8.59253 0 8.246 0.346532 8.246 0.774Z" fill="#444A58"/>
<path d="M4.206 0.774L4.206 13.226C4.206 13.6535 4.55253 14 4.98 14H4.981C5.40847 14 5.755 13.6535 5.755 13.226L5.755 0.774C5.755 0.346532 5.40847 0 4.981 0H4.98C4.55253 0 4.206 0.346532 4.206 0.774Z" fill="#444A58"/>
</svg>
