<svg width="14" height="14" viewBox="0 0 14 14" fill="none" xmlns="http://www.w3.org/2000/svg">
<g clip-path="url(#clip0_449_3590)">
<path d="M7 0C5.61553 0 4.26216 0.410543 3.11101 1.17971C1.95987 1.94888 1.06266 3.04213 0.532846 4.32122C0.00303304 5.6003 -0.13559 7.00777 0.134506 8.36563C0.404603 9.7235 1.07129 10.9708 2.05026 11.9497C3.02922 12.9287 4.2765 13.5954 5.63437 13.8655C6.99224 14.1356 8.3997 13.997 9.67879 13.4672C10.9579 12.9373 12.0511 12.0401 12.8203 10.889C13.5895 9.73785 14 8.38447 14 7C14 5.14348 13.2625 3.36301 11.9497 2.05025C10.637 0.737498 8.85652 0 7 0V0ZM11.162 8.1C10.881 8.98185 10.3274 9.75176 9.58082 10.2988C8.83426 10.8459 7.93333 11.1418 7.00779 11.144C6.08226 11.1463 5.17991 10.8546 4.43073 10.3112C3.68155 9.76773 3.12421 9.00049 2.839 8.12C2.77354 7.87269 2.80535 7.6097 2.92789 7.38513C3.05042 7.16057 3.25437 6.9915 3.49776 6.91272C3.74115 6.83394 4.00548 6.85143 4.23636 6.9616C4.46725 7.07177 4.64713 7.26624 4.739 7.505C4.89358 7.98278 5.19593 8.39912 5.60243 8.69395C6.00894 8.98879 6.49858 9.14688 7.00075 9.14544C7.50291 9.14399 7.99164 8.98308 8.39644 8.68591C8.80123 8.38873 9.10118 7.97067 9.253 7.492C9.3335 7.23925 9.5111 7.02882 9.74674 6.90702C9.98238 6.78522 10.2568 6.76201 10.5095 6.8425C10.7623 6.92299 10.9727 7.10059 11.0945 7.33623C11.2163 7.57187 11.2395 7.84625 11.159 8.099L11.162 8.1Z" fill="#444A58"/>
</g>
<defs>
<clipPath id="clip0_449_3590">
<rect width="14" height="14" fill="white"/>
</clipPath>
</defs>
</svg>
