<svg width="14" height="14" viewBox="0 0 14 14" fill="none" xmlns="http://www.w3.org/2000/svg">
<g clip-path="url(#clip0_449_3774)">
<path fill-rule="evenodd" clip-rule="evenodd" d="M1.909 1.27295C1.4027 1.27295 0.91714 1.47408 0.559133 1.83208C0.201126 2.19009 0 2.67565 0 3.18195L0 4.45495H14V3.18195C14 2.93126 13.9506 2.68302 13.8547 2.45141C13.7587 2.2198 13.6181 2.00935 13.4409 1.83208C13.2636 1.65482 13.0532 1.5142 12.8215 1.41826C12.5899 1.32233 12.3417 1.27295 12.091 1.27295H1.909ZM14 5.72695H0V10.8179C0 11.0686 0.0493777 11.3169 0.145314 11.5485C0.24125 11.7801 0.381866 11.9905 0.559133 12.1678C0.7364 12.3451 0.946847 12.4857 1.17846 12.5816C1.41007 12.6776 1.65831 12.7269 1.909 12.7269H12.091C12.3417 12.7269 12.5899 12.6776 12.8215 12.5816C13.0532 12.4857 13.2636 12.3451 13.4409 12.1678C13.6181 11.9905 13.7587 11.7801 13.8547 11.5485C13.9506 11.3169 14 11.0686 14 10.8179V5.72695ZM3.094 10.8999H5.28C5.53516 10.8992 5.77964 10.7974 5.96007 10.617C6.1405 10.4366 6.24221 10.1921 6.243 9.93695V9.93695C6.24247 9.68171 6.14084 9.43707 5.96036 9.25659C5.77988 9.07611 5.53524 8.97448 5.28 8.97395H3.094C2.83876 8.97448 2.59412 9.07611 2.41364 9.25659C2.23316 9.43707 2.13153 9.68171 2.131 9.93695V9.93695C2.13179 10.1921 2.2335 10.4366 2.41393 10.617C2.59436 10.7974 2.83884 10.8992 3.094 10.8999V10.8999Z" fill="#444A58"/>
</g>
<defs>
<clipPath id="clip0_449_3774">
<rect width="14" height="14" fill="white"/>
</clipPath>
</defs>
</svg>
