<svg width="14" height="14" viewBox="0 0 14 14" fill="none" xmlns="http://www.w3.org/2000/svg">
<g clip-path="url(#clip0_449_3814)">
<path d="M14 7C14 5.61553 13.5895 4.26216 12.8203 3.11101C12.0511 1.95987 10.9579 1.06266 9.67878 0.532846C8.3997 0.00303304 6.99223 -0.13559 5.63437 0.134506C4.2765 0.404603 3.02922 1.07129 2.05025 2.05026C1.07128 3.02922 0.404599 4.2765 0.134502 5.63437C-0.135594 6.99224 0.00302923 8.3997 0.532843 9.67879C1.06266 10.9579 1.95986 12.0511 3.11101 12.8203C4.26215 13.5895 5.61553 14 7 14C8.85651 14 10.637 13.2625 11.9497 11.9497C13.2625 10.637 14 8.85652 14 7V7ZM7 11.8C5.78932 11.794 4.62428 11.3373 3.732 10.519L7 7V2.2C8.27182 2.20396 9.49042 2.71094 10.3897 3.61026C11.2891 4.50958 11.796 5.72818 11.8 7V7.023C11.794 8.28406 11.2911 9.49192 10.4004 10.3847C9.50973 11.2774 8.30304 11.7831 7.042 11.792V11.8H7.02H7Z" fill="#444A58"/>
</g>
<defs>
<clipPath id="clip0_449_3814">
<rect width="14" height="14" fill="white"/>
</clipPath>
</defs>
</svg>
