<svg width="14" height="14" viewBox="0 0 14 14" fill="none" xmlns="http://www.w3.org/2000/svg">
<g clip-path="url(#clip0_449_3366)">
<path fill-rule="evenodd" clip-rule="evenodd" d="M1.838 12.579C1.81855 12.8284 1.87052 13.0781 1.98781 13.299C2.1051 13.5199 2.28288 13.7029 2.50034 13.8264C2.7178 13.95 2.96595 14.0091 3.21577 13.9968C3.46558 13.9845 3.70673 13.9013 3.911 13.757L7.084 11.871L10.254 13.757C10.4586 13.9013 10.6999 13.9844 10.9499 13.9967C11.1999 14.009 11.4482 13.9499 11.6659 13.8264C11.8837 13.703 12.0618 13.5201 12.1795 13.2993C12.2973 13.0784 12.3498 12.8286 12.331 12.579V1.75C12.3311 1.52015 12.286 1.29253 12.1981 1.08015C12.1102 0.86777 11.9813 0.674799 11.8187 0.51227C11.6562 0.349742 11.4632 0.220843 11.2509 0.132943C11.0385 0.0450442 10.8109 -0.00013117 10.581 2.86067e-07H3.587C3.35724 2.48512e-07 3.12972 0.0452726 2.91746 0.133231C2.70519 0.221189 2.51234 0.350108 2.34992 0.512624C2.1875 0.67514 2.05869 0.868066 1.97085 1.08038C1.88301 1.29269 1.83787 1.52023 1.838 1.75V12.579Z" fill="#444A58"/>
</g>
<defs>
<clipPath id="clip0_449_3366">
<rect width="14" height="14" fill="white"/>
</clipPath>
</defs>
</svg>
