<svg width="14" height="14" viewBox="0 0 14 14" fill="none" xmlns="http://www.w3.org/2000/svg">
<g clip-path="url(#clip0_449_3624)">
<path d="M14 0.99C14 0.727436 13.8957 0.475625 13.71 0.289964C13.5244 0.104303 13.2726 0 13.01 0H0.99C0.727436 0 0.475625 0.104303 0.289964 0.289964C0.104303 0.475625 0 0.727436 0 0.99L0 3.415C0 3.67756 0.104303 3.92937 0.289964 4.11504C0.475625 4.3007 0.727436 4.405 0.99 4.405H1.447C1.708 4.40263 1.95751 4.29728 2.14122 4.11187C2.32494 3.92647 2.42801 3.67601 2.428 3.415V2.425H5.789V11.575H5.02C4.75899 11.575 4.50853 11.6781 4.32313 11.8618C4.13772 12.0455 4.03237 12.295 4.03 12.556V13.01C4.03 13.2726 4.1343 13.5244 4.31996 13.71C4.50563 13.8957 4.75744 14 5.02 14H8.98C9.11005 14.0001 9.23884 13.9746 9.35901 13.9249C9.47918 13.8752 9.58837 13.8023 9.68033 13.7103C9.77229 13.6184 9.8452 13.5092 9.89491 13.389C9.94461 13.2688 9.97013 13.14 9.97 13.01V12.556C9.96815 12.2948 9.86297 12.045 9.67745 11.8612C9.49193 11.6774 9.24117 11.5745 8.98 11.575H8.211V2.425H11.578V3.415C11.5777 3.67558 11.6803 3.92574 11.8634 4.11111C12.0465 4.29649 12.2954 4.4021 12.556 4.405H13.01C13.2726 4.405 13.5244 4.3007 13.71 4.11504C13.8957 3.92937 14 3.67756 14 3.415V0.99Z" fill="#444A58"/>
</g>
<defs>
<clipPath id="clip0_449_3624">
<rect width="14" height="14" fill="white"/>
</clipPath>
</defs>
</svg>
