<svg width="14" height="14" viewBox="0 0 14 14" fill="none" xmlns="http://www.w3.org/2000/svg">
<g clip-path="url(#clip0_449_3496)">
<path fill-rule="evenodd" clip-rule="evenodd" d="M12.4 5.77508C12.2661 4.56316 11.6955 3.44146 10.7948 2.61957C9.89418 1.79768 8.72508 1.33184 7.506 1.30908C6.57467 1.31939 5.66532 1.59331 4.88325 2.09912C4.10118 2.60493 3.47839 3.32193 3.087 4.16708C2.10142 4.46697 1.25395 5.10631 0.694964 5.97166C0.135974 6.837 -0.0983884 7.87239 0.0334615 8.89411C0.165311 9.91583 0.654848 10.8578 1.41521 11.5529C2.17557 12.248 3.15758 12.6512 4.187 12.6911H10.312C10.8049 12.6829 11.2914 12.5776 11.7437 12.3812C12.1959 12.1848 12.605 11.9012 12.9475 11.5466C13.29 11.192 13.5593 10.7734 13.7399 10.3146C13.9205 9.85588 14.0089 9.36602 14 8.87308C13.9978 8.26687 13.8516 7.66985 13.5734 7.13122C13.2952 6.5926 12.8931 6.12778 12.4 5.77508V5.77508ZM9.283 8.21708H7.761V9.74008C7.761 9.94191 7.68082 10.1355 7.53811 10.2782C7.39539 10.4209 7.20183 10.5011 7 10.5011C6.79817 10.5011 6.6046 10.4209 6.46189 10.2782C6.31917 10.1355 6.239 9.94191 6.239 9.74008V8.21708H4.717C4.51981 8.20994 4.33308 8.12658 4.19611 7.98455C4.05914 7.84252 3.9826 7.6529 3.9826 7.45558C3.9826 7.25827 4.05914 7.06864 4.19611 6.92661C4.33308 6.78459 4.51981 6.70123 4.717 6.69408H6.239V5.17108C6.239 4.96925 6.31917 4.77569 6.46189 4.63297C6.6046 4.49026 6.79817 4.41008 7 4.41008C7.20183 4.41008 7.39539 4.49026 7.53811 4.63297C7.68082 4.77569 7.761 4.96925 7.761 5.17108V6.69408H9.283C9.48018 6.70123 9.66691 6.78459 9.80388 6.92661C9.94086 7.06864 10.0174 7.25827 10.0174 7.45558C10.0174 7.6529 9.94086 7.84252 9.80388 7.98455C9.66691 8.12658 9.48018 8.20994 9.283 8.21708V8.21708Z" fill="#444A58"/>
</g>
<defs>
<clipPath id="clip0_449_3496">
<rect width="14" height="14" fill="white"/>
</clipPath>
</defs>
</svg>
