<svg width="14" height="14" viewBox="0 0 14 14" fill="none" xmlns="http://www.w3.org/2000/svg">
<g clip-path="url(#clip0_449_4016)">
<path d="M8.03899 7.129V6.871L11.916 2.219C12.0806 2.0214 12.1855 1.78098 12.2184 1.52591C12.2512 1.27084 12.2107 1.01168 12.1016 0.778812C11.9924 0.54594 11.8192 0.348997 11.6021 0.211062C11.3851 0.0731273 11.1332 -8.64962e-05 10.876 7.66883e-08H3.12399C2.86681 -8.64962e-05 2.61494 0.0731273 2.39788 0.211062C2.18081 0.348997 2.00756 0.54594 1.89842 0.778812C1.78928 1.01168 1.74877 1.27084 1.78163 1.52591C1.8145 1.78098 1.91938 2.0214 2.08399 2.219L5.96099 6.871V7.129L2.08399 11.781C1.91938 11.9786 1.8145 12.219 1.78163 12.4741C1.74877 12.7292 1.78928 12.9883 1.89842 13.2212C2.00756 13.4541 2.18081 13.651 2.39788 13.7889C2.61494 13.9269 2.86681 14.0001 3.12399 14H10.876C11.1332 14.0001 11.3851 13.9269 11.6021 13.7889C11.8192 13.651 11.9924 13.4541 12.1016 13.2212C12.2107 12.9883 12.2512 12.7292 12.2184 12.4741C12.1855 12.219 12.0806 11.9786 11.916 11.781L8.03899 7.129Z" fill="#444A58"/>
</g>
<defs>
<clipPath id="clip0_449_4016">
<rect width="14" height="14" fill="white"/>
</clipPath>
</defs>
</svg>
