<svg width="14" height="14" viewBox="0 0 14 14" fill="none" xmlns="http://www.w3.org/2000/svg">
<g clip-path="url(#clip0_449_3840)">
<path d="M10.691 8.55192C10.6436 8.51679 10.5874 8.49548 10.5287 8.49037C10.4699 8.48525 10.4109 8.49653 10.3581 8.52295C10.3054 8.54938 10.261 8.5899 10.2299 8.64003C10.1988 8.69017 10.1822 8.74793 10.182 8.80692V10.6819C10.182 11.0195 10.0479 11.3433 9.80915 11.5821C9.57041 11.8208 9.24662 11.9549 8.909 11.9549H1.273C0.935379 11.9549 0.611587 11.8208 0.372853 11.5821C0.134119 11.3433 0 11.0195 0 10.6819L0 3.31792C0 2.9803 0.134119 2.65651 0.372853 2.41777C0.611587 2.17904 0.935379 2.04492 1.273 2.04492H8.909C9.24662 2.04492 9.57041 2.17904 9.80915 2.41777C10.0479 2.65651 10.182 2.9803 10.182 3.31792V5.19292C10.1819 5.25206 10.1982 5.31007 10.2292 5.36043C10.2602 5.41079 10.3047 5.4515 10.3576 5.47799C10.4104 5.50448 10.4697 5.5157 10.5286 5.51039C10.5875 5.50508 10.6437 5.48344 10.691 5.44792L12.982 3.49092C13.0987 3.40439 13.2412 3.35979 13.3863 3.36432C13.5315 3.36886 13.6709 3.42228 13.782 3.51592C13.853 3.57797 13.9092 3.65502 13.9468 3.7415C13.9843 3.82797 14.0021 3.92171 13.999 4.01592V9.99992C13.9991 10.1181 13.9662 10.234 13.9041 10.3346C13.842 10.4351 13.7531 10.5164 13.6474 10.5693C13.5417 10.6221 13.4234 10.6445 13.3056 10.6338C13.1879 10.6232 13.0755 10.5799 12.981 10.5089L10.691 8.55192Z" fill="#444A58"/>
</g>
<defs>
<clipPath id="clip0_449_3840">
<rect width="14" height="14" fill="white"/>
</clipPath>
</defs>
</svg>
