<svg width="14" height="14" viewBox="0 0 14 14" fill="none" xmlns="http://www.w3.org/2000/svg">
<g clip-path="url(#clip0_449_3462)">
<path d="M13.805 9.30612L12.264 7.51612C12.1412 7.39335 12.0438 7.24758 11.9774 7.08715C11.911 6.92671 11.8769 6.75476 11.877 6.58112V5.05812C11.8401 3.80613 11.3321 2.61419 10.4544 1.72058C9.57672 0.826966 8.39412 0.297533 7.143 0.23812C5.86303 0.191315 4.61614 0.65053 3.67228 1.51634C2.72842 2.38215 2.16356 3.58488 2.1 4.86412V6.58112C2.1001 6.75476 2.06598 6.92671 1.99958 7.08715C1.93317 7.24758 1.83579 7.39335 1.713 7.51612L0.199997 9.30612C0.107799 9.39875 0.0450833 9.51661 0.0197539 9.64482C-0.00557558 9.77304 0.00761447 9.90589 0.0576618 10.0266C0.107709 10.1474 0.192374 10.2506 0.300987 10.3233C0.4096 10.396 0.537301 10.4349 0.667997 10.4351H13.338C13.4688 10.4352 13.5967 10.3964 13.7055 10.3237C13.8143 10.251 13.899 10.1477 13.949 10.0268C13.999 9.90589 14.012 9.77288 13.9864 9.64459C13.9608 9.5163 13.8976 9.39851 13.805 9.30612V9.30612Z" fill="#444A58"/>
<path d="M4.45 11.781C4.56284 12.3643 4.88352 12.8868 5.35251 13.2515C5.82149 13.6162 6.40689 13.7983 7 13.764C7.59322 13.7983 8.17876 13.6163 8.64791 13.2516C9.11705 12.8869 9.43794 12.3644 9.551 11.781H4.45Z" fill="#444A58"/>
</g>
<defs>
<clipPath id="clip0_449_3462">
<rect width="14" height="14" fill="white"/>
</clipPath>
</defs>
</svg>
