<svg width="14" height="14" viewBox="0 0 14 14" fill="none" xmlns="http://www.w3.org/2000/svg">
<g clip-path="url(#clip0_449_3963)">
<path fill-rule="evenodd" clip-rule="evenodd" d="M13.613 1.67101C13.0474 1.99784 12.4308 2.22704 11.789 2.34901C11.5165 2.06805 11.19 1.84516 10.8291 1.69375C10.4682 1.54234 10.0804 1.46555 9.689 1.46801C8.93857 1.45839 8.21501 1.74704 7.67726 2.27054C7.13951 2.79404 6.83154 3.50959 6.821 4.26001C6.82195 4.47571 6.84847 4.69054 6.9 4.90001C5.76424 4.84861 4.65143 4.56254 3.63169 4.05981C2.61195 3.55709 1.70739 2.8486 0.975 1.97901C0.720964 2.40184 0.586514 2.88573 0.586 3.37901C0.586888 3.84305 0.704386 4.29943 0.927697 4.70622C1.15101 5.113 1.47297 5.45714 1.864 5.70701C1.40937 5.69372 0.964159 5.5742 0.564 5.35801C0.564 5.36901 0.564 5.38101 0.564 5.39301C0.570609 6.04534 0.803584 6.67513 1.2231 7.17472C1.64262 7.67432 2.22263 8.01269 2.864 8.13201C2.61708 8.19808 2.36261 8.2317 2.107 8.23201C1.92578 8.23237 1.74495 8.21529 1.567 8.18101C1.75869 8.74213 2.11965 9.23 2.60015 9.57744C3.08066 9.92488 3.65707 10.1148 4.25 10.121C3.22524 10.9022 1.97159 11.324 0.683 11.321C0.454658 11.3191 0.226614 11.3041 0 11.276C1.31988 12.099 2.84458 12.5342 4.4 12.532C5.4606 12.5548 6.51514 12.3665 7.50227 11.9779C8.4894 11.5894 9.38939 11.0084 10.1499 10.2688C10.9103 9.52913 11.5161 8.64563 11.932 7.66968C12.3478 6.69373 12.5653 5.64483 12.572 4.58401C12.572 4.46301 12.572 4.34301 12.564 4.22301C13.1251 3.83014 13.6114 3.34009 14 2.77601C13.4747 3.00337 12.9187 3.15197 12.35 3.21701C12.946 2.87356 13.3953 2.32351 13.613 1.67101V1.67101Z" fill="#444A58"/>
</g>
<defs>
<clipPath id="clip0_449_3963">
<rect width="14" height="14" fill="white"/>
</clipPath>
</defs>
</svg>
