<svg width="14" height="14" viewBox="0 0 14 14" fill="none" xmlns="http://www.w3.org/2000/svg">
<g clip-path="url(#clip0_449_3872)">
<path fill-rule="evenodd" clip-rule="evenodd" d="M11.846 1.28613H11.307C11.0929 1.2864 10.8876 1.37164 10.7363 1.52314C10.585 1.67464 10.5 1.88001 10.5 2.09413C10.5 2.09413 10.5 2.10813 10.5 2.11513C10.4945 2.39067 10.3813 2.6531 10.1847 2.84619C9.98804 3.03927 9.72359 3.14766 9.448 3.14813H4.556C4.41742 3.1484 4.28015 3.12133 4.15204 3.06848C4.02393 3.01563 3.9075 2.93803 3.80942 2.84013C3.71133 2.74223 3.63352 2.62595 3.58042 2.49794C3.52733 2.36994 3.5 2.23271 3.5 2.09413V2.09413C3.5 1.88001 3.41501 1.67464 3.2637 1.52314C3.11238 1.37164 2.90712 1.2864 2.693 1.28613H2.154C2.04794 1.28613 1.94292 1.30704 1.84494 1.34766C1.74697 1.38828 1.65796 1.44781 1.58301 1.52285C1.50806 1.59789 1.44864 1.68697 1.40814 1.785C1.36765 1.88303 1.34687 1.98807 1.347 2.09413V13.1941C1.34726 13.408 1.4324 13.613 1.58372 13.7641C1.73503 13.9152 1.94014 14.0001 2.154 14.0001H11.846C11.9521 14.0001 12.0571 13.9792 12.1551 13.9386C12.253 13.898 12.342 13.8385 12.417 13.7634C12.4919 13.6884 12.5514 13.5993 12.5919 13.5013C12.6324 13.4032 12.6531 13.2982 12.653 13.1921V2.09413C12.6531 1.98807 12.6324 1.88303 12.5919 1.785C12.5514 1.68697 12.4919 1.59789 12.417 1.52285C12.342 1.44781 12.253 1.38828 12.1551 1.34766C12.0571 1.30704 11.9521 1.28613 11.846 1.28613V1.28613ZM8.615 9.96213H5.385C5.27657 9.96595 5.16848 9.94789 5.06717 9.90903C4.96587 9.87016 4.87343 9.8113 4.79537 9.73594C4.71732 9.66058 4.65523 9.57027 4.61283 9.47039C4.57043 9.37052 4.54858 9.26313 4.54858 9.15463C4.54858 9.04613 4.57043 8.93874 4.61283 8.83887C4.65523 8.739 4.71732 8.64869 4.79537 8.57333C4.87343 8.49797 4.96587 8.4391 5.06717 8.40024C5.16848 8.36138 5.27657 8.34332 5.385 8.34713H8.615C8.72343 8.34332 8.83153 8.36138 8.93283 8.40024C9.03413 8.4391 9.12657 8.49797 9.20463 8.57333C9.28268 8.64869 9.34477 8.739 9.38717 8.83887C9.42957 8.93874 9.45142 9.04613 9.45142 9.15463C9.45142 9.26313 9.42957 9.37052 9.38717 9.47039C9.34477 9.57027 9.28268 9.66058 9.20463 9.73594C9.12657 9.8113 9.03413 9.87016 8.93283 9.90903C8.83153 9.94789 8.72343 9.96595 8.615 9.96213V9.96213ZM8.615 6.73113H5.385C5.27657 6.73495 5.16848 6.71689 5.06717 6.67803C4.96587 6.63916 4.87343 6.5803 4.79537 6.50494C4.71732 6.42958 4.65523 6.33927 4.61283 6.2394C4.57043 6.13952 4.54858 6.03213 4.54858 5.92363C4.54858 5.81513 4.57043 5.70774 4.61283 5.60787C4.65523 5.508 4.71732 5.41769 4.79537 5.34233C4.87343 5.26697 4.96587 5.2081 5.06717 5.16924C5.16848 5.13038 5.27657 5.11232 5.385 5.11613H8.615C8.72343 5.11232 8.83153 5.13038 8.93283 5.16924C9.03413 5.2081 9.12657 5.26697 9.20463 5.34233C9.28268 5.41769 9.34477 5.508 9.38717 5.60787C9.42957 5.70774 9.45142 5.81513 9.45142 5.92363C9.45142 6.03213 9.42957 6.13952 9.38717 6.2394C9.34477 6.33927 9.28268 6.42958 9.20463 6.50494C9.12657 6.5803 9.03413 6.63916 8.93283 6.67803C8.83153 6.71689 8.72343 6.73495 8.615 6.73113V6.73113Z" fill="#444A58"/>
<path fill-rule="evenodd" clip-rule="evenodd" d="M5.385 1.61501H8.615C8.72343 1.61883 8.83153 1.60077 8.93283 1.5619C9.03413 1.52304 9.12657 1.46418 9.20463 1.38882C9.28268 1.31346 9.34477 1.22315 9.38717 1.12327C9.42957 1.0234 9.45142 0.916012 9.45142 0.807512C9.45142 0.699011 9.42957 0.591622 9.38717 0.49175C9.34477 0.391878 9.28268 0.301568 9.20463 0.226208C9.12657 0.150848 9.03413 0.0919812 8.93283 0.053119C8.83153 0.0142568 8.72343 -0.0038047 8.615 1.17474e-05H5.385C5.27657 -0.0038047 5.16848 0.0142568 5.06717 0.053119C4.96587 0.0919812 4.87343 0.150848 4.79537 0.226208C4.71732 0.301568 4.65523 0.391878 4.61283 0.49175C4.57043 0.591622 4.54858 0.699011 4.54858 0.807512C4.54858 0.916012 4.57043 1.0234 4.61283 1.12327C4.65523 1.22315 4.71732 1.31346 4.79537 1.38882C4.87343 1.46418 4.96587 1.52304 5.06717 1.5619C5.16848 1.60077 5.27657 1.61883 5.385 1.61501V1.61501Z" fill="#444A58"/>
</g>
<defs>
<clipPath id="clip0_449_3872">
<rect width="14" height="14" fill="white"/>
</clipPath>
</defs>
</svg>
