<svg width="14" height="14" viewBox="0 0 14 14" fill="none" xmlns="http://www.w3.org/2000/svg">
<g clip-path="url(#clip0_449_3440)">
<path fill-rule="evenodd" clip-rule="evenodd" d="M4.869 1.92212H9.12C9.7648 1.92412 10.4025 2.05693 10.9945 2.31253C11.5864 2.56812 12.1204 2.94118 12.564 3.40912C13.4861 4.37664 13.9979 5.66357 13.992 7.00012C14.0188 8.31942 13.5207 9.59539 12.6071 10.5476C11.6935 11.4998 10.4393 12.0503 9.12 12.0781H4.869C3.54893 12.0513 2.29355 11.5013 1.37896 10.549C0.464373 9.59676 -0.0345214 8.3202 -0.00799663 7.00012C-0.0342548 5.68012 0.464727 4.40371 1.37926 3.45149C2.29379 2.49926 3.54902 1.94916 4.869 1.92212V1.92212ZM8.576 6.94312C8.5766 7.58524 8.38673 8.21312 8.03041 8.74732C7.6741 9.28151 7.16735 9.69803 6.57427 9.94417C5.9812 10.1903 5.32844 10.255 4.69858 10.1301C4.06872 10.0052 3.49006 9.69629 3.0358 9.24245C2.58154 8.78861 2.27209 8.21023 2.1466 7.58049C2.0211 6.95074 2.08521 6.29793 2.3308 5.70462C2.5764 5.11132 2.99244 4.60419 3.52631 4.24738C4.06018 3.89057 4.68788 3.70012 5.33 3.70012C6.19046 3.69985 7.01579 4.04135 7.6245 4.6495C8.23322 5.25765 8.57547 6.08266 8.576 6.94312Z" fill="#444A58"/>
</g>
<defs>
<clipPath id="clip0_449_3440">
<rect width="14" height="14" fill="white"/>
</clipPath>
</defs>
</svg>
