<svg width="14" height="14" viewBox="0 0 14 14" fill="none" xmlns="http://www.w3.org/2000/svg">
<g clip-path="url(#clip0_449_3584)">
<path fill-rule="evenodd" clip-rule="evenodd" d="M0 6.1741V12.1001C0 12.4449 0.136964 12.7755 0.380761 13.0193C0.624558 13.2631 0.955219 13.4001 1.3 13.4001H12.7C13.0448 13.4001 13.3754 13.2631 13.6192 13.0193C13.863 12.7755 14 12.4449 14 12.1001V6.1741C13.9998 5.97271 13.9528 5.77411 13.8628 5.59398C13.7727 5.41384 13.642 5.2571 13.481 5.1361L7.78 0.859104C7.55516 0.690808 7.28185 0.599854 7.001 0.599854C6.72015 0.599854 6.44685 0.690808 6.222 0.859104L0.519 5.1361C0.357999 5.2571 0.227311 5.41384 0.137244 5.59398C0.0471768 5.77411 0.000193604 5.97271 0 6.1741H0ZM7 8.5881L2.917 5.5251L6.222 3.0471C6.44685 2.87881 6.72015 2.78785 7.001 2.78785C7.28185 2.78785 7.55516 2.87881 7.78 3.0471L11.08 5.5251L7 8.5881Z" fill="#444A58"/>
</g>
<defs>
<clipPath id="clip0_449_3584">
<rect width="14" height="14" fill="white"/>
</clipPath>
</defs>
</svg>
