<svg width="14" height="14" viewBox="0 0 14 14" fill="none" xmlns="http://www.w3.org/2000/svg">
<g clip-path="url(#clip0_449_3446)">
<path d="M9.149 0H4.849C3.56336 0.00185229 2.33092 0.51346 1.42193 1.42264C0.51294 2.33182 0.00158718 3.56436 0 4.85L0 9.15C0.00158826 10.436 0.513216 11.6688 1.42264 12.5781C2.33206 13.4873 3.56501 13.9987 4.851 14H9.151C10.4366 13.9981 11.6691 13.4865 12.5781 12.5774C13.4871 11.6682 13.9984 10.4356 14 9.15V4.85C13.9984 3.56401 13.4868 2.33117 12.5774 1.42193C11.6679 0.512697 10.435 0.00132314 9.149 0V0ZM11.037 5.534L6.562 10.009C6.45278 10.1183 6.32309 10.2051 6.18033 10.2642C6.03756 10.3234 5.88454 10.3539 5.73 10.3539C5.57546 10.3539 5.42244 10.3234 5.27968 10.2642C5.13691 10.2051 5.00722 10.1183 4.898 10.009L2.963 8.074C2.75983 7.86573 2.64691 7.58579 2.64872 7.29484C2.65052 7.00389 2.7669 6.72537 2.97264 6.51964C3.17837 6.3139 3.45689 6.19752 3.74784 6.19572C4.03879 6.19391 4.31873 6.30683 4.527 6.51L5.627 7.61C5.64094 7.62406 5.65753 7.63522 5.67581 7.64283C5.69409 7.65045 5.7137 7.65437 5.7335 7.65437C5.7533 7.65437 5.77291 7.65045 5.79119 7.64283C5.80947 7.63522 5.82606 7.62406 5.84 7.61L9.473 3.97C9.57523 3.86521 9.69724 3.78175 9.83197 3.72447C9.96669 3.6672 10.1114 3.63723 10.2578 3.63633C10.4042 3.63542 10.5493 3.66358 10.6848 3.71919C10.8202 3.77479 10.9432 3.85673 11.0468 3.96024C11.1503 4.06376 11.2322 4.1868 11.2878 4.32223C11.3434 4.45765 11.3716 4.60277 11.3707 4.74916C11.3698 4.89555 11.3398 5.04031 11.2825 5.17503C11.2252 5.30976 11.1418 5.43177 11.037 5.534V5.534Z" fill="#444A58"/>
</g>
<defs>
<clipPath id="clip0_449_3446">
<rect width="14" height="14" fill="white"/>
</clipPath>
</defs>
</svg>
