<svg width="14" height="14" viewBox="0 0 14 14" fill="none" xmlns="http://www.w3.org/2000/svg">
<g clip-path="url(#clip0_449_3900)">
<path fill-rule="evenodd" clip-rule="evenodd" d="M7.179 11.128L10.26 8.083L1.066 8.041C0.925316 8.04047 0.786116 8.01221 0.656368 7.95783C0.526619 7.90344 0.408868 7.82401 0.309855 7.72407C0.210841 7.62412 0.132508 7.50564 0.0793395 7.37539C0.0261708 7.24513 -0.000790162 7.10568 -3.00539e-07 6.965V6.965C0.000654494 6.8244 0.029013 6.6853 0.0834542 6.55567C0.137895 6.42604 0.217352 6.3084 0.317281 6.2095C0.41721 6.11059 0.535653 6.03235 0.665839 5.97924C0.796025 5.92613 0.935401 5.89921 1.076 5.9L10.268 5.941L7.228 2.865C7.12892 2.76523 7.05047 2.64691 6.99714 2.51681C6.94381 2.3867 6.91665 2.24736 6.9172 2.10675C6.91776 1.96614 6.94603 1.82702 7.00039 1.69734C7.05474 1.56767 7.13413 1.44997 7.234 1.351V1.351C7.43592 1.1512 7.70889 1.03971 7.99295 1.04103C8.27701 1.04234 8.54893 1.15634 8.749 1.358L13.749 6.407C13.9129 6.57276 14.0042 6.79684 14.0029 7.02994C14.0016 7.26305 13.9077 7.48608 13.742 7.65L8.689 12.65C8.48725 12.8497 8.21445 12.9612 7.93055 12.9599C7.64666 12.9586 7.3749 12.8446 7.175 12.643V12.643C7.07575 12.5433 6.99713 12.425 6.94361 12.2949C6.8901 12.1647 6.86275 12.0254 6.86312 11.8847C6.86349 11.744 6.89158 11.6047 6.94578 11.4749C6.99998 11.3451 7.07923 11.2272 7.179 11.128V11.128Z" fill="#444A58"/>
</g>
<defs>
<clipPath id="clip0_449_3900">
<rect width="14" height="14" fill="white"/>
</clipPath>
</defs>
</svg>
