<svg width="14" height="14" viewBox="0 0 14 14" fill="none" xmlns="http://www.w3.org/2000/svg">
<path fill-rule="evenodd" clip-rule="evenodd" d="M0.100003 6.76395L4.385 2.47795C4.43152 2.43122 4.49086 2.39936 4.5555 2.38639C4.62014 2.37342 4.68718 2.37993 4.74812 2.4051C4.80906 2.43027 4.86115 2.47296 4.89781 2.52776C4.93446 2.58257 4.95402 2.64702 4.954 2.71295V11.287C4.95402 11.3529 4.93446 11.4173 4.89781 11.4721C4.86115 11.5269 4.80906 11.5696 4.74812 11.5948C4.68718 11.62 4.62014 11.6265 4.5555 11.6135C4.49086 11.6005 4.43152 11.5687 4.385 11.522L0.100003 7.23595C0.0374717 7.17333 0.00234985 7.08845 0.00234985 6.99995C0.00234985 6.91145 0.0374717 6.82657 0.100003 6.76395ZM13.9 7.23595L9.616 11.522C9.56949 11.5687 9.51015 11.6005 9.44551 11.6135C9.38086 11.6265 9.31383 11.62 9.25289 11.5948C9.19195 11.5696 9.13985 11.5269 9.1032 11.4721C9.06655 11.4173 9.04699 11.3529 9.047 11.287V2.71295C9.04699 2.64702 9.06655 2.58257 9.1032 2.52776C9.13985 2.47296 9.19195 2.43027 9.25289 2.4051C9.31383 2.37993 9.38086 2.37342 9.44551 2.38639C9.51015 2.39936 9.56949 2.43122 9.616 2.47795L13.9 6.76395C13.9625 6.82657 13.9977 6.91145 13.9977 6.99995C13.9977 7.08845 13.9625 7.17333 13.9 7.23595V7.23595Z" fill="#444A58"/>
</svg>
