<svg width="14" height="14" viewBox="0 0 14 14" fill="none" xmlns="http://www.w3.org/2000/svg">
<g clip-path="url(#clip0_449_3635)">
<path d="M12.99 1.20898H1.01C0.744251 1.21026 0.489604 1.31572 0.300756 1.5027C0.111908 1.68968 0.00392479 1.94326 4.95094e-07 2.20898V2.61598C-0.000130892 2.74875 0.0258893 2.88024 0.0765755 3.00295C0.127262 3.12566 0.201621 3.23719 0.295408 3.33116C0.389195 3.42514 0.500574 3.49972 0.623184 3.55064C0.745793 3.60157 0.877234 3.62785 1.01 3.62798H12.99C13.2576 3.62772 13.5142 3.52136 13.7035 3.33222C13.8929 3.14309 13.9995 2.8866 14 2.61898V2.21098C13.9966 1.94491 13.8888 1.69082 13.6999 1.50341C13.511 1.316 13.2561 1.21027 12.99 1.20898V1.20898Z" fill="#444A58"/>
<path d="M12.99 5.79004H1.01C0.744251 5.79132 0.489603 5.89677 0.300756 6.08375C0.111908 6.27073 0.00392429 6.52432 0 6.79004L0 7.20004C0.000264743 7.46783 0.10676 7.72457 0.296115 7.91392C0.485469 8.10328 0.742213 8.20977 1.01 8.21004H12.99C13.2578 8.20977 13.5145 8.10328 13.7039 7.91392C13.8932 7.72457 13.9997 7.46783 14 7.20004V6.79204C13.9966 6.52597 13.8888 6.27187 13.6999 6.08447C13.511 5.89706 13.2561 5.79133 12.99 5.79004V5.79004Z" fill="#444A58"/>
<path d="M9.742 10.3721H4.258C3.99208 10.3731 3.73718 10.4784 3.54811 10.6654C3.35905 10.8524 3.25093 11.1062 3.247 11.3721V11.7781C3.24727 12.046 3.3539 12.3029 3.54347 12.4923C3.73304 12.6817 3.99004 12.7881 4.258 12.7881H9.742C10.01 12.7881 10.267 12.6817 10.4565 12.4923C10.6461 12.3029 10.7527 12.046 10.753 11.7781V11.3711C10.7488 11.1053 10.6406 10.8519 10.4515 10.6651C10.2625 10.4783 10.0078 10.3731 9.742 10.3721V10.3721Z" fill="#444A58"/>
</g>
<defs>
<clipPath id="clip0_449_3635">
<rect width="14" height="14" fill="white"/>
</clipPath>
</defs>
</svg>
