<svg width="14" height="14" viewBox="0 0 14 14" fill="none" xmlns="http://www.w3.org/2000/svg">
<g clip-path="url(#clip0_449_3985)">
<path d="M12.281 4.74301C11.7929 5.04199 11.3962 5.46903 11.1338 5.97773C10.8715 6.48642 10.7536 7.0573 10.7929 7.6283C10.8323 8.19931 11.0275 8.7486 11.3572 9.21646C11.6869 9.68432 12.1385 10.0529 12.663 10.282C12.607 10.44 12.555 10.604 12.492 10.764C12.134 11.6467 11.6318 12.4639 11.006 13.182C10.7413 13.5723 10.3379 13.8472 9.87785 13.9508C9.41777 14.0545 8.9355 13.9791 8.529 13.74C8.12468 13.5405 7.67986 13.4367 7.229 13.4367C6.77814 13.4367 6.33332 13.5405 5.929 13.74C5.79877 13.7985 5.6652 13.8492 5.529 13.892C5.2474 14.0029 4.94006 14.0313 4.64291 13.9739C4.34576 13.9165 4.07109 13.7757 3.851 13.568C3.19908 12.967 2.66348 12.2511 2.271 11.456C1.51016 10.0739 1.16857 8.50012 1.288 6.92701C1.32863 6.17234 1.59413 5.44709 2.05035 4.84456C2.50657 4.24203 3.13263 3.78978 3.848 3.54601C4.48956 3.34188 5.18215 3.36734 5.807 3.61801C7.207 4.16201 6.929 4.11801 8.296 3.61801C8.90808 3.35954 9.58349 3.29009 10.2354 3.41857C10.8872 3.54706 11.4858 3.86761 11.954 4.33901C12.0361 4.42217 12.1126 4.5107 12.183 4.60401C12.219 4.64601 12.248 4.70001 12.281 4.74301Z" fill="#444A58"/>
<path d="M9.731 0C9.77083 0.392906 9.73026 0.789808 9.61178 1.16653C9.4933 1.54326 9.29937 1.89193 9.04181 2.19131C8.78426 2.49068 8.46846 2.7345 8.11365 2.90791C7.75884 3.08133 7.37245 3.18071 6.978 3.2C6.594 1.909 8.216 0.013 9.731 0Z" fill="#444A58"/>
</g>
<defs>
<clipPath id="clip0_449_3985">
<rect width="14" height="14" fill="white"/>
</clipPath>
</defs>
</svg>
