<svg width="14" height="14" viewBox="0 0 14 14" fill="none" xmlns="http://www.w3.org/2000/svg">
<g clip-path="url(#clip0_449_3448)">
<path d="M13.739 0.260965C13.5705 0.0939469 13.3428 0.000244141 13.1055 0.000244141C12.8682 0.000244141 12.6405 0.0939469 12.472 0.260965L0.261 12.472C0.11852 12.6446 0.0454909 12.8642 0.0561686 13.0878C0.0668464 13.3113 0.160464 13.5229 0.318748 13.6812C0.477032 13.8395 0.688621 13.9331 0.912213 13.9438C1.13581 13.9545 1.35535 13.8814 1.528 13.739L2.145 13.122C2.31185 13.3973 2.5486 13.6235 2.8312 13.7778C3.1138 13.932 3.43218 14.0086 3.754 14H11.026C11.2532 14.0137 11.4809 13.9821 11.6957 13.9071C11.9106 13.832 12.1084 13.7149 12.2776 13.5627C12.4468 13.4104 12.584 13.226 12.6812 13.0202C12.7785 12.8144 12.8338 12.5913 12.844 12.364V6.63697C12.8376 6.30532 12.7295 5.98363 12.5344 5.71537C12.3393 5.44712 12.0665 5.24522 11.753 5.13697V4.36297C11.7517 4.1035 11.7262 3.84472 11.677 3.58996L13.739 1.52797C13.906 1.35942 13.9997 1.13174 13.9997 0.894465C13.9997 0.657186 13.906 0.429507 13.739 0.260965V0.260965Z" fill="#444A58"/>
<path d="M5.209 5V4.363C5.20979 3.78481 5.43983 3.23052 5.84868 2.82168C6.25752 2.41283 6.81181 2.18279 7.39 2.182C7.58572 2.18468 7.78017 2.21395 7.968 2.269L9.61 0.628C8.9408 0.220864 8.17331 0.00375559 7.39 0C6.23327 0.00132334 5.12429 0.46142 4.30635 1.27935C3.48842 2.09729 3.02832 3.20627 3.027 4.363V5.134C2.71361 5.2425 2.44101 5.44446 2.24594 5.71267C2.05086 5.98087 1.94269 6.30243 1.936 6.634V8.3L5.237 5H5.209Z" fill="#444A58"/>
</g>
<defs>
<clipPath id="clip0_449_3448">
<rect width="14" height="14" fill="white"/>
</clipPath>
</defs>
</svg>
