<svg width="14" height="14" viewBox="0 0 14 14" fill="none" xmlns="http://www.w3.org/2000/svg">
<g clip-path="url(#clip0_449_3426)">
<path d="M13.177 4.77208L9.585 4.39108L7.831 0.688077C7.75633 0.530903 7.63863 0.398127 7.49154 0.305158C7.34445 0.21219 7.17401 0.162842 7 0.162842C6.82599 0.162842 6.65555 0.21219 6.50846 0.305158C6.36137 0.398127 6.24367 0.530903 6.169 0.688077L4.415 4.38808L0.823 4.77208C0.641889 4.79031 0.470272 4.86192 0.329912 4.97782C0.189552 5.09372 0.0867715 5.24869 0.0346042 5.42308C-0.0175631 5.59747 -0.0167671 5.78342 0.0368911 5.95736C0.0905493 6.1313 0.194653 6.28538 0.336 6.40008L3.2 8.75508L2.31 12.7141C2.27072 12.8901 2.28404 13.0738 2.3483 13.2423C2.41256 13.4108 2.52493 13.5567 2.67143 13.6618C2.81793 13.767 2.99211 13.8268 3.17232 13.8338C3.35252 13.8407 3.5308 13.7946 3.685 13.7011L7 11.6861L10.315 13.7001C10.4692 13.7936 10.6475 13.8397 10.8277 13.8328C11.0079 13.8258 11.1821 13.766 11.3286 13.6608C11.4751 13.5557 11.5874 13.4098 11.6517 13.2413C11.716 13.0728 11.7293 12.8891 11.69 12.7131L10.8 8.75508L13.664 6.40008C13.8053 6.28538 13.9095 6.1313 13.9631 5.95736C14.0168 5.78342 14.0176 5.59747 13.9654 5.42308C13.9132 5.24869 13.8104 5.09372 13.6701 4.97782C13.5297 4.86192 13.3581 4.79031 13.177 4.77208V4.77208ZM9.08 7.71408C9.00664 7.77468 8.95147 7.8544 8.92059 7.9444C8.8897 8.03441 8.88431 8.1312 8.905 8.22408L9.467 10.7311L7.267 9.53108C7.18696 9.48068 7.09457 9.45334 7 9.45208C6.90565 9.45226 6.81308 9.47782 6.732 9.52608L4.532 10.7311L5.1 8.22408C5.12069 8.1312 5.1153 8.03441 5.08441 7.9444C5.05353 7.8544 4.99836 7.77468 4.925 7.71408L3.11 6.22108L5.418 5.86108C5.50577 5.85123 5.5896 5.81928 5.66166 5.76821C5.73372 5.71714 5.79164 5.64863 5.83 5.56908L6.94 3.22508L8.171 5.56908C8.20904 5.64867 8.26675 5.71724 8.33866 5.76834C8.41057 5.81943 8.49432 5.85135 8.582 5.86108L10.856 6.10208L9.08 7.71408Z" fill="#444A58"/>
</g>
<defs>
<clipPath id="clip0_449_3426">
<rect width="14" height="14" fill="white"/>
</clipPath>
</defs>
</svg>
