<svg width="14" height="14" viewBox="0 0 14 14" fill="none" xmlns="http://www.w3.org/2000/svg">
<g clip-path="url(#clip0_449_3524)">
<path fill-rule="evenodd" clip-rule="evenodd" d="M5.25 12.25C5.25 12.5961 5.35264 12.9345 5.54493 13.2222C5.73722 13.51 6.01053 13.7343 6.3303 13.8668C6.65007 13.9992 7.00194 14.0339 7.34141 13.9664C7.68087 13.8989 7.9927 13.7322 8.23744 13.4874C8.48218 13.2427 8.64885 12.9309 8.71637 12.5914C8.7839 12.2519 8.74924 11.9001 8.61679 11.5803C8.48434 11.2605 8.26003 10.9872 7.97225 10.7949C7.68446 10.6026 7.34612 10.5 7 10.5C6.77015 10.4999 6.54253 10.545 6.33015 10.6329C6.11777 10.7208 5.9248 10.8497 5.76227 11.0123C5.59974 11.1748 5.47084 11.3678 5.38294 11.5801C5.29504 11.7925 5.24987 12.0201 5.25 12.25V12.25ZM5.25 7C5.25 7.34612 5.35264 7.68446 5.54493 7.97225C5.73722 8.26003 6.01053 8.48434 6.3303 8.61679C6.65007 8.74924 7.00194 8.7839 7.34141 8.71637C7.68087 8.64885 7.9927 8.48218 8.23744 8.23744C8.48218 7.9927 8.64885 7.68088 8.71637 7.34141C8.7839 7.00194 8.74924 6.65008 8.61679 6.3303C8.48434 6.01053 8.26003 5.73722 7.97225 5.54493C7.68446 5.35264 7.34612 5.25 7 5.25C6.77015 5.24987 6.54253 5.29504 6.33015 5.38294C6.11777 5.47084 5.9248 5.59974 5.76227 5.76227C5.59974 5.9248 5.47084 6.11777 5.38294 6.33015C5.29504 6.54253 5.24987 6.77015 5.25 7V7ZM5.25 1.75C5.25 2.09612 5.35264 2.43446 5.54493 2.72225C5.73722 3.01003 6.01053 3.23434 6.3303 3.36679C6.65007 3.49924 7.00194 3.5339 7.34141 3.46637C7.68087 3.39885 7.9927 3.23218 8.23744 2.98744C8.48218 2.7427 8.64885 2.43088 8.71637 2.09141C8.7839 1.75194 8.74924 1.40007 8.61679 1.0803C8.48434 0.760534 8.26003 0.487221 7.97225 0.294928C7.68446 0.102636 7.34612 2.86067e-07 7 2.86067e-07C6.77015 -0.00013117 6.54253 0.0450442 6.33015 0.132943C6.11777 0.220843 5.9248 0.349742 5.76227 0.51227C5.59974 0.674799 5.47084 0.86777 5.38294 1.08015C5.29504 1.29253 5.24987 1.52015 5.25 1.75V1.75Z" fill="#444A58"/>
</g>
<defs>
<clipPath id="clip0_449_3524">
<rect width="14" height="14" fill="white"/>
</clipPath>
</defs>
</svg>
