<svg width="14" height="14" viewBox="0 0 14 14" fill="none" xmlns="http://www.w3.org/2000/svg">
<g clip-path="url(#clip0_449_3888)">
<path fill-rule="evenodd" clip-rule="evenodd" d="M1.469 2.9999C1.85353 2.99663 2.22494 3.13962 2.508 3.3999L7.008 7.6469L11.5 3.4049C11.7827 3.14438 12.1531 2.99976 12.5375 2.99976C12.9219 2.99976 13.2923 3.14438 13.575 3.4049C13.7107 3.52966 13.819 3.68122 13.8931 3.84999C13.9672 4.01877 14.0054 4.20108 14.0054 4.3854C14.0054 4.56972 13.9672 4.75203 13.8931 4.92081C13.819 5.08958 13.7107 5.24114 13.575 5.3659L8.04 10.5929C7.75828 10.8546 7.38801 11 7.0035 11C6.619 11 6.24872 10.8546 5.967 10.5929L0.434003 5.3659C0.298053 5.2413 0.1895 5.08979 0.115237 4.921C0.0409738 4.7522 0.00262451 4.56981 0.00262451 4.3854C0.00262451 4.20099 0.0409738 4.01859 0.115237 3.8498C0.1895 3.681 0.298053 3.5295 0.434003 3.4049C0.714967 3.14322 1.08506 2.9984 1.469 2.9999" fill="#444A58"/>
</g>
<defs>
<clipPath id="clip0_449_3888">
<rect width="14" height="14" fill="white"/>
</clipPath>
</defs>
</svg>
