<svg width="14" height="14" viewBox="0 0 14 14" fill="none" xmlns="http://www.w3.org/2000/svg">
<g clip-path="url(#clip0_449_3592)">
<path fill-rule="evenodd" clip-rule="evenodd" d="M1.866 5.02006C1.94941 5.23077 2.07991 5.41961 2.24752 5.57213C2.41512 5.72466 2.61539 5.83683 2.833 5.90006L7.619 7.00006L2.878 8.03906C2.65537 8.09999 2.44995 8.21183 2.27796 8.36577C2.10598 8.51971 1.97213 8.71152 1.887 8.92606L0.749 12.9001C0.686736 13.0542 0.674058 13.224 0.712729 13.3857C0.7514 13.5474 0.839498 13.6931 0.964775 13.8024C1.09005 13.9117 1.24628 13.9793 1.41174 13.9957C1.5772 14.0122 1.74367 13.9766 1.888 13.8941L12.9 7.70006C13.025 7.63088 13.1293 7.52947 13.2018 7.40637C13.2744 7.28326 13.3127 7.14297 13.3127 7.00006C13.3127 6.85716 13.2744 6.71687 13.2018 6.59376C13.1293 6.47066 13.025 6.36925 12.9 6.30006L1.888 0.106065C1.74367 0.0235078 1.5772 -0.0120258 1.41174 0.00440419C1.24628 0.0208342 1.09005 0.0884113 0.964775 0.19774C0.839498 0.307068 0.7514 0.452715 0.712729 0.614429C0.674058 0.776143 0.686736 0.945889 0.749 1.10006L1.866 5.02006Z" fill="#444A58"/>
</g>
<defs>
<clipPath id="clip0_449_3592">
<rect width="14" height="14" fill="white"/>
</clipPath>
</defs>
</svg>
