<svg width="14" height="14" viewBox="0 0 14 14" fill="none" xmlns="http://www.w3.org/2000/svg">
<g clip-path="url(#clip0_449_3791)">
<path d="M12.6 3.287C12.6 2.54784 12.3064 1.83896 11.7837 1.31629C11.261 0.793629 10.5522 0.5 9.813 0.5H2.787C2.04784 0.5 1.33896 0.793629 0.816293 1.31629C0.29363 1.83896 0 2.54784 0 3.287L0 11.62C0.00527874 12.122 0.20902 12.6015 0.566714 12.9538C0.924408 13.306 1.40698 13.5024 1.909 13.5H12.727C12.8929 13.5013 13.0575 13.4699 13.2113 13.4076C13.3651 13.3453 13.5051 13.2533 13.6234 13.1368C13.7416 13.0203 13.8357 12.8817 13.9003 12.7289C13.965 12.576 13.9988 12.4119 14 12.246V4.681C13.9751 4.31849 13.8194 3.97735 13.5619 3.72096C13.3044 3.46457 12.9626 3.31037 12.6 3.287V3.287ZM1.4 3.287V3.06C1.4 2.90679 1.43019 2.75509 1.48885 2.61356C1.54751 2.47203 1.63349 2.34345 1.74187 2.23516C1.85025 2.12687 1.9789 2.04101 2.12048 1.98247C2.26207 1.92393 2.41379 1.89387 2.567 1.894H10.033C10.1862 1.89387 10.3379 1.92393 10.4795 1.98247C10.6211 2.04101 10.7498 2.12687 10.8581 2.23516C10.9665 2.34345 11.0525 2.47203 11.1111 2.61356C11.1698 2.75509 11.2 2.90679 11.2 3.06V3.287H1.4ZM10.075 9.687C9.80214 9.68581 9.53573 9.60388 9.30936 9.45152C9.083 9.29917 8.90679 9.08321 8.80297 8.83087C8.69914 8.57854 8.67233 8.30111 8.72593 8.03356C8.77953 7.76601 8.91113 7.52031 9.10414 7.32744C9.29715 7.13456 9.54294 7.00314 9.81053 6.94974C10.0781 6.89634 10.3555 6.92334 10.6078 7.02735C10.8601 7.13136 11.0759 7.30772 11.2281 7.53419C11.3803 7.76067 11.462 8.02714 11.463 8.3C11.4629 8.4821 11.4269 8.66238 11.357 8.83055C11.2872 8.99873 11.1849 9.15149 11.056 9.28011C10.9271 9.40873 10.7741 9.51069 10.6058 9.58017C10.4375 9.64964 10.2571 9.68526 10.075 9.685V9.687Z" fill="#444A58"/>
</g>
<defs>
<clipPath id="clip0_449_3791">
<rect width="14" height="14" fill="white"/>
</clipPath>
</defs>
</svg>
