<svg width="14" height="14" viewBox="0 0 14 14" fill="none" xmlns="http://www.w3.org/2000/svg">
<g clip-path="url(#clip0_449_3562)">
<path d="M5.103 0.00292969H0.497C0.222514 0.00292969 0 0.225444 0 0.49993V5.10593C0 5.38042 0.222514 5.60293 0.497 5.60293H5.103C5.37749 5.60293 5.6 5.38042 5.6 5.10593V0.49993C5.6 0.225444 5.37749 0.00292969 5.103 0.00292969Z" fill="#444A58"/>
<path d="M5.103 8.30396H0.497C0.222514 8.30396 0 8.52647 0 8.80095V13.407C0 13.6814 0.222514 13.904 0.497 13.904H5.103C5.37749 13.904 5.6 13.6814 5.6 13.407V8.80095C5.6 8.52647 5.37749 8.30396 5.103 8.30396Z" fill="#444A58"/>
<path fill-rule="evenodd" clip-rule="evenodd" d="M13 8.30005H8C7.73478 8.30005 7.48043 8.40541 7.29289 8.59294C7.10536 8.78048 7 9.03483 7 9.30005C7 9.56527 7.10536 9.81962 7.29289 10.0072C7.48043 10.1947 7.73478 10.3 8 10.3H13C13.2652 10.3 13.5196 10.1947 13.7071 10.0072C13.8946 9.81962 14 9.56527 14 9.30005C14 9.03483 13.8946 8.78048 13.7071 8.59294C13.5196 8.40541 13.2652 8.30005 13 8.30005Z" fill="#444A58"/>
<path fill-rule="evenodd" clip-rule="evenodd" d="M13 3.5H8C7.73478 3.5 7.48043 3.60536 7.29289 3.79289C7.10536 3.98043 7 4.23478 7 4.5C7 4.76522 7.10536 5.01957 7.29289 5.20711C7.48043 5.39464 7.73478 5.5 8 5.5H13C13.2652 5.5 13.5196 5.39464 13.7071 5.20711C13.8946 5.01957 14 4.76522 14 4.5C14 4.23478 13.8946 3.98043 13.7071 3.79289C13.5196 3.60536 13.2652 3.5 13 3.5V3.5Z" fill="#444A58"/>
<path fill-rule="evenodd" clip-rule="evenodd" d="M8 2H13C13.2652 2 13.5196 1.89464 13.7071 1.70711C13.8946 1.51957 14 1.26522 14 1C14 0.734784 13.8946 0.48043 13.7071 0.292893C13.5196 0.105357 13.2652 0 13 0L8 0C7.73478 0 7.48043 0.105357 7.29289 0.292893C7.10536 0.48043 7 0.734784 7 1C7 1.26522 7.10536 1.51957 7.29289 1.70711C7.48043 1.89464 7.73478 2 8 2Z" fill="#444A58"/>
<path fill-rule="evenodd" clip-rule="evenodd" d="M13 12H8C7.73478 12 7.48043 12.1054 7.29289 12.2929C7.10536 12.4804 7 12.7348 7 13C7 13.2652 7.10536 13.5196 7.29289 13.7071C7.48043 13.8946 7.73478 14 8 14H13C13.2652 14 13.5196 13.8946 13.7071 13.7071C13.8946 13.5196 14 13.2652 14 13C14 12.7348 13.8946 12.4804 13.7071 12.2929C13.5196 12.1054 13.2652 12 13 12Z" fill="#444A58"/>
</g>
<defs>
<clipPath id="clip0_449_3562">
<rect width="14" height="14" fill="white"/>
</clipPath>
</defs>
</svg>
