<svg width="14" height="14" viewBox="0 0 14 14" fill="none" xmlns="http://www.w3.org/2000/svg">
<g clip-path="url(#clip0_449_3868)">
<path fill-rule="evenodd" clip-rule="evenodd" d="M12.259 2.625L8.229 2.616L6.893 1.28C6.62322 1.02725 6.2696 0.883022 5.9 0.875H1.743C1.28017 0.877115 0.836996 1.06239 0.510377 1.39032C0.183758 1.71825 0.000259498 2.16216 0 2.625L0 11.375C0.00185093 11.8396 0.187643 12.2846 0.516727 12.6125C0.845812 12.9405 1.2914 13.1247 1.756 13.125H12.244C12.4744 13.1261 12.7027 13.0816 12.9159 12.9941C13.129 12.9066 13.3227 12.7778 13.4859 12.6152C13.6491 12.4525 13.7785 12.2592 13.8668 12.0464C13.955 11.8336 14.0003 11.6054 14 11.375V4.375C14 3.91243 13.8169 3.46867 13.4906 3.14073C13.1644 2.8128 12.7216 2.62738 12.259 2.625V2.625ZM11.853 10.078C11.8535 10.2251 11.825 10.3708 11.7691 10.5068C11.7133 10.6429 11.6311 10.7666 11.5273 10.8708C11.4236 10.975 11.3002 11.0577 11.1645 11.1142C11.0287 11.1707 10.8831 11.1999 10.736 11.2H3.264C2.96783 11.1997 2.68387 11.082 2.47445 10.8725C2.26503 10.6631 2.14726 10.3792 2.147 10.083V7.139C2.14726 6.84283 2.26503 6.55888 2.47445 6.34945C2.68387 6.14003 2.96783 6.02226 3.264 6.022H10.736C11.0322 6.02226 11.3161 6.14003 11.5255 6.34945C11.735 6.55888 11.8527 6.84283 11.853 7.139V10.078Z" fill="#444A58"/>
</g>
<defs>
<clipPath id="clip0_449_3868">
<rect width="14" height="14" fill="white"/>
</clipPath>
</defs>
</svg>
