<svg width="14" height="14" viewBox="0 0 14 14" fill="none" xmlns="http://www.w3.org/2000/svg">
<path d="M11.358 1.07699C11.3517 1.35886 11.2346 1.6269 11.0321 1.82306C10.8296 2.01921 10.5579 2.12769 10.276 2.12499C9.64297 2.13361 9.01717 2.2608 8.431 2.49999C7.49775 2.87213 6.70146 3.52215 6.15 4.36199H9.35C9.4858 4.36208 9.61954 4.39525 9.73964 4.45863C9.85974 4.52201 9.9626 4.6137 10.0393 4.72576C10.116 4.83782 10.1643 4.96688 10.1799 5.10178C10.1955 5.23668 10.1781 5.37336 10.129 5.49999L10.12 5.52399C9.94 5.98199 9.662 6.02899 8.831 6.04999C8.831 6.04999 5.47 6.04999 5.487 6.03499L5.47 6.04999C5.3584 6.65325 5.3686 7.27273 5.5 7.87199H9.329C9.50844 7.87195 9.6834 7.92805 9.82936 8.03241C9.97533 8.13677 10.085 8.28418 10.143 8.45399C10.1872 8.58347 10.1999 8.72163 10.18 8.85699C10.1602 8.99236 10.1083 9.12103 10.0287 9.23232C9.94905 9.3436 9.84405 9.43429 9.72236 9.49684C9.60068 9.5594 9.46582 9.59202 9.329 9.59199H6.25C6.71407 10.2804 7.34141 10.8431 8.076 11.23C9.14139 11.7985 10.3714 11.9784 11.555 11.739C11.8062 11.6895 12.0668 11.7311 12.2901 11.8562C12.5135 11.9814 12.685 12.1819 12.774 12.422C12.83 12.5679 12.8538 12.7242 12.8437 12.8802C12.8336 13.0362 12.7899 13.1882 12.7155 13.3257C12.6411 13.4632 12.5378 13.5829 12.4128 13.6767C12.2877 13.7705 12.1438 13.8361 11.991 13.869C11.7382 13.9154 11.4832 13.9488 11.227 13.969L10.907 13.998H10.248C10.101 13.984 9.954 13.972 9.807 13.957C9.00147 13.8803 8.214 13.6718 7.476 13.34C5.81993 12.6181 4.49125 11.3066 3.748 9.65999C3.73969 9.6402 3.72582 9.62324 3.70807 9.61117C3.69033 9.59911 3.66946 9.59244 3.648 9.59199C3.348 9.59199 2.41 9.59199 1.994 9.58499C1.86263 9.58325 1.73353 9.55046 1.61725 9.4893C1.50097 9.42814 1.4008 9.34034 1.32494 9.23307C1.24907 9.1258 1.19965 9.00211 1.18072 8.8721C1.16179 8.74209 1.17388 8.60944 1.216 8.48499L1.222 8.46899C1.27499 8.30858 1.37566 8.16816 1.51057 8.06649C1.64548 7.96481 1.8082 7.90673 1.977 7.89999C2.321 7.88699 3.192 7.87199 3.203 7.87199C3.183 7.56299 3.151 7.26299 3.148 6.96299C3.145 6.66299 3.169 6.36299 3.182 6.05299H2C1.86693 6.05224 1.73592 6.02012 1.61759 5.95923C1.49927 5.89833 1.39699 5.81038 1.31904 5.70253C1.2411 5.59468 1.1897 5.46995 1.16901 5.3385C1.14833 5.20705 1.15895 5.07257 1.2 4.94599V4.94599C1.25476 4.77541 1.36238 4.62669 1.50729 4.52134C1.65219 4.41599 1.82685 4.35948 2.006 4.35999H3.557C3.57844 4.36001 3.59939 4.35364 3.6172 4.34171C3.63501 4.32978 3.64886 4.31282 3.657 4.29299C4.34615 2.64885 5.64225 1.33342 7.276 0.619988C8.00285 0.287711 8.78032 0.0798218 9.576 0.00498828C9.641 -0.00101172 9.962 -0.00101172 10.317 0.00498828C10.5966 0.0110247 10.8625 0.126881 11.0574 0.327496C11.2522 0.528112 11.3602 0.797356 11.358 1.07699Z" fill="#444A58"/>
</svg>
