<svg width="14" height="14" viewBox="0 0 14 14" fill="none" xmlns="http://www.w3.org/2000/svg">
<g clip-path="url(#clip0_449_3708)">
<path fill-rule="evenodd" clip-rule="evenodd" d="M12.216 10.5H10.465V12.25C10.4651 12.4798 10.42 12.7073 10.3322 12.9196C10.2443 13.1319 10.1155 13.3249 9.95308 13.4874C9.79066 13.6499 9.59781 13.7788 9.38554 13.8668C9.17328 13.9547 8.94577 14 8.716 14H1.716C1.25187 14 0.806752 13.8156 0.478563 13.4874C0.150374 13.1592 -0.0340001 12.7141 -0.0340001 12.25V5.25C-0.0341316 5.02015 0.0110438 4.79253 0.098943 4.58015C0.186842 4.36777 0.315741 4.1748 0.47827 4.01227C0.640799 3.84974 0.833769 3.72084 1.04615 3.63294C1.25853 3.54504 1.48615 3.49987 1.716 3.5H3.465V1.75C3.465 1.5201 3.5103 1.29246 3.59831 1.08007C3.68631 0.867688 3.81531 0.674725 3.97792 0.51221C4.14053 0.349694 4.33356 0.220811 4.546 0.132924C4.75843 0.0450371 4.9861 -0.000131084 5.216 2.8574e-07H12.216C12.6801 2.8574e-07 13.1252 0.184375 13.4534 0.512563C13.7816 0.840752 13.966 1.28587 13.966 1.75V8.75C13.966 8.97981 13.9207 9.20738 13.8328 9.4197C13.7448 9.63202 13.6159 9.82493 13.4534 9.98744C13.2909 10.1499 13.098 10.2788 12.8857 10.3668C12.6734 10.4547 12.4458 10.5 12.216 10.5V10.5ZM12.216 1.75H5.216V3.5H8.716C8.94577 3.5 9.17328 3.54527 9.38554 3.63323C9.59781 3.72119 9.79066 3.85011 9.95308 4.01262C10.1155 4.17514 10.2443 4.36807 10.3322 4.58038C10.42 4.79269 10.4651 5.02023 10.465 5.25V8.75H12.216V1.75Z" fill="#444A58"/>
</g>
<defs>
<clipPath id="clip0_449_3708">
<rect width="14" height="14" fill="white"/>
</clipPath>
</defs>
</svg>
