<svg width="14" height="14" viewBox="0 0 14 14" fill="none" xmlns="http://www.w3.org/2000/svg">
<g clip-path="url(#clip0_449_3407)">
<path fill-rule="evenodd" clip-rule="evenodd" d="M3.5 3.46906C3.61591 3.46906 3.73068 3.44621 3.83775 3.40183C3.94483 3.35744 4.0421 3.29238 4.12402 3.21038C4.20593 3.12837 4.27088 3.03102 4.31515 2.92389C4.35941 2.81677 4.38213 2.70197 4.382 2.58606V0.994061C4.382 0.878235 4.35918 0.763543 4.31486 0.656534C4.27053 0.549525 4.20557 0.452294 4.12366 0.370392C4.04176 0.288491 3.94453 0.223523 3.83752 0.179199C3.73051 0.134874 3.61582 0.112061 3.5 0.112061C3.38417 0.112061 3.26948 0.134874 3.16247 0.179199C3.05546 0.223523 2.95823 0.288491 2.87633 0.370392C2.79443 0.452294 2.72946 0.549525 2.68513 0.656534C2.64081 0.763543 2.618 0.878235 2.618 0.994061V2.58606C2.61787 2.70197 2.64058 2.81677 2.68485 2.92389C2.72911 3.03102 2.79406 3.12837 2.87597 3.21038C2.95789 3.29238 3.05516 3.35744 3.16224 3.40183C3.26931 3.44621 3.38409 3.46906 3.5 3.46906V3.46906Z" fill="#444A58"/>
<path fill-rule="evenodd" clip-rule="evenodd" d="M10.5 3.46906C10.6159 3.46906 10.7307 3.44621 10.8378 3.40183C10.9448 3.35744 11.0421 3.29238 11.124 3.21038C11.2059 3.12837 11.2709 3.03102 11.3151 2.92389C11.3594 2.81677 11.3821 2.70197 11.382 2.58606V0.994061C11.382 0.76014 11.2891 0.535799 11.1237 0.370392C10.9583 0.204985 10.7339 0.112061 10.5 0.112061C10.2661 0.112061 10.0417 0.204985 9.87633 0.370392C9.71092 0.535799 9.618 0.76014 9.618 0.994061V2.58606C9.61787 2.70197 9.64058 2.81677 9.68485 2.92389C9.72911 3.03102 9.79406 3.12837 9.87598 3.21038C9.95789 3.29238 10.0552 3.35744 10.1622 3.40183C10.2693 3.44621 10.3841 3.46906 10.5 3.46906V3.46906Z" fill="#444A58"/>
<path fill-rule="evenodd" clip-rule="evenodd" d="M12.668 1.29216V2.74716C12.6799 3.29954 12.4884 3.83704 12.13 4.25755C11.7716 4.67806 11.2713 4.95229 10.724 5.02816C10.4221 5.05938 10.1169 5.02685 9.82834 4.93266C9.53976 4.83848 9.27418 4.68474 9.04879 4.48141C8.8234 4.27807 8.64322 4.02967 8.51991 3.75229C8.39661 3.4749 8.33293 3.17471 8.333 2.87116V1.64416C8.33274 1.54885 8.29469 1.45754 8.22721 1.39024C8.15972 1.32295 8.0683 1.28516 7.973 1.28516H6.027C5.93179 1.28516 5.84047 1.32298 5.77315 1.3903C5.70582 1.45763 5.668 1.54894 5.668 1.64416V2.74416C5.6806 3.29705 5.48948 3.83528 5.13103 4.25643C4.77258 4.67757 4.2718 4.95224 3.724 5.02816C3.42205 5.05938 3.11691 5.02685 2.82834 4.93266C2.53976 4.83848 2.27418 4.68474 2.04879 4.48141C1.8234 4.27807 1.64322 4.02967 1.51991 3.75229C1.39661 3.4749 1.33293 3.17471 1.333 2.87116V1.29216C0.974638 1.30932 0.636543 1.46341 0.388496 1.72263C0.140449 1.98184 0.00138291 2.32639 0 2.68516L0 12.4852C0 12.8565 0.1475 13.2126 0.410051 13.4751C0.672601 13.7377 1.0287 13.8852 1.4 13.8852H12.6C12.9713 13.8852 13.3274 13.7377 13.5899 13.4751C13.8525 13.2126 14 12.8565 14 12.4852V2.68516C13.9986 2.32655 13.8597 1.98214 13.6119 1.72296C13.364 1.46377 13.0262 1.30957 12.668 1.29216V1.29216ZM11.5 10.7752C11.4992 11.0009 11.4092 11.2171 11.2496 11.3767C11.09 11.5363 10.8737 11.6264 10.648 11.6272H3.148C2.92228 11.6264 2.70603 11.5363 2.54642 11.3767C2.38681 11.2171 2.29679 11.0009 2.296 10.7752V7.45516C2.296 7.2284 2.38608 7.01092 2.54642 6.85058C2.70677 6.69024 2.92424 6.60016 3.151 6.60016H10.651C10.8767 6.60095 11.093 6.69097 11.2526 6.85057C11.4122 7.01018 11.5022 7.22644 11.503 7.45216L11.5 10.7752Z" fill="#444A58"/>
</g>
<defs>
<clipPath id="clip0_449_3407">
<rect width="14" height="14" fill="white"/>
</clipPath>
</defs>
</svg>
