<svg width="14" height="14" viewBox="0 0 14 14" fill="none" xmlns="http://www.w3.org/2000/svg">
<g clip-path="url(#clip0_449_3493)">
<path d="M9.15 14H4.85C3.56401 13.9984 2.33117 13.4868 1.42193 12.5774C0.512697 11.6679 0.00132314 10.435 0 9.149V4.849C0.00185284 3.56319 0.513597 2.3306 1.42299 1.42158C2.33239 0.512559 3.56519 0.00132261 4.851 0L9.151 0C10.4368 0.00185284 11.6694 0.513597 12.5784 1.42299C13.4874 2.33239 13.9987 3.56519 14 4.851V9.151C13.9981 10.4366 13.4865 11.6691 12.5774 12.5781C11.6682 13.4871 10.4356 13.9984 9.15 14V14ZM4.851 2.913C4.33717 2.91353 3.84454 3.11788 3.48121 3.48121C3.11788 3.84454 2.91353 4.33717 2.913 4.851V9.151C2.91353 9.66483 3.11788 10.1575 3.48121 10.5208C3.84454 10.8841 4.33717 11.0885 4.851 11.089H9.151C9.66473 11.0885 10.1573 10.8841 10.5204 10.5207C10.8836 10.1574 11.0877 9.66474 11.088 9.151V4.851C11.0877 4.33709 10.8835 3.84431 10.5201 3.48092C10.1567 3.11753 9.66391 2.91327 9.15 2.913H4.851Z" fill="#444A58"/>
</g>
<defs>
<clipPath id="clip0_449_3493">
<rect width="14" height="14" fill="white"/>
</clipPath>
</defs>
</svg>
