<svg width="14" height="14" viewBox="0 0 14 14" fill="none" xmlns="http://www.w3.org/2000/svg">
<g clip-path="url(#clip0_449_3452)">
<path fill-rule="evenodd" clip-rule="evenodd" d="M9.123 1.92212H4.872C4.22722 1.92423 3.58957 2.0571 2.99761 2.31269C2.40565 2.56828 1.87168 2.94127 1.428 3.40912C0.505879 4.37664 -0.00588251 5.66357 -3.92168e-06 7.00012C-0.0262686 8.31908 0.472093 9.59454 1.3856 10.5463C2.29912 11.4981 3.55307 12.0483 4.872 12.0761H9.123C10.4427 12.0493 11.6978 11.4996 12.6123 10.5477C13.5269 9.5959 14.026 8.31985 14 7.00012C14.0263 5.68012 13.5273 4.40371 12.6127 3.45149C11.6982 2.49926 10.443 1.94916 9.123 1.92212V1.92212ZM5.417 6.94312C5.4166 7.585 5.60658 8.21259 5.9629 8.74649C6.31923 9.28039 6.82589 9.69662 7.4188 9.94253C8.01171 10.1884 8.66424 10.253 9.29384 10.128C9.92344 10.003 10.5018 9.69413 10.9558 9.24039C11.4099 8.78665 11.7191 8.20845 11.8445 7.57892C11.9699 6.9494 11.9057 6.29684 11.6602 5.70377C11.4146 5.11071 10.9987 4.60379 10.465 4.24714C9.93135 3.89049 9.30388 3.70012 8.662 3.70012C7.80171 3.70012 6.97664 4.04173 6.36814 4.64985C5.75964 5.25797 5.41753 6.08284 5.417 6.94312V6.94312Z" fill="#444A58"/>
</g>
<defs>
<clipPath id="clip0_449_3452">
<rect width="14" height="14" fill="white"/>
</clipPath>
</defs>
</svg>
