<svg width="14" height="14" viewBox="0 0 14 14" fill="none" xmlns="http://www.w3.org/2000/svg">
<g clip-path="url(#clip0_449_3628)">
<path d="M11.589 1C11.5864 0.733868 11.4788 0.479532 11.2897 0.292278C11.1005 0.105024 10.8451 -1.30441e-05 10.579 1.21501e-09L6.079 1.21501e-09C5.81285 -1.30441e-05 5.55746 0.105024 5.36833 0.292278C5.17921 0.479532 5.07163 0.733868 5.069 1V1.463C5.069 1.73087 5.17541 1.98777 5.36482 2.17718C5.55423 2.36659 5.81113 2.473 6.079 2.473H7.145L4.574 11.526H3.421C3.15485 11.526 2.89946 11.631 2.71033 11.8183C2.52121 12.0055 2.41363 12.2599 2.411 12.526V12.989C2.41087 13.1217 2.4369 13.2532 2.48759 13.3758C2.53829 13.4985 2.61267 13.6099 2.70647 13.7038C2.80027 13.7977 2.91165 13.8722 3.03426 13.923C3.15686 13.9738 3.28828 14 3.421 14H7.993C8.26035 13.9992 8.51648 13.8924 8.70524 13.7031C8.894 13.5138 9 13.2573 9 12.99V12.527C8.99736 12.2609 8.88979 12.0065 8.70067 11.8193C8.51154 11.632 8.25614 11.527 7.99 11.527H6.861L9.432 2.474H10.579C10.8469 2.474 11.1038 2.36759 11.2932 2.17818C11.4826 1.98877 11.589 1.73187 11.589 1.464V1Z" fill="#444A58"/>
</g>
<defs>
<clipPath id="clip0_449_3628">
<rect width="14" height="14" fill="white"/>
</clipPath>
</defs>
</svg>
