<svg width="14" height="14" viewBox="0 0 14 14" fill="none" xmlns="http://www.w3.org/2000/svg">
<g clip-path="url(#clip0_449_3876)">
<path fill-rule="evenodd" clip-rule="evenodd" d="M12.245 13.5629H1.756C1.52561 13.5639 1.29728 13.5194 1.08415 13.4319C0.871018 13.3445 0.677286 13.2157 0.514094 13.053C0.350903 12.8904 0.221472 12.6971 0.133245 12.4843C0.0450177 12.2715 -0.000264857 12.0433 1.16532e-06 11.8129V3.93689C0.000257754 3.4744 0.183481 3.03079 0.509669 2.70292C0.835857 2.37504 1.27852 2.18954 1.741 2.18689H3.141L4.482 0.841895C4.75279 0.590735 5.10672 0.448308 5.476 0.441895H8.525C8.89483 0.450233 9.24865 0.594397 9.519 0.846895L10.863 2.19189H12.263C12.7239 2.19558 13.1648 2.38086 13.49 2.70754C13.8152 3.03423 13.9984 3.47596 14 3.93689V11.8219C13.9974 12.2854 13.811 12.729 13.4819 13.0553C13.1527 13.3817 12.7075 13.5642 12.244 13.5629H12.245ZM7 3.93689C7.69224 3.93689 8.36893 4.14217 8.9445 4.52675C9.52007 4.91134 9.96867 5.45796 10.2336 6.0975C10.4985 6.73704 10.5678 7.44078 10.4327 8.11971C10.2977 8.79864 9.96436 9.42228 9.47487 9.91177C8.98539 10.4013 8.36175 10.7346 7.68282 10.8696C7.00388 11.0047 6.30015 10.9354 5.66061 10.6705C5.02107 10.4056 4.47444 9.95696 4.08986 9.38139C3.70527 8.80582 3.5 8.12913 3.5 7.43689C3.5 6.50864 3.86875 5.6184 4.52513 4.96202C5.1815 4.30564 6.07174 3.93689 7 3.93689V3.93689ZM7 9.18789C7.34636 9.18809 7.68499 9.08557 7.97308 8.89328C8.26116 8.701 8.48574 8.4276 8.61843 8.10767C8.75111 7.78773 8.78593 7.43563 8.71848 7.0959C8.65103 6.75618 8.48434 6.44409 8.2395 6.1991C7.99466 5.95412 7.68266 5.78726 7.34297 5.71961C7.00328 5.65197 6.65117 5.68659 6.33115 5.81909C6.01114 5.95159 5.73761 6.17602 5.54517 6.46399C5.35272 6.75196 5.25 7.09054 5.25 7.43689C5.25 7.90112 5.43434 8.34634 5.7625 8.67468C6.09066 9.00303 6.53578 9.18763 7 9.18789Z" fill="#444A58"/>
</g>
<defs>
<clipPath id="clip0_449_3876">
<rect width="14" height="14" fill="white"/>
</clipPath>
</defs>
</svg>
