<svg width="14" height="14" viewBox="0 0 14 14" fill="none" xmlns="http://www.w3.org/2000/svg">
<g clip-path="url(#clip0_449_3412)">
<path d="M7 0C5.61553 0 4.26215 0.410543 3.11101 1.17971C1.95986 1.94888 1.06266 3.04213 0.532843 4.32122C0.00302923 5.6003 -0.135594 7.00777 0.134502 8.36563C0.404599 9.7235 1.07128 10.9708 2.05025 11.9497C3.02922 12.9287 4.2765 13.5954 5.63437 13.8655C6.99223 14.1356 8.3997 13.997 9.67878 13.4672C10.9579 12.9373 12.0511 12.0401 12.8203 10.889C13.5895 9.73785 14 8.38447 14 7C14 5.14348 13.2625 3.36301 11.9497 2.05025C10.637 0.737498 8.85651 0 7 0V0ZM9.757 8.023H4.242C3.98423 8.01482 3.73975 7.90666 3.5603 7.72143C3.38085 7.53619 3.28051 7.2884 3.28051 7.0305C3.28051 6.7726 3.38085 6.52481 3.5603 6.33957C3.73975 6.15434 3.98423 6.04618 4.242 6.038H9.757C9.88999 6.03378 10.0225 6.05633 10.1466 6.1043C10.2707 6.15228 10.3839 6.22471 10.4794 6.31729C10.575 6.40987 10.651 6.52071 10.7029 6.64323C10.7548 6.76575 10.7815 6.89745 10.7815 7.0305C10.7815 7.16355 10.7548 7.29525 10.7029 7.41777C10.651 7.54029 10.575 7.65113 10.4794 7.74371C10.3839 7.83629 10.2707 7.90872 10.1466 7.9567C10.0225 8.00467 9.88999 8.02722 9.757 8.023V8.023Z" fill="#444A58"/>
</g>
<defs>
<clipPath id="clip0_449_3412">
<rect width="14" height="14" fill="white"/>
</clipPath>
</defs>
</svg>
