<svg width="14" height="14" viewBox="0 0 14 14" fill="none" xmlns="http://www.w3.org/2000/svg">
<g clip-path="url(#clip0_449_3830)">
<path fill-rule="evenodd" clip-rule="evenodd" d="M12.238 10.954H4.612C4.50095 10.9544 4.39091 10.9329 4.28817 10.8907C4.18543 10.8486 4.09202 10.7866 4.01326 10.7083C3.9345 10.63 3.87195 10.5369 3.82918 10.4345C3.78641 10.332 3.76426 10.2221 3.764 10.111V0.843005C3.76426 0.731954 3.78641 0.622043 3.82918 0.519558C3.87195 0.417073 3.9345 0.324024 4.01326 0.245731C4.09202 0.167438 4.18543 0.105437 4.28817 0.0632734C4.39091 0.0211099 4.50095 -0.000389235 4.612 5.34062e-06H12.238C12.3489 -0.000389236 12.4588 0.021084 12.5614 0.0631973C12.6641 0.105311 12.7574 0.167238 12.836 0.245438C12.9147 0.323638 12.9772 0.416577 13.0199 0.518941C13.0626 0.621305 13.0847 0.731085 13.085 0.842005V10.11C13.0849 10.2211 13.0628 10.331 13.0202 10.4335C12.9775 10.5361 12.9151 10.6292 12.8364 10.7076C12.7578 10.786 12.6644 10.8481 12.5617 10.8904C12.4591 10.9326 12.349 10.9543 12.238 10.954V10.954ZM9.228 13.154C9.22813 13.2652 9.2063 13.3754 9.16377 13.4781C9.12124 13.5809 9.05884 13.6743 8.98015 13.7529C8.90146 13.8315 8.80803 13.8938 8.70521 13.9362C8.60239 13.9786 8.49222 14.0003 8.381 14H1.6C1.37543 13.9992 1.1603 13.9096 1.0016 13.7507C0.8429 13.5918 0.753525 13.3766 0.752998 13.152V4.73201C0.752998 4.50657 0.842552 4.29037 1.00196 4.13096C1.16136 3.97156 1.37756 3.88201 1.603 3.88201C1.82843 3.88201 2.04463 3.97156 2.20404 4.13096C2.36345 4.29037 2.453 4.50657 2.453 4.73201V11.917C2.453 12.0231 2.49514 12.1248 2.57016 12.1998C2.64517 12.2749 2.74691 12.317 2.853 12.317H8.381C8.60476 12.3165 8.8196 12.4047 8.97838 12.5624C9.13717 12.72 9.22694 12.9342 9.228 13.158V13.154ZM7.154 2.52801H9.7C9.81308 2.52411 9.92579 2.54302 10.0314 2.5836C10.137 2.62419 10.2334 2.68562 10.3148 2.76424C10.3961 2.84286 10.4609 2.93705 10.5051 3.04121C10.5492 3.14537 10.572 3.25736 10.572 3.37051C10.572 3.48365 10.5492 3.59564 10.5051 3.6998C10.4609 3.80396 10.3961 3.89815 10.3148 3.97677C10.2334 4.05539 10.137 4.11682 10.0314 4.15741C9.92579 4.19799 9.81308 4.2169 9.7 4.21301H7.154C7.04092 4.2169 6.92821 4.19799 6.82259 4.15741C6.71697 4.11682 6.6206 4.05539 6.53923 3.97677C6.45786 3.89815 6.39314 3.80396 6.34894 3.6998C6.30475 3.59564 6.28197 3.48365 6.28197 3.37051C6.28197 3.25736 6.30475 3.14537 6.34894 3.04121C6.39314 2.93705 6.45786 2.84286 6.53923 2.76424C6.6206 2.68562 6.71697 2.62419 6.82259 2.5836C6.92821 2.54302 7.04092 2.52411 7.154 2.52801V2.52801ZM7.154 5.68601H9.7C9.81308 5.68211 9.92579 5.70102 10.0314 5.7416C10.137 5.78219 10.2334 5.84362 10.3148 5.92224C10.3961 6.00086 10.4609 6.09505 10.5051 6.19921C10.5492 6.30337 10.572 6.41536 10.572 6.52851C10.572 6.64165 10.5492 6.75364 10.5051 6.8578C10.4609 6.96196 10.3961 7.05616 10.3148 7.13477C10.2334 7.21339 10.137 7.27482 10.0314 7.31541C9.92579 7.35599 9.81308 7.3749 9.7 7.37101H7.154C7.04092 7.3749 6.92821 7.35599 6.82259 7.31541C6.71697 7.27482 6.6206 7.21339 6.53923 7.13477C6.45786 7.05616 6.39314 6.96196 6.34894 6.8578C6.30475 6.75364 6.28197 6.64165 6.28197 6.52851C6.28197 6.41536 6.30475 6.30337 6.34894 6.19921C6.39314 6.09505 6.45786 6.00086 6.53923 5.92224C6.6206 5.84362 6.71697 5.78219 6.82259 5.7416C6.92821 5.70102 7.04092 5.68211 7.154 5.68601Z" fill="#444A58"/>
</g>
<defs>
<clipPath id="clip0_449_3830">
<rect width="14" height="14" fill="white"/>
</clipPath>
</defs>
</svg>
