<svg width="14" height="14" viewBox="0 0 14 14" fill="none" xmlns="http://www.w3.org/2000/svg">
<g clip-path="url(#clip0_449_3801)">
<path d="M14 7C14 5.61553 13.5895 4.26216 12.8203 3.11101C12.0511 1.95987 10.9579 1.06266 9.67879 0.532846C8.3997 0.00303304 6.99224 -0.13559 5.63437 0.134506C4.2765 0.404603 3.02922 1.07129 2.05026 2.05026C1.07129 3.02922 0.404603 4.2765 0.134506 5.63437C-0.13559 6.99224 0.00303304 8.3997 0.532846 9.67879C1.06266 10.9579 1.95987 12.0511 3.11101 12.8203C4.26216 13.5895 5.61553 14 7 14C8.85652 14 10.637 13.2625 11.9497 11.9497C13.2625 10.637 14 8.85652 14 7V7ZM7 2.2C8.27199 2.20343 9.49089 2.71025 10.3903 3.60968C11.2898 4.50911 11.7966 5.72802 11.8 7V7V7.023C11.7958 8.29262 11.288 9.5087 10.388 10.4043C9.48813 11.2999 8.26963 11.8019 7 11.8V2.2Z" fill="#444A58"/>
</g>
<defs>
<clipPath id="clip0_449_3801">
<rect width="14" height="14" fill="white"/>
</clipPath>
</defs>
</svg>
