<svg width="14" height="14" viewBox="0 0 14 14" fill="none" xmlns="http://www.w3.org/2000/svg">
<g clip-path="url(#clip0_449_3648)">
<path d="M9.637 7.79291L6.207 4.36291C6.08354 4.23957 5.93012 4.15047 5.76181 4.10436C5.5935 4.05824 5.41609 4.05671 5.247 4.09991L2.114 4.91991C1.89783 4.97515 1.70657 5.1016 1.57105 5.27884C1.43553 5.45609 1.36365 5.67381 1.367 5.89691C1.38642 8.36005 0.937454 10.8044 0.0440028 13.0999C-0.000457942 13.219 -0.00973796 13.3484 0.0172686 13.4726C0.0442751 13.5968 0.106429 13.7107 0.196325 13.8006C0.28622 13.8905 0.400066 13.9526 0.524295 13.9796C0.648525 14.0066 0.7779 13.9974 0.897003 13.9529C3.19267 13.0605 5.63705 12.6125 8.1 12.6329C8.3231 12.6363 8.54082 12.5644 8.71807 12.4289C8.89531 12.2933 9.02175 12.1021 9.077 11.8859L9.9 8.75291C9.9432 8.58382 9.94166 8.40641 9.89555 8.2381C9.84944 8.06979 9.76034 7.91637 9.637 7.79291V7.79291ZM6.53 9.84291C6.29533 10.0776 5.99634 10.2374 5.67084 10.3022C5.34534 10.3669 5.00794 10.3337 4.70133 10.2067C4.39471 10.0797 4.13264 9.86461 3.94825 9.58866C3.76387 9.31271 3.66545 8.98829 3.66545 8.65641C3.66545 8.32453 3.76387 8.0001 3.94825 7.72415C4.13264 7.4482 4.39471 7.23313 4.70133 7.10613C5.00794 6.97913 5.34534 6.9459 5.67084 7.01065C5.99634 7.07541 6.29533 7.23523 6.53 7.46991C6.84418 7.78485 7.02063 8.21155 7.02063 8.65641C7.02063 9.10126 6.84418 9.52796 6.53 9.84291Z" fill="#444A58"/>
<path d="M13.7081 4.30046L9.70092 0.293288C9.3104 -0.0972359 8.67723 -0.0972359 8.28671 0.293288L6.86118 1.71882C6.47065 2.10934 6.47065 2.7425 6.86118 3.13303L10.8684 7.1402C11.2589 7.53073 11.892 7.53073 12.2826 7.1402L13.7081 5.71468C14.0986 5.32415 14.0986 4.69099 13.7081 4.30046Z" fill="#444A58"/>
</g>
<defs>
<clipPath id="clip0_449_3648">
<rect width="14" height="14" fill="white"/>
</clipPath>
</defs>
</svg>
