<svg width="14" height="14" viewBox="0 0 14 14" fill="none" xmlns="http://www.w3.org/2000/svg">
<g clip-path="url(#clip0_449_3632)">
<path d="M13.488 4.52198L10.188 1.22198C9.85463 0.90368 9.41142 0.726074 8.9505 0.726074C8.48957 0.726074 8.04637 0.90368 7.713 1.22198L4.879 4.05498L0.510998 8.42298C0.18326 8.75143 -0.000801086 9.19648 -0.000801086 9.66048C-0.000801086 10.1245 0.18326 10.5695 0.510998 10.898L2.711 13.103C2.82083 13.2119 2.96929 13.2731 3.124 13.273H6.971C7.12571 13.2731 7.27417 13.2119 7.384 13.103L13.484 7.00298C13.6473 6.84043 13.777 6.64727 13.8656 6.43455C13.9542 6.22184 14 5.99374 14.0004 5.76331C14.0008 5.53288 13.9557 5.30463 13.8678 5.09164C13.7799 4.87864 13.6508 4.68506 13.488 4.52198ZM6.517 11.6H3.655L1.923 9.86998C1.83138 9.77652 1.78007 9.65086 1.78007 9.51998C1.78007 9.38911 1.83138 9.26345 1.923 9.16998L5.292 5.79998L8.806 9.31198L6.517 11.6Z" fill="#444A58"/>
</g>
<defs>
<clipPath id="clip0_449_3632">
<rect width="14" height="14" fill="white"/>
</clipPath>
</defs>
</svg>
