<svg width="14" height="14" viewBox="0 0 14 14" fill="none" xmlns="http://www.w3.org/2000/svg">
<g clip-path="url(#clip0_449_3828)">
<path d="M1.548 7.7V6.3C1.548 5.74305 1.76925 5.2089 2.16308 4.81508C2.5569 4.42125 3.09105 4.2 3.648 4.2H3.83C4.49357 4.20069 5.15227 4.08668 5.777 3.863L9.694 0.506C10.0746 0.179528 10.5595 4.14869e-05 11.061 0V0C11.4119 0 11.7484 0.139387 11.9965 0.387498C12.2446 0.635608 12.384 0.972119 12.384 1.323V12.677C12.384 13.0279 12.2446 13.3644 11.9965 13.6125C11.7484 13.8606 11.4119 14 11.061 14V14C10.5595 14 10.0746 13.8205 9.694 13.494L5.777 10.137C5.15227 9.91332 4.49357 9.79931 3.83 9.8H3.648C3.09105 9.8 2.5569 9.57875 2.16308 9.18492C1.76925 8.7911 1.548 8.25695 1.548 7.7V7.7Z" fill="#444A58"/>
</g>
<defs>
<clipPath id="clip0_449_3828">
<rect width="14" height="14" fill="white"/>
</clipPath>
</defs>
</svg>
