<svg width="14" height="14" viewBox="0 0 14 14" fill="none" xmlns="http://www.w3.org/2000/svg">
<g clip-path="url(#clip0_449_3878)">
<path fill-rule="evenodd" clip-rule="evenodd" d="M12.258 2.625L8.228 2.616L6.893 1.28C6.62322 1.02725 6.2696 0.883022 5.9 0.875H1.742C1.27934 0.877378 0.836426 1.06277 0.510022 1.39067C0.183619 1.71858 0.000258118 2.16233 0 2.625L0 11.375C0.00237693 11.8396 0.188474 12.2844 0.517661 12.6123C0.846848 12.9402 1.29239 13.1245 1.757 13.125H12.243C12.4735 13.1265 12.7021 13.0822 12.9155 12.9949C13.1288 12.9075 13.3228 12.7788 13.4861 12.6161C13.6495 12.4534 13.779 12.26 13.8672 12.0469C13.9554 11.8339 14.0005 11.6056 14 11.375V4.375C14.0003 3.91217 13.8171 3.46811 13.4906 3.14009C13.164 2.81208 12.7208 2.62685 12.258 2.625ZM4.351 7.179L6.726 4.8C6.80579 4.72086 6.91362 4.67645 7.026 4.67645C7.13838 4.67645 7.24621 4.72086 7.326 4.8L9.7 7.179C9.75957 7.23838 9.80018 7.3141 9.81669 7.39658C9.8332 7.47905 9.82487 7.56457 9.79275 7.64231C9.76062 7.72004 9.70616 7.7865 9.63624 7.83326C9.56633 7.88003 9.48411 7.90499 9.4 7.905H7.877V9.922C7.86641 10.1403 7.77223 10.3462 7.61399 10.4969C7.45574 10.6477 7.24556 10.7318 7.027 10.7318C6.80844 10.7318 6.59826 10.6477 6.44001 10.4969C6.28177 10.3462 6.18759 10.1403 6.177 9.922V7.905H4.651C4.56689 7.90499 4.48467 7.88003 4.41476 7.83326C4.34484 7.7865 4.29038 7.72004 4.25825 7.64231C4.22613 7.56457 4.2178 7.47905 4.23431 7.39658C4.25082 7.3141 4.29143 7.23838 4.351 7.179V7.179Z" fill="#444A58"/>
</g>
<defs>
<clipPath id="clip0_449_3878">
<rect width="14" height="14" fill="white"/>
</clipPath>
</defs>
</svg>
