<svg width="14" height="14" viewBox="0 0 14 14" fill="none" xmlns="http://www.w3.org/2000/svg">
<g clip-path="url(#clip0_449_3926)">
<path fill-rule="evenodd" clip-rule="evenodd" d="M11.213 6.82098L8.167 3.73998L8.125 12.934C8.12447 13.0746 8.09625 13.2137 8.04193 13.3434C7.98761 13.4731 7.90826 13.5908 7.80842 13.6898C7.70859 13.7888 7.59022 13.8671 7.46008 13.9204C7.32995 13.9736 7.1906 14.0006 7.05 14V14C6.90935 13.9993 6.77021 13.971 6.64052 13.9165C6.51083 13.8621 6.39314 13.7827 6.29415 13.6828C6.19516 13.5828 6.11682 13.4644 6.06361 13.3342C6.01039 13.204 5.98334 13.0646 5.984 12.924L6.026 3.73198L2.95 6.77198C2.85015 6.8711 2.73174 6.94957 2.60156 7.00291C2.47137 7.05625 2.33195 7.08342 2.19126 7.08286C2.05056 7.08231 1.91136 7.05403 1.7816 6.99966C1.65184 6.94529 1.53406 6.86588 1.435 6.76598V6.76598C1.2352 6.56406 1.12372 6.29109 1.12503 6.00703C1.12634 5.72297 1.24035 5.45105 1.442 5.25098L6.491 0.250982C6.65716 0.087485 6.88147 -0.0033117 7.11457 -0.00143636C7.34767 0.000438978 7.57049 0.0948328 7.734 0.260982L12.734 5.31398C12.9337 5.51573 13.0452 5.78854 13.0439 6.07243C13.0426 6.35633 12.9286 6.62809 12.727 6.82798C12.5252 7.02772 12.2524 7.13918 11.9685 7.13786C11.6847 7.13655 11.4129 7.02257 11.213 6.82098V6.82098Z" fill="#444A58"/>
</g>
<defs>
<clipPath id="clip0_449_3926">
<rect width="14" height="14" fill="white"/>
</clipPath>
</defs>
</svg>
