<svg width="14" height="14" viewBox="0 0 14 14" fill="none" xmlns="http://www.w3.org/2000/svg">
<g clip-path="url(#clip0_449_3430)">
<path d="M8.271 1.6641L13.8 10.9111C13.8959 11.0729 13.9581 11.2524 13.9831 11.4389C14.008 11.6253 13.9952 11.8149 13.9452 11.9962C13.8953 12.1776 13.8093 12.347 13.6924 12.4944C13.5756 12.6418 13.4302 12.7641 13.265 12.8541C13.0399 12.9794 12.7866 13.0452 12.529 13.0451H1.469C1.08582 13.0512 0.715876 12.905 0.440432 12.6386C0.164987 12.3722 0.00657623 12.0073 0 11.6241C0.000766832 11.3727 0.0699012 11.1262 0.2 10.9111L5.729 1.6641C5.93259 1.33606 6.25481 1.09916 6.62864 1.00268C7.00246 0.906194 7.39909 0.957564 7.736 1.1461C7.9563 1.26936 8.14069 1.44789 8.271 1.6641V1.6641ZM7 11.7551C7.21617 11.7551 7.4275 11.691 7.60724 11.5709C7.78698 11.4508 7.92707 11.2801 8.0098 11.0804C8.09253 10.8807 8.11417 10.6609 8.072 10.4489C8.02982 10.2368 7.92573 10.0421 7.77287 9.88923C7.62001 9.73637 7.42526 9.63227 7.21323 9.5901C7.00121 9.54793 6.78145 9.56957 6.58173 9.6523C6.38201 9.73502 6.2113 9.87512 6.0912 10.0549C5.9711 10.2346 5.907 10.4459 5.907 10.6621C5.907 10.952 6.02216 11.23 6.22713 11.435C6.43211 11.6399 6.71012 11.7551 7 11.7551V11.7551ZM7 3.9001C6.94652 3.90044 6.8931 3.90378 6.84 3.9101C6.50171 3.95255 6.19409 4.1275 5.98467 4.39655C5.77525 4.66559 5.68114 5.00673 5.723 5.3451L6.181 7.8601C6.20527 8.06023 6.30198 8.24456 6.45288 8.37826C6.60377 8.51196 6.7984 8.58578 7 8.58578C7.2016 8.58578 7.39623 8.51196 7.54712 8.37826C7.69802 8.24456 7.79473 8.06023 7.819 7.8601L8.277 5.3451C8.28332 5.29199 8.28666 5.23857 8.287 5.1851C8.28647 4.84411 8.15064 4.51727 7.90934 4.27634C7.66804 4.03542 7.34099 3.9001 7 3.9001V3.9001Z" fill="#444A58"/>
</g>
<defs>
<clipPath id="clip0_449_3430">
<rect width="14" height="14" fill="white"/>
</clipPath>
</defs>
</svg>
