<svg width="14" height="14" viewBox="0 0 14 14" fill="none" xmlns="http://www.w3.org/2000/svg">
<g clip-path="url(#clip0_449_3594)">
<path d="M7 0C5.61587 9.03922e-07 4.26281 0.410343 3.11184 1.17916C1.96087 1.94798 1.06366 3.04075 0.533611 4.31937C0.00356305 5.59799 -0.135527 7.00504 0.133922 8.36269C0.403371 9.72034 1.06926 10.9676 2.04743 11.9469C3.0256 12.9262 4.27213 13.5935 5.62947 13.8645C6.98681 14.1355 8.39402 13.998 9.67324 13.4694C10.9525 12.9409 12.0463 12.0449 12.8164 10.8948C13.5865 9.74472 13.9984 8.39213 14 7.008C14.0011 6.08807 13.8208 5.17696 13.4695 4.32676C13.1181 3.47656 12.6027 2.70394 11.9526 2.05308C11.3025 1.40222 10.5304 0.885891 9.68063 0.533608C8.83083 0.181325 7.91993 -6.00767e-07 7 0V0ZM9.892 3.666C10.1329 3.67526 10.3655 3.75596 10.5604 3.89783C10.7553 4.03971 10.9036 4.23634 10.9864 4.46271C11.0692 4.68909 11.0828 4.93498 11.0254 5.16911C10.9681 5.40324 10.8424 5.61502 10.6644 5.77752C10.4863 5.94001 10.264 6.04588 10.0256 6.08165C9.78723 6.11742 9.5436 6.08148 9.32571 5.97839C9.10781 5.87531 8.92551 5.70974 8.80198 5.50275C8.67845 5.29576 8.61928 5.05671 8.632 4.816C8.64909 4.49732 8.79079 4.19813 9.02651 3.98299C9.26223 3.76784 9.57308 3.65399 9.892 3.666V3.666ZM4.153 3.666C4.39364 3.66541 4.62904 3.73629 4.82935 3.86966C5.02966 4.00302 5.18585 4.19287 5.27812 4.41512C5.37039 4.63737 5.39459 4.88202 5.34764 5.11804C5.30069 5.35406 5.18472 5.57082 5.01441 5.74084C4.84411 5.91086 4.62716 6.02648 4.39106 6.07304C4.15496 6.1196 3.91036 6.095 3.68826 6.00236C3.46616 5.90972 3.27657 5.75321 3.14354 5.55269C3.0105 5.35216 2.94001 5.11664 2.941 4.876C2.94179 4.55489 3.06977 4.24718 3.29692 4.02022C3.52407 3.79325 3.83189 3.66553 4.153 3.665V3.666ZM9.022 11.022C8.52533 11.3266 7.96637 11.5152 7.38672 11.5739C6.80707 11.6326 6.22164 11.5598 5.674 11.361C5.08839 11.154 4.56413 10.8033 4.14934 10.3409C3.73455 9.87863 3.4425 9.31955 3.3 8.715C3.28306 8.62826 3.28549 8.53884 3.30712 8.45314C3.32876 8.36745 3.36905 8.28759 3.42514 8.21928C3.48122 8.15097 3.5517 8.09589 3.63154 8.05798C3.71138 8.02008 3.79862 8.00028 3.887 8H10.092C10.1835 8.00052 10.2738 8.0217 10.356 8.06196C10.4382 8.10223 10.5103 8.16054 10.5668 8.23255C10.6233 8.30456 10.6629 8.3884 10.6825 8.47783C10.7021 8.56725 10.7012 8.65995 10.68 8.749C10.5721 9.22031 10.3694 9.66475 10.0844 10.0553C9.79937 10.4459 9.43792 10.7744 9.022 11.021V11.022Z" fill="#444A58"/>
</g>
<defs>
<clipPath id="clip0_449_3594">
<rect width="14" height="14" fill="white"/>
</clipPath>
</defs>
</svg>
