<svg width="14" height="14" viewBox="0 0 14 14" fill="none" xmlns="http://www.w3.org/2000/svg">
<g clip-path="url(#clip0_449_3834)">
<path d="M13 0H1C0.447715 0 0 0.447715 0 1V3.712C0 4.26428 0.447715 4.712 1 4.712H13C13.5523 4.712 14 4.26428 14 3.712V1C14 0.447715 13.5523 0 13 0Z" fill="#444A58"/>
<path d="M0 13C0 13.2652 0.105357 13.5196 0.292893 13.7071C0.48043 13.8946 0.734784 14 1 14H13C13.2652 14 13.5196 13.8946 13.7071 13.7071C13.8946 13.5196 14 13.2652 14 13V6H0V13ZM3.792 8.053C3.792 7.89387 3.85521 7.74126 3.96774 7.62874C4.08026 7.51621 4.23287 7.453 4.392 7.453H9.61C9.76913 7.453 9.92174 7.51621 10.0343 7.62874C10.1468 7.74126 10.21 7.89387 10.21 8.053V8.139C10.21 8.29813 10.1468 8.45074 10.0343 8.56326C9.92174 8.67579 9.76913 8.739 9.61 8.739H4.39C4.23087 8.739 4.07826 8.67579 3.96574 8.56326C3.85321 8.45074 3.79 8.29813 3.79 8.139L3.792 8.053Z" fill="#444A58"/>
</g>
<defs>
<clipPath id="clip0_449_3834">
<rect width="14" height="14" fill="white"/>
</clipPath>
</defs>
</svg>
