<svg width="14" height="14" viewBox="0 0 14 14" fill="none" xmlns="http://www.w3.org/2000/svg">
<g clip-path="url(#clip0_449_3890)">
<path fill-rule="evenodd" clip-rule="evenodd" d="M8.385 3.4609L13.585 8.4609C13.7938 8.69163 13.9312 8.978 13.9805 9.28526C14.0298 9.59253 13.9888 9.9075 13.8626 10.192C13.7364 10.4764 13.5304 10.7181 13.2696 10.8878C13.0087 11.0575 12.7042 11.1479 12.393 11.1479H1.611C1.30077 11.147 0.997416 11.0563 0.737532 10.8869C0.477649 10.7175 0.272328 10.4765 0.146328 10.193C0.0203283 9.90948 -0.0209707 9.59558 0.0274112 9.28914C0.075793 8.9827 0.21179 8.69679 0.419003 8.4659L5.619 3.4659C5.79391 3.27301 6.00718 3.11878 6.24514 3.01307C6.4831 2.90737 6.74052 2.85252 7.0009 2.85205C7.26128 2.85158 7.51889 2.9055 7.75723 3.01034C7.99558 3.11518 8.2094 3.26865 8.385 3.4609V3.4609Z" fill="#444A58"/>
</g>
<defs>
<clipPath id="clip0_449_3890">
<rect width="14" height="14" fill="white"/>
</clipPath>
</defs>
</svg>
