<svg width="14" height="14" viewBox="0 0 14 14" fill="none" xmlns="http://www.w3.org/2000/svg">
<g clip-path="url(#clip0_449_3936)">
<path d="M14 7.42294C14 7.31794 14 7.21494 13.995 7.10994C13.997 6.87391 13.987 6.63794 13.965 6.40294C13.8833 5.17564 13.4656 3.99445 12.7577 2.9886C12.0497 1.98275 11.0787 1.19099 9.951 0.699937C8.78629 0.12189 7.47927 -0.107026 6.18743 0.0407694C4.8956 0.188565 3.67406 0.706767 2.67 1.53294C1.8637 2.13058 1.20475 2.90469 0.743541 3.79609C0.282333 4.68748 0.0310808 5.67254 0.00899926 6.67594C-0.075401 8.15911 0.321134 9.62991 1.13964 10.8697C1.95815 12.1094 3.15492 13.0519 4.552 13.5569C4.76062 13.6316 4.9729 13.6957 5.188 13.7489C5.288 13.7749 5.378 13.7999 5.471 13.8279L5.645 13.8819L6.586 13.9999C6.686 13.9999 6.798 13.9999 6.904 13.9999C7.15007 14.0015 7.39605 13.9905 7.641 13.9669C8.04235 13.9202 8.44044 13.8487 8.833 13.7529C8.96929 13.7225 9.09797 13.6647 9.21125 13.5831C9.32453 13.5014 9.42005 13.3976 9.492 13.2779C9.59482 13.1002 9.64174 12.8957 9.62664 12.6909C9.61154 12.4862 9.53512 12.2907 9.40734 12.13C9.27956 11.9693 9.10634 11.8508 8.91025 11.79C8.71417 11.7292 8.5043 11.7288 8.308 11.7889C7.06885 12.1265 5.74716 11.9715 4.61976 11.3563C3.49237 10.7412 2.64674 9.71363 2.26 8.48894C2.03899 7.77287 1.98318 7.01602 2.09677 6.27528C2.21036 5.53454 2.49038 4.82918 2.91579 4.21224C3.34121 3.59529 3.90094 3.08281 4.55291 2.71332C5.20489 2.34382 5.93214 2.12693 6.68 2.07894C7.46073 2.02741 8.24253 2.16196 8.96112 2.47151C9.67971 2.78107 10.3145 3.25678 10.8134 3.85953C11.3123 4.46229 11.661 5.17486 11.8307 5.93864C12.0005 6.70243 11.9866 7.4956 11.79 8.25294C11.7563 8.40932 11.6845 8.55496 11.581 8.67694C11.4764 8.77135 11.3454 8.83153 11.2057 8.8494C11.0659 8.86728 10.924 8.84199 10.799 8.77694C10.5523 8.63893 10.358 8.42349 10.246 8.16394C9.789 7.22394 10.125 5.81794 10.178 4.79994C10.1905 4.55069 10.1036 4.30665 9.93638 4.12141C9.76914 3.93617 9.53523 3.82487 9.286 3.81194C9.12392 3.80415 8.96265 3.83914 8.81837 3.91339C8.67408 3.98763 8.55187 4.09853 8.464 4.23494C7.70793 3.77252 6.80094 3.62429 5.937 3.82194C5.42433 3.93887 4.94647 4.1751 4.54225 4.51143C4.13803 4.84775 3.81885 5.27469 3.61064 5.75756C3.40243 6.24042 3.31107 6.76559 3.34397 7.2904C3.37687 7.81521 3.53311 8.32486 3.8 8.77794C4.08159 9.27088 4.48641 9.68221 4.9748 9.97164C5.46319 10.2611 6.01839 10.4186 6.586 10.4289C7.35708 10.4464 8.11206 10.2068 8.732 9.74794C9.06597 10.1395 9.49082 10.4432 9.96936 10.6325C10.4479 10.8218 10.9655 10.891 11.477 10.8339C11.9912 10.7616 12.4745 10.5454 12.8712 10.2103C13.2679 9.87523 13.5618 9.43484 13.719 8.93994C13.764 8.81694 13.797 8.68994 13.83 8.56194L13.881 8.36194L14 7.42294ZM8.01 7.14994C7.99414 7.45395 7.87336 7.74306 7.66825 7.96802C7.46315 8.19298 7.18639 8.33987 6.88513 8.38367C6.58387 8.42747 6.27674 8.36547 6.01607 8.20823C5.75539 8.05099 5.55729 7.80824 5.45551 7.52133C5.35373 7.23442 5.35458 6.9211 5.45789 6.63474C5.56121 6.34838 5.76061 6.1067 6.02212 5.95086C6.28364 5.79503 6.5911 5.73467 6.89212 5.78009C7.19314 5.82551 7.4691 5.97388 7.673 6.19994C7.78931 6.32806 7.87899 6.47803 7.93685 6.64111C7.9947 6.8042 8.01957 6.97716 8.01 7.14994V7.14994Z" fill="#444A58"/>
</g>
<defs>
<clipPath id="clip0_449_3936">
<rect width="14" height="14" fill="white"/>
</clipPath>
</defs>
</svg>
