<svg width="14" height="14" viewBox="0 0 14 14" fill="none" xmlns="http://www.w3.org/2000/svg">
<g clip-path="url(#clip0_449_3389)">
<path d="M7 0C5.61553 0 4.26216 0.410543 3.11101 1.17971C1.95987 1.94888 1.06266 3.04213 0.532846 4.32122C0.00303304 5.6003 -0.13559 7.00777 0.134506 8.36563C0.404603 9.7235 1.07129 10.9708 2.05026 11.9497C3.02922 12.9287 4.2765 13.5954 5.63437 13.8655C6.99224 14.1356 8.3997 13.997 9.67879 13.4672C10.9579 12.9373 12.0511 12.0401 12.8203 10.889C13.5895 9.73785 14 8.38447 14 7C14 5.14348 13.2625 3.36301 11.9497 2.05025C10.637 0.737498 8.85652 0 7 0V0ZM9.758 8.023H7.992V9.788C7.992 10.0511 7.88749 10.3034 7.70145 10.4894C7.51542 10.6755 7.2631 10.78 7 10.78C6.73691 10.78 6.48459 10.6755 6.29855 10.4894C6.11252 10.3034 6.008 10.0511 6.008 9.788V8.023H4.242C3.98423 8.01482 3.73975 7.90666 3.5603 7.72143C3.38085 7.53619 3.28051 7.2884 3.28051 7.0305C3.28051 6.7726 3.38085 6.52481 3.5603 6.33957C3.73975 6.15434 3.98423 6.04618 4.242 6.038H6.008V4.273C6.008 4.00991 6.11252 3.75759 6.29855 3.57155C6.48459 3.38551 6.73691 3.281 7 3.281C7.2631 3.281 7.51542 3.38551 7.70145 3.57155C7.88749 3.75759 7.992 4.00991 7.992 4.273V6.038H9.758C10.0158 6.04618 10.2603 6.15434 10.4397 6.33957C10.6192 6.52481 10.7195 6.7726 10.7195 7.0305C10.7195 7.2884 10.6192 7.53619 10.4397 7.72143C10.2603 7.90666 10.0158 8.01482 9.758 8.023Z" fill="#444A58"/>
</g>
<defs>
<clipPath id="clip0_449_3389">
<rect width="14" height="14" fill="white"/>
</clipPath>
</defs>
</svg>
