<svg width="14" height="14" viewBox="0 0 14 14" fill="none" xmlns="http://www.w3.org/2000/svg">
<path fill-rule="evenodd" clip-rule="evenodd" d="M12.25 12.688H1.75C1.28595 12.6877 0.840987 12.5033 0.512856 12.1752C0.184725 11.847 0.000264943 11.4021 0 10.938L0 3.06201C0.000264943 2.59796 0.184725 2.153 0.512856 1.82487C0.840987 1.49674 1.28595 1.31228 1.75 1.31201H12.25C12.714 1.31228 13.159 1.49674 13.4871 1.82487C13.8153 2.153 13.9997 2.59796 14 3.06201V10.938C13.9997 11.4021 13.8153 11.847 13.4871 12.1752C13.159 12.5033 12.714 12.6877 12.25 12.688ZM2.924 3.28801H4.743C4.97506 3.28801 5.19762 3.3802 5.36172 3.54429C5.52581 3.70839 5.618 3.93095 5.618 4.16301V7.00001C5.618 7.23208 5.52581 7.45464 5.36172 7.61873C5.19762 7.78282 4.97506 7.87501 4.743 7.87501H2.924C2.69194 7.87501 2.46938 7.78282 2.30528 7.61873C2.14119 7.45464 2.049 7.23208 2.049 7.00001V4.16701C2.049 3.93495 2.14119 3.71239 2.30528 3.54829C2.46938 3.3842 2.69194 3.29201 2.924 3.29201V3.28801ZM2.81 9.27901H10.96C11.1573 9.27901 11.3466 9.3574 11.4861 9.49692C11.6256 9.63645 11.704 9.82569 11.704 10.023C11.704 10.2203 11.6256 10.4096 11.4861 10.5491C11.3466 10.6886 11.1573 10.767 10.96 10.767H2.81C2.61268 10.767 2.42344 10.6886 2.28391 10.5491C2.14439 10.4096 2.066 10.2203 2.066 10.023C2.066 9.82569 2.14439 9.63645 2.28391 9.49692C2.42344 9.3574 2.61268 9.27901 2.81 9.27901V9.27901ZM10.969 4.75601H8.188C7.99763 4.74899 7.81739 4.66843 7.68519 4.53126C7.55299 4.3941 7.47912 4.21101 7.47912 4.02051C7.47912 3.83001 7.55299 3.64693 7.68519 3.50976C7.81739 3.3726 7.99763 3.29203 8.188 3.28501H10.969C11.0679 3.28137 11.1665 3.29769 11.2589 3.33301C11.3513 3.36833 11.4356 3.42192 11.5069 3.49058C11.5781 3.55924 11.6348 3.64155 11.6735 3.7326C11.7122 3.82365 11.7321 3.92158 11.7321 4.02051C11.7321 4.11945 11.7122 4.21737 11.6735 4.30842C11.6348 4.39947 11.5781 4.48179 11.5069 4.55045C11.4356 4.6191 11.3513 4.67269 11.2589 4.70801C11.1665 4.74333 11.0679 4.75966 10.969 4.75601ZM10.969 7.73601H8.188C7.9928 7.73601 7.8056 7.65847 7.66757 7.52044C7.52954 7.38242 7.452 7.19521 7.452 7.00001C7.452 6.80481 7.52954 6.61761 7.66757 6.47958C7.8056 6.34155 7.9928 6.26401 8.188 6.26401H10.969C11.1642 6.26401 11.3514 6.34155 11.4894 6.47958C11.6275 6.61761 11.705 6.80481 11.705 7.00001C11.705 7.19521 11.6275 7.38242 11.4894 7.52044C11.3514 7.65847 11.1642 7.73601 10.969 7.73601Z" fill="#444A58"/>
</svg>
