<svg width="14" height="14" viewBox="0 0 14 14" fill="none" xmlns="http://www.w3.org/2000/svg">
<g clip-path="url(#clip0_449_3504)">
<path d="M0.497 14L13.503 14C13.7775 14 14 13.7775 14 13.503V8.897C14 8.62251 13.7775 8.4 13.503 8.4L0.497 8.4C0.222514 8.4 0 8.62251 0 8.897V13.503C0 13.7775 0.222514 14 0.497 14Z" fill="#444A58"/>
<path d="M8.897 5.6001L13.503 5.6001C13.7775 5.6001 14 5.37758 14 5.1031V0.497097C14 0.222612 13.7775 9.77516e-05 13.503 9.77516e-05L8.897 9.77516e-05C8.62251 9.77516e-05 8.4 0.222612 8.4 0.497097V5.1031C8.4 5.37758 8.62251 5.6001 8.897 5.6001Z" fill="#444A58"/>
<path d="M0.496998 5.6001L5.103 5.6001C5.37748 5.6001 5.6 5.37758 5.6 5.1031L5.6 0.497097C5.6 0.222612 5.37748 9.77516e-05 5.103 9.77516e-05L0.496998 9.77516e-05C0.222513 9.77516e-05 -1.43051e-06 0.222612 -1.43051e-06 0.497097L-1.43051e-06 5.1031C-1.43051e-06 5.37758 0.222513 5.6001 0.496998 5.6001Z" fill="#444A58"/>
</g>
<defs>
<clipPath id="clip0_449_3504">
<rect width="14" height="14" fill="white"/>
</clipPath>
</defs>
</svg>
