<svg width="14" height="14" viewBox="0 0 14 14" fill="none" xmlns="http://www.w3.org/2000/svg">
<g clip-path="url(#clip0_449_3741)">
<path d="M0 1.49202V12.509C0.00128801 12.831 0.12908 13.1396 0.355813 13.3682C0.582546 13.5968 0.89005 13.7271 1.212 13.731H1.7C2.02375 13.7305 2.33405 13.6015 2.56279 13.3724C2.79153 13.1433 2.92 12.8328 2.92 12.509V1.49202C2.92 1.16827 2.79153 0.857753 2.56279 0.628641C2.33405 0.399529 2.02375 0.270549 1.7 0.27002H1.211C0.889224 0.274213 0.581975 0.404651 0.355456 0.633227C0.128938 0.861803 0.00128401 1.17022 0 1.49202H0Z" fill="#444A58"/>
<path d="M5.538 7.91695V12.509C5.53929 12.8309 5.66708 13.1395 5.89382 13.3681C6.12055 13.5967 6.42805 13.727 6.75 13.731H7.242C7.56575 13.7304 7.87606 13.6014 8.10479 13.3723C8.33353 13.1432 8.462 12.8327 8.462 12.509V7.91695C8.46068 7.59407 8.33163 7.28483 8.10303 7.0568C7.87444 6.82877 7.56489 6.70048 7.242 6.69995H6.749C6.42809 6.70413 6.12158 6.83387 5.8952 7.06137C5.66882 7.28888 5.54059 7.59602 5.538 7.91695Z" fill="#444A58"/>
<path d="M11.076 4.42803V12.509C11.0773 12.831 11.2051 13.1396 11.4318 13.3682C11.6585 13.5968 11.9661 13.7271 12.288 13.731H12.78C13.1038 13.7305 13.4141 13.6015 13.6428 13.3724C13.8715 13.1433 14 12.8328 14 12.509V4.42803C13.9997 4.10446 13.8712 3.7942 13.6424 3.5653C13.4137 3.3364 13.1036 3.20756 12.78 3.20703H12.287C11.9653 3.21096 11.6581 3.34118 11.4315 3.5696C11.205 3.79801 11.0773 4.10632 11.076 4.42803Z" fill="#444A58"/>
</g>
<defs>
<clipPath id="clip0_449_3741">
<rect width="14" height="14" fill="white"/>
</clipPath>
</defs>
</svg>
