<svg width="14" height="14" viewBox="0 0 14 14" fill="none" xmlns="http://www.w3.org/2000/svg">
<g clip-path="url(#clip0_449_3368)">
<path d="M0.535001 3.851V3.863L6.435 6.554H6.441C6.6164 6.63565 6.80753 6.67795 7.001 6.67795C7.19447 6.67795 7.3856 6.63565 7.561 6.554H7.567L13.467 3.863V3.851C13.5758 3.81505 13.671 3.74659 13.7396 3.65485C13.8083 3.56312 13.8472 3.45253 13.851 3.338C13.8473 3.22261 13.8079 3.11121 13.7382 3.01915C13.6686 2.92709 13.572 2.85891 13.462 2.824L7.57 0.124H7.559C7.38396 0.0423261 7.19316 0 7 0C6.80685 0 6.61604 0.0423261 6.441 0.124H6.43L0.540001 2.824C0.429954 2.85891 0.333444 2.92709 0.263773 3.01915C0.194102 3.11121 0.154701 3.22261 0.151001 3.338C0.154833 3.45253 0.193706 3.56312 0.262373 3.65485C0.331041 3.74659 0.426197 3.81505 0.535001 3.851V3.851Z" fill="#444A58"/>
<path d="M13.46 6.48505L12.307 5.95605C10.5 6.78305 8.03 7.90905 8 7.91905C7.35778 8.17436 6.64222 8.17436 6 7.91905C5.972 7.91005 3.506 6.78505 1.7 5.95705L0.540001 6.48505C0.428225 6.51636 0.329694 6.58323 0.259327 6.67555C0.18896 6.76786 0.150588 6.88059 0.150023 6.99667C0.149458 7.11274 0.18673 7.22584 0.256195 7.31884C0.32566 7.41183 0.423536 7.47966 0.535001 7.51205V7.52305L6.435 10.2151H6.441C6.6164 10.2967 6.80753 10.339 7.001 10.339C7.19447 10.339 7.3856 10.2967 7.561 10.2151H7.567L13.467 7.52305V7.51205C13.5786 7.4802 13.6768 7.41285 13.7467 7.32019C13.8166 7.22754 13.8545 7.11463 13.8545 6.99855C13.8545 6.88248 13.8166 6.76957 13.7467 6.67692C13.6768 6.58426 13.5786 6.51691 13.467 6.48505H13.46Z" fill="#444A58"/>
<path d="M13.46 10.1479L12.307 9.6189C10.5 10.4469 8.03 11.5729 8 11.5819C7.35803 11.8385 6.64197 11.8385 6 11.5819C5.972 11.5729 3.506 10.4479 1.7 9.6199L0.540003 10.1479C0.428393 10.1795 0.330089 10.2466 0.259908 10.339C0.189728 10.4313 0.151472 10.544 0.150908 10.66C0.150344 10.776 0.187501 10.8891 0.25678 10.9821C0.326059 11.0752 0.423706 11.1432 0.535003 11.1759V11.1869L6.435 13.8779H6.441C6.6164 13.9595 6.80753 14.0018 7.001 14.0018C7.19447 14.0018 7.3856 13.9595 7.561 13.8779H7.567L13.467 11.1869V11.1759C13.5785 11.1437 13.6764 11.0762 13.7462 10.9835C13.8159 10.8908 13.8536 10.7779 13.8536 10.6619C13.8536 10.5459 13.8159 10.433 13.7462 10.3403C13.6764 10.2476 13.5785 10.1801 13.467 10.1479H13.46Z" fill="#444A58"/>
</g>
<defs>
<clipPath id="clip0_449_3368">
<rect width="14" height="14" fill="white"/>
</clipPath>
</defs>
</svg>
