<svg width="14" height="14" viewBox="0 0 14 14" fill="none" xmlns="http://www.w3.org/2000/svg">
<g clip-path="url(#clip0_449_4004)">
<path d="M13.707 3.60801C13.628 3.31031 13.4721 3.03861 13.255 2.82011C13.0379 2.60161 12.7672 2.44398 12.47 2.36301C10.6552 2.14432 8.82784 2.04577 7 2.06801C5.17216 2.04577 3.34485 2.14432 1.53 2.36301C1.23282 2.44398 0.962125 2.60161 0.745028 2.82011C0.527931 3.03861 0.372053 3.31031 0.293003 3.60801C0.0908864 4.72722 -0.0071987 5.86273 3.32319e-06 7.00001C-0.0071987 8.1373 0.0908864 9.27281 0.293003 10.392C0.372053 10.6897 0.527931 10.9614 0.745028 11.1799C0.962125 11.3984 1.23282 11.556 1.53 11.637C3.34485 11.8557 5.17216 11.9543 7 11.932C8.82784 11.9543 10.6552 11.8557 12.47 11.637C12.7672 11.556 13.0379 11.3984 13.255 11.1799C13.4721 10.9614 13.628 10.6897 13.707 10.392C13.9091 9.27281 14.0072 8.1373 14 7.00001C14.0072 5.86273 13.9091 4.72722 13.707 3.60801V3.60801ZM5.568 9.08201V4.91801L9.227 7.00001L5.568 9.08201Z" fill="#444A58"/>
</g>
<defs>
<clipPath id="clip0_449_4004">
<rect width="14" height="14" fill="white"/>
</clipPath>
</defs>
</svg>
