<svg width="14" height="14" viewBox="0 0 14 14" fill="none" xmlns="http://www.w3.org/2000/svg">
<g clip-path="url(#clip0_449_3604)">
<path fill-rule="evenodd" clip-rule="evenodd" d="M14 2.94111C14 2.59633 13.863 2.26567 13.6192 2.02187C13.3754 1.77808 13.0448 1.64111 12.7 1.64111H1.3C0.955219 1.64111 0.624558 1.77808 0.380761 2.02187C0.136964 2.26567 0 2.59633 0 2.94111L0 11.0591C0 11.4039 0.136964 11.7346 0.380761 11.9784C0.624558 12.2221 0.955219 12.3591 1.3 12.3591H12.7C13.0448 12.3591 13.3754 12.2221 13.6192 11.9784C13.863 11.7346 14 11.4039 14 11.0591V2.94111ZM6.636 8.08411L2.7 4.33711C2.63432 4.27236 2.59007 4.18902 2.57322 4.09834C2.55637 4.00766 2.56773 3.91399 2.60576 3.82997C2.6438 3.74594 2.70668 3.6756 2.78594 3.62842C2.86519 3.58124 2.957 3.55949 3.049 3.56611H10.954C11.0463 3.55913 11.1384 3.58075 11.2179 3.62803C11.2975 3.67531 11.3605 3.74596 11.3984 3.83034C11.4363 3.91473 11.4473 4.00875 11.4299 4.09961C11.4125 4.19048 11.3675 4.27376 11.301 4.33811L7.332 8.08511C7.237 8.17226 7.11272 8.22052 6.98381 8.22034C6.85489 8.22015 6.73075 8.17153 6.636 8.08411V8.08411Z" fill="#444A58"/>
</g>
<defs>
<clipPath id="clip0_449_3604">
<rect width="14" height="14" fill="white"/>
</clipPath>
</defs>
</svg>
