<svg width="14" height="14" viewBox="0 0 14 14" fill="none" xmlns="http://www.w3.org/2000/svg">
<g clip-path="url(#clip0_449_3588)">
<path fill-rule="evenodd" clip-rule="evenodd" d="M8.938 1.93799H5.062C3.71947 1.93799 2.43193 2.4713 1.48263 3.42061C0.533316 4.36992 0 5.65746 0 6.99999C0 8.34251 0.533316 9.63005 1.48263 10.5794C2.43193 11.5287 3.71947 12.062 5.062 12.062H14V6.99999C14 5.65746 13.4667 4.36992 12.5174 3.42061C11.5681 2.4713 10.2805 1.93799 8.938 1.93799V1.93799ZM3.808 7.89999C3.63 7.89999 3.45599 7.8472 3.30799 7.74831C3.15998 7.64942 3.04463 7.50886 2.97651 7.3444C2.90839 7.17995 2.89057 6.99899 2.92529 6.82441C2.96002 6.64982 3.04574 6.48946 3.1716 6.36359C3.29747 6.23772 3.45784 6.15201 3.63242 6.11728C3.807 6.08256 3.98796 6.10038 4.15242 6.1685C4.31687 6.23662 4.45743 6.35197 4.55632 6.49998C4.65522 6.64798 4.708 6.82199 4.708 6.99999C4.708 7.11818 4.68472 7.23521 4.63949 7.3444C4.59426 7.4536 4.52797 7.55281 4.4444 7.63638C4.36082 7.71996 4.26161 7.78625 4.15242 7.83148C4.04322 7.87671 3.92619 7.89999 3.808 7.89999ZM7 7.89999C6.822 7.89999 6.64799 7.8472 6.49999 7.74831C6.35198 7.64942 6.23663 7.50886 6.16851 7.3444C6.10039 7.17995 6.08257 6.99899 6.11729 6.82441C6.15202 6.64982 6.23774 6.48946 6.3636 6.36359C6.48947 6.23772 6.64984 6.15201 6.82442 6.11728C6.999 6.08256 7.17996 6.10038 7.34442 6.1685C7.50887 6.23662 7.64943 6.35197 7.74832 6.49998C7.84722 6.64798 7.9 6.82199 7.9 6.99999C7.9 7.23868 7.80518 7.4676 7.6364 7.63638C7.46761 7.80517 7.23869 7.89999 7 7.89999V7.89999ZM10.192 7.89999C10.014 7.89999 9.83999 7.8472 9.69199 7.74831C9.54398 7.64942 9.42863 7.50886 9.36051 7.3444C9.29239 7.17995 9.27457 6.99899 9.30929 6.82441C9.34402 6.64982 9.42974 6.48946 9.5556 6.36359C9.68147 6.23772 9.84184 6.15201 10.0164 6.11728C10.191 6.08256 10.372 6.10038 10.5364 6.1685C10.7009 6.23662 10.8414 6.35197 10.9403 6.49998C11.0392 6.64798 11.092 6.82199 11.092 6.99999C11.092 7.23868 10.9972 7.4676 10.8284 7.63638C10.6596 7.80517 10.4307 7.89999 10.192 7.89999V7.89999Z" fill="#444A58"/>
</g>
<defs>
<clipPath id="clip0_449_3588">
<rect width="14" height="14" fill="white"/>
</clipPath>
</defs>
</svg>
