<svg width="14" height="14" viewBox="0 0 14 14" fill="none" xmlns="http://www.w3.org/2000/svg">
<g clip-path="url(#clip0_449_3898)">
<path d="M5.049 11.6001L4.015 11.6251L11.659 4.00006V5.01806C11.6544 5.17439 11.6813 5.33004 11.7379 5.47581C11.7946 5.62157 11.8799 5.75449 11.9889 5.86668C12.0978 5.97887 12.2282 6.06806 12.3723 6.12896C12.5163 6.18987 12.6711 6.22125 12.8275 6.22125C12.9839 6.22125 13.1387 6.18987 13.2827 6.12896C13.4268 6.06806 13.5571 5.97887 13.6661 5.86668C13.7751 5.75449 13.8604 5.62157 13.9171 5.47581C13.9737 5.33004 14.0006 5.17439 13.996 5.01806L13.987 1.16806C13.9873 1.01376 13.9569 0.860933 13.8977 0.718448C13.8385 0.575963 13.7515 0.44665 13.642 0.338007C13.5324 0.229363 13.4023 0.143548 13.2594 0.0855375C13.1164 0.0275268 12.9633 -0.00152651 12.809 6.1775e-05L8.922 0.0590618C8.61156 0.0629074 8.31537 0.189916 8.09858 0.412146C7.88179 0.634377 7.76215 0.933626 7.766 1.24406C7.76985 1.5545 7.89685 1.85069 8.11908 2.06748C8.34131 2.28428 8.64056 2.40391 8.951 2.40006L9.985 2.37506L2.341 10.0001V8.98206C2.34087 8.67163 2.21742 8.37396 1.99782 8.15454C1.77821 7.93512 1.48044 7.81193 1.17 7.81206C0.859564 7.81219 0.561896 7.93564 0.342478 8.15525C0.123061 8.37485 -0.000132501 8.67263 1.06946e-07 8.98306L0.00900011 12.8331C0.008853 12.9876 0.0394366 13.1407 0.0989723 13.2833C0.158508 13.4259 0.245808 13.5553 0.355795 13.6639C0.465782 13.7725 0.596261 13.8581 0.739644 13.9158C0.883027 13.9736 1.03645 14.0022 1.191 14.0001L5.078 13.9411C5.38844 13.9372 5.68463 13.8102 5.90142 13.588C6.11821 13.3657 6.23785 13.0665 6.234 12.7561C6.23015 12.4456 6.10315 12.1494 5.88092 11.9326C5.65869 11.7158 5.35944 11.5962 5.049 11.6001V11.6001Z" fill="#444A58"/>
</g>
<defs>
<clipPath id="clip0_449_3898">
<rect width="14" height="14" fill="white"/>
</clipPath>
</defs>
</svg>
