<svg width="14" height="14" viewBox="0 0 14 14" fill="none" xmlns="http://www.w3.org/2000/svg">
<g clip-path="url(#clip0_449_3710)">
<path d="M4.005 1.20898H12.99C13.1227 1.20898 13.2541 1.23514 13.3767 1.28596C13.4993 1.33678 13.6107 1.41127 13.7045 1.50516C13.7983 1.59905 13.8727 1.71051 13.9234 1.83317C13.9741 1.95582 14.0001 2.08727 14 2.21998V2.61998C14 2.75249 13.9739 2.88369 13.9232 3.00611C13.8725 3.12853 13.7982 3.23976 13.7045 3.33346C13.6108 3.42715 13.4995 3.50147 13.3771 3.55218C13.2547 3.60289 13.1235 3.62898 12.991 3.62898H4.005C3.73713 3.62898 3.48023 3.52257 3.29082 3.33316C3.10141 3.14375 2.995 2.88685 2.995 2.61898V2.21898C2.995 1.95112 3.10141 1.69422 3.29082 1.50481C3.48023 1.31539 3.73713 1.20898 4.005 1.20898V1.20898Z" fill="#444A58"/>
<path d="M1.01 5.79004H12.99C13.2557 5.79132 13.5104 5.89677 13.6992 6.08375C13.8881 6.27073 13.9961 6.52432 14 6.79004V7.20004C13.9997 7.46783 13.8932 7.72457 13.7039 7.91392C13.5145 8.10328 13.2578 8.20977 12.99 8.21004H1.01C0.742213 8.20977 0.485469 8.10328 0.296115 7.91392C0.10676 7.72457 0.000264743 7.46783 0 7.20004L0 6.79204C0.00340498 6.52597 0.11116 6.27187 0.300063 6.08447C0.488966 5.89706 0.743909 5.79133 1.01 5.79004V5.79004Z" fill="#444A58"/>
<path d="M7.505 10.3721H12.99C13.2579 10.3721 13.5148 10.4785 13.7042 10.6679C13.8936 10.8573 14 11.1142 14 11.3821V11.7821C14 12.0497 13.8937 12.3063 13.7045 12.4955C13.5152 12.6848 13.2586 12.7911 12.991 12.7911H7.5C7.2324 12.7911 6.97575 12.6848 6.78653 12.4955C6.5973 12.3063 6.491 12.0497 6.491 11.7821V11.3821C6.491 11.2491 6.51726 11.1174 6.56826 10.9946C6.61927 10.8718 6.69402 10.7603 6.78824 10.6665C6.88245 10.5726 6.99426 10.4983 7.11726 10.4478C7.24026 10.3973 7.37203 10.3716 7.505 10.3721Z" fill="#444A58"/>
</g>
<defs>
<clipPath id="clip0_449_3710">
<rect width="14" height="14" fill="white"/>
</clipPath>
</defs>
</svg>
