<svg width="14" height="14" viewBox="0 0 14 14" fill="none" xmlns="http://www.w3.org/2000/svg">
<g clip-path="url(#clip0_449_3723)">
<path d="M2.283 1.61507C2.03025 1.36219 1.68739 1.22006 1.32985 1.21997C0.972317 1.21988 0.629385 1.36182 0.376501 1.61457C0.123617 1.86732 -0.0185041 2.21018 -0.0185979 2.56772C-0.0186916 2.92525 0.12325 3.26819 0.376001 3.52107L3.563 6.70807C3.59653 6.74143 3.62314 6.78109 3.6413 6.82476C3.65945 6.86844 3.6688 6.91527 3.6688 6.96257C3.6688 7.00987 3.65945 7.0567 3.6413 7.10038C3.62314 7.14405 3.59653 7.18371 3.563 7.21707L0.376001 10.4001C0.123117 10.653 -0.0189514 10.9959 -0.0189514 11.3536C-0.0189514 11.7112 0.123117 12.0542 0.376001 12.3071C0.628885 12.56 0.971869 12.702 1.3295 12.702C1.68713 12.702 2.03012 12.56 2.283 12.3071L6.6 8.00007C6.73558 7.86458 6.84313 7.7037 6.91651 7.52662C6.98989 7.34955 7.02766 7.15975 7.02766 6.96807C7.02766 6.77639 6.98989 6.58659 6.91651 6.40952C6.84313 6.23244 6.73558 6.07156 6.6 5.93607L2.283 1.61507Z" fill="#444A58"/>
<path d="M12.633 10.026H8.992C8.66419 10.0195 8.3445 10.1282 8.08865 10.3332C7.83281 10.5383 7.65704 10.8266 7.592 11.148C7.55929 11.3413 7.56913 11.5395 7.62084 11.7287C7.67254 11.9178 7.76487 12.0934 7.89138 12.2433C8.01789 12.3931 8.17555 12.5135 8.35337 12.5962C8.53119 12.6789 8.7249 12.7218 8.921 12.722H12.635C12.993 12.722 13.3364 12.5797 13.5896 12.3266C13.8428 12.0734 13.985 11.73 13.985 11.372C13.985 11.0139 13.8428 10.6706 13.5896 10.4174C13.3364 10.1642 12.993 10.022 12.635 10.022L12.633 10.026Z" fill="#444A58"/>
</g>
<defs>
<clipPath id="clip0_449_3723">
<rect width="14" height="14" fill="white"/>
</clipPath>
</defs>
</svg>
