<svg width="14" height="14" viewBox="0 0 14 14" fill="none" xmlns="http://www.w3.org/2000/svg">
<g clip-path="url(#clip0_449_3782)">
<path d="M12.844 0.555896L10.14 0.0148962C10.0165 -0.00983493 9.88884 -0.00369858 9.7683 0.0327606C9.64776 0.0692198 9.53808 0.134874 9.449 0.223896L4.837 4.8429C4.19194 4.80432 3.54607 4.9038 2.94251 5.13471C2.33895 5.36561 1.7916 5.72262 1.337 6.1819C0.489048 7.03988 0.0126669 8.19701 0.0107783 9.40331C0.00888974 10.6096 0.481645 11.7682 1.32691 12.6289C2.17217 13.4895 3.32209 13.983 4.52823 14.0029C5.73436 14.0227 6.89989 13.5673 7.773 12.7349L7.828 12.6809C8.28726 12.1683 8.63932 11.569 8.86344 10.9183C9.08756 10.2676 9.17921 9.57858 9.133 8.8919C9.133 8.2819 9.133 7.8419 9.133 7.5249L10.407 7.5819C10.5132 7.58678 10.6192 7.56937 10.7182 7.53079C10.8173 7.49221 10.9071 7.43332 10.982 7.3579L11.709 6.6309C11.852 6.48675 11.9321 6.29192 11.932 6.0889V4.8749H13.145C13.2455 4.87478 13.3451 4.85485 13.4379 4.81624C13.5307 4.77764 13.615 4.72111 13.686 4.6499L13.779 4.5569C13.8681 4.46767 13.9338 4.35782 13.9703 4.2371C14.0067 4.11638 14.0128 3.98853 13.988 3.8649L13.447 1.1569C13.4173 1.00825 13.3442 0.871767 13.2368 0.764764C13.1295 0.657762 12.9927 0.585064 12.844 0.555896V0.555896ZM5.974 10.9889C5.68581 11.2767 5.31875 11.4727 4.91922 11.552C4.51968 11.6313 4.10561 11.5903 3.72933 11.4344C3.35306 11.2784 3.03148 11.0143 2.80523 10.6756C2.57898 10.3369 2.45822 9.93872 2.45822 9.5314C2.45822 9.12407 2.57898 8.72589 2.80523 8.38717C3.03148 8.04846 3.35306 7.78443 3.72933 7.62844C4.10561 7.47245 4.51968 7.43151 4.91922 7.5108C5.31875 7.59009 5.68581 7.78604 5.974 8.0739C6.16603 8.26495 6.31841 8.49206 6.42239 8.74219C6.52636 8.99231 6.57989 9.26052 6.57989 9.5314C6.57989 9.80227 6.52636 10.0705 6.42239 10.3206C6.31841 10.5707 6.16603 10.7978 5.974 10.9889V10.9889Z" fill="#444A58"/>
</g>
<defs>
<clipPath id="clip0_449_3782">
<rect width="14" height="14" fill="white"/>
</clipPath>
</defs>
</svg>
