<svg width="14" height="14" viewBox="0 0 14 14" fill="none" xmlns="http://www.w3.org/2000/svg">
<g clip-path="url(#clip0_449_3946)">
<path d="M0 7.31509V6.68709C0 6.66209 0.009 6.63609 0.012 6.61109C0.05 6.30009 0.071 5.98509 0.129 5.67709C0.365795 4.38611 0.971949 3.19151 1.874 2.23809C2.73918 1.30643 3.84177 0.628008 5.0634 0.27565C6.28503 -0.0767082 7.57955 -0.089693 8.808 0.238089C10.1358 0.593765 11.3295 1.3325 12.2401 2.36215C13.1508 3.39181 13.7382 4.6668 13.929 6.02809C14.053 6.87339 14.0161 7.73453 13.82 8.56609C13.4227 10.3374 12.3453 11.8817 10.82 12.8661C9.89985 13.4761 8.84458 13.852 7.746 13.9611C7.602 13.9761 7.458 13.9881 7.314 14.0021H6.684C6.654 14.0021 6.624 13.9911 6.594 13.9891C5.90169 13.9538 5.21898 13.8118 4.57 13.5681C3.04494 13.0076 1.76467 11.9301 0.952 10.5231C0.451277 9.67701 0.140435 8.7322 0.041 7.75409C0.026 7.60809 0.014 7.46209 0 7.31509ZM8.708 12.1301C8.472 10.8898 8.14069 9.66947 7.717 8.48009C6.15928 9.01243 4.83458 10.0689 3.969 11.4691C4.63803 11.9721 5.42401 12.2967 6.25303 12.4124C7.08205 12.528 7.92686 12.4309 8.708 12.1301V12.1301ZM6.8 6.31409C5.09361 6.81771 3.31704 7.04227 1.539 6.97909C1.52633 7.65701 1.65082 8.3305 1.905 8.95909C2.11134 9.47328 2.39939 9.95076 2.758 10.3731C3.79124 8.79836 5.31867 7.61181 7.1 7.00009L6.8 6.31409ZM6.284 4.93109C6.278 4.91609 6.277 4.90909 6.274 4.90309C5.76783 3.92832 5.16479 3.00701 4.474 2.15309C4.444 2.11709 4.423 2.11809 4.385 2.13809C3.22133 2.72641 2.32325 3.73309 1.871 4.95609C1.804 5.13009 1.755 5.31009 1.697 5.48809C2.33075 5.5199 2.96601 5.50218 3.597 5.43509C4.50748 5.35896 5.40782 5.19009 6.284 4.93109V4.93109ZM7.9 4.45009C8.86181 4.05895 9.71818 3.44716 10.4 2.66409C9.68792 2.0856 8.83085 1.71344 7.922 1.58809C7.32902 1.5051 6.7259 1.53051 6.142 1.66309C6.81098 2.53708 7.39938 3.4699 7.9 4.45009V4.45009ZM10.077 11.5001C11.1647 10.7484 11.9129 9.59895 12.16 8.30009C11.1765 8.0579 10.1566 8.00026 9.152 8.13009C9.53547 9.23143 9.8445 10.3573 10.077 11.5001V11.5001ZM8.614 5.60609C8.722 5.85909 8.828 6.10609 8.931 6.35209C8.947 6.39009 8.972 6.38209 9 6.37909C9.307 6.34409 9.614 6.29809 9.923 6.27909C10.6177 6.23491 11.3152 6.27555 12 6.40009C12.15 6.42509 12.3 6.45409 12.448 6.48109C12.3981 5.44447 12.0254 4.44938 11.382 3.63509C10.6154 4.48753 9.6703 5.16049 8.614 5.60609Z" fill="#444A58"/>
</g>
<defs>
<clipPath id="clip0_449_3946">
<rect width="14" height="14" fill="white"/>
</clipPath>
</defs>
</svg>
