<svg width="14" height="14" viewBox="0 0 14 14" fill="none" xmlns="http://www.w3.org/2000/svg">
<path d="M9.995 1.20898H1.011C0.744565 1.21002 0.489219 1.31577 0.300072 1.50342C0.110926 1.69107 0.003148 1.94557 0 2.21198L0 2.61898C0.000529748 2.88677 0.107279 3.14341 0.296821 3.33258C0.486363 3.52174 0.743212 3.62799 1.011 3.62798H9.995C10.2628 3.62799 10.5196 3.52174 10.7092 3.33258C10.8987 3.14341 11.0055 2.88677 11.006 2.61898V2.21098C11.0026 1.94474 10.8947 1.6905 10.7056 1.50306C10.5165 1.31563 10.2613 1.21001 9.995 1.20898V1.20898Z" fill="#444A58"/>
<path d="M12.99 5.79004H1.011C0.744644 5.79133 0.489447 5.89716 0.300356 6.08476C0.111265 6.27235 0.00340502 6.5267 0 6.79304L0 7.20004C0.000265045 7.468 0.106898 7.72489 0.296468 7.91428C0.486039 8.10366 0.743039 8.21004 1.011 8.21004H12.99C13.1226 8.21004 13.254 8.18391 13.3765 8.13316C13.499 8.0824 13.6104 8.008 13.7042 7.91422C13.798 7.82043 13.8724 7.70909 13.9231 7.58655C13.9739 7.46401 14 7.33267 14 7.20004V6.79204C13.9969 6.52589 13.8892 6.27164 13.7002 6.08418C13.5113 5.89672 13.2562 5.79107 12.99 5.79004Z" fill="#444A58"/>
<path d="M6.5 10.3721H1.011C0.745077 10.3731 0.490175 10.4784 0.301112 10.6654C0.11205 10.8524 0.00392797 11.1062 0 11.3721L0 11.7781C0.000265045 12.046 0.106898 12.3029 0.296468 12.4923C0.486039 12.6817 0.743039 12.7881 1.011 12.7881H6.5C6.76796 12.7881 7.02496 12.6817 7.21453 12.4923C7.4041 12.3029 7.51074 12.046 7.511 11.7781V11.3711C7.50681 11.1053 7.39858 10.8519 7.20954 10.6651C7.02051 10.4783 6.76575 10.3731 6.5 10.3721V10.3721Z" fill="#444A58"/>
</svg>
