<svg width="14" height="14" viewBox="0 0 14 14" fill="none" xmlns="http://www.w3.org/2000/svg">
<g clip-path="url(#clip0_449_3753)">
<path d="M10.528 0.694092C10.3494 0.694407 10.1737 0.738182 10.0158 0.821636C9.85796 0.90509 9.7228 1.02571 9.622 1.17309L2.587 11.5891C2.49426 11.7076 2.42682 11.8438 2.38885 11.9894C2.35087 12.135 2.34317 12.2869 2.36623 12.4356C2.38928 12.5843 2.44259 12.7266 2.52286 12.8539C2.60314 12.9812 2.70867 13.0906 2.83293 13.1755C2.95719 13.2603 3.09754 13.3188 3.2453 13.3472C3.39305 13.3757 3.54507 13.3735 3.69195 13.3408C3.83884 13.3082 3.97746 13.2457 4.09924 13.1574C4.22103 13.069 4.32339 12.9566 4.4 12.8271L11.435 2.41109C11.5469 2.24594 11.6118 2.05347 11.6227 1.85428C11.6336 1.65509 11.5902 1.45668 11.497 1.28029C11.4038 1.1039 11.2644 0.956174 11.0937 0.852914C10.923 0.749655 10.7275 0.694756 10.528 0.694092V0.694092Z" fill="#444A58"/>
<path d="M11.073 7.17011C10.6721 7.15377 10.2724 7.22309 9.90039 7.37346C9.52842 7.52383 9.19279 7.75179 8.91589 8.04213C8.63899 8.33247 8.42718 8.67852 8.29459 9.05719C8.16201 9.43586 8.11169 9.83845 8.147 10.2381C8.11036 10.638 8.15975 11.0412 8.29186 11.4205C8.42396 11.7997 8.63572 12.1463 8.9129 12.4369C9.19007 12.7276 9.52625 12.9555 9.89883 13.1054C10.2714 13.2553 10.6718 13.3238 11.073 13.3061C11.4743 13.3239 11.8748 13.2556 12.2475 13.1057C12.6202 12.9559 12.9565 12.728 13.2338 12.4373C13.5111 12.1467 13.7229 11.8 13.8551 11.4207C13.9872 11.0414 14.0367 10.6381 14 10.2381C14.0353 9.83836 13.985 9.43568 13.8523 9.05694C13.7197 8.6782 13.5078 8.3321 13.2308 8.04174C12.9538 7.75138 12.618 7.52345 12.2459 7.37314C11.8738 7.22284 11.474 7.15362 11.073 7.17011V7.17011ZM11.073 11.3261C10.9309 11.3319 10.7891 11.3074 10.6572 11.254C10.5253 11.2007 10.4063 11.1199 10.3082 11.0169C10.21 10.9139 10.135 10.7912 10.088 10.6569C10.0411 10.5226 10.0234 10.3798 10.036 10.2381C10.0284 10.0972 10.0496 9.95616 10.0983 9.82369C10.1471 9.69122 10.2223 9.57007 10.3193 9.46762C10.4164 9.36517 10.5334 9.28358 10.663 9.22782C10.7927 9.17206 10.9324 9.1433 11.0735 9.1433C11.2146 9.1433 11.3543 9.17206 11.484 9.22782C11.6136 9.28358 11.7306 9.36517 11.8277 9.46762C11.9247 9.57007 11.9999 9.69122 12.0486 9.82369C12.0974 9.95616 12.1186 10.0972 12.111 10.2381C12.1236 10.3799 12.1059 10.5227 12.0589 10.6571C12.0119 10.7915 11.9368 10.9143 11.8385 11.0173C11.7402 11.1203 11.6211 11.2011 11.4891 11.2544C11.3571 11.3076 11.2152 11.3321 11.073 11.3261Z" fill="#444A58"/>
<path d="M5.851 3.763C5.88645 3.36326 5.83625 2.96056 5.70373 2.58177C5.57121 2.20297 5.35942 1.8568 5.08251 1.56635C4.80559 1.2759 4.46991 1.04785 4.09786 0.897416C3.72582 0.746986 3.32597 0.677637 2.925 0.693996C2.52411 0.677784 2.12437 0.747241 1.75245 0.897735C1.38052 1.04823 1.04497 1.2763 0.768158 1.56674C0.49135 1.85717 0.279656 2.20329 0.147195 2.58201C0.0147337 2.96074 -0.035448 3.36335 -3.11248e-06 3.763C-0.0364763 4.16277 0.0130059 4.56572 0.145121 4.94478C0.277236 5.32385 0.488926 5.67027 0.765976 5.96077C1.04303 6.25127 1.37902 6.47913 1.75141 6.62905C2.12379 6.77898 2.52395 6.84749 2.925 6.83C3.32613 6.84764 3.72639 6.77923 4.0989 6.62937C4.47141 6.47952 4.80753 6.25168 5.08469 5.96116C5.36185 5.67064 5.57363 5.32418 5.7058 4.94503C5.83798 4.56589 5.88748 4.16286 5.851 3.763V3.763ZM1.887 3.763C1.87419 3.62113 1.89185 3.47816 1.93877 3.34367C1.9857 3.20918 2.06082 3.08627 2.1591 2.98316C2.25738 2.88005 2.37655 2.79913 2.50864 2.74581C2.64072 2.69249 2.78268 2.66801 2.925 2.674C3.06714 2.66817 3.20889 2.69274 3.34078 2.74606C3.47267 2.79939 3.59167 2.88024 3.68982 2.98322C3.78797 3.0862 3.86302 3.20894 3.90996 3.34323C3.95689 3.47753 3.97464 3.6203 3.962 3.762C3.97464 3.9037 3.95689 4.04646 3.90996 4.18076C3.86302 4.31506 3.78797 4.43779 3.68982 4.54077C3.59167 4.64375 3.47267 4.7246 3.34078 4.77793C3.20889 4.83125 3.06714 4.85582 2.925 4.85C2.78277 4.85597 2.64091 4.83151 2.5089 4.77825C2.37689 4.72499 2.25777 4.64416 2.1595 4.54116C2.06124 4.43817 1.9861 4.31538 1.9391 4.18101C1.89211 4.04664 1.87434 3.90378 1.887 3.762V3.763Z" fill="#444A58"/>
</g>
<defs>
<clipPath id="clip0_449_3753">
<rect width="14" height="14" fill="white"/>
</clipPath>
</defs>
</svg>
