<svg width="14" height="14" viewBox="0 0 14 14" fill="none" xmlns="http://www.w3.org/2000/svg">
<g clip-path="url(#clip0_449_3673)">
<path d="M3.231 2.15406C2.80198 2.14652 2.37576 2.2245 1.9772 2.38346C1.57865 2.54241 1.21575 2.77917 0.909684 3.07989C0.603618 3.38062 0.360519 3.7393 0.194573 4.135C0.0286279 4.53069 -0.056839 4.95548 -0.056839 5.38456C-0.056839 5.81365 0.0286279 6.23844 0.194573 6.63413C0.360519 7.02983 0.603618 7.38851 0.909684 7.68923C1.21575 7.98996 1.57865 8.22671 1.9772 8.38567C2.37576 8.54463 2.80198 8.62261 3.231 8.61506C3.304 8.61506 3.373 8.59906 3.445 8.59406C3.16936 8.956 2.80967 9.24531 2.39707 9.43698C1.98447 9.62864 1.53137 9.71689 1.077 9.69406C0.791363 9.69406 0.517423 9.80753 0.315447 10.0095C0.11347 10.2115 6.96629e-07 10.4854 6.96629e-07 10.7711C6.96629e-07 11.0567 0.11347 11.3306 0.315447 11.5326C0.517423 11.7346 0.791363 11.8481 1.077 11.8481C4.646 11.8481 6.462 8.95506 6.462 5.38706C6.46226 4.9626 6.37888 4.54223 6.21663 4.15C6.05437 3.75777 5.81642 3.40135 5.51637 3.10111C5.21632 2.80087 4.86005 2.5627 4.46791 2.4002C4.07578 2.2377 3.65547 2.15406 3.231 2.15406Z" fill="#444A58"/>
<path d="M10.769 2.15406C10.34 2.14652 9.91375 2.2245 9.5152 2.38346C9.11664 2.54241 8.75374 2.77917 8.44768 3.07989C8.14161 3.38062 7.89851 3.7393 7.73257 4.135C7.56662 4.53069 7.48116 4.95548 7.48116 5.38456C7.48116 5.81365 7.56662 6.23844 7.73257 6.63413C7.89851 7.02983 8.14161 7.38851 8.44768 7.68923C8.75374 7.98996 9.11664 8.22671 9.5152 8.38567C9.91375 8.54463 10.34 8.62261 10.769 8.61506C10.843 8.61506 10.912 8.59906 10.984 8.59406C10.7083 8.95614 10.3484 9.24555 9.93562 9.43722C9.52282 9.62889 9.06953 9.71705 8.615 9.69406C8.32936 9.69406 8.05542 9.80753 7.85344 10.0095C7.65146 10.2115 7.538 10.4854 7.538 10.7711C7.538 11.0567 7.65146 11.3306 7.85344 11.5326C8.05542 11.7346 8.32936 11.8481 8.615 11.8481C12.184 11.8461 14 8.95306 14 5.38506C14.0001 4.96073 13.9166 4.54052 13.7543 4.14846C13.592 3.7564 13.354 3.40016 13.054 3.10011C12.7539 2.80006 12.3977 2.56207 12.0056 2.39974C11.6135 2.23742 11.1933 2.15393 10.769 2.15406V2.15406Z" fill="#444A58"/>
</g>
<defs>
<clipPath id="clip0_449_3673">
<rect width="14" height="14" fill="white"/>
</clipPath>
</defs>
</svg>
