<svg width="14" height="14" viewBox="0 0 14 14" fill="none" xmlns="http://www.w3.org/2000/svg">
<g clip-path="url(#clip0_449_3570)">
<path d="M0 0.497L0 13.503C0 13.7775 0.222515 14 0.497 14H5.103C5.37749 14 5.6 13.7775 5.6 13.503L5.6 0.497C5.6 0.222514 5.37749 0 5.103 0H0.497C0.222515 0 0 0.222514 0 0.497Z" fill="#444A58"/>
<path d="M8.39999 8.897V13.503C8.39999 13.7775 8.62251 14 8.89699 14H13.503C13.7775 14 14 13.7775 14 13.503V8.897C14 8.62251 13.7775 8.4 13.503 8.4H8.89699C8.62251 8.4 8.39999 8.62251 8.39999 8.897Z" fill="#444A58"/>
<path d="M8.39999 0.497097V5.1031C8.39999 5.37758 8.62251 5.6001 8.89699 5.6001H13.503C13.7775 5.6001 14 5.37758 14 5.1031V0.497097C14 0.222611 13.7775 9.72748e-05 13.503 9.72748e-05H8.89699C8.62251 9.72748e-05 8.39999 0.222611 8.39999 0.497097Z" fill="#444A58"/>
</g>
<defs>
<clipPath id="clip0_449_3570">
<rect width="14" height="14" fill="white"/>
</clipPath>
</defs>
</svg>
