<svg width="14" height="14" viewBox="0 0 14 14" fill="none" xmlns="http://www.w3.org/2000/svg">
<g clip-path="url(#clip0_449_3852)">
<path fill-rule="evenodd" clip-rule="evenodd" d="M12.258 2.625L8.228 2.616L6.893 1.28C6.62322 1.02725 6.2696 0.883022 5.9 0.875H1.743C1.28009 0.876852 0.836762 1.06204 0.510086 1.39003C0.18341 1.71802 -3.70331e-06 2.16208 0 2.625L0 11.375C0.00185093 11.8396 0.187643 12.2846 0.516727 12.6125C0.845812 12.9405 1.2914 13.1247 1.756 13.125H12.244C12.4744 13.1261 12.7027 13.0816 12.9159 12.9941C13.129 12.9066 13.3227 12.7778 13.4859 12.6152C13.6491 12.4525 13.7785 12.2592 13.8668 12.0464C13.955 11.8336 14.0003 11.6054 14 11.375V4.375C14 3.91225 13.8167 3.46834 13.4903 3.14038C13.1638 2.81242 12.7207 2.62712 12.258 2.625V2.625ZM9.824 6.569L6.811 9.844C6.74609 9.92536 6.66467 9.99202 6.5721 10.0396C6.47954 10.0872 6.37794 10.1146 6.274 10.12H6.233C6.13564 10.1195 6.03932 10.0999 5.94958 10.0621C5.85983 10.0244 5.77842 9.96927 5.71 9.9L4.229 8.424C4.09016 8.28516 4.01216 8.09685 4.01216 7.9005C4.01216 7.70415 4.09016 7.51584 4.229 7.377C4.36784 7.23816 4.55615 7.16016 4.7525 7.16016C4.94885 7.16016 5.13716 7.23816 5.276 7.377L6.176 8.277L8.676 5.648C8.73674 5.5721 8.81183 5.5089 8.89699 5.46201C8.98215 5.41513 9.07571 5.38548 9.17233 5.37476C9.26895 5.36403 9.36673 5.37244 9.4601 5.39951C9.55347 5.42657 9.6406 5.47176 9.7165 5.5325C9.7924 5.59324 9.8556 5.66833 9.90248 5.75349C9.94937 5.83865 9.97902 5.93221 9.98974 6.02883C10.0005 6.12545 9.99206 6.22323 9.96499 6.3166C9.93793 6.40997 9.89274 6.4971 9.832 6.573L9.824 6.569Z" fill="#444A58"/>
</g>
<defs>
<clipPath id="clip0_449_3852">
<rect width="14" height="14" fill="white"/>
</clipPath>
</defs>
</svg>
