<svg width="14" height="14" viewBox="0 0 14 14" fill="none" xmlns="http://www.w3.org/2000/svg">
<g clip-path="url(#clip0_449_3373)">
<path d="M12.5 5.50001H8.60001C8.54812 5.4965 8.49926 5.4743 8.46249 5.43753C8.42571 5.40075 8.40352 5.3519 8.40001 5.30001V1.50001C8.41468 1.30772 8.38929 1.11449 8.32545 0.932516C8.26162 0.750546 8.16072 0.583799 8.02914 0.44282C7.89756 0.301841 7.73816 0.189696 7.56101 0.113476C7.38387 0.0372564 7.19284 -0.00138074 7.00001 7.99721e-06C6.80202 -0.00365567 6.60532 0.0326399 6.42168 0.106725C6.23803 0.18081 6.07121 0.291163 5.93119 0.431188C5.79116 0.571212 5.68081 0.738033 5.60672 0.921677C5.53264 1.10532 5.49634 1.30202 5.50001 1.50001V5.40001C5.4965 5.4519 5.4743 5.50075 5.43752 5.53753C5.40075 5.5743 5.35189 5.5965 5.30001 5.60001H1.50001C1.30599 5.57675 1.10923 5.59615 0.923484 5.65685C0.737739 5.71754 0.56749 5.81806 0.424635 5.9514C0.28178 6.08473 0.169766 6.24765 0.0964222 6.42877C0.0230779 6.60989 -0.00982713 6.80485 6.84254e-06 7.00001C0.00964634 7.3948 0.170776 7.77075 0.450018 8.05C0.729261 8.32924 1.10522 8.49037 1.50001 8.50001H5.40001C5.45189 8.50352 5.50075 8.52572 5.53752 8.56249C5.5743 8.59926 5.5965 8.64812 5.60001 8.70001V12.6C5.59519 12.7852 5.62812 12.9694 5.69677 13.1414C5.76542 13.3134 5.86837 13.4697 5.99935 13.6007C6.13032 13.7316 6.28658 13.8346 6.45861 13.9032C6.63064 13.9719 6.81484 14.0048 7.00001 14C7.3948 13.9904 7.77075 13.8292 8.05 13.55C8.32924 13.2708 8.49037 12.8948 8.50001 12.5V8.60001C8.50352 8.54812 8.52571 8.49926 8.56249 8.46249C8.59926 8.42572 8.64812 8.40352 8.70001 8.40001H12.6C12.9689 8.39235 13.3206 8.24239 13.5815 7.98148C13.8424 7.72057 13.9923 7.36891 14 7.00001C14.0163 6.79889 13.9887 6.59662 13.9191 6.40723C13.8495 6.21783 13.7395 6.04584 13.5969 5.90316C13.4542 5.76048 13.2822 5.65052 13.0928 5.58091C12.9034 5.5113 12.7011 5.48369 12.5 5.50001Z" fill="#444A57"/>
</g>
<defs>
<clipPath id="clip0_449_3373">
<rect width="14" height="14" fill="white"/>
</clipPath>
</defs>
</svg>
