<svg width="14" height="14" viewBox="0 0 14 14" fill="none" xmlns="http://www.w3.org/2000/svg">
<g clip-path="url(#clip0_449_3922)">
<path d="M13.15 0.5841C13.1413 0.511192 13.1123 0.4422 13.0662 0.385023C13.0202 0.327846 12.9589 0.284793 12.8895 0.260794C12.8202 0.236794 12.7454 0.232818 12.6739 0.249319C12.6023 0.26582 12.5369 0.302133 12.485 0.3541L11.118 1.7211C9.94437 0.616612 8.3938 0.00111631 6.78219 1.51697e-06C5.17057 -0.00111327 3.61916 0.612237 2.444 1.7151C1.59576 2.50201 0.985594 3.51133 0.683001 4.6281C0.667325 4.69599 0.666248 4.76644 0.679841 4.83477C0.693434 4.90311 0.721387 4.96778 0.76185 5.02451C0.802313 5.08123 0.854363 5.12871 0.914554 5.16381C0.974745 5.19891 1.0417 5.22082 1.111 5.2281L2.76 5.4201C2.87654 5.4312 2.99332 5.40147 3.09036 5.33598C3.18741 5.2705 3.25868 5.17333 3.292 5.0611C3.48883 4.4823 3.8435 3.97004 4.316 3.5821C4.97552 2.98645 5.84204 2.67269 6.73003 2.70802C7.61802 2.74334 8.45688 3.12494 9.067 3.7711L7.824 5.0151C7.77238 5.06688 7.73631 5.13209 7.71988 5.20333C7.70346 5.27458 7.70734 5.349 7.73108 5.41815C7.75483 5.4873 7.79748 5.54841 7.85421 5.59453C7.91094 5.64066 7.97946 5.66996 8.052 5.6791L13.152 6.3151C13.2333 6.32555 13.3159 6.31723 13.3934 6.29078C13.471 6.26432 13.5414 6.22043 13.5994 6.16249C13.6573 6.10454 13.7012 6.03408 13.7277 5.95653C13.7541 5.87897 13.7625 5.79638 13.752 5.7151L13.15 0.5841Z" fill="#444A58"/>
<path d="M0.690002 13.4162C0.698681 13.4891 0.727713 13.5581 0.773775 13.6153C0.819836 13.6725 0.881067 13.7155 0.950457 13.7395C1.01985 13.7635 1.09459 13.7675 1.16614 13.751C1.23768 13.7345 1.30313 13.6982 1.355 13.6462L2.723 12.2792C3.89647 13.3836 5.44687 13.9991 7.05831 14.0002C8.66976 14.0013 10.221 13.388 11.396 12.2852C12.2446 11.4986 12.8548 10.4891 13.157 9.37221C13.1727 9.30439 13.1738 9.23402 13.1602 9.16575C13.1467 9.09747 13.1188 9.03285 13.0785 8.97614C13.0381 8.91943 12.9862 8.87193 12.9261 8.83678C12.8661 8.80162 12.7992 8.77962 12.73 8.77221L11.08 8.58021C10.9635 8.56911 10.8467 8.59884 10.7496 8.66433C10.6526 8.72981 10.5813 8.82698 10.548 8.93921C10.3522 9.51965 9.99743 10.0335 9.524 10.4222C8.86448 11.0179 7.99796 11.3316 7.10997 11.2963C6.22198 11.261 5.38312 10.8794 4.773 10.2332L6.016 8.98521C6.06762 8.93343 6.1037 8.86822 6.12012 8.79697C6.13654 8.72573 6.13266 8.65131 6.10892 8.58216C6.08518 8.51301 6.04252 8.4519 5.98579 8.40577C5.92907 8.35965 5.86054 8.33035 5.788 8.32121L0.688002 7.68521C0.607195 7.67491 0.525104 7.68317 0.447966 7.70935C0.370828 7.73554 0.300673 7.77896 0.242831 7.83632C0.18499 7.89368 0.140983 7.96347 0.114154 8.04038C0.087326 8.1173 0.0783822 8.19932 0.0880023 8.28021L0.690002 13.4162Z" fill="#444A58"/>
</g>
<defs>
<clipPath id="clip0_449_3922">
<rect width="14" height="14" fill="white"/>
</clipPath>
</defs>
</svg>
