<svg width="14" height="14" viewBox="0 0 14 14" fill="none" xmlns="http://www.w3.org/2000/svg">
<g clip-path="url(#clip0_449_3513)">
<path d="M0.5 0.0111035H13.505C13.6376 0.0111035 13.7648 0.0637819 13.8586 0.15755C13.9523 0.251318 14.005 0.378495 14.005 0.511104V5.1001C14.005 5.23271 13.9523 5.35989 13.8586 5.45366C13.7648 5.54742 13.6376 5.6001 13.505 5.6001H0.5C0.367392 5.6001 0.240215 5.54742 0.146447 5.45366C0.0526784 5.35989 0 5.23271 0 5.1001V0.506103C0 0.373495 0.0526784 0.246318 0.146447 0.15255C0.240215 0.0587819 0.367392 0.00610352 0.5 0.00610352V0.0111035Z" fill="#444A58"/>
<path d="M0.5 8.40601H5.1C5.23261 8.40601 5.35979 8.45868 5.45355 8.55245C5.54732 8.64622 5.6 8.7734 5.6 8.90601V13.496C5.6 13.6286 5.54732 13.7558 5.45355 13.8496C5.35979 13.9433 5.23261 13.996 5.1 13.996H0.5C0.367392 13.996 0.240215 13.9433 0.146447 13.8496C0.0526784 13.7558 0 13.6286 0 13.496V8.90001C0.0015789 8.76844 0.0549535 8.6428 0.148551 8.55032C0.242149 8.45785 0.368425 8.406 0.5 8.40601Z" fill="#444A58"/>
<path fill-rule="evenodd" clip-rule="evenodd" d="M13 8.2862H7.99999C7.86256 8.27553 7.72441 8.29339 7.59421 8.33866C7.46401 8.38392 7.34457 8.45562 7.2434 8.54924C7.14223 8.64286 7.06151 8.75639 7.0063 8.8827C6.95109 9.009 6.92259 9.14536 6.92259 9.2832C6.92259 9.42105 6.95109 9.5574 7.0063 9.68371C7.06151 9.81001 7.14223 9.92354 7.2434 10.0172C7.34457 10.1108 7.46401 10.1825 7.59421 10.2277C7.72441 10.273 7.86256 10.2909 7.99999 10.2802H13C13.1374 10.2909 13.2756 10.273 13.4058 10.2277C13.536 10.1825 13.6554 10.1108 13.7566 10.0172C13.8578 9.92354 13.9385 9.81001 13.9937 9.68371C14.0489 9.5574 14.0774 9.42105 14.0774 9.2832C14.0774 9.14536 14.0489 9.009 13.9937 8.8827C13.9385 8.75639 13.8578 8.64286 13.7566 8.54924C13.6554 8.45562 13.536 8.38392 13.4058 8.33866C13.2756 8.29339 13.1374 8.27553 13 8.2862Z" fill="#444A58"/>
<path fill-rule="evenodd" clip-rule="evenodd" d="M13 11.9742H7.99999C7.86256 11.9635 7.72441 11.9814 7.59421 12.0266C7.46401 12.0719 7.34457 12.1436 7.2434 12.2372C7.14223 12.3309 7.06151 12.4444 7.0063 12.5707C6.95109 12.697 6.92259 12.8333 6.92259 12.9712C6.92259 13.109 6.95109 13.2454 7.0063 13.3717C7.06151 13.498 7.14223 13.6115 7.2434 13.7052C7.34457 13.7988 7.46401 13.8705 7.59421 13.9157C7.72441 13.961 7.86256 13.9789 7.99999 13.9682H13C13.1374 13.9789 13.2756 13.961 13.4058 13.9157C13.536 13.8705 13.6554 13.7988 13.7566 13.7052C13.8578 13.6115 13.9385 13.498 13.9937 13.3717C14.0489 13.2454 14.0774 13.109 14.0774 12.9712C14.0774 12.8333 14.0489 12.697 13.9937 12.5707C13.9385 12.4444 13.8578 12.3309 13.7566 12.2372C13.6554 12.1436 13.536 12.0719 13.4058 12.0266C13.2756 11.9814 13.1374 11.9635 13 11.9742Z" fill="#444A58"/>
</g>
<defs>
<clipPath id="clip0_449_3513">
<rect width="14" height="14" fill="white"/>
</clipPath>
</defs>
</svg>
