<svg width="14" height="14" viewBox="0 0 14 14" fill="none" xmlns="http://www.w3.org/2000/svg">
<g clip-path="url(#clip0_449_3886)">
<path fill-rule="evenodd" clip-rule="evenodd" d="M6.114 5.93911V2.90011C6.114 2.43011 5.814 2.30011 5.449 2.61111L0.275996 7.12311C0.189659 7.18883 0.119783 7.27372 0.0718834 7.37108C0.0239842 7.46844 -0.0006259 7.5756 -3.7499e-06 7.68411C0.000206815 7.79261 0.0251778 7.89963 0.0730071 7.99702C0.120836 8.09441 0.190262 8.1796 0.275996 8.24611L5.449 12.7701C5.816 13.0811 6.114 12.9501 6.114 12.4811V9.44011H6.989C8.60758 9.35515 10.155 8.74766 11.399 7.70877C12.6431 6.66987 13.5168 5.2556 13.889 3.67811C13.9411 3.45483 13.9782 3.22833 14 3.00011C14.026 2.76511 13.913 2.71411 13.746 2.87711C13.746 2.87711 13.698 2.92111 13.659 2.96511C11.8887 4.76177 9.50647 5.82543 6.987 5.94411H6.112L6.114 5.93911Z" fill="#444A58"/>
</g>
<defs>
<clipPath id="clip0_449_3886">
<rect width="14" height="14" fill="white"/>
</clipPath>
</defs>
</svg>
