<svg width="14" height="14" viewBox="0 0 14 14" fill="none" xmlns="http://www.w3.org/2000/svg">
<g clip-path="url(#clip0_449_3746)">
<path fill-rule="evenodd" clip-rule="evenodd" d="M13.356 2.1L11.659 0.409C11.3959 0.147378 11.04 0.000363385 10.669 0L3.331 0C2.9601 9.75193e-05 2.60427 0.146745 2.341 0.408L0.644 2.1C0.439781 2.30378 0.277776 2.54584 0.167267 2.81234C0.0567583 3.07883 -8.29713e-05 3.3645 9.09025e-08 3.653L9.09025e-08 11.806C0.00158856 12.3884 0.234075 12.9465 0.646483 13.3578C1.05889 13.769 1.61756 14 2.2 14H11.8C12.3835 14 12.9431 13.7682 13.3556 13.3556C13.7682 12.9431 14 12.3835 14 11.8V3.653C14.0001 3.3645 13.9432 3.07883 13.8327 2.81234C13.7222 2.54584 13.5602 2.30378 13.356 2.1V2.1ZM7 10.025C6.01797 10.0253 5.07599 9.63575 4.38094 8.94201C3.68588 8.24827 3.29459 7.30703 3.293 6.325C3.293 6.10195 3.3816 5.88804 3.53932 5.73032C3.69704 5.57261 3.91095 5.484 4.134 5.484C4.35705 5.484 4.57096 5.57261 4.72868 5.73032C4.88639 5.88804 4.975 6.10195 4.975 6.325C4.98676 6.85414 5.20522 7.35765 5.58361 7.72772C5.96199 8.09778 6.47023 8.305 6.9995 8.305C7.52877 8.305 8.03701 8.09778 8.41539 7.72772C8.79378 7.35765 9.01224 6.85414 9.024 6.325C9.024 6.10169 9.11271 5.88752 9.27062 5.72962C9.42852 5.57171 9.64269 5.483 9.866 5.483C10.0893 5.483 10.3035 5.57171 10.4614 5.72962C10.6193 5.88752 10.708 6.10169 10.708 6.325C10.7064 7.3072 10.315 8.2486 9.61971 8.94237C8.92444 9.63614 7.9822 10.0255 7 10.025V10.025ZM3.832 1.541H10.194C10.2939 1.54109 10.3926 1.56287 10.4832 1.60482C10.5738 1.64678 10.6543 1.70791 10.719 1.784L12.1 3.41H1.738L3.338 1.752C3.40198 1.6855 3.47869 1.63254 3.56356 1.5963C3.64842 1.56005 3.73972 1.54124 3.832 1.541V1.541Z" fill="#444A58"/>
</g>
<defs>
<clipPath id="clip0_449_3746">
<rect width="14" height="14" fill="white"/>
</clipPath>
</defs>
</svg>
