<svg width="14" height="14" viewBox="0 0 14 14" fill="none" xmlns="http://www.w3.org/2000/svg">
<g clip-path="url(#clip0_449_3479)">
<path fill-rule="evenodd" clip-rule="evenodd" d="M12.4 5.77508C12.2661 4.56316 11.6955 3.44146 10.7948 2.61957C9.89418 1.79768 8.72509 1.33184 7.50601 1.30908C6.57468 1.31939 5.66533 1.59331 4.88326 2.09912C4.10119 2.60493 3.47839 3.32193 3.087 4.16708C2.10143 4.46697 1.25396 5.10631 0.694972 5.97166C0.135982 6.837 -0.0983808 7.87239 0.0334691 8.89411C0.165319 9.91583 0.654856 10.8578 1.41521 11.5529C2.17557 12.248 3.15759 12.6512 4.18701 12.6911H10.312C10.805 12.6829 11.2915 12.5776 11.7437 12.3812C12.1959 12.1848 12.605 11.9012 12.9475 11.5466C13.29 11.192 13.5593 10.7734 13.7399 10.3146C13.9205 9.85588 14.0089 9.36602 14 8.87308C13.9978 8.26687 13.8516 7.66985 13.5734 7.13122C13.2953 6.5926 12.8931 6.12778 12.4 5.77508V5.77508ZM4.32601 6.90908L6.70001 4.53408C6.73938 4.49465 6.78615 4.46338 6.83763 4.44203C6.8891 4.42069 6.94428 4.40971 7.00001 4.40971C7.05573 4.40971 7.11091 4.42069 7.16238 4.44203C7.21386 4.46338 7.26063 4.49465 7.30001 4.53408L9.674 6.90908C9.73309 6.96865 9.77327 7.04433 9.78951 7.12665C9.80575 7.20896 9.79731 7.29424 9.76527 7.37178C9.73323 7.44932 9.67901 7.51567 9.6094 7.56251C9.53979 7.60936 9.4579 7.6346 9.374 7.63508H7.85001V9.65108C7.85001 9.87652 7.76045 10.0927 7.60105 10.2521C7.44164 10.4115 7.22544 10.5011 7.00001 10.5011C6.77457 10.5011 6.55837 10.4115 6.39896 10.2521C6.23956 10.0927 6.15001 9.87652 6.15001 9.65108V7.63508H4.62701C4.54302 7.6348 4.461 7.60969 4.39124 7.56293C4.32148 7.51616 4.2671 7.44982 4.23493 7.37224C4.20277 7.29466 4.19425 7.2093 4.21046 7.12689C4.22666 7.04449 4.26686 6.96871 4.32601 6.90908V6.90908Z" fill="#444A58"/>
</g>
<defs>
<clipPath id="clip0_449_3479">
<rect width="14" height="14" fill="white"/>
</clipPath>
</defs>
</svg>
