<svg width="14" height="14" viewBox="0 0 14 14" fill="none" xmlns="http://www.w3.org/2000/svg">
<g clip-path="url(#clip0_449_3930)">
<path d="M3.225 4.75404C3.22548 4.2411 3.2552 3.7286 3.314 3.21904C3.39564 2.74348 3.58377 2.29254 3.86431 1.89996C4.14484 1.50738 4.51053 1.18333 4.934 0.952042C5.69942 0.515499 6.5837 0.333338 7.45933 0.431828C8.33497 0.530319 9.15669 0.904371 9.806 1.50004C10.1133 1.79032 10.3576 2.1406 10.524 2.52918C10.6903 2.91776 10.7751 3.33636 10.773 3.75904C10.765 4.39904 10.747 5.03904 10.713 5.67804C10.702 5.88904 10.787 6.00304 10.971 5.98804C11.2277 5.96949 11.4813 5.91979 11.726 5.84004C11.8393 5.79437 11.9625 5.77883 12.0836 5.79496C12.2047 5.81108 12.3196 5.85831 12.417 5.93204C12.4628 5.95558 12.5017 5.99048 12.5301 6.03341C12.5584 6.07633 12.5753 6.12583 12.579 6.17715C12.5827 6.22847 12.5732 6.27988 12.5513 6.32645C12.5294 6.37301 12.4959 6.41316 12.454 6.44304C12.257 6.58308 12.045 6.7008 11.822 6.79404C11.61 6.89404 11.376 6.95204 11.171 7.06404C11.0944 7.09667 11.0254 7.14488 10.9685 7.20561C10.9115 7.26634 10.8678 7.33827 10.8401 7.4168C10.8125 7.49534 10.8015 7.57878 10.8078 7.6618C10.8142 7.74483 10.8377 7.82562 10.877 7.89904C11.1145 8.53749 11.503 9.10893 12.0094 9.5645C12.5159 10.0201 13.1251 10.3462 13.785 10.515C13.866 10.535 14 10.597 14 10.64C13.999 10.7444 13.9578 10.8443 13.885 10.919C13.7703 11.0177 13.6375 11.0931 13.494 11.141C13.2139 11.256 12.9202 11.3344 12.62 11.374C12.196 11.399 12.049 11.614 11.987 11.993C11.921 12.393 11.861 12.419 11.457 12.333C11.0245 12.2163 10.5704 12.2045 10.1325 12.2986C9.69452 12.3927 9.28535 12.59 8.939 12.874C8.38755 13.3584 7.67261 13.6151 6.939 13.592C6.48268 13.5851 6.03551 13.463 5.639 13.237C5.42583 13.1193 5.22191 12.9856 5.029 12.837C4.69684 12.5683 4.30563 12.3822 3.88754 12.294C3.46944 12.2059 3.0364 12.2182 2.624 12.33C2.534 12.349 2.442 12.36 2.35 12.373C2.199 12.393 2.085 12.327 2.08 12.179C2.062 11.579 1.723 11.369 1.169 11.33C0.90299 11.2887 0.644743 11.2075 0.403002 11.089C0.279395 11.0357 0.168594 10.9566 0.0780018 10.857C-0.0609982 10.706 -0.0169982 10.577 0.183002 10.534C0.81822 10.3838 1.40945 10.087 1.90937 9.66725C2.4093 9.24755 2.80404 8.71665 3.062 8.11704C3.368 7.51704 3.228 7.18504 2.602 6.93304C2.345 6.83304 2.077 6.75004 1.829 6.63304C1.508 6.47604 1.397 6.26504 1.492 6.07104C1.57213 5.95833 1.68708 5.87506 1.81915 5.83404C1.95123 5.79303 2.09312 5.79654 2.223 5.84404C2.48546 5.92338 2.75567 5.97434 3.029 5.99604C3.243 6.01204 3.358 5.89604 3.32 5.64304C3.276 5.35204 3.279 5.05504 3.262 4.76104L3.225 4.75404Z" fill="#444A58"/>
</g>
<defs>
<clipPath id="clip0_449_3930">
<rect width="14" height="14" fill="white"/>
</clipPath>
</defs>
</svg>
