<svg width="14" height="14" viewBox="0 0 14 14" fill="none" xmlns="http://www.w3.org/2000/svg">
<g clip-path="url(#clip0_449_3485)">
<path fill-rule="evenodd" clip-rule="evenodd" d="M14 8.55692C14.0091 9.0496 13.9211 9.53925 13.7408 9.99786C13.5606 10.4565 13.2917 10.875 12.9495 11.2296C12.6073 11.5843 12.1986 11.8679 11.7468 12.0644C11.2949 12.261 10.8087 12.3665 10.316 12.3749H4.19C3.16058 12.3351 2.17856 11.9318 1.41821 11.2367C0.657846 10.5416 0.16831 9.59966 0.0364598 8.57795C-0.0953901 7.55623 0.138973 6.52084 0.697962 5.65549C1.25695 4.79015 2.10442 4.15081 3.09 3.85092C3.48116 3.00622 4.10349 2.28953 4.88498 1.78375C5.66647 1.27798 6.57518 1.0038 7.506 0.99292C8.72508 1.01567 9.89418 1.48152 10.7948 2.30341C11.6955 3.1253 12.2661 4.247 12.4 5.45892C12.8936 5.81153 13.2962 6.2766 13.5744 6.81567C13.8527 7.35473 13.9985 7.95229 14 8.55892V8.55692Z" fill="#444A58"/>
</g>
<defs>
<clipPath id="clip0_449_3485">
<rect width="14" height="14" fill="white"/>
</clipPath>
</defs>
</svg>
