<svg width="14" height="14" viewBox="0 0 14 14" fill="none" xmlns="http://www.w3.org/2000/svg">
<g clip-path="url(#clip0_449_3405)">
<path fill-rule="evenodd" clip-rule="evenodd" d="M9.529 1.67708C8.79744 0.944771 7.87657 0.430426 6.86939 0.191574C5.86221 -0.0472768 4.80844 -0.0012151 3.82594 0.324608C2.84344 0.65043 1.97096 1.24317 1.30609 2.03651C0.641214 2.82986 0.210164 3.79254 0.061151 4.81688C-0.0878618 5.84121 0.051039 6.8868 0.462317 7.8367C0.873595 8.7866 1.54103 9.60335 2.38998 10.1956C3.23892 10.7878 4.23589 11.1322 5.26938 11.1902C6.30286 11.2483 7.33211 11.0176 8.242 10.5241L11.585 13.7001C11.7594 13.8655 11.9914 13.9564 12.2317 13.9534C12.4721 13.9504 12.7018 13.8538 12.872 13.6841L13.73 12.8261C13.9017 12.6533 13.9981 12.4197 13.9981 12.1761C13.9981 11.9325 13.9017 11.6988 13.73 11.5261L10.486 8.27608C11.0589 7.21989 11.2753 6.00687 11.1028 4.81773C10.9304 3.6286 10.3784 2.52701 9.529 1.67708V1.67708ZM7.872 7.90608C7.41992 8.35839 6.84386 8.66646 6.21667 8.79134C5.58949 8.91622 4.93936 8.85229 4.34851 8.60764C3.75766 8.36299 3.25264 7.94861 2.89732 7.41691C2.542 6.88521 2.35235 6.26008 2.35235 5.62058C2.35235 4.98108 2.542 4.35595 2.89732 3.82425C3.25264 3.29255 3.75766 2.87817 4.34851 2.63352C4.93936 2.38887 5.58949 2.32494 6.21667 2.44982C6.84386 2.5747 7.41992 2.88277 7.872 3.33508C8.47649 3.94211 8.81587 4.7639 8.81587 5.62058C8.81587 6.47726 8.47649 7.29905 7.872 7.90608Z" fill="#444A58"/>
</g>
<defs>
<clipPath id="clip0_449_3405">
<rect width="14" height="14" fill="white"/>
</clipPath>
</defs>
</svg>
