<svg width="14" height="14" viewBox="0 0 14 14" fill="none" xmlns="http://www.w3.org/2000/svg">
<g clip-path="url(#clip0_449_3920)">
<path fill-rule="evenodd" clip-rule="evenodd" d="M6.821 2.87193L3.74 5.91693L12.934 5.95893C13.0747 5.95946 13.2139 5.98772 13.3436 6.0421C13.4734 6.09648 13.5911 6.17592 13.6901 6.27586C13.7892 6.3758 13.8675 6.49429 13.9207 6.62454C13.9738 6.75479 14.0008 6.89425 14 7.03493V7.03493C13.9993 7.17553 13.971 7.31462 13.9165 7.44426C13.8621 7.57389 13.7826 7.69152 13.6827 7.79043C13.5828 7.88934 13.4643 7.96758 13.3342 8.02069C13.204 8.07379 13.0646 8.10072 12.924 8.09993L3.732 8.05893L6.772 11.1349C6.87109 11.2347 6.94953 11.353 7.00286 11.4831C7.05619 11.6132 7.08335 11.7526 7.0828 11.8932C7.08224 12.0338 7.05397 12.1729 6.99962 12.3026C6.94526 12.4323 6.86587 12.55 6.766 12.6489V12.6489C6.56408 12.8487 6.29111 12.9602 6.00705 12.9589C5.72299 12.9576 5.45107 12.8436 5.251 12.6419L0.251001 7.59293C0.0875041 7.42677 -0.00329263 7.20247 -0.00141729 6.96936C0.000458052 6.73626 0.0948519 6.51344 0.261001 6.34993L5.314 1.34993C5.51575 1.1502 5.78855 1.03874 6.07245 1.04005C6.35634 1.04136 6.6281 1.15534 6.828 1.35693V1.35693C6.92705 1.45685 7.00544 1.5753 7.0587 1.70553C7.11196 1.83575 7.13903 1.97519 7.13838 2.11588C7.13773 2.25657 7.10937 2.39576 7.05491 2.52548C7.00045 2.65521 6.92097 2.77293 6.821 2.87193Z" fill="#444A58"/>
</g>
<defs>
<clipPath id="clip0_449_3920">
<rect width="14" height="14" fill="white"/>
</clipPath>
</defs>
</svg>
