<svg width="14" height="14" viewBox="0 0 14 14" fill="none" xmlns="http://www.w3.org/2000/svg">
<g clip-path="url(#clip0_449_3880)">
<path fill-rule="evenodd" clip-rule="evenodd" d="M12.257 2.49292L8.227 2.48392L6.892 1.14792C6.62247 0.895394 6.26925 0.751186 5.9 0.74292H1.741C1.27851 0.745561 0.835856 0.931069 0.509668 1.25894C0.18348 1.58682 0.000256589 2.03043 0 2.49292L0 11.2429C0.00211357 11.7074 0.187989 12.1522 0.517017 12.4801C0.846045 12.808 1.29148 12.9924 1.756 12.9929H12.242C12.4726 12.9945 12.7013 12.9504 12.9148 12.8631C13.1283 12.7758 13.3223 12.6471 13.4858 12.4844C13.6493 12.3217 13.7789 12.1282 13.8671 11.9151C13.9554 11.702 14.0005 11.4736 14 11.2429V4.24292C14.0003 3.77992 13.8169 3.33571 13.4902 3.00766C13.1635 2.67962 12.72 2.49451 12.257 2.49292ZM9.283 8.37392H7.76V9.89992C7.76371 10.0022 7.74676 10.1043 7.71016 10.1999C7.67356 10.2955 7.61806 10.3828 7.54699 10.4565C7.47591 10.5302 7.39071 10.5888 7.29647 10.6288C7.20223 10.6689 7.10089 10.6895 6.9985 10.6895C6.89611 10.6895 6.79477 10.6689 6.70053 10.6288C6.60629 10.5888 6.52109 10.5302 6.45001 10.4565C6.37894 10.3828 6.32344 10.2955 6.28684 10.1999C6.25024 10.1043 6.23329 10.0022 6.237 9.89992V8.37392H4.713C4.51581 8.36677 4.32909 8.28341 4.19211 8.14139C4.05514 7.99936 3.9786 7.80974 3.9786 7.61242C3.9786 7.4151 4.05514 7.22548 4.19211 7.08345C4.32909 6.94142 4.51581 6.85807 4.713 6.85092H6.237V5.32692C6.24415 5.12973 6.3275 4.94301 6.46953 4.80603C6.61156 4.66906 6.80118 4.59252 6.9985 4.59252C7.19582 4.59252 7.38544 4.66906 7.52747 4.80603C7.6695 4.94301 7.75285 5.12973 7.76 5.32692V6.85092H9.283C9.38532 6.84721 9.48734 6.86416 9.58297 6.90076C9.6786 6.93736 9.76587 6.99286 9.83957 7.06393C9.91327 7.13501 9.97189 7.22021 10.0119 7.31445C10.052 7.40869 10.0726 7.51003 10.0726 7.61242C10.0726 7.71481 10.052 7.81615 10.0119 7.91039C9.97189 8.00463 9.91327 8.08983 9.83957 8.16091C9.76587 8.23198 9.6786 8.28748 9.58297 8.32408C9.48734 8.36068 9.38532 8.37763 9.283 8.37392V8.37392Z" fill="#444A58"/>
</g>
<defs>
<clipPath id="clip0_449_3880">
<rect width="14" height="14" fill="white"/>
</clipPath>
</defs>
</svg>
