<svg width="14" height="14" viewBox="0 0 14 14" fill="none" xmlns="http://www.w3.org/2000/svg">
<g clip-path="url(#clip0_449_4018)">
<path fill-rule="evenodd" clip-rule="evenodd" d="M6.83701 10.279C6.83674 10.1549 6.78735 10.0361 6.69964 9.94835C6.61193 9.86064 6.49305 9.81125 6.36901 9.81099H0.747005C0.229005 9.81099 0.0470053 9.46399 0.335005 9.03499L6.26701 0.279987C6.55701 -0.149013 6.79301 -0.0770133 6.79301 0.440987V3.71999C6.79287 3.78153 6.80488 3.84249 6.82834 3.89939C6.8518 3.95629 6.88625 4.008 6.92973 4.05156C6.9732 4.09512 7.02483 4.12969 7.08168 4.15327C7.13852 4.17685 7.19946 4.18899 7.26101 4.18899H12.928C13.445 4.18899 13.628 4.53499 13.338 4.96299L7.36601 13.721C7.07401 14.149 6.83801 14.076 6.83801 13.558V10.279H6.83701Z" fill="#444A58"/>
</g>
<defs>
<clipPath id="clip0_449_4018">
<rect width="14" height="14" fill="white"/>
</clipPath>
</defs>
</svg>
