<svg width="14" height="14" viewBox="0 0 14 14" fill="none" xmlns="http://www.w3.org/2000/svg">
<g clip-path="url(#clip0_449_3938)">
<path fill-rule="evenodd" clip-rule="evenodd" d="M10.251 12.454C10.342 12.606 10.4664 12.7352 10.6149 12.8318C10.7634 12.9284 10.932 12.9898 11.1078 13.0114C11.2836 13.033 11.462 13.0142 11.6294 12.9564C11.7969 12.8987 11.9489 12.8034 12.074 12.678V12.678C12.2249 12.5266 12.3314 12.3367 12.3818 12.129C12.4322 11.9213 12.4247 11.7037 12.36 11.5L10.481 5.65998L13.089 3.20999C13.77 2.52899 14.382 0.950985 13.707 0.275985C13.032 -0.399015 11.538 0.293985 10.858 0.975985L8.33 3.50599L2.5 1.62498C2.29575 1.55917 2.07729 1.55105 1.86872 1.60152C1.66015 1.65198 1.46957 1.75908 1.318 1.91098V1.91098C1.19277 2.03649 1.09775 2.18887 1.04016 2.35655C0.982564 2.52424 0.963901 2.70284 0.985584 2.87881C1.00727 3.05478 1.06873 3.2235 1.1653 3.37219C1.26188 3.52088 1.39104 3.64563 1.543 3.73698L5.222 5.94698C5.2723 5.97671 5.31509 6.0176 5.34707 6.0665C5.37904 6.11539 5.39934 6.17099 5.4064 6.22899C5.41345 6.28699 5.40708 6.34583 5.38776 6.40097C5.36844 6.45611 5.3367 6.50607 5.295 6.54698L2.953 8.88999L1.66 8.31398C1.505 8.24504 1.33273 8.22477 1.16596 8.25583C0.999187 8.2869 0.845773 8.36785 0.725998 8.48798L0.245997 8.96799C0.155885 9.05822 0.0874722 9.16776 0.0459343 9.28833C0.00439631 9.4089 -0.00917907 9.53733 0.00623499 9.66392C0.0216491 9.79051 0.0656489 9.91193 0.134906 10.019C0.204164 10.1261 0.296865 10.216 0.405997 10.282L2.469 11.528L3.714 13.594C3.77975 13.7031 3.86948 13.7958 3.97639 13.865C4.08329 13.9343 4.20456 13.9783 4.33101 13.9937C4.45745 14.0091 4.58574 13.9956 4.70616 13.954C4.82657 13.9125 4.93595 13.8441 5.026 13.754L5.506 13.273C5.62581 13.1528 5.70645 12.9992 5.73732 12.8323C5.7682 12.6654 5.74787 12.4931 5.679 12.338L5.1 11.043L7.448 8.69998C7.48889 8.6591 7.53857 8.62809 7.59326 8.60931C7.64794 8.59053 7.7062 8.58447 7.76358 8.59161C7.82096 8.59875 7.87595 8.61888 7.92438 8.65049C7.9728 8.68209 8.01337 8.72433 8.043 8.77398L10.251 12.454Z" fill="#444A58"/>
</g>
<defs>
<clipPath id="clip0_449_3938">
<rect width="14" height="14" fill="white"/>
</clipPath>
</defs>
</svg>
