<svg width="14" height="14" viewBox="0 0 14 14" fill="none" xmlns="http://www.w3.org/2000/svg">
<g clip-path="url(#clip0_449_3689)">
<path d="M12.99 1.20898H1.01C0.744251 1.21026 0.489604 1.31572 0.300756 1.5027C0.111908 1.68968 0.00392479 1.94326 4.95094e-07 2.20898V2.61598C-0.000130892 2.74875 0.0258893 2.88024 0.0765755 3.00295C0.127262 3.12566 0.201621 3.23719 0.295408 3.33116C0.389195 3.42514 0.500574 3.49972 0.623184 3.55064C0.745793 3.60157 0.877234 3.62785 1.01 3.62798H12.99C13.2576 3.62772 13.5142 3.52136 13.7035 3.33222C13.8929 3.14309 13.9995 2.8866 14 2.61898V2.21098C13.9966 1.94491 13.8888 1.69082 13.6999 1.50341C13.511 1.316 13.2561 1.21027 12.99 1.20898V1.20898Z" fill="#444A58"/>
<path d="M12.99 5.79004H1.01C0.744251 5.79132 0.489603 5.89677 0.300756 6.08375C0.111908 6.27073 0.00392429 6.52432 0 6.79004L0 7.20004C0.000264743 7.46783 0.10676 7.72457 0.296115 7.91392C0.485469 8.10328 0.742213 8.20977 1.01 8.21004H12.99C13.2578 8.20977 13.5145 8.10328 13.7039 7.91392C13.8932 7.72457 13.9997 7.46783 14 7.20004V6.79204C13.9966 6.52597 13.8888 6.27187 13.6999 6.08447C13.511 5.89706 13.2561 5.79133 12.99 5.79004V5.79004Z" fill="#444A58"/>
<path d="M1.01 10.3721H6.495C6.76287 10.3721 7.01977 10.4785 7.20918 10.6679C7.39859 10.8573 7.505 11.1142 7.505 11.3821V11.7821C7.505 12.049 7.39925 12.305 7.21089 12.4942C7.02253 12.6833 6.76691 12.79 6.5 12.7911H1.009C0.876412 12.7911 0.745125 12.765 0.622642 12.7142C0.500159 12.6634 0.388883 12.589 0.295176 12.4952C0.201469 12.4014 0.127167 12.2901 0.0765188 12.1675C0.0258707 12.045 -0.00013091 11.9137 4.95585e-07 11.7811V11.3811C4.95585e-07 11.1132 0.106411 10.8563 0.295823 10.6669C0.485234 10.4775 0.742132 10.3711 1.01 10.3711V10.3721Z" fill="#444A58"/>
</g>
<defs>
<clipPath id="clip0_449_3689">
<rect width="14" height="14" fill="white"/>
</clipPath>
</defs>
</svg>
