<svg width="14" height="14" viewBox="0 0 14 14" fill="none" xmlns="http://www.w3.org/2000/svg">
<g clip-path="url(#clip0_449_3729)">
<path d="M3.90001 14.0001C3.75245 13.9684 3.6234 13.8797 3.54098 13.7532C3.45857 13.6268 3.42946 13.4729 3.46001 13.3251C3.50001 13.1161 3.547 12.9091 3.595 12.6871C4.0542 12.7826 4.53212 12.722 4.95301 12.5151C5.08921 12.4282 5.2058 12.3139 5.29534 12.1794C5.38487 12.0449 5.44538 11.8933 5.47301 11.7341C5.64501 10.9191 6.00801 9.2191 6.01701 9.1801C6.06301 9.1801 7.437 9.2121 8.076 9.1801C8.96331 9.14612 9.82211 8.85765 10.55 8.3491C11.1061 7.96445 11.5757 7.46786 11.9288 6.89114C12.2818 6.31443 12.5104 5.67032 12.6 5.0001C12.645 4.7241 12.648 4.4411 12.671 4.1521C12.9124 4.33702 13.114 4.56861 13.264 4.8331C13.5743 5.3862 13.6891 6.02771 13.59 6.6541C13.5106 7.36531 13.2623 8.04724 12.866 8.6431C12.5647 9.10353 12.173 9.49799 11.7148 9.80258C11.2565 10.1072 10.7412 10.3156 10.2 10.4151C9.86389 10.478 9.52293 10.5114 9.181 10.5151C8.52 10.5301 7.859 10.5211 7.199 10.5151C7.112 10.5151 7.07601 10.5351 7.05701 10.6281C6.86301 11.5571 6.65701 12.4841 6.46701 13.4151C6.45394 13.5473 6.40289 13.6729 6.32003 13.7767C6.23716 13.8805 6.12601 13.9581 6.00001 14.0001H3.90001Z" fill="#444A58"/>
<path d="M0.386002 11.3481V11.1841C0.395175 11.1592 0.402856 11.1339 0.409002 11.1081C0.600002 10.2201 2.129 3.20608 2.7 0.589082C2.70685 0.500607 2.73185 0.414491 2.77345 0.336105C2.81504 0.257719 2.87234 0.188744 2.94177 0.133481C3.0112 0.0782175 3.09128 0.0378516 3.177 0.0149003C3.26272 -0.00805092 3.35225 -0.0130953 3.44 8.1683e-05H8.565C9.0667 -0.00324105 9.56437 0.0897754 10.031 0.274082C10.5657 0.480409 11.0272 0.840527 11.3574 1.30897C11.6875 1.77741 11.8715 2.33317 11.886 2.90608C11.9197 3.9571 11.6151 4.99117 11.017 5.85608C10.609 6.4758 10.0571 6.98763 9.40851 7.3479C8.75988 7.70817 8.03373 7.9062 7.292 7.92508C6.411 7.97208 5.525 7.94408 4.642 7.94708C4.542 7.94708 4.501 7.96608 4.479 8.07308C4.257 9.13808 4.027 10.2001 3.8 11.2641C3.79452 11.357 3.76971 11.4478 3.72717 11.5307C3.68463 11.6135 3.62528 11.6866 3.55292 11.7452C3.48056 11.8038 3.39678 11.8467 3.30691 11.8712C3.21705 11.8956 3.12308 11.901 3.031 11.8871C2.398 11.8871 1.765 11.8871 1.131 11.8871C1.02994 11.8878 0.929186 11.876 0.831002 11.8521C0.718684 11.8153 0.618224 11.7492 0.539996 11.6606C0.461768 11.572 0.408607 11.4641 0.386002 11.3481V11.3481ZM5 5.67008C5.064 5.67008 6.763 5.67008 6.874 5.64608C7.31387 5.55789 7.71609 5.33686 8.02635 5.01283C8.33661 4.68879 8.53998 4.27736 8.609 3.83408C8.64385 3.66324 8.64011 3.48678 8.59805 3.31757C8.55599 3.14836 8.47667 2.99068 8.36589 2.85604C8.25511 2.7214 8.11566 2.6132 7.95773 2.53933C7.79979 2.46546 7.62735 2.4278 7.453 2.42908C6.911 2.40708 6.369 2.42908 5.827 2.42008C5.741 2.42008 5.727 2.46008 5.707 2.53108C5.607 2.98408 5.137 5.05908 5 5.67008Z" fill="#444A58"/>
</g>
<defs>
<clipPath id="clip0_449_3729">
<rect width="14" height="14" fill="white"/>
</clipPath>
</defs>
</svg>
