<svg width="14" height="14" viewBox="0 0 14 14" fill="none" xmlns="http://www.w3.org/2000/svg">
<g clip-path="url(#clip0_449_3832)">
<path d="M12.542 1.14111H1.458C1.07122 1.14138 0.700377 1.29521 0.426978 1.5688C0.153578 1.84238 -9.08491e-08 2.21334 0 2.60011L0 11.4001C-9.08491e-08 11.7869 0.153578 12.1578 0.426978 12.4314C0.700377 12.705 1.07122 12.8588 1.458 12.8591H12.542C12.9288 12.8588 13.2996 12.705 13.573 12.4314C13.8464 12.1578 14 11.7869 14 11.4001V2.60011C14 2.21334 13.8464 1.84238 13.573 1.5688C13.2996 1.29521 12.9288 1.14138 12.542 1.14111V1.14111ZM11.33 10.3851H2.73C2.6227 10.385 2.51792 10.3526 2.4292 10.2923C2.34049 10.2319 2.27193 10.1463 2.2324 10.0466C2.19286 9.94685 2.18418 9.83754 2.20746 9.7328C2.23075 9.62806 2.28493 9.53272 2.363 9.45911L5.517 5.28011C5.61634 5.18703 5.74737 5.13523 5.8835 5.13523C6.01963 5.13523 6.15066 5.18703 6.25 5.28011L8.044 7.61511C8.14571 7.70966 8.2802 7.76095 8.41903 7.75815C8.55787 7.75536 8.69018 7.69868 8.788 7.60011L9.155 7.23311C9.2551 7.13333 9.39067 7.0773 9.532 7.0773C9.67333 7.0773 9.8089 7.13333 9.909 7.23311L11.709 9.46811C11.7851 9.54277 11.8372 9.63849 11.8586 9.74297C11.88 9.84745 11.8696 9.95593 11.8289 10.0545C11.7882 10.153 11.7189 10.2372 11.63 10.2961C11.5411 10.355 11.4366 10.386 11.33 10.3851V10.3851Z" fill="#444A58"/>
</g>
<defs>
<clipPath id="clip0_449_3832">
<rect width="14" height="14" fill="white"/>
</clipPath>
</defs>
</svg>
