<svg width="14" height="14" viewBox="0 0 14 14" fill="none" xmlns="http://www.w3.org/2000/svg">
<g clip-path="url(#clip0_449_3617)">
<path fill-rule="evenodd" clip-rule="evenodd" d="M8.29999 0.412087L1.07399 7.72109L0.0739925 12.3211C0.0243757 12.5481 0.0326211 12.7839 0.0979704 13.0069C0.16332 13.2298 0.283676 13.4328 0.447973 13.5971C0.61227 13.7614 0.815235 13.8818 1.03821 13.9471C1.26118 14.0125 1.497 14.0207 1.72399 13.9711L6.32399 12.9711L13.56 5.65009C13.8178 5.38954 13.9619 5.03756 13.961 4.67106C13.9601 4.30455 13.8141 3.95331 13.555 3.69409L10.268 0.406087C10.1386 0.276831 9.98497 0.174415 9.81589 0.104726C9.64681 0.0350372 9.46562 -0.000551107 9.28275 6.4513e-06C9.09987 0.00056401 8.9189 0.0372564 8.75025 0.107975C8.58159 0.178694 8.42858 0.282044 8.29999 0.412087V0.412087ZM2.80999 12.4651L1.57599 11.2321L2.20599 8.33909L5.70599 11.8391L2.80999 12.4651Z" fill="#444A58"/>
</g>
<defs>
<clipPath id="clip0_449_3617">
<rect width="14" height="14" fill="white"/>
</clipPath>
</defs>
</svg>
