<svg width="14" height="14" viewBox="0 0 14 14" fill="none" xmlns="http://www.w3.org/2000/svg">
<path d="M4.455 0H9.545C9.96696 0 10.3716 0.167623 10.67 0.465993C10.9684 0.764363 11.136 1.16904 11.136 1.591V12.409C11.136 12.831 10.9684 13.2356 10.67 13.534C10.3716 13.8324 9.96696 14 9.545 14H4.455C4.03304 14 3.62836 13.8324 3.32999 13.534C3.03162 13.2356 2.864 12.831 2.864 12.409V1.591C2.864 1.16904 3.03162 0.764363 3.32999 0.465993C3.62836 0.167623 4.03304 0 4.455 0V0ZM7.032 12.9C7.26934 12.9 7.50134 12.8296 7.69868 12.6978C7.89602 12.5659 8.04983 12.3785 8.14065 12.1592C8.23148 11.9399 8.25524 11.6987 8.20894 11.4659C8.16264 11.2331 8.04835 11.0193 7.88053 10.8515C7.7127 10.6836 7.49888 10.5694 7.26611 10.5231C7.03333 10.4768 6.79205 10.5005 6.57278 10.5913C6.35351 10.6822 6.16609 10.836 6.03423 11.0333C5.90238 11.2307 5.832 11.4627 5.832 11.7C5.832 12.0183 5.95843 12.3235 6.18347 12.5485C6.40851 12.7736 6.71374 12.9 7.032 12.9V12.9Z" fill="#444A58"/>
</svg>
