<svg width="14" height="14" viewBox="0 0 14 14" fill="none" xmlns="http://www.w3.org/2000/svg">
<g clip-path="url(#clip0_449_3468)">
<path d="M7.968 5.83113H4L4.717 5.10813C4.82534 4.99953 4.91123 4.87065 4.96976 4.72885C5.02829 4.58706 5.05833 4.43512 5.05814 4.28172C5.05795 4.12831 5.02756 3.97645 4.96868 3.8348C4.9098 3.69314 4.8236 3.56447 4.715 3.45613C4.6064 3.34779 4.47752 3.2619 4.33572 3.20337C4.19392 3.14484 4.04199 3.11481 3.88859 3.11499C3.73518 3.11518 3.58332 3.14558 3.44167 3.20445C3.30001 3.26333 3.17134 3.34953 3.063 3.45813L0.341 6.18613C0.231816 6.29548 0.145435 6.42542 0.0868705 6.56842C0.0283059 6.71141 -0.00127662 6.86462 -0.000160278 7.01914C0.000956068 7.17366 0.032749 7.32642 0.0933736 7.46856C0.153998 7.61069 0.242247 7.73937 0.353 7.84713L3.143 10.5541C3.25278 10.6613 3.3826 10.7458 3.52504 10.8028C3.66747 10.8598 3.81974 10.8881 3.97314 10.8863C4.12654 10.8844 4.27808 10.8524 4.41909 10.7919C4.56011 10.7315 4.68784 10.6439 4.795 10.5341C4.90216 10.4243 4.98664 10.2945 5.04363 10.1521C5.10062 10.0097 5.129 9.85739 5.12714 9.70399C5.12528 9.55059 5.09323 9.39905 5.03281 9.25804C4.97239 9.11702 4.88478 8.98929 4.775 8.88213L4.026 8.16813H7.968C8.27199 8.15924 8.56054 8.03223 8.77242 7.81406C8.9843 7.5959 9.10281 7.30375 9.10281 6.99963C9.10281 6.69551 8.9843 6.40337 8.77242 6.1852C8.56054 5.96703 8.27199 5.84003 7.968 5.83113V5.83113Z" fill="#444A58"/>
<path d="M13.623 0.377012C13.5037 0.257278 13.3618 0.162328 13.2057 0.0976269C13.0495 0.0329256 12.882 -0.000249232 12.713 1.17506e-05H9.488C9.31604 -0.00478309 9.14486 0.0249463 8.98458 0.0874425C8.82431 0.149939 8.67818 0.243933 8.55486 0.36387C8.43153 0.483807 8.3335 0.627251 8.26656 0.785724C8.19962 0.944197 8.16513 1.11448 8.16513 1.28651C8.16513 1.45854 8.19962 1.62883 8.26656 1.7873C8.3335 1.94577 8.43153 2.08922 8.55486 2.20915C8.67818 2.32909 8.82431 2.42308 8.98458 2.48558C9.14486 2.54808 9.31604 2.57781 9.488 2.57301H11.427V11.426H9.488C9.14667 11.426 8.81931 11.5616 8.57796 11.803C8.3366 12.0443 8.201 12.3717 8.201 12.713C8.201 13.0543 8.3366 13.3817 8.57796 13.6231C8.81931 13.8644 9.14667 14 9.488 14H12.713C12.882 14 13.0494 13.9667 13.2055 13.902C13.3617 13.8374 13.5035 13.7426 13.623 13.6231C13.7426 13.5035 13.8374 13.3617 13.902 13.2055C13.9667 13.0494 14 12.882 14 12.713V1.28701C14.0003 1.11796 13.9671 0.950535 13.9024 0.794359C13.8377 0.638184 13.7427 0.496347 13.623 0.377012V0.377012Z" fill="#444A58"/>
</g>
<defs>
<clipPath id="clip0_449_3468">
<rect width="14" height="14" fill="white"/>
</clipPath>
</defs>
</svg>
