<svg width="14" height="14" viewBox="0 0 14 14" fill="none" xmlns="http://www.w3.org/2000/svg">
<g clip-path="url(#clip0_449_3816)">
<path d="M12.322 8.76595L9.273 6.99995L12.582 5.08495C12.7237 5.02084 12.8503 4.92753 12.9535 4.81113C13.0566 4.69472 13.1341 4.55785 13.1807 4.40947C13.2273 4.26108 13.2421 4.10452 13.2241 3.95003C13.206 3.79554 13.1556 3.6466 13.076 3.51295C13.0037 3.36827 12.8995 3.24183 12.7713 3.14311C12.6432 3.0444 12.4944 2.97597 12.336 2.94295C12.0376 2.89535 11.732 2.95562 11.474 3.11295C11.228 3.25095 8.127 5.03995 8.127 5.03995L8.122 1.20495C8.1312 1.03936 8.1064 0.873642 8.04913 0.717999C7.99186 0.562357 7.90333 0.420086 7.789 0.299951C7.68416 0.197785 7.55933 0.118397 7.42235 0.0667707C7.28537 0.0151444 7.13919 -0.00760495 6.993 -4.92015e-05C6.8374 -0.00290567 6.68294 0.0270197 6.53966 0.0877811C6.39639 0.148542 6.2675 0.238779 6.16139 0.352624C6.05528 0.466469 5.97432 0.601372 5.92377 0.748563C5.87322 0.895753 5.85422 1.05193 5.868 1.20695V5.04495C4.77267 4.41495 3.68 3.78428 2.59 3.15295C2.44597 3.05694 2.28413 2.99083 2.11407 2.95854C1.94401 2.92624 1.7692 2.92843 1.6 2.96495C1.45819 3.00578 1.32615 3.07496 1.21184 3.16829C1.09754 3.26162 1.00336 3.37717 0.935001 3.50795C0.856986 3.63143 0.804802 3.76943 0.7816 3.91363C0.758397 4.05783 0.764657 4.20524 0.800001 4.34695C0.854101 4.5131 0.941016 4.66669 1.05559 4.79861C1.17017 4.93054 1.31007 5.03811 1.467 5.11495L4.732 6.99995L1.446 8.89995C1.30242 8.95893 1.17305 9.04781 1.0665 9.16068C0.95995 9.27356 0.878662 9.40783 0.828047 9.55457C0.777432 9.7013 0.758651 9.85714 0.772954 10.0117C0.787258 10.1663 0.834317 10.316 0.911001 10.451C0.976135 10.588 1.06893 10.7101 1.18355 10.8096C1.29816 10.9091 1.43212 10.9838 1.577 11.029C1.74382 11.0699 1.91727 11.0764 2.08667 11.0478C2.25607 11.0193 2.41783 10.9564 2.562 10.863C3.107 10.554 3.649 10.242 4.193 9.92895L5.867 8.96995V12.7C5.85297 12.8813 5.87626 13.0636 5.93542 13.2356C5.99459 13.4076 6.08838 13.5656 6.211 13.7C6.31573 13.8002 6.43954 13.8785 6.57507 13.93C6.7106 13.9815 6.8551 14.0053 7 14H7.03C7.36 13.995 8.13 13.859 8.125 12.717V8.96295L11.212 10.741C11.3914 10.8675 11.5944 10.9568 11.8089 11.0035C12.0235 11.0502 12.2452 11.0534 12.461 11.0129C12.5962 10.9728 12.7217 10.9055 12.8299 10.815C12.9381 10.7246 13.0266 10.6129 13.09 10.487C13.331 10.043 13.394 9.38395 12.322 8.76595Z" fill="#444A58"/>
</g>
<defs>
<clipPath id="clip0_449_3816">
<rect width="14" height="14" fill="white"/>
</clipPath>
</defs>
</svg>
