<svg width="14" height="14" viewBox="0 0 14 14" fill="none" xmlns="http://www.w3.org/2000/svg">
<g clip-path="url(#clip0_449_3377)">
<path d="M8.461 1.64701L8.245 0.566011C8.21379 0.40595 8.12767 0.26181 8.00151 0.158474C7.87535 0.0551387 7.71708 -0.000907529 7.554 1.1116e-05H1.607C1.37175 1.1116e-05 1.14614 0.0934626 0.979797 0.259807C0.813453 0.426152 0.720001 0.651764 0.720001 0.887011V13.176C0.720001 13.3944 0.806678 13.6038 0.960992 13.7583C1.11531 13.9128 1.32464 13.9997 1.543 14V14C1.76154 14 1.97113 13.9132 2.12566 13.7587C2.28019 13.6041 2.367 13.3945 2.367 13.176V8.23501H6.979L7.2 9.31601C7.23122 9.47607 7.31734 9.62021 7.44349 9.72355C7.56965 9.82688 7.72793 9.88293 7.891 9.88201H12.513C12.8127 9.88201 13.1001 9.76296 13.312 9.55104C13.5239 9.33913 13.643 9.05171 13.643 8.75201V2.77701C13.643 2.47732 13.5239 2.1899 13.312 1.97798C13.1001 1.76606 12.8127 1.64701 12.513 1.64701H8.461Z" fill="#444A58"/>
</g>
<defs>
<clipPath id="clip0_449_3377">
<rect width="14" height="14" fill="white"/>
</clipPath>
</defs>
</svg>
