<svg width="14" height="14" viewBox="0 0 14 14" fill="none" xmlns="http://www.w3.org/2000/svg">
<g clip-path="url(#clip0_449_3600)">
<path d="M6.02 0.0880795C4.46329 0.339128 3.03234 1.09517 1.94769 2.23968C0.863034 3.38419 0.184881 4.85365 0.0177401 6.4216C-0.149401 7.98954 0.203747 9.56893 1.02276 10.9164C1.84177 12.2638 3.08119 13.3045 4.55 13.8781C4.6493 13.9133 4.7563 13.921 4.8596 13.9002C4.9629 13.8794 5.05861 13.8309 5.13653 13.76C5.21445 13.689 5.27164 13.5983 5.30202 13.4974C5.33239 13.3965 5.33481 13.2892 5.309 13.1871C5.13564 12.3791 5.11461 11.5458 5.247 10.7301C5.47576 9.36438 6.13119 8.10623 7.11928 7.13611C8.10737 6.16598 9.37733 5.53374 10.747 5.33008C11.5649 5.21278 12.3975 5.24941 13.202 5.43808C13.3023 5.46309 13.4074 5.46098 13.5066 5.43197C13.6059 5.40297 13.6956 5.3481 13.7666 5.273C13.8376 5.19791 13.8874 5.10527 13.9109 5.0046C13.9343 4.90392 13.9306 4.79883 13.9 4.70008C13.3238 3.13776 12.2232 1.82388 10.786 0.982752C9.34888 0.141625 7.66434 -0.174595 6.02 0.0880795V0.0880795Z" fill="#444A58"/>
<path d="M13.815 7.80016C12.8353 7.37973 11.7368 7.32648 10.721 7.65016C9.99621 7.87922 9.33723 8.27941 8.79974 8.8169C8.26225 9.35439 7.86206 10.0134 7.633 10.7382C7.30837 11.7559 7.36162 12.8565 7.783 13.8382C7.80226 13.8801 7.83141 13.9167 7.86795 13.9449C7.90448 13.973 7.94731 13.9919 7.99275 13.9999C8.03819 14.0078 8.08488 14.0047 8.12882 13.9906C8.17276 13.9765 8.21263 13.952 8.245 13.9192L13.9 8.26216C13.933 8.22962 13.9575 8.18951 13.9714 8.14532C13.9853 8.10113 13.9882 8.05422 13.9798 8.00866C13.9714 7.9631 13.952 7.92029 13.9233 7.88394C13.8946 7.8476 13.8574 7.81884 13.815 7.80016V7.80016Z" fill="#444A58"/>
</g>
<defs>
<clipPath id="clip0_449_3600">
<rect width="14" height="14" fill="white"/>
</clipPath>
</defs>
</svg>
