<svg width="14" height="14" viewBox="0 0 14 14" fill="none" xmlns="http://www.w3.org/2000/svg">
<g clip-path="url(#clip0_449_3364)">
<path d="M7.831 0.688077L9.585 4.38808L13.177 4.76908C13.3588 4.78672 13.5313 4.85814 13.6723 4.97423C13.8133 5.09032 13.9166 5.24581 13.9688 5.42085C14.0211 5.59588 14.02 5.78253 13.9657 5.95694C13.9114 6.13136 13.8064 6.28564 13.664 6.40008L10.8 8.75508L11.686 12.7141C11.7256 12.89 11.7125 13.0738 11.6484 13.2424C11.5843 13.411 11.4721 13.557 11.3256 13.6622C11.1791 13.7674 11.0049 13.8272 10.8246 13.8341C10.6444 13.8411 10.4661 13.7948 10.312 13.7011L7 11.6861L3.685 13.7001C3.5308 13.7936 3.35252 13.8397 3.17231 13.8328C2.99211 13.8258 2.81793 13.766 2.67143 13.6608C2.52492 13.5557 2.41256 13.4098 2.3483 13.2413C2.28404 13.0728 2.27072 12.8891 2.31 12.7131L3.2 8.75508L0.335998 6.40008C0.194618 6.28532 0.0905164 6.13115 0.0369017 5.95713C-0.016713 5.78312 -0.0174234 5.59709 0.0348606 5.42267C0.0871445 5.24825 0.190066 5.09329 0.330565 4.97746C0.471063 4.86162 0.642805 4.79014 0.823998 4.77208L4.415 4.39108L6.169 0.688077C6.24366 0.530903 6.36137 0.398127 6.50846 0.305158C6.65555 0.21219 6.82599 0.162842 7 0.162842C7.174 0.162842 7.34444 0.21219 7.49153 0.305158C7.63862 0.398127 7.75633 0.530903 7.831 0.688077V0.688077Z" fill="#444A58"/>
</g>
<defs>
<clipPath id="clip0_449_3364">
<rect width="14" height="14" fill="white"/>
</clipPath>
</defs>
</svg>
