<svg width="14" height="14" viewBox="0 0 14 14" fill="none" xmlns="http://www.w3.org/2000/svg">
<g clip-path="url(#clip0_449_3667)">
<path d="M9.347 0H10.328C10.4704 0 10.607 0.0565766 10.7077 0.157284C10.8084 0.257991 10.865 0.394579 10.865 0.537V2.942C10.865 2.99133 10.8846 3.03864 10.9195 3.07352C10.9544 3.1084 11.0017 3.128 11.051 3.128H13.464C13.6062 3.128 13.7425 3.18447 13.843 3.28499C13.9435 3.38551 14 3.52184 14 3.664V4.652C14.0001 4.72247 13.9864 4.79228 13.9595 4.85743C13.9326 4.92257 13.8931 4.98178 13.8434 5.03166C13.7936 5.08153 13.7344 5.12111 13.6693 5.1481C13.6043 5.1751 13.5345 5.189 13.464 5.189H9.212C9.10591 5.189 9.00417 5.14686 8.92915 5.07184C8.85414 4.99683 8.812 4.89509 8.812 4.789V0.537C8.81187 0.466611 8.8256 0.396886 8.85242 0.331805C8.87923 0.266725 8.9186 0.207563 8.96828 0.157698C9.01796 0.107833 9.07697 0.0682408 9.14195 0.041183C9.20693 0.0141252 9.27661 0.000131199 9.347 0V0Z" fill="#444A58"/>
<path d="M0 4.653V3.672C-2.46642e-07 3.52975 0.0564391 3.39332 0.15693 3.29264C0.257421 3.19196 0.393752 3.13526 0.536 3.135H2.942C2.99133 3.135 3.03864 3.1154 3.07352 3.08052C3.1084 3.04564 3.128 2.99833 3.128 2.949V0.536C3.128 0.393844 3.18447 0.25751 3.28499 0.156991C3.38551 0.0564713 3.52184 0 3.664 0L4.652 0C4.79425 -2.46642e-07 4.93068 0.0564391 5.03136 0.15693C5.13204 0.257421 5.18874 0.393752 5.189 0.536V4.788C5.189 4.84053 5.17865 4.89254 5.15855 4.94107C5.13845 4.9896 5.10899 5.0337 5.07184 5.07084C5.0347 5.10799 4.9906 5.13745 4.94207 5.15755C4.89354 5.17765 4.84153 5.188 4.789 5.188H0.536C0.394017 5.188 0.257835 5.13167 0.157344 5.03136C0.0568531 4.93106 0.000264894 4.79498 0 4.653H0Z" fill="#444A58"/>
<path d="M4.65299 14H3.67199C3.52957 14 3.39298 13.9435 3.29228 13.8428C3.19157 13.742 3.13499 13.6055 3.13499 13.463V11.063C3.13499 11.0137 3.1154 10.9664 3.08051 10.9315C3.04563 10.8966 2.99832 10.877 2.94899 10.877H0.535993C0.465182 10.877 0.395072 10.863 0.329713 10.8358C0.264354 10.8085 0.205043 10.7686 0.155205 10.7183C0.105367 10.668 0.0659899 10.6083 0.0393493 10.5427C0.0127087 10.4771 -0.000667747 10.4068 -7.19426e-06 10.336V9.34803C-0.000138673 9.27756 0.0136284 9.20776 0.040506 9.14261C0.0673837 9.07746 0.106844 9.01826 0.15663 8.96838C0.206415 8.9185 0.265547 8.87893 0.330643 8.85193C0.395739 8.82493 0.46552 8.81104 0.535993 8.81104H4.78799C4.84052 8.81104 4.89254 8.82138 4.94107 8.84148C4.9896 8.86158 5.03369 8.89105 5.07084 8.92819C5.10798 8.96534 5.13744 9.00943 5.15754 9.05796C5.17765 9.10649 5.18799 9.15851 5.18799 9.21104V13.462C5.18826 13.5325 5.17462 13.6023 5.14786 13.6675C5.12111 13.7327 5.08176 13.792 5.03206 13.842C4.98237 13.892 4.92331 13.9316 4.85827 13.9588C4.79322 13.9859 4.72347 13.9999 4.65299 14Z" fill="#444A58"/>
<path d="M14 9.34701V10.328C14 10.4703 13.9436 10.6067 13.8431 10.7074C13.7426 10.8081 13.6063 10.8647 13.464 10.865H11.058C11.0087 10.865 10.9614 10.8846 10.9265 10.9195C10.8916 10.9544 10.872 11.0017 10.872 11.051V13.464C10.872 13.6062 10.8155 13.7425 10.715 13.843C10.6145 13.9435 10.4782 14 10.336 14H9.348C9.20576 14 9.06932 13.9436 8.96864 13.8431C8.86796 13.7426 8.81127 13.6063 8.811 13.464V9.21201C8.811 9.10593 8.85315 9.00418 8.92816 8.92917C9.00318 8.85416 9.10492 8.81201 9.21101 8.81201H13.463C13.5334 8.81188 13.6031 8.82562 13.6682 8.85243C13.7333 8.87925 13.7924 8.91862 13.8423 8.9683C13.8922 9.01798 13.9318 9.07699 13.9588 9.14197C13.9859 9.20695 13.9999 9.27662 14 9.34701V9.34701Z" fill="#444A58"/>
</g>
<defs>
<clipPath id="clip0_449_3667">
<rect width="14" height="14" fill="white"/>
</clipPath>
</defs>
</svg>
