<svg width="14" height="14" viewBox="0 0 14 14" fill="none" xmlns="http://www.w3.org/2000/svg">
<path d="M3.676 9.668C4.07 9.822 4.446 9.992 4.837 10.118C5.55264 10.3706 6.31873 10.4464 7.07 10.339C7.28508 10.3025 7.49279 10.2312 7.685 10.128C7.81941 10.0629 7.93593 9.96598 8.02451 9.84572C8.11309 9.72546 8.17106 9.58544 8.19341 9.43776C8.21576 9.29008 8.20182 9.13918 8.15279 8.9981C8.10376 8.85702 8.02111 8.72999 7.912 8.628C7.67888 8.39479 7.39719 8.21587 7.087 8.104C6.571 7.898 6.046 7.714 5.532 7.504C5.00133 7.30057 4.51356 6.99936 4.094 6.616C3.74292 6.29468 3.48676 5.88316 3.35346 5.42628C3.22015 4.96941 3.2148 4.48471 3.338 4.025C3.4506 3.52719 3.69065 3.06718 4.03461 2.6901C4.37856 2.31301 4.81461 2.03178 5.3 1.874C5.575 1.765 5.865 1.695 6.167 1.601V0H7.847V1.5C8.71427 1.51545 9.56906 1.70948 10.358 2.07L9.846 3.992C9.567 3.881 9.304 3.763 9.033 3.672C8.33702 3.42434 7.59121 3.34986 6.86 3.455C6.6497 3.49002 6.44867 3.56724 6.269 3.682C6.15807 3.74577 6.06472 3.83611 5.99737 3.94489C5.93001 4.05368 5.89074 4.17751 5.88311 4.30523C5.87547 4.43296 5.8997 4.56058 5.95362 4.67662C6.00754 4.79265 6.08945 4.89347 6.192 4.97C6.47668 5.18507 6.78624 5.36504 7.114 5.506C7.714 5.774 8.333 5.988 8.929 6.259C9.51531 6.50495 10.0186 6.91419 10.379 7.438C10.7524 8.05548 10.8986 8.78387 10.7926 9.49762C10.6865 10.2114 10.3348 10.8658 9.798 11.348C9.25672 11.7986 8.60555 12.0974 7.911 12.214C7.802 12.234 7.776 12.275 7.777 12.378C7.777 12.861 7.777 13.343 7.777 13.825V14H6.083V12.421C5.528 12.321 4.994 12.256 4.476 12.126C4.061 12.026 3.665 11.838 3.26 11.691C3.24385 11.6891 3.22839 11.6834 3.21497 11.6742C3.20156 11.665 3.19058 11.6527 3.183 11.6383C3.17541 11.6239 3.17145 11.6079 3.17145 11.5917C3.17145 11.5754 3.17541 11.5594 3.183 11.545C3.344 10.93 3.5 10.314 3.659 9.699C3.66313 9.6879 3.66886 9.67745 3.676 9.668Z" fill="#444A58"/>
</svg>
