<svg width="14" height="14" viewBox="0 0 14 14" fill="none" xmlns="http://www.w3.org/2000/svg">
<g clip-path="url(#clip0_449_4044)">
<path d="M7.35501 0.454956C7.23424 0.454956 7.11465 0.47876 7.00309 0.525006C6.89152 0.571253 6.79017 0.639035 6.70482 0.724478C6.61947 0.809921 6.5518 0.911349 6.50567 1.02296C6.45955 1.13458 6.43587 1.25419 6.43601 1.37496V3.21396C6.44388 3.45257 6.5442 3.67879 6.71578 3.8448C6.88736 4.01082 7.11676 4.10363 7.35551 4.10363C7.59425 4.10363 7.82365 4.01082 7.99523 3.8448C8.16681 3.67879 8.26713 3.45257 8.275 3.21396V1.37496C8.275 1.13096 8.17808 0.896951 8.00554 0.724418C7.83301 0.551884 7.599 0.454956 7.35501 0.454956V0.454956Z" fill="#444A58"/>
<path d="M7.355 11.522C7.22098 11.5222 7.09253 11.5757 6.99785 11.6705C6.90318 11.7654 6.85 11.8939 6.85 12.028V13.039C6.84697 13.1072 6.85779 13.1754 6.88182 13.2394C6.90586 13.3034 6.9426 13.3618 6.98984 13.4112C7.03708 13.4606 7.09384 13.4999 7.15668 13.5268C7.21953 13.5536 7.28716 13.5675 7.3555 13.5675C7.42385 13.5675 7.49148 13.5536 7.55432 13.5268C7.61717 13.4999 7.67392 13.4606 7.72116 13.4112C7.7684 13.3618 7.80515 13.3034 7.82918 13.2394C7.85322 13.1754 7.86404 13.1072 7.861 13.039V12.028C7.86074 11.8939 7.80734 11.7653 7.71251 11.6705C7.61767 11.5756 7.48912 11.5222 7.355 11.522V11.522Z" fill="#444A58"/>
<path d="M10.526 5.479C10.6373 5.47992 10.7477 5.45863 10.8508 5.41639C10.9538 5.37416 11.0473 5.31181 11.126 5.233L12.31 4.045C12.3881 3.967 12.45 3.87438 12.4923 3.77244C12.5346 3.67049 12.5563 3.56122 12.5564 3.45086C12.5564 3.3405 12.5347 3.2312 12.4926 3.12922C12.4504 3.02725 12.3885 2.93457 12.3105 2.8565C12.2325 2.77843 12.1399 2.71649 12.0379 2.67421C11.936 2.63194 11.8267 2.61015 11.7164 2.61011C11.606 2.61006 11.4967 2.63175 11.3947 2.67394C11.2927 2.71613 11.2001 2.778 11.122 2.856L9.932 4.044C9.81465 4.16161 9.73477 4.31135 9.70243 4.47431C9.6701 4.63727 9.68675 4.80615 9.75029 4.95966C9.81383 5.11316 9.92142 5.24441 10.0595 5.33684C10.1975 5.42927 10.3599 5.47874 10.526 5.479V5.479Z" fill="#444A58"/>
<path d="M3.454 10.4109L2.154 11.7109C2.06865 11.7963 2.00093 11.8976 1.95474 12.0091C1.90854 12.1207 1.88477 12.2402 1.88477 12.3609C1.88477 12.4816 1.90854 12.6012 1.95474 12.7127C2.00093 12.8242 2.06865 12.9255 2.154 13.0109C2.23936 13.0963 2.3407 13.164 2.45223 13.2102C2.56375 13.2564 2.68329 13.2801 2.804 13.2801C2.92472 13.2801 3.04425 13.2564 3.15578 13.2102C3.26731 13.164 3.36865 13.0963 3.454 13.0109L4.754 11.7109C4.91499 11.5363 5.00219 11.3061 4.99736 11.0686C4.99253 10.8312 4.89604 10.6048 4.72809 10.4368C4.56013 10.2689 4.33373 10.1724 4.09626 10.1675C3.85879 10.1627 3.62865 10.2499 3.454 10.4109V10.4109Z" fill="#444A58"/>
<path d="M13.258 6.89099H11.775C11.5782 6.89099 11.3895 6.96917 11.2503 7.10832C11.1112 7.24747 11.033 7.4362 11.033 7.63299C11.033 7.82978 11.1112 8.01851 11.2503 8.15766C11.3895 8.29682 11.5782 8.37499 11.775 8.37499H13.258C13.4548 8.37499 13.6435 8.29682 13.7827 8.15766C13.9218 8.01851 14 7.82978 14 7.63299C14 7.4362 13.9218 7.24747 13.7827 7.10832C13.6435 6.96917 13.4548 6.89099 13.258 6.89099V6.89099Z" fill="#444A58"/>
<path d="M3.678 7.81099C3.678 7.56699 3.58107 7.33299 3.40854 7.16045C3.236 6.98792 3.002 6.89099 2.758 6.89099H0.919C0.680382 6.89886 0.454168 6.99919 0.288154 7.17077C0.122139 7.34235 0.0293274 7.57174 0.0293274 7.81049C0.0293274 8.04924 0.122139 8.27864 0.288154 8.45022C0.454168 8.6218 0.680382 8.72212 0.919 8.72999H2.758C3.00183 8.72999 3.23568 8.6332 3.40819 8.46088C3.58069 8.28857 3.67773 8.05482 3.678 7.81099V7.81099Z" fill="#444A58"/>
<path d="M10.685 10.313C10.5752 10.2032 10.4263 10.1415 10.271 10.1415C10.1157 10.1415 9.9668 10.2032 9.857 10.313C9.7472 10.4228 9.68552 10.5717 9.68552 10.727C9.68552 10.8822 9.7472 11.0312 9.857 11.141L10.686 11.969C10.7958 12.0786 10.9447 12.1402 11.0999 12.1401C11.255 12.14 11.4038 12.0783 11.5135 11.9685C11.6232 11.8587 11.6847 11.7098 11.6846 11.5546C11.6845 11.3994 11.6228 11.2506 11.513 11.141L10.685 10.313Z" fill="#444A58"/>
<path d="M3.454 2.60994C3.28161 2.43755 3.0478 2.3407 2.804 2.3407C2.56021 2.3407 2.3264 2.43755 2.154 2.60994C1.98161 2.78233 1.88477 3.01614 1.88477 3.25994C1.88477 3.50373 1.98161 3.73755 2.154 3.90994L3.454 5.20994C3.62865 5.37092 3.85879 5.45812 4.09626 5.45329C4.33373 5.44846 4.56013 5.35197 4.72809 5.18402C4.89604 5.01606 4.99253 4.78966 4.99736 4.55219C5.00219 4.31472 4.91499 4.08458 4.754 3.90994L3.454 2.60994Z" fill="#444A58"/>
</g>
<defs>
<clipPath id="clip0_449_4044">
<rect width="14" height="14" fill="white"/>
</clipPath>
</defs>
</svg>
