<svg width="14" height="14" viewBox="0 0 14 14" fill="none" xmlns="http://www.w3.org/2000/svg">
<g clip-path="url(#clip0_449_3654)">
<path d="M13.464 5.189H12.483C12.3406 5.189 12.204 5.13242 12.1033 5.03172C12.0026 4.93101 11.946 4.79442 11.946 4.652V2.247C11.946 2.19767 11.9264 2.15036 11.8915 2.11548C11.8566 2.0806 11.8093 2.061 11.76 2.061H9.34701C9.20485 2.061 9.06852 2.00453 8.968 1.90401C8.86748 1.80349 8.81101 1.66716 8.81101 1.525V0.537C8.81087 0.466527 8.82464 0.396721 8.85152 0.331575C8.8784 0.266429 8.91786 0.207222 8.96764 0.157344C9.01743 0.107466 9.07656 0.0678951 9.14166 0.040896C9.20675 0.013897 9.27653 -1.22648e-07 9.34701 0L13.6 0C13.7061 0 13.8078 0.0421427 13.8828 0.117157C13.9579 0.192172 14 0.293913 14 0.4V4.652C14.0001 4.72247 13.9864 4.79228 13.9595 4.85743C13.9326 4.92257 13.8932 4.98178 13.8434 5.03166C13.7936 5.08153 13.7345 5.12111 13.6694 5.1481C13.6043 5.1751 13.5345 5.189 13.464 5.189V5.189Z" fill="#444A58"/>
<path d="M5.189 0.536V1.517C5.18874 1.65934 5.13207 1.79577 5.03142 1.89642C4.93077 1.99707 4.79434 2.05374 4.652 2.054H2.247C2.19767 2.054 2.15036 2.0736 2.11548 2.10848C2.0806 2.14336 2.061 2.19067 2.061 2.24V4.653C2.061 4.72347 2.0471 4.79325 2.0201 4.85835C1.9931 4.92345 1.95353 4.98258 1.90366 5.03236C1.85378 5.08215 1.79457 5.12161 1.72943 5.14849C1.66428 5.17536 1.59447 5.18913 1.524 5.189H0.536C0.465611 5.189 0.395912 5.17514 0.330882 5.1482C0.265851 5.12126 0.206763 5.08178 0.156991 5.03201C0.107219 4.98224 0.0677371 4.92315 0.0408006 4.85812C0.013864 4.79309 0 4.72339 0 4.653L0 0.4C0 0.293913 0.0421427 0.192172 0.117157 0.117157C0.192172 0.0421427 0.293913 0 0.4 0L4.652 0C4.79425 -2.46642e-07 4.93068 0.0564391 5.03136 0.15693C5.13204 0.257421 5.18874 0.393752 5.189 0.536V0.536Z" fill="#444A58"/>
<path d="M0.536001 8.81104H1.517C1.65942 8.81104 1.79601 8.86761 1.89672 8.96832C1.99742 9.06903 2.054 9.20561 2.054 9.34803V11.748C2.054 11.7974 2.0736 11.8447 2.10848 11.8796C2.14336 11.9144 2.19067 11.934 2.24 11.934H4.653C4.72339 11.934 4.79309 11.9479 4.85812 11.9748C4.92315 12.0018 4.98224 12.0413 5.03201 12.091C5.08178 12.1408 5.12126 12.1999 5.1482 12.2649C5.17514 12.3299 5.189 12.3996 5.189 12.47V13.458C5.18979 13.5289 5.17652 13.5993 5.14994 13.665C5.12335 13.7307 5.084 13.7905 5.03415 13.8409C4.9843 13.8913 4.92494 13.9314 4.85951 13.9587C4.79409 13.986 4.7239 14 4.653 14H0.400001C0.293914 14 0.192173 13.9579 0.117158 13.8829C0.0421437 13.8079 9.32921e-07 13.7061 9.32921e-07 13.6V9.34803C-0.000130546 9.27756 0.0136365 9.20776 0.0405141 9.14261C0.0673918 9.07746 0.106852 9.01826 0.156638 8.96838C0.206423 8.9185 0.265556 8.87893 0.330651 8.85193C0.395747 8.82493 0.465528 8.81104 0.536001 8.81104V8.81104Z" fill="#444A58"/>
<path d="M8.811 13.4641V12.4831C8.81127 12.3407 8.86793 12.2043 8.96858 12.1036C9.06923 12.003 9.20566 11.9463 9.348 11.9461H11.748C11.7973 11.9461 11.8446 11.9265 11.8795 11.8916C11.9144 11.8567 11.934 11.8094 11.934 11.7601V9.34706C11.934 9.27659 11.9479 9.2068 11.9749 9.14171C12.0019 9.07661 12.0415 9.01748 12.0913 8.9677C12.1412 8.91791 12.2004 8.87845 12.2656 8.85157C12.3307 8.82469 12.4005 8.81093 12.471 8.81106H13.459C13.5298 8.8104 13.6001 8.82377 13.6657 8.85041C13.7313 8.87706 13.7909 8.91643 13.8413 8.96627C13.8916 9.01611 13.9315 9.07542 13.9587 9.14078C13.986 9.20614 14 9.27625 14 9.34706V13.6001C14 13.7061 13.9579 13.8079 13.8828 13.8829C13.8078 13.9579 13.7061 14.0001 13.6 14.0001H9.348C9.20576 14.0001 9.06932 13.9436 8.96864 13.8431C8.86796 13.7426 8.81127 13.6063 8.811 13.4641V13.4641Z" fill="#444A58"/>
</g>
<defs>
<clipPath id="clip0_449_3654">
<rect width="14" height="14" fill="white"/>
</clipPath>
</defs>
</svg>
