<svg width="14" height="14" viewBox="0 0 14 14" fill="none" xmlns="http://www.w3.org/2000/svg">
<g clip-path="url(#clip0_449_3489)">
<path d="M5.83099 6.03203V10.005L5.10799 9.28803C4.99939 9.17969 4.87051 9.0938 4.72872 9.03527C4.58692 8.97673 4.43498 8.9467 4.28158 8.94689C4.12818 8.94708 3.97631 8.97747 3.83466 9.03635C3.69301 9.09523 3.56433 9.18143 3.45599 9.29003C3.34765 9.39863 3.26176 9.52751 3.20323 9.66931C3.1447 9.8111 3.11467 9.96304 3.11485 10.1164C3.11504 10.2698 3.14544 10.4217 3.20431 10.5634C3.26319 10.705 3.34939 10.8337 3.45799 10.942L6.18599 13.659C6.29534 13.7682 6.42528 13.8546 6.56828 13.9132C6.71128 13.9717 6.86448 14.0013 7.019 14.0002C7.17352 13.9991 7.32628 13.9673 7.46842 13.9067C7.61056 13.846 7.73924 13.7578 7.84699 13.647L10.554 10.857C10.6612 10.7472 10.7456 10.6174 10.8026 10.475C10.8596 10.3326 10.888 10.1803 10.8861 10.0269C10.8843 9.87349 10.8522 9.72195 10.7918 9.58094C10.7314 9.43992 10.6438 9.31219 10.534 9.20503C10.4242 9.09787 10.2944 9.01339 10.152 8.9564C10.0095 8.89941 9.85725 8.87103 9.70385 8.87289C9.55045 8.87475 9.39891 8.9068 9.2579 8.96722C9.11689 9.02764 8.98915 9.11525 8.88199 9.22503L8.16799 9.97403V6.03203C8.1591 5.72804 8.03209 5.43949 7.81393 5.22761C7.59576 5.01573 7.30361 4.89722 6.99949 4.89722C6.69538 4.89722 6.40323 5.01573 6.18506 5.22761C5.9669 5.43949 5.83989 5.72804 5.83099 6.03203V6.03203Z" fill="#444A58"/>
<path d="M0.376996 0.377002C0.257263 0.496337 0.162313 0.638174 0.0976116 0.794349C0.0329104 0.950525 -0.000264491 1.11795 -3.50823e-06 1.287V4.512C-0.00479834 4.68397 0.024931 4.85514 0.0874273 5.01542C0.149924 5.1757 0.243918 5.32182 0.363855 5.44515C0.483791 5.56847 0.627236 5.66651 0.785709 5.73344C0.944181 5.80038 1.11447 5.83487 1.2865 5.83487C1.45853 5.83487 1.62881 5.80038 1.78728 5.73344C1.94576 5.66651 2.0892 5.56847 2.20914 5.44515C2.32907 5.32182 2.42307 5.1757 2.48557 5.01542C2.54806 4.85514 2.57779 4.68397 2.573 4.512V2.573H11.426V4.512C11.426 4.85334 11.5616 5.18069 11.8029 5.42205C12.0443 5.66341 12.3717 5.799 12.713 5.799C13.0543 5.799 13.3817 5.66341 13.623 5.42205C13.8644 5.18069 14 4.85334 14 4.512V1.288C14.0001 1.11891 13.9669 0.951442 13.9023 0.795181C13.8377 0.638919 13.7429 0.496924 13.6234 0.377309C13.5039 0.257694 13.362 0.162804 13.2057 0.0980642C13.0495 0.0333238 12.8821 1.47689e-06 12.713 1.52793e-06H1.287C1.11795 -0.000259454 0.95052 0.0329154 0.794344 0.0976167C0.638169 0.162318 0.496332 0.257268 0.376996 0.377002V0.377002Z" fill="#444A58"/>
</g>
<defs>
<clipPath id="clip0_449_3489">
<rect width="14" height="14" fill="white"/>
</clipPath>
</defs>
</svg>
