<svg width="14" height="14" viewBox="0 0 14 14" fill="none" xmlns="http://www.w3.org/2000/svg">
<g clip-path="url(#clip0_449_3838)">
<path fill-rule="evenodd" clip-rule="evenodd" d="M12.259 2.625L8.229 2.616L6.893 1.28C6.62322 1.02725 6.2696 0.883022 5.9 0.875H1.743C1.28017 0.877115 0.836996 1.06239 0.510377 1.39032C0.183758 1.71825 0.000259498 2.16216 0 2.625L0 11.375C0.00185093 11.8396 0.187643 12.2846 0.516727 12.6125C0.845812 12.9405 1.2914 13.1247 1.756 13.125H12.244C12.4744 13.1261 12.7027 13.0816 12.9159 12.9941C13.129 12.9066 13.3227 12.7778 13.4859 12.6152C13.6491 12.4525 13.7785 12.2592 13.8668 12.0464C13.955 11.8336 14.0003 11.6054 14 11.375V4.375C14 3.91243 13.8169 3.46867 13.4906 3.14073C13.1644 2.8128 12.7216 2.62738 12.259 2.625V2.625ZM9.154 6.667L8.077 7.744L9.154 8.821C9.29708 8.96382 9.37757 9.15763 9.37776 9.35979C9.37795 9.56196 9.29782 9.75592 9.155 9.899C9.01218 10.0421 8.81837 10.1226 8.61621 10.1228C8.41404 10.1229 8.22008 10.0428 8.077 9.9L7 8.821L5.923 9.9C5.77992 10.0428 5.58596 10.1229 5.38379 10.1228C5.18163 10.1226 4.98782 10.0421 4.845 9.899C4.70218 9.75592 4.62205 9.56196 4.62224 9.35979C4.62243 9.15763 4.70292 8.96382 4.846 8.821L5.923 7.744L4.846 6.667C4.71115 6.52259 4.63766 6.33145 4.64104 6.1339C4.64442 5.93634 4.72441 5.74783 4.86412 5.60812C5.00383 5.46841 5.19234 5.38842 5.3899 5.38504C5.58745 5.38166 5.77859 5.45515 5.923 5.59L7 6.667L8.077 5.59C8.14679 5.51526 8.23092 5.45533 8.32436 5.41379C8.4178 5.37224 8.51865 5.34993 8.6209 5.34818C8.72314 5.34643 8.8247 5.36528 8.9195 5.4036C9.01431 5.44193 9.10044 5.49894 9.17275 5.57125C9.24506 5.64356 9.30207 5.72969 9.3404 5.8245C9.37872 5.9193 9.39757 6.02086 9.39582 6.1231C9.39407 6.22535 9.37176 6.3262 9.33021 6.41964C9.28867 6.51308 9.22874 6.59721 9.154 6.667V6.667Z" fill="#444A58"/>
</g>
<defs>
<clipPath id="clip0_449_3838">
<rect width="14" height="14" fill="white"/>
</clipPath>
</defs>
</svg>
