<svg width="14" height="14" viewBox="0 0 14 14" fill="none" xmlns="http://www.w3.org/2000/svg">
<g clip-path="url(#clip0_449_3989)">
<path fill-rule="evenodd" clip-rule="evenodd" d="M8.018 13.632C9.672 12.277 12.761 9.276 12.761 5.761C12.761 4.23309 12.154 2.76775 11.0736 1.68736C9.99324 0.606961 8.52791 0 7 0C5.47209 0 4.00675 0.606961 2.92636 1.68736C1.84596 2.76775 1.239 4.23309 1.239 5.761C1.239 9.276 4.328 12.277 5.982 13.632C6.26785 13.87 6.62804 14.0003 7 14.0003C7.37195 14.0003 7.73215 13.87 8.018 13.632ZM7 7.041C7.37974 7.041 7.75095 6.92839 8.06669 6.71742C8.38244 6.50645 8.62853 6.20659 8.77385 5.85575C8.91917 5.50492 8.95719 5.11887 8.88311 4.74643C8.80902 4.37398 8.62616 4.03187 8.35764 3.76336C8.08913 3.49484 7.74702 3.31198 7.37457 3.23789C7.00213 3.16381 6.61608 3.20183 6.26525 3.34715C5.91441 3.49247 5.61455 3.73856 5.40358 4.05431C5.1926 4.37005 5.08 4.74126 5.08 5.121C5.08 5.63022 5.28228 6.11858 5.64235 6.47864C6.00242 6.83871 6.49078 7.041 7 7.041Z" fill="#444A58"/>
</g>
<defs>
<clipPath id="clip0_449_3989">
<rect width="14" height="14" fill="white"/>
</clipPath>
</defs>
</svg>
