<svg width="14" height="14" viewBox="0 0 14 14" fill="none" xmlns="http://www.w3.org/2000/svg">
<g clip-path="url(#clip0_449_3454)">
<path fill-rule="evenodd" clip-rule="evenodd" d="M12.4 5.77508C12.2661 4.56316 11.6955 3.44146 10.7948 2.61957C9.89418 1.79768 8.72509 1.33184 7.506 1.30908C6.57468 1.31939 5.66532 1.59331 4.88325 2.09912C4.10118 2.60493 3.47839 3.32193 3.087 4.16708C2.10143 4.46697 1.25396 5.10631 0.694968 5.97166C0.135978 6.837 -0.0983846 7.87239 0.0334653 8.89411C0.165315 9.91583 0.654852 10.8578 1.41521 11.5529C2.17557 12.248 3.15758 12.6512 4.187 12.6911H10.312C10.805 12.6831 11.2917 12.578 11.744 12.3817C12.1963 12.1855 12.6055 11.9019 12.9481 11.5472C13.2907 11.1926 13.5599 10.7738 13.7404 10.3149C13.9209 9.85606 14.0091 9.36609 14 8.87308C13.9981 8.26682 13.852 7.66972 13.5738 7.13105C13.2956 6.59239 12.8932 6.12761 12.4 5.77508V5.77508ZM9.751 6.37508L6.738 9.65108C6.67321 9.73232 6.59194 9.79891 6.49956 9.84648C6.40717 9.89405 6.30576 9.92152 6.202 9.92708H6.161C5.96479 9.92694 5.77667 9.84889 5.638 9.71008L4.159 8.23208C4.0215 8.09309 3.94459 7.90534 3.94507 7.70983C3.94555 7.51432 4.02338 7.32695 4.16156 7.18863C4.29974 7.05032 4.48704 6.97231 4.68255 6.97165C4.87806 6.97098 5.06588 7.04771 5.205 7.18508L6.1 8.08508L8.594 5.45308C8.65404 5.37521 8.72899 5.31008 8.81449 5.2615C8.89998 5.21292 8.9943 5.18187 9.09193 5.17016C9.18956 5.15845 9.28854 5.16631 9.3831 5.19329C9.47766 5.22027 9.56589 5.26583 9.64264 5.3273C9.71939 5.38876 9.78312 5.46491 9.83011 5.55129C9.8771 5.63766 9.9064 5.73254 9.9163 5.83037C9.9262 5.9282 9.91651 6.02703 9.88778 6.12107C9.85906 6.21511 9.81188 6.30248 9.749 6.37808L9.751 6.37508Z" fill="#444A58"/>
</g>
<defs>
<clipPath id="clip0_449_3454">
<rect width="14" height="14" fill="white"/>
</clipPath>
</defs>
</svg>
