<svg width="14" height="14" viewBox="0 0 14 14" fill="none" xmlns="http://www.w3.org/2000/svg">
<g clip-path="url(#clip0_449_3844)">
<path fill-rule="evenodd" clip-rule="evenodd" d="M7 0C5.61553 0 4.26215 0.410543 3.11101 1.17971C1.95986 1.94888 1.06266 3.04213 0.532843 4.32122C0.00302923 5.6003 -0.135594 7.00777 0.134502 8.36563C0.404599 9.7235 1.07128 10.9708 2.05025 11.9497C3.02922 12.9287 4.2765 13.5954 5.63437 13.8655C6.99223 14.1356 8.3997 13.997 9.67878 13.4672C10.9579 12.9373 12.0511 12.0401 12.8203 10.889C13.5895 9.73785 14 8.38447 14 7C14 5.14348 13.2625 3.36301 11.9497 2.05025C10.637 0.737498 8.85651 0 7 0V0ZM10.2 4.682L9.007 8.224C8.9453 8.40537 8.84226 8.5699 8.70602 8.70458C8.56978 8.83926 8.40407 8.9404 8.222 9L4.655 10.18C4.53527 10.2193 4.40698 10.2244 4.28448 10.1949C4.16199 10.1654 4.05011 10.1024 3.96138 10.013C3.87265 9.9235 3.81056 9.81112 3.78206 9.68838C3.75356 9.56565 3.75977 9.4374 3.8 9.318L4.993 5.777C5.05484 5.5956 5.15792 5.43101 5.29413 5.29619C5.43034 5.16136 5.59597 5.05998 5.778 5L9.345 3.821C9.46473 3.78175 9.59302 3.77658 9.71552 3.80608C9.83801 3.83558 9.94989 3.89859 10.0386 3.98804C10.1273 4.0775 10.1894 4.18988 10.2179 4.31262C10.2464 4.43535 10.2402 4.5636 10.2 4.683V4.682Z" fill="#444A58"/>
</g>
<defs>
<clipPath id="clip0_449_3844">
<rect width="14" height="14" fill="white"/>
</clipPath>
</defs>
</svg>
