<svg width="14" height="14" viewBox="0 0 14 14" fill="none" xmlns="http://www.w3.org/2000/svg">
<g clip-path="url(#clip0_449_3420)">
<path fill-rule="evenodd" clip-rule="evenodd" d="M8.671 13.492C8.34437 13.8182 7.90162 14.0014 7.44 14.0014C6.97837 14.0014 6.53562 13.8182 6.209 13.492L0.899997 8.178C0.368943 7.60347 0.0582806 6.85958 0.022997 6.078L-3.02531e-06 1.744C-0.00053001 1.51491 0.044187 1.28798 0.131582 1.07621C0.218977 0.864446 0.347329 0.672024 0.509274 0.509987C0.671218 0.34795 0.863567 0.219487 1.07528 0.131971C1.287 0.0444542 1.51391 -0.000392994 1.743 2.59439e-06L6.079 0.0210026C6.86087 0.0566646 7.60485 0.368073 8.179 0.900003L13.49 6.207C13.8158 6.53406 13.9987 6.97688 13.9987 7.4385C13.9987 7.90013 13.8158 8.34295 13.49 8.67L8.672 13.492H8.671ZM4.371 6.125C4.71711 6.125 5.05546 6.02237 5.34325 5.83007C5.63103 5.63778 5.85533 5.36447 5.98779 5.0447C6.12024 4.72493 6.1549 4.37306 6.08737 4.03359C6.01985 3.69413 5.85318 3.38231 5.60843 3.13757C5.36369 2.89282 5.05187 2.72615 4.71241 2.65863C4.37294 2.5911 4.02107 2.62576 3.7013 2.75821C3.38153 2.89067 3.10822 3.11497 2.91593 3.40275C2.72363 3.69054 2.621 4.02889 2.621 4.375C2.62087 4.60485 2.66604 4.83247 2.75394 5.04485C2.84184 5.25723 2.97074 5.4502 3.13327 5.61273C3.2958 5.77526 3.48877 5.90416 3.70115 5.99206C3.91352 6.07996 4.14115 6.12513 4.371 6.125V6.125Z" fill="#444A58"/>
</g>
<defs>
<clipPath id="clip0_449_3420">
<rect width="14" height="14" fill="white"/>
</clipPath>
</defs>
</svg>
