<svg width="14" height="14" viewBox="0 0 14 14" fill="none" xmlns="http://www.w3.org/2000/svg">
<g clip-path="url(#clip0_449_3698)">
<path fill-rule="evenodd" clip-rule="evenodd" d="M12.265 6.98702C12.2588 8.12126 11.861 9.21854 11.1388 10.0932C10.4167 10.9679 9.41456 11.5662 8.302 11.787C8.18303 11.8052 8.06149 11.7967 7.94626 11.7619C7.83103 11.7271 7.72503 11.667 7.63599 11.5861C7.54696 11.5051 7.47714 11.4052 7.43164 11.2938C7.38613 11.1824 7.3661 11.0622 7.373 10.942L7.393 3.05302C7.38673 2.93216 7.40733 2.81141 7.45331 2.69946C7.49929 2.5875 7.56951 2.48713 7.65892 2.40557C7.74833 2.324 7.85471 2.26326 7.9704 2.22772C8.08609 2.19218 8.20822 2.18272 8.328 2.20002C9.43809 2.41495 10.4385 3.01014 11.1571 3.88313C11.8757 4.75613 12.2675 5.85232 12.265 6.98302V6.98702ZM11.937 11.933C12.9073 10.9527 13.5655 9.70686 13.8285 8.35283C14.0915 6.99879 13.9475 5.59719 13.4148 4.32488C12.882 3.05258 11.9844 1.96657 10.8351 1.20391C9.68574 0.441242 8.33627 0.0360899 6.95693 0.0395731C5.5776 0.0430562 4.2302 0.455019 3.08475 1.22348C1.9393 1.99194 1.04713 3.08246 0.520818 4.35744C-0.005494 5.63243 -0.142367 7.03474 0.127471 8.38743C0.397309 9.74012 1.06177 10.9826 2.037 11.958C2.6884 12.6067 3.4612 13.1208 4.31127 13.4708C5.16134 13.8208 6.07204 14 6.99135 13.998C7.91066 13.9961 8.82059 13.8131 9.66917 13.4594C10.5177 13.1058 11.2884 12.5885 11.937 11.937V11.933Z" fill="#444A58"/>
</g>
<defs>
<clipPath id="clip0_449_3698">
<rect width="14" height="14" fill="white"/>
</clipPath>
</defs>
</svg>
