<svg width="14" height="14" viewBox="0 0 14 14" fill="none" xmlns="http://www.w3.org/2000/svg">
<g clip-path="url(#clip0_449_3982)">
<path d="M13.584 12.4941C13.584 12.4941 10.396 17.0441 3.684 10.3271C-3.067 3.56208 1.524 0.417076 1.524 0.417076C1.66779 0.272729 1.84097 0.161039 2.03178 0.0896004C2.22259 0.0181616 2.42654 -0.0113505 2.62977 0.00307116C2.833 0.0174928 3.03075 0.0755098 3.20955 0.173177C3.38836 0.270844 3.54404 0.405871 3.666 0.569076L4.958 2.30008C5.16334 2.57416 5.26303 2.91307 5.23878 3.25469C5.21454 3.5963 5.06799 3.91774 4.826 4.16008L3.688 5.30008C3.688 5.30008 3.688 6.30608 5.698 8.31908C7.708 10.3321 8.713 10.3321 8.713 10.3321L9.851 9.19208C10.0928 8.94986 10.4139 8.80312 10.7553 8.77887C11.0967 8.75461 11.4354 8.85448 11.709 9.06008L13.431 10.3541C13.5931 10.4766 13.7271 10.6323 13.8241 10.8109C13.9211 10.9894 13.9788 11.1867 13.9932 11.3893C14.0077 11.592 13.9787 11.7954 13.9081 11.986C13.8375 12.1765 13.727 12.3498 13.584 12.4941V12.4941Z" fill="#444A58"/>
</g>
<defs>
<clipPath id="clip0_449_3982">
<rect width="14" height="14" fill="white"/>
</clipPath>
</defs>
</svg>
