<svg width="14" height="14" viewBox="0 0 14 14" fill="none" xmlns="http://www.w3.org/2000/svg">
<path fill-rule="evenodd" clip-rule="evenodd" d="M0 7C3.869 14 10.131 14 14 7C10.131 0 3.869 0 0 7ZM7 9.15C6.57477 9.15 6.15909 9.0239 5.80552 8.78766C5.45196 8.55141 5.17639 8.21563 5.01366 7.82277C4.85093 7.42991 4.80835 6.99762 4.89131 6.58056C4.97427 6.1635 5.17904 5.7804 5.47972 5.47972C5.7804 5.17904 6.1635 4.97427 6.58056 4.89131C6.99762 4.80835 7.42991 4.85093 7.82277 5.01366C8.21563 5.17639 8.55141 5.45196 8.78766 5.80552C9.0239 6.15909 9.15 6.57477 9.15 7C9.14973 7.57013 8.92313 8.11684 8.51999 8.51999C8.11684 8.92313 7.57013 9.14973 7 9.15Z" fill="#444A58"/>
</svg>
