<svg width="14" height="14" viewBox="0 0 14 14" fill="none" xmlns="http://www.w3.org/2000/svg">
<g clip-path="url(#clip0_449_3978)">
<path d="M12.491 12.9171C13.1899 11.031 13.5321 9.03132 13.5 7.0201C13.4916 6.73322 13.3821 6.45852 13.1909 6.24447C12.9997 6.03041 12.7391 5.89074 12.455 5.8501L7.773 5.1801V1.6401C7.7744 1.42483 7.73234 1.21149 7.64935 1.01286C7.56636 0.814227 7.44413 0.634385 7.29 0.484101C7.12141 0.31176 6.91625 0.179507 6.68967 0.0971168C6.4631 0.0147265 6.22091 -0.0156948 5.981 0.00810106C5.56338 0.0652759 5.18147 0.274334 4.90826 0.59532C4.63506 0.916307 4.48971 1.32671 4.5 1.7481V8.4581L3.63 7.5251C3.30405 7.19862 2.86175 7.01499 2.40041 7.01462C1.93907 7.01424 1.49648 7.19715 1.17 7.5231C0.843517 7.84905 0.659891 8.29135 0.659516 8.75269C0.659141 9.21403 0.842048 9.65662 1.168 9.9831L4.622 13.4891C4.78169 13.6512 4.97209 13.7799 5.18207 13.8677C5.39206 13.9554 5.61742 14.0004 5.845 14.0001H10.936C11.2749 14.0005 11.6057 13.8969 11.8838 13.7032C12.1619 13.5095 12.3739 13.2351 12.491 12.9171V12.9171Z" fill="#444A58"/>
</g>
<defs>
<clipPath id="clip0_449_3978">
<rect width="14" height="14" fill="white"/>
</clipPath>
</defs>
</svg>
