<svg width="14" height="14" viewBox="0 0 14 14" fill="none" xmlns="http://www.w3.org/2000/svg">
<g clip-path="url(#clip0_449_3894)">
<path d="M0.353007 8.62406L3.93101 12.1181C4.04079 12.2252 4.17061 12.3097 4.31305 12.3667C4.45548 12.4237 4.60775 12.4521 4.76115 12.4502C4.91455 12.4483 5.06609 12.4163 5.2071 12.3559C5.34812 12.2954 5.47585 12.2078 5.58301 12.0981C5.69017 11.9883 5.77465 11.8585 5.83164 11.716C5.88863 11.5736 5.917 11.4213 5.91515 11.2679C5.91329 11.1145 5.88124 10.963 5.82082 10.822C5.7604 10.6809 5.67279 10.5532 5.56301 10.4461L4.02601 8.94606H8.18101C9.72 8.94502 11.196 8.33476 12.2864 7.24869C13.3768 6.16261 13.9929 4.68904 14 3.15006V2.71906C14.0046 2.56273 13.9777 2.40708 13.9211 2.26131C13.8644 2.11554 13.7791 1.98263 13.6701 1.87044C13.5612 1.75825 13.4308 1.66906 13.2867 1.60815C13.1427 1.54725 12.9879 1.51587 12.8315 1.51587C12.6751 1.51587 12.5203 1.54725 12.3763 1.60815C12.2322 1.66906 12.1019 1.75825 11.9929 1.87044C11.8839 1.98263 11.7986 2.11554 11.7419 2.26131C11.6853 2.40708 11.6584 2.56273 11.663 2.71906V3.15006C11.6564 4.0692 11.2866 4.94845 10.6344 5.59606C9.98207 6.24366 9.10018 6.60708 8.18101 6.60706H4.00001L5.50001 5.10006C5.60835 4.99139 5.69422 4.86244 5.75273 4.72059C5.81124 4.57873 5.84123 4.42674 5.841 4.27329C5.84077 4.11984 5.81032 3.96794 5.75138 3.82626C5.69244 3.68458 5.60618 3.5559 5.49751 3.44756C5.38884 3.33922 5.25989 3.25334 5.11804 3.19483C4.97618 3.13632 4.82419 3.10633 4.67074 3.10656C4.51729 3.10679 4.36539 3.13725 4.22371 3.19618C4.08203 3.25512 3.95335 3.34139 3.84501 3.45006L0.341007 6.96306C0.231823 7.0724 0.145443 7.20235 0.0868781 7.34534C0.0283135 7.48834 -0.00126899 7.64154 -0.000152649 7.79606C0.000963697 7.95059 0.0327566 8.10335 0.0933812 8.24548C0.154006 8.38762 0.242255 8.5163 0.353007 8.62406V8.62406Z" fill="#444A58"/>
</g>
<defs>
<clipPath id="clip0_449_3894">
<rect width="14" height="14" fill="white"/>
</clipPath>
</defs>
</svg>
