<svg width="14" height="14" viewBox="0 0 14 14" fill="none" xmlns="http://www.w3.org/2000/svg">
<g clip-path="url(#clip0_449_3546)">
<path d="M0.496998 14H5.103C5.37748 14 5.6 13.7775 5.6 13.503V10.388C5.6 10.1135 5.37748 9.891 5.103 9.891H0.496998C0.222513 9.891 -1.43051e-06 10.1135 -1.43051e-06 10.388V13.503C-1.43051e-06 13.7775 0.222513 14 0.496998 14Z" fill="#444A58"/>
<path d="M0.496998 7.09106L5.103 7.09106C5.37748 7.09106 5.6 6.86855 5.6 6.59406L5.6 0.497065C5.6 0.222579 5.37748 6.4373e-05 5.103 6.4373e-05L0.496998 6.4373e-05C0.222513 6.4373e-05 -1.43051e-06 0.222579 -1.43051e-06 0.497065L-1.43051e-06 6.59406C-1.43051e-06 6.86855 0.222513 7.09106 0.496998 7.09106Z" fill="#444A58"/>
<path d="M13.503 0H8.897C8.62252 0 8.4 0.222514 8.4 0.497V3.612C8.4 3.88649 8.62252 4.109 8.897 4.109H13.503C13.7775 4.109 14 3.88649 14 3.612V0.497C14 0.222514 13.7775 0 13.503 0Z" fill="#444A58"/>
<path d="M13.503 6.90894H8.897C8.62252 6.90894 8.4 7.13145 8.4 7.40594V13.5029C8.4 13.7774 8.62252 13.9999 8.897 13.9999H13.503C13.7775 13.9999 14 13.7774 14 13.5029V7.40594C14 7.13145 13.7775 6.90894 13.503 6.90894Z" fill="#444A58"/>
</g>
<defs>
<clipPath id="clip0_449_3546">
<rect width="14" height="14" fill="white"/>
</clipPath>
</defs>
</svg>
