<svg width="14" height="14" viewBox="0 0 14 14" fill="none" xmlns="http://www.w3.org/2000/svg">
<g clip-path="url(#clip0_449_3999)">
<path d="M13.94 8.23209C14.0697 7.51773 13.9728 6.78069 13.663 6.12409C13.4719 5.73697 13.2093 5.38953 12.889 5.10009C12.4602 4.72051 11.9681 4.41926 11.435 4.21009C10.6851 3.917 9.90014 3.72335 9.1 3.63409C8.40124 3.54946 7.69786 3.50872 6.994 3.51209C5.93293 3.49774 4.87342 3.59832 3.834 3.81209C3.11674 3.9567 2.42688 4.21388 1.79 4.57409C1.33797 4.83316 0.941689 5.17914 0.624001 5.59209C0.107097 6.32453 -0.1045 7.22938 0.034001 8.11509C0.0514733 8.487 0.199069 8.84094 0.451001 9.11509C0.71802 9.28996 1.02178 9.40088 1.33866 9.43921C1.65554 9.47754 1.97699 9.44225 2.278 9.33609C2.61482 9.29082 2.94511 9.20589 3.262 9.08309C3.59231 8.92775 3.87134 8.68124 4.06622 8.37262C4.26111 8.06399 4.36373 7.70609 4.362 7.34109V6.91209C4.35918 6.77856 4.39495 6.64706 4.46502 6.53336C4.53508 6.41966 4.63646 6.3286 4.757 6.27109C5.47595 6.02425 6.23614 5.91997 6.995 5.96409C7.73417 5.92637 8.47406 6.02258 9.179 6.24809C9.31284 6.30109 9.42763 6.39315 9.50842 6.51229C9.58921 6.63143 9.63228 6.77213 9.632 6.91609V7.34509C9.63177 7.7396 9.75294 8.12463 9.97907 8.4479C10.2052 8.77117 10.5253 9.01703 10.896 9.15209C11.2275 9.26186 11.5692 9.33791 11.916 9.37909C12.2161 9.43904 12.5229 9.45789 12.828 9.43509C13.0751 9.40694 13.3077 9.30406 13.4948 9.14021C13.6819 8.97635 13.8145 8.75932 13.875 8.51809C13.9 8.42509 13.922 8.32909 13.94 8.23209Z" fill="#444A58"/>
</g>
<defs>
<clipPath id="clip0_449_3999">
<rect width="14" height="14" fill="white"/>
</clipPath>
</defs>
</svg>
