<svg width="14" height="14" viewBox="0 0 14 14" fill="none" xmlns="http://www.w3.org/2000/svg">
<g clip-path="url(#clip0_449_3892)">
<path fill-rule="evenodd" clip-rule="evenodd" d="M3.00001 1.46589C2.99688 1.85069 3.13983 2.22236 3.40001 2.50589L7.65201 6.99989L3.40501 11.4939C3.14449 11.7766 2.99986 12.147 2.99986 12.5314C2.99986 12.9158 3.14449 13.2862 3.40501 13.5689C3.5296 13.7048 3.68111 13.8134 3.84991 13.8877C4.0187 13.9619 4.2011 14.0003 4.38551 14.0003C4.56991 14.0003 4.75231 13.9619 4.9211 13.8877C5.0899 13.8134 5.24141 13.7048 5.36601 13.5689L10.593 8.03689C10.8546 7.75533 11 7.38523 11 7.00089C11 6.61655 10.8546 6.24645 10.593 5.96489L5.36601 0.430891C5.24141 0.294941 5.0899 0.186387 4.9211 0.112124C4.75231 0.037861 4.56991 -0.000488281 4.38551 -0.000488281C4.2011 -0.000488281 4.0187 0.037861 3.84991 0.112124C3.68111 0.186387 3.5296 0.294941 3.40501 0.430891C3.14333 0.711855 2.99851 1.08195 3.00001 1.46589" fill="#444A58"/>
</g>
<defs>
<clipPath id="clip0_449_3892">
<rect width="14" height="14" fill="white"/>
</clipPath>
</defs>
</svg>
