<svg width="14" height="14" viewBox="0 0 14 14" fill="none" xmlns="http://www.w3.org/2000/svg">
<g clip-path="url(#clip0_449_4006)">
<path d="M12.641 2.73198C12.6407 2.60281 12.615 2.47495 12.5653 2.35572C12.5156 2.2365 12.4429 2.12823 12.3513 2.03713C12.2598 1.94602 12.1511 1.87385 12.0316 1.82475C11.9122 1.77566 11.7842 1.75059 11.655 1.75098H2.355C2.22583 1.75059 2.09785 1.77566 1.97837 1.82475C1.85889 1.87385 1.75026 1.94602 1.65868 2.03713C1.56711 2.12823 1.4944 2.2365 1.44469 2.35572C1.39498 2.47495 1.36927 2.60281 1.369 2.73198V9.03198H12.641V2.73198Z" fill="#444A58"/>
<path d="M13.422 10.5239H8.727C8.58159 10.539 8.44269 10.592 8.32422 10.6776C8.20575 10.7633 8.11187 10.8786 8.052 11.0119C8.00827 11.0988 7.94126 11.1719 7.85845 11.2229C7.77564 11.2739 7.68027 11.3009 7.583 11.3009H6.417C6.31973 11.3009 6.22436 11.2739 6.14155 11.2229C6.05874 11.1719 5.99173 11.0988 5.948 11.0119C5.88813 10.8786 5.79425 10.7633 5.67578 10.6776C5.55731 10.592 5.41841 10.539 5.273 10.5239H0.578C0.502227 10.5238 0.427171 10.5386 0.357115 10.5675C0.28706 10.5963 0.223379 10.6387 0.169706 10.6922C0.116034 10.7457 0.0734222 10.8092 0.044304 10.8792C0.0151857 10.9491 0.000131208 11.0242 0 11.0999C0.000393453 11.2513 0.0306064 11.4012 0.0889139 11.5409C0.147221 11.6807 0.232481 11.8076 0.339826 11.9143C0.447171 12.0211 0.574498 12.1057 0.714537 12.1633C0.854576 12.2209 1.00459 12.2503 1.156 12.2499H12.844C12.9954 12.2503 13.1454 12.2209 13.2855 12.1633C13.4255 12.1057 13.5528 12.0211 13.6602 11.9143C13.7675 11.8076 13.8528 11.6807 13.9111 11.5409C13.9694 11.4012 13.9996 11.2513 14 11.0999C13.9999 11.0242 13.9848 10.9491 13.9557 10.8792C13.9266 10.8092 13.884 10.7457 13.8303 10.6922C13.7766 10.6387 13.7129 10.5963 13.6429 10.5675C13.5728 10.5386 13.4978 10.5238 13.422 10.5239V10.5239Z" fill="#444A58"/>
</g>
<defs>
<clipPath id="clip0_449_4006">
<rect width="14" height="14" fill="white"/>
</clipPath>
</defs>
</svg>
