<svg width="14" height="14" viewBox="0 0 14 14" fill="none" xmlns="http://www.w3.org/2000/svg">
<g clip-path="url(#clip0_449_3700)">
<path d="M0.992001 4.405H1.448C1.70935 4.40289 1.95926 4.29752 2.14322 4.11187C2.32719 3.92622 2.43027 3.67536 2.43 3.414V2.424H5.791V4.55601L10.347 4.55201e-06H0.992001C0.861787 -0.000390503 0.732777 0.0249324 0.612374 0.0745199C0.491971 0.124108 0.382546 0.196984 0.290377 0.288966C0.198209 0.380949 0.125112 0.490227 0.0752819 0.610529C0.0254514 0.730832 -0.000131752 0.85979 5.10221e-07 0.990005V3.414C-0.000131333 3.54427 0.0254448 3.67327 0.0752631 3.79363C0.125081 3.91399 0.198162 4.02333 0.290317 4.1154C0.382472 4.20746 0.49189 4.28043 0.612298 4.33013C0.732707 4.37982 0.861739 4.40527 0.992001 4.405V4.405Z" fill="#444A58"/>
<path d="M13.987 0.916C13.9971 0.79442 13.9809 0.672086 13.9395 0.55733C13.8981 0.442574 13.8324 0.338092 13.747 0.251C13.6588 0.165136 13.5531 0.0993307 13.4371 0.0580822C13.3211 0.0168336 13.1976 0.00111469 13.075 0.012C13.053 0.012 13.034 0 13.012 0H12.781L12.53 0.251L0.253001 12.531C0.0954745 12.6932 0.00807659 12.9109 0.00968443 13.137C0.0112923 13.3631 0.101777 13.5795 0.261594 13.7394C0.421411 13.8994 0.637732 13.99 0.863833 13.9918C1.08993 13.9936 1.30767 13.9064 1.47 13.749L5.791 9.426V11.574H5.022C4.76081 11.5737 4.5101 11.6767 4.32448 11.8604C4.13886 12.0442 4.03337 12.2938 4.031 12.555V13.01C4.031 13.1401 4.05664 13.2689 4.10646 13.3891C4.15627 13.5093 4.22928 13.6184 4.32132 13.7104C4.41335 13.8023 4.52261 13.8752 4.64284 13.9249C4.76306 13.9746 4.89191 14.0001 5.022 14H8.982C9.24457 14 9.49638 13.8957 9.68204 13.71C9.8677 13.5244 9.972 13.2726 9.972 13.01V12.555C9.96963 12.294 9.86428 12.0445 9.67887 11.8608C9.49347 11.6771 9.24301 11.574 8.982 11.574H8.213V7L11.613 3.6C11.6529 3.82232 11.7685 4.02398 11.9402 4.17072C12.112 4.31746 12.3292 4.40024 12.555 4.405H13.009C13.1392 4.40513 13.2681 4.37959 13.3884 4.32983C13.5087 4.28008 13.618 4.20709 13.71 4.11504C13.8021 4.02299 13.8751 3.91369 13.9248 3.79339C13.9746 3.6731 14.0001 3.54418 14 3.414V0.99C14 0.964 13.989 0.942 13.987 0.916Z" fill="#444A58"/>
</g>
<defs>
<clipPath id="clip0_449_3700">
<rect width="14" height="14" fill="white"/>
</clipPath>
</defs>
</svg>
