<svg width="14" height="14" viewBox="0 0 14 14" fill="none" xmlns="http://www.w3.org/2000/svg">
<g clip-path="url(#clip0_449_4014)">
<path fill-rule="evenodd" clip-rule="evenodd" d="M13.342 4.98696C12.981 4.98696 13.056 4.99496 13.056 4.99496C12.856 4.99496 12.525 4.82796 12.525 4.62296V3.16996C12.525 2.99732 12.491 2.82637 12.4249 2.66688C12.3588 2.50739 12.2619 2.36249 12.1398 2.24047C12.0177 2.11844 11.8727 2.02167 11.7132 1.95569C11.5536 1.88972 11.3826 1.85583 11.21 1.85596H1.31C0.962199 1.85702 0.629005 1.99592 0.383446 2.24223C0.137888 2.48854 -1.6115e-06 2.82215 0 3.16996L0 10.83C0 11.1785 0.138439 11.5127 0.384862 11.7591C0.631284 12.0055 0.965506 12.144 1.314 12.144H11.214C11.3866 12.1441 11.5576 12.1102 11.7172 12.0442C11.8767 11.9782 12.0217 11.8815 12.1438 11.7594C12.2659 11.6374 12.3628 11.4925 12.4289 11.333C12.495 11.1735 12.529 11.0026 12.529 10.83V9.68096C12.529 9.47196 12.856 9.30896 13.06 9.30896L13.346 9.30096C13.5308 9.28785 13.7029 9.20257 13.8253 9.06353C13.9477 8.9245 14.0104 8.74289 14 8.55796V5.72996C14.0058 5.63791 13.9934 5.54563 13.9634 5.4584C13.9335 5.37118 13.8866 5.29073 13.8254 5.22169C13.7643 5.15264 13.6901 5.09636 13.6071 5.05608C13.5242 5.0158 13.4341 4.99231 13.342 4.98696V4.98696ZM9.393 9.90696H3.578C3.3957 9.93304 3.20982 9.9163 3.03511 9.85808C2.8604 9.79986 2.70164 9.70176 2.57142 9.57154C2.4412 9.44132 2.34309 9.28256 2.28487 9.10785C2.22665 8.93313 2.20992 8.74726 2.236 8.56496V5.43396C2.20992 5.25165 2.22665 5.06578 2.28487 4.89107C2.34309 4.71635 2.4412 4.5576 2.57142 4.42738C2.70164 4.29716 2.8604 4.19905 3.03511 4.14083C3.20982 4.08261 3.3957 4.06588 3.578 4.09196H4.92C5.19871 4.08782 5.47427 4.15124 5.72313 4.2768C5.97198 4.40236 6.18673 4.58632 6.349 4.81296C7.494 6.22396 8.67 7.61296 9.84 9.01296C10.288 9.45996 10.288 9.90696 9.393 9.90696Z" fill="#444A58"/>
</g>
<defs>
<clipPath id="clip0_449_4014">
<rect width="14" height="14" fill="white"/>
</clipPath>
</defs>
</svg>
