<svg width="14" height="14" viewBox="0 0 14 14" fill="none" xmlns="http://www.w3.org/2000/svg">
<g clip-path="url(#clip0_449_3665)">
<path d="M14 4.54901V0.412009C14 0.297436 13.9545 0.187555 13.8735 0.106539C13.7925 0.0255236 13.6826 -0.0199906 13.568 -0.0199906H9.437C9.32251 -0.0197265 9.21278 0.0258725 9.13182 0.106831C9.05086 0.18779 9.00527 0.297517 9.005 0.412009V1.53401C9.005 1.64841 8.95962 1.75814 8.87883 1.83913C8.79803 1.92011 8.6884 1.96574 8.574 1.96601H5.427C5.3133 1.96469 5.2047 1.9186 5.12476 1.83773C5.04482 1.75685 4.99999 1.64772 5 1.53401V0.412009C5 0.354855 4.98867 0.298268 4.96665 0.245527C4.94462 0.192786 4.91235 0.144939 4.87171 0.104758C4.83106 0.0645769 4.78285 0.0328609 4.72986 0.0114472C4.67686 -0.00996649 4.62015 -0.0206521 4.563 -0.0199906H0.432001C0.317428 -0.0199906 0.207547 0.0255236 0.126531 0.106539C0.0455153 0.187555 1.1629e-06 0.297436 1.1629e-06 0.412009V4.54901C-0.000130703 4.60578 0.0109533 4.66201 0.0326166 4.71448C0.05428 4.76696 0.0860958 4.81463 0.126237 4.85477C0.166378 4.89491 0.214054 4.92673 0.266526 4.94839C0.318998 4.97006 0.375233 4.98114 0.432001 4.98101H1.551C1.60782 4.98101 1.66407 4.99222 1.71655 5.01399C1.76903 5.03576 1.8167 5.06767 1.85683 5.10789C1.89695 5.14811 1.92875 5.19585 1.9504 5.24838C1.97206 5.30091 1.98313 5.35719 1.983 5.41401V8.54601C1.98313 8.60282 1.97206 8.65911 1.9504 8.71164C1.92875 8.76416 1.89695 8.81191 1.85683 8.85213C1.8167 8.89235 1.76903 8.92426 1.71655 8.94603C1.66407 8.9678 1.60782 8.97901 1.551 8.97901H0.432001C0.375233 8.97888 0.318998 8.98996 0.266526 9.01163C0.214054 9.03329 0.166378 9.0651 0.126237 9.10525C0.0860958 9.14539 0.05428 9.19306 0.0326166 9.24553C0.0109533 9.29801 -0.000130703 9.35424 1.1629e-06 9.41101V13.548C1.1629e-06 13.6626 0.0455153 13.7725 0.126531 13.8535C0.207547 13.9345 0.317428 13.98 0.432001 13.98H4.563C4.62015 13.9807 4.67686 13.97 4.72986 13.9486C4.78285 13.9272 4.83106 13.8954 4.87171 13.8553C4.91235 13.8151 4.94462 13.7672 4.96665 13.7145C4.98867 13.6618 5 13.6052 5 13.548V12.426C5 12.3114 5.04551 12.2016 5.12653 12.1205C5.20755 12.0395 5.31743 11.994 5.432 11.994H8.574C8.6884 11.9943 8.79803 12.0399 8.87883 12.1209C8.95962 12.2019 9.005 12.3116 9.005 12.426V13.548C9.00527 13.6625 9.05086 13.7722 9.13182 13.8532C9.21278 13.9341 9.32251 13.9797 9.437 13.98H13.568C13.6826 13.98 13.7925 13.9345 13.8735 13.8535C13.9545 13.7725 14 13.6626 14 13.548V9.41101C14.0001 9.35424 13.989 9.29801 13.9674 9.24553C13.9457 9.19306 13.9139 9.14539 13.8738 9.10525C13.8336 9.0651 13.7859 9.03329 13.7335 9.01163C13.681 8.98996 13.6248 8.97888 13.568 8.97901H12.729C12.6722 8.97901 12.6159 8.9678 12.5635 8.94603C12.511 8.92426 12.4633 8.89235 12.4232 8.85213C12.383 8.81191 12.3512 8.76416 12.3296 8.71164C12.3079 8.65911 12.2969 8.60282 12.297 8.54601V5.41401C12.2969 5.35719 12.3079 5.30091 12.3296 5.24838C12.3512 5.19585 12.383 5.14811 12.4232 5.10789C12.4633 5.06767 12.511 5.03576 12.5635 5.01399C12.6159 4.99222 12.6722 4.98101 12.729 4.98101H13.568C13.6248 4.98114 13.681 4.97006 13.7335 4.94839C13.7859 4.92673 13.8336 4.89491 13.8738 4.85477C13.9139 4.81463 13.9457 4.76696 13.9674 4.71448C13.989 4.66201 14.0001 4.60578 14 4.54901V4.54901ZM10.837 8.97901H9.437C9.38027 8.97901 9.32409 8.99018 9.27168 9.01189C9.21927 9.0336 9.17165 9.06542 9.13153 9.10554C9.09142 9.14565 9.05959 9.19328 9.03788 9.24569C9.01617 9.2981 9.005 9.35428 9.005 9.41101V10.532C9.00513 10.5887 8.99408 10.6448 8.97248 10.6973C8.95088 10.7497 8.91915 10.7973 8.87912 10.8374C8.83908 10.8775 8.79153 10.9094 8.73917 10.9311C8.68681 10.9528 8.63069 10.964 8.574 10.964H5.427C5.31321 10.963 5.20446 10.9169 5.12447 10.836C5.04447 10.7551 4.99973 10.6458 5 10.532V9.41101C5.00013 9.35424 4.98905 9.29801 4.96739 9.24553C4.94572 9.19306 4.91391 9.14539 4.87376 9.10525C4.83362 9.0651 4.78595 9.03329 4.73348 9.01163C4.681 8.98996 4.62477 8.97888 4.568 8.97901H3.444C3.38719 8.97901 3.33093 8.9678 3.27845 8.94603C3.22597 8.92426 3.1783 8.89235 3.13818 8.85213C3.09805 8.81191 3.06625 8.76416 3.0446 8.71164C3.02295 8.65911 3.01187 8.60282 3.012 8.54601V5.41401C3.01187 5.35719 3.02295 5.30091 3.0446 5.24838C3.06625 5.19585 3.09805 5.14811 3.13818 5.10789C3.1783 5.06767 3.22597 5.03576 3.27845 5.01399C3.33093 4.99222 3.38719 4.98101 3.444 4.98101H4.563C4.62019 4.98181 4.67696 4.97121 4.73001 4.94985C4.78306 4.92848 4.83133 4.89677 4.87201 4.85656C4.91268 4.81635 4.94494 4.76845 4.96692 4.71565C4.98889 4.66285 5.00014 4.6062 5 4.54901V3.42801C5.00104 3.31499 5.04633 3.20688 5.12616 3.12687C5.20598 3.04686 5.31399 3.00131 5.427 3.00001H8.574C8.6884 3.00027 8.79803 3.04591 8.87883 3.12689C8.95962 3.20788 9.005 3.31761 9.005 3.43201V4.54901C9.005 4.60574 9.01617 4.66192 9.03788 4.71433C9.05959 4.76674 9.09142 4.81436 9.13153 4.85448C9.17165 4.89459 9.21927 4.92642 9.27168 4.94813C9.32409 4.96984 9.38027 4.98101 9.437 4.98101H10.837C10.8937 4.98114 10.9499 4.99244 11.0022 5.01428C11.0546 5.03611 11.1022 5.06804 11.1422 5.10825C11.1822 5.14845 11.2139 5.19615 11.2355 5.24861C11.2571 5.30108 11.2681 5.35728 11.268 5.41401V8.54601C11.2681 8.60274 11.2571 8.65894 11.2355 8.7114C11.2139 8.76387 11.1822 8.81157 11.1422 8.85177C11.1022 8.89198 11.0546 8.92391 11.0022 8.94574C10.9499 8.96757 10.8937 8.97888 10.837 8.97901V8.97901Z" fill="#444A58"/>
</g>
<defs>
<clipPath id="clip0_449_3665">
<rect width="14" height="14" fill="white"/>
</clipPath>
</defs>
</svg>
