<svg width="14" height="14" viewBox="0 0 14 14" fill="none" xmlns="http://www.w3.org/2000/svg">
<g clip-path="url(#clip0_449_3971)">
<path d="M0.0569999 5.24804C-0.0726967 5.9624 0.0241528 6.69944 0.334 7.35604C0.525054 7.74346 0.787671 8.09124 1.108 8.38104C1.53702 8.76003 2.02913 9.06091 2.562 9.27004C3.31281 9.56339 4.09884 9.75704 4.9 9.84604C5.59876 9.93066 6.30214 9.97141 7.006 9.96804C8.06707 9.98239 9.12658 9.88181 10.166 9.66804C10.8833 9.52343 11.5731 9.26625 12.21 8.90604C12.6614 8.64646 13.057 8.30015 13.374 7.88704C13.891 7.15464 14.1026 6.24975 13.964 5.36404C13.9464 4.99217 13.7988 4.63828 13.547 4.36404C13.28 4.18917 12.9762 4.07825 12.6593 4.03992C12.3425 4.00159 12.021 4.03688 11.72 4.14304C11.3832 4.18831 11.0529 4.27323 10.736 4.39604C10.4057 4.55138 10.1267 4.79788 9.93178 5.10651C9.73689 5.41514 9.63427 5.77304 9.636 6.13804V6.57104C9.63882 6.70456 9.60305 6.83607 9.53298 6.94976C9.46292 7.06346 9.36154 7.15453 9.241 7.21204C8.52205 7.45888 7.76186 7.56316 7.003 7.51904C6.26383 7.55676 5.52394 7.46054 4.819 7.23504C4.68516 7.18204 4.57038 7.08998 4.48958 6.97084C4.40879 6.85169 4.36572 6.71099 4.366 6.56704V6.13504C4.36594 5.74032 4.24442 5.35519 4.01793 5.03191C3.79145 4.70864 3.47096 4.4629 3.1 4.32804C2.7697 4.21865 2.42937 4.14228 2.084 4.10004C1.78395 4.04008 1.47713 4.02124 1.172 4.04404C0.924904 4.07219 0.692278 4.17506 0.505194 4.33892C0.31811 4.50277 0.185473 4.71981 0.125 4.96104C0.0999999 5.05504 0.0749999 5.15104 0.0569999 5.24804Z" fill="#444A58"/>
</g>
<defs>
<clipPath id="clip0_449_3971">
<rect width="14" height="14" fill="white"/>
</clipPath>
</defs>
</svg>
