<svg width="14" height="14" viewBox="0 0 14 14" fill="none" xmlns="http://www.w3.org/2000/svg">
<g clip-path="url(#clip0_449_3381)">
<path d="M3.973 11.774L0.5 8.29996C0.340685 8.14078 0.214302 7.95177 0.128073 7.74372C0.0418449 7.53567 -0.00253773 7.31267 -0.00253773 7.08746C-0.00253773 6.86225 0.0418449 6.63925 0.128073 6.4312C0.214302 6.22315 0.340685 6.03414 0.5 5.87496V5.87496C0.82174 5.5537 1.25783 5.37325 1.7125 5.37325C2.16717 5.37325 2.60326 5.5537 2.925 5.87496L5.1 8.04796C5.14385 8.09156 5.20317 8.11604 5.265 8.11604C5.32683 8.11604 5.38615 8.09156 5.43 8.04796L11.07 2.40796C11.3917 2.0867 11.8278 1.90625 12.2825 1.90625C12.7372 1.90625 13.1733 2.0867 13.495 2.40796V2.40796C13.6543 2.56714 13.7807 2.75615 13.8669 2.9642C13.9532 3.17225 13.9975 3.39525 13.9975 3.62046C13.9975 3.84567 13.9532 4.06867 13.8669 4.27672C13.7807 4.48477 13.6543 4.67378 13.495 4.83296L6.555 11.774C6.21257 12.1163 5.7482 12.3086 5.264 12.3086C4.7798 12.3086 4.31543 12.1163 3.973 11.774V11.774Z" fill="#444A58"/>
</g>
<defs>
<clipPath id="clip0_449_3381">
<rect width="14" height="14" fill="white"/>
</clipPath>
</defs>
</svg>
