<svg width="14" height="14" viewBox="0 0 14 14" fill="none" xmlns="http://www.w3.org/2000/svg">
<g clip-path="url(#clip0_449_3481)">
<path d="M11.678 3.024V1C11.678 0.734784 11.5726 0.48043 11.3851 0.292893C11.1976 0.105357 10.9432 0 10.678 0L10.29 0C10.0248 0 9.77043 0.105357 9.58289 0.292893C9.39535 0.48043 9.29 0.734784 9.29 1V3.024C8.70434 3.26047 8.20271 3.66656 7.84946 4.19014C7.49622 4.71371 7.3075 5.3309 7.3075 5.9625C7.3075 6.5941 7.49622 7.21128 7.84946 7.73486C8.20271 8.25844 8.70434 8.66453 9.29 8.901V13C9.29 13.2652 9.39535 13.5196 9.58289 13.7071C9.77043 13.8946 10.0248 14 10.29 14H10.678C10.9432 14 11.1976 13.8946 11.3851 13.7071C11.5726 13.5196 11.678 13.2652 11.678 13V8.9C12.2637 8.66353 12.7653 8.25744 13.1185 7.73386C13.4718 7.21028 13.6605 6.5931 13.6605 5.9615C13.6605 5.3299 13.4718 4.71272 13.1185 4.18914C12.7653 3.66556 12.2637 3.25947 11.678 3.023V3.024ZM10.484 7.138C10.2514 7.138 10.024 7.06903 9.83065 6.93981C9.63725 6.81059 9.48652 6.62692 9.39751 6.41204C9.30851 6.19715 9.28522 5.9607 9.33059 5.73257C9.37597 5.50445 9.48797 5.29491 9.65244 5.13044C9.81691 4.96598 10.0264 4.85397 10.2546 4.8086C10.4827 4.76322 10.7191 4.78651 10.934 4.87552C11.1489 4.96453 11.3326 5.11526 11.4618 5.30865C11.591 5.50204 11.66 5.72941 11.66 5.962C11.6597 6.27381 11.5357 6.57278 11.3153 6.79327C11.0948 7.01375 10.7958 7.13774 10.484 7.138Z" fill="#444A58"/>
<path d="M4.624 5.1V1C4.624 0.734784 4.51865 0.48043 4.33111 0.292893C4.14357 0.105357 3.88922 0 3.624 0L3.237 0C2.97179 0 2.71743 0.105357 2.5299 0.292893C2.34236 0.48043 2.237 0.734784 2.237 1V5.1C1.65135 5.33647 1.14971 5.74256 0.796471 6.26614C0.443231 6.78972 0.254501 7.4069 0.254501 8.0385C0.254501 8.6701 0.443231 9.28728 0.796471 9.81086C1.14971 10.3344 1.65135 10.7405 2.237 10.977V13C2.237 13.2652 2.34236 13.5196 2.5299 13.7071C2.71743 13.8946 2.97179 14 3.237 14H3.625C3.89022 14 4.14457 13.8946 4.33211 13.7071C4.51965 13.5196 4.625 13.2652 4.625 13V10.976C5.21066 10.7395 5.71229 10.3334 6.06553 9.80986C6.41877 9.28629 6.6075 8.6691 6.6075 8.0375C6.6075 7.4059 6.41877 6.78872 6.06553 6.26514C5.71229 5.74156 5.21066 5.33547 4.625 5.099L4.624 5.1ZM3.43 9.213C3.19741 9.2128 2.9701 9.14364 2.77682 9.01425C2.58354 8.88487 2.43296 8.70107 2.34414 8.48611C2.25531 8.27115 2.23223 8.03468 2.2778 7.80659C2.32337 7.57851 2.43555 7.36906 2.60015 7.20474C2.76476 7.04041 2.9744 6.92858 3.20256 6.8834C3.43072 6.83822 3.66715 6.86171 3.88196 6.9509C4.09677 7.04009 4.28031 7.19098 4.40937 7.38448C4.53842 7.57798 4.6072 7.80541 4.607 8.038C4.60647 8.34981 4.48223 8.64867 4.26156 8.86897C4.04089 9.08927 3.74182 9.213 3.43 9.213V9.213Z" fill="#444A58"/>
</g>
<defs>
<clipPath id="clip0_449_3481">
<rect width="14" height="14" fill="white"/>
</clipPath>
</defs>
</svg>
