<svg width="14" height="14" viewBox="0 0 14 14" fill="none" xmlns="http://www.w3.org/2000/svg">
<g clip-path="url(#clip0_449_3932)">
<path d="M0.725002 2.29995C0.840269 1.8067 1.1209 1.36776 1.52023 1.05612C1.91956 0.744479 2.41352 0.578913 2.92 0.586949L6.447 0.738949C8.947 1.09095 9.367 3.37095 9.367 5.28395V7.70895C9.3669 8.2089 9.17796 8.69037 8.838 9.05695L5.932 12.7939C5.498 13.2629 4.962 13.8809 4.293 12.8719C4.02588 12.5517 3.86202 12.1581 3.823 11.7429C3.82294 11.4946 3.88117 11.2497 3.993 11.0279L5.15 8.80995H1.207C1.00455 8.8134 0.805577 8.75705 0.635002 8.64795C0.395812 8.50147 0.209009 8.28317 0.10126 8.02421C-0.00648997 7.76525 -0.0296792 7.47887 0.0350019 7.20595L0.725002 2.29995Z" fill="#444A58"/>
<path d="M12.5 1.57983H11.1C11.0145 1.58036 10.9326 1.61456 10.8722 1.67502C10.8117 1.73548 10.7775 1.81733 10.777 1.90283L10.454 7.63083C10.4543 7.71642 10.4884 7.79842 10.5489 7.85894C10.6094 7.91946 10.6914 7.95357 10.777 7.95383H12.177C12.5743 7.95199 12.9547 7.79337 13.2356 7.51246C13.5165 7.23155 13.6752 6.85109 13.677 6.45383L14 3.08183C13.9987 2.68423 13.8403 2.30326 13.5593 2.02192C13.2784 1.74058 12.8976 1.58168 12.5 1.57983V1.57983Z" fill="#444A58"/>
</g>
<defs>
<clipPath id="clip0_449_3932">
<rect width="14" height="14" fill="white"/>
</clipPath>
</defs>
</svg>
