<svg width="14" height="14" viewBox="0 0 14 14" fill="none" xmlns="http://www.w3.org/2000/svg">
<g clip-path="url(#clip0_449_3557)">
<path d="M12.99 0.77002H1.01C0.744251 0.7713 0.489603 0.876755 0.300756 1.06373C0.111908 1.25071 0.00392429 1.5043 0 1.77002V2.18002C0.000529275 2.44763 0.107141 2.70412 0.296467 2.89326C0.485793 3.0824 0.742386 3.18876 1.01 3.18902H12.99C13.2576 3.18876 13.5142 3.0824 13.7035 2.89326C13.8929 2.70412 13.9995 2.44763 14 2.18002V1.77202C13.9966 1.50595 13.8888 1.25185 13.6999 1.06445C13.511 0.877039 13.2561 0.771309 12.99 0.77002V0.77002Z" fill="#444A58"/>
<path d="M12.99 5.69995H1.01C0.744251 5.70123 0.489603 5.80669 0.300756 5.99366C0.111908 6.18064 0.00392429 6.43423 0 6.69995L0 7.10695C0.000264743 7.37474 0.10676 7.63148 0.296115 7.82084C0.485469 8.01019 0.742213 8.11669 1.01 8.11695H12.99C13.2568 8.11669 13.5126 8.01102 13.7018 7.82296C13.891 7.6349 13.9982 7.3797 14 7.11295V6.70495C13.9976 6.43828 13.8903 6.18327 13.7013 5.99516C13.5122 5.80705 13.2567 5.70099 12.99 5.69995V5.69995Z" fill="#444A58"/>
<path d="M12.987 10.637H1.01C0.744251 10.6382 0.489603 10.7437 0.300756 10.9307C0.111908 11.1177 0.00392429 11.3712 0 11.637L0 12.043C0.000264743 12.3108 0.10676 12.5675 0.296115 12.7568C0.485469 12.9462 0.742213 13.0527 1.01 13.053H12.987C13.2548 13.0535 13.5118 12.9478 13.7018 12.759C13.8917 12.5702 13.9989 12.3137 14 12.046V11.639C13.9968 11.3723 13.8888 11.1176 13.6992 10.9301C13.5095 10.7425 13.2537 10.6372 12.987 10.637Z" fill="#444A58"/>
</g>
<defs>
<clipPath id="clip0_449_3557">
<rect width="14" height="14" fill="white"/>
</clipPath>
</defs>
</svg>
