<svg width="14" height="14" viewBox="0 0 14 14" fill="none" xmlns="http://www.w3.org/2000/svg">
<g clip-path="url(#clip0_449_3685)">
<path d="M9.15 8.9159L4.681 13.3569C4.48283 13.5551 4.24737 13.7121 3.9882 13.8189C3.72904 13.9257 3.45129 13.98 3.171 13.9789L0.727003 13.9689C0.537086 13.9681 0.355172 13.8923 0.22088 13.758C0.0865868 13.6237 0.0107924 13.4418 0.0100027 13.2519L2.67522e-06 10.8079C-0.000869546 10.5279 0.0536375 10.2506 0.160386 9.99178C0.267135 9.73297 0.424017 9.49784 0.622003 9.2999L5.091 4.8569L4.077 3.8419C4.01015 3.77537 3.9571 3.69629 3.92091 3.6092C3.88471 3.5221 3.86608 3.42872 3.86608 3.3344C3.86608 3.24009 3.88471 3.1467 3.92091 3.05961C3.9571 2.97252 4.01015 2.89343 4.077 2.8269L4.243 2.6599C4.42922 2.47429 4.65384 2.33172 4.90107 2.24223C5.14829 2.15274 5.41212 2.11849 5.674 2.1419L6.959 2.2589C7.1679 2.27767 7.37837 2.25031 7.57554 2.17877C7.7727 2.10723 7.95174 1.99326 8.1 1.8449L9.037 0.910902C9.52495 0.409151 10.1764 0.0987088 10.8735 0.0357902C11.5705 -0.0271283 12.2671 0.161636 12.837 0.567902C13.1688 0.813634 13.4436 1.128 13.6429 1.48957C13.8421 1.85115 13.9611 2.25143 13.9917 2.66315C14.0222 3.07486 13.9637 3.48832 13.82 3.87535C13.6763 4.26238 13.4508 4.61388 13.159 4.9059L12.159 5.9059C12.0102 6.0545 11.896 6.23403 11.8245 6.43175C11.7529 6.62947 11.7258 6.84052 11.745 7.0499L11.861 8.3349C11.8852 8.59669 11.8513 8.86058 11.7617 9.10776C11.6722 9.35494 11.5292 9.57932 11.343 9.7649L11.177 9.9319C11.1105 9.99875 11.0314 10.0518 10.9443 10.088C10.8572 10.1242 10.7638 10.1428 10.6695 10.1428C10.5752 10.1428 10.4818 10.1242 10.3947 10.088C10.3076 10.0518 10.2285 9.99875 10.162 9.9319L9.15 8.9159ZM5.4 10.8999L8.3 8.0159L6.045 5.7569L1.931 9.8429L5.4 10.8999Z" fill="#444A58"/>
</g>
<defs>
<clipPath id="clip0_449_3685">
<rect width="14" height="14" fill="white"/>
</clipPath>
</defs>
</svg>
