<svg width="14" height="14" viewBox="0 0 14 14" fill="none" xmlns="http://www.w3.org/2000/svg">
<path d="M9.56 5.9141H8.046V3.8621H11.023C11.3056 3.85631 11.5743 3.73877 11.7704 3.53521C11.9664 3.33165 12.0738 3.05868 12.069 2.7761C12.0738 2.49351 11.9664 2.22054 11.7704 2.01698C11.5743 1.81342 11.3056 1.69588 11.023 1.6901H8.046V1.0901C8.05033 0.949945 8.02647 0.810353 7.97583 0.6796C7.92519 0.548847 7.8488 0.429599 7.75119 0.32893C7.65359 0.228261 7.53676 0.148223 7.40763 0.0935649C7.27851 0.0389068 7.13972 0.0107422 6.9995 0.0107422C6.85928 0.0107422 6.72049 0.0389068 6.59137 0.0935649C6.46224 0.148223 6.34541 0.228261 6.24781 0.32893C6.1502 0.429599 6.07381 0.548847 6.02317 0.6796C5.97253 0.810353 5.94867 0.949945 5.953 1.0901V1.6901H4.475C3.60707 1.67184 2.7673 1.99842 2.13973 2.59824C1.51216 3.19807 1.14798 4.02223 1.127 4.8901C1.14798 5.75796 1.51216 6.58212 2.13973 7.18195C2.7673 7.78177 3.60707 8.10835 4.475 8.0901H5.953V10.1421H2.978C2.69804 10.1541 2.43353 10.2738 2.23968 10.4761C2.04583 10.6785 1.93762 10.9479 1.93762 11.2281C1.93762 11.5083 2.04583 11.7777 2.23968 11.9801C2.43353 12.1824 2.69804 12.3021 2.978 12.3141H5.953V12.9141C5.94867 13.0542 5.97253 13.1938 6.02317 13.3246C6.07381 13.4553 6.1502 13.5746 6.24781 13.6753C6.34541 13.7759 6.46224 13.856 6.59137 13.9106C6.72049 13.9653 6.85928 13.9934 6.9995 13.9934C7.13972 13.9934 7.27851 13.9653 7.40763 13.9106C7.53676 13.856 7.65359 13.7759 7.75119 13.6753C7.8488 13.5746 7.92519 13.4553 7.97583 13.3246C8.02647 13.1938 8.05033 13.0542 8.046 12.9141V12.3141H9.56C10.4234 12.328 11.257 11.9989 11.8781 11.399C12.4992 10.7992 12.857 9.97743 12.873 9.1141C12.857 8.25076 12.4992 7.42903 11.8781 6.82914C11.257 6.22925 10.4234 5.90018 9.56 5.9141V5.9141ZM10.782 9.1141C10.7497 9.40942 10.6045 9.68082 10.3768 9.87164C10.149 10.0624 9.85643 10.1579 9.56 10.1381H8.046V8.0861H9.56C9.85674 8.06631 10.1496 8.16205 10.3774 8.35328C10.6051 8.54451 10.7501 8.81641 10.782 9.1121V9.1141ZM4.475 3.8621H5.953V5.9141H4.475C4.17375 5.93751 3.87505 5.84396 3.64097 5.6529C3.40689 5.46183 3.25541 5.18793 3.218 4.8881C3.25541 4.58826 3.40689 4.31436 3.64097 4.12329C3.87505 3.93223 4.17375 3.83868 4.475 3.8621V3.8621Z" fill="#444A58"/>
</svg>
