<svg width="14" height="14" viewBox="0 0 14 14" fill="none" xmlns="http://www.w3.org/2000/svg">
<g clip-path="url(#clip0_449_3422)">
<path d="M13.06 0.832H9.485V0.66C9.485 0.1 9.023 0 8.459 0H5.522C4.958 0 4.5 0.1 4.5 0.66V0.832H0.939003C0.858991 0.831868 0.779739 0.847531 0.705793 0.878089C0.631846 0.908648 0.564658 0.953501 0.508081 1.01008C0.451504 1.06666 0.40665 1.13384 0.376092 1.20779C0.345533 1.28174 0.329871 1.36099 0.330003 1.441V2.617C0.330003 2.77852 0.394165 2.93342 0.508375 3.04763C0.622584 3.16184 0.777486 3.226 0.939003 3.226H13.06C13.2215 3.226 13.3764 3.16184 13.4906 3.04763C13.6048 2.93342 13.669 2.77852 13.669 2.617V1.441C13.669 1.27948 13.6048 1.12458 13.4906 1.01037C13.3764 0.896162 13.2215 0.832 13.06 0.832Z" fill="#444A58"/>
<path d="M11.782 4.84399H2.217C2.13101 4.84475 2.04616 4.86368 1.968 4.89953C1.88985 4.93539 1.82016 4.98736 1.7635 5.05205C1.70684 5.11673 1.6645 5.19266 1.63926 5.27486C1.61401 5.35705 1.60642 5.44366 1.617 5.52899L2.598 12.951C2.63459 13.2395 2.77471 13.5049 2.99231 13.6979C3.20991 13.8908 3.49018 13.9982 3.781 14H10.218C10.5097 13.9994 10.7912 13.8926 11.0098 13.6995C11.2285 13.5065 11.3693 13.2404 11.406 12.951L12.386 5.52899C12.3968 5.4433 12.3892 5.35629 12.3638 5.27374C12.3384 5.1912 12.2957 5.115 12.2385 5.05022C12.1814 4.98544 12.1112 4.93354 12.0325 4.89799C11.9537 4.86243 11.8684 4.84403 11.782 4.84399V4.84399Z" fill="#444A58"/>
</g>
<defs>
<clipPath id="clip0_449_3422">
<rect width="14" height="14" fill="white"/>
</clipPath>
</defs>
</svg>
