<svg width="14" height="14" viewBox="0 0 14 14" fill="none" xmlns="http://www.w3.org/2000/svg">
<g clip-path="url(#clip0_449_3856)">
<path fill-rule="evenodd" clip-rule="evenodd" d="M13.221 0.782964V8.67596C13.2117 9.04996 13.1739 9.4227 13.108 9.79096C12.9804 10.371 12.6969 10.9052 12.288 11.336C11.7221 11.8962 10.9631 12.2183 10.167 12.236C9.62437 12.2492 9.09801 12.05 8.7 11.681C8.49175 11.4323 8.33554 11.1443 8.24061 10.8341C8.14568 10.524 8.11396 10.1979 8.14735 9.87526C8.18073 9.55261 8.27853 9.23995 8.43496 8.95579C8.59138 8.67163 8.80325 8.42175 9.058 8.22096C9.52653 7.8115 10.0963 7.53523 10.708 7.42096C10.8 7.40163 10.8831 7.35259 10.9446 7.28141C11.006 7.21022 11.0423 7.12082 11.048 7.02696V3.43396C11.051 3.40118 11.0458 3.36816 11.033 3.33784C11.0202 3.30752 11 3.28084 10.9744 3.26016C10.9488 3.23949 10.9185 3.22546 10.8861 3.21932C10.8538 3.21317 10.8204 3.21512 10.789 3.22496L6.053 4.07296C5.95961 4.09243 5.87525 4.14219 5.81305 4.21452C5.75084 4.28686 5.71427 4.37771 5.709 4.47296C5.709 11.145 5.699 11.154 5.699 11.173C5.68101 11.54 5.59044 11.8998 5.43253 12.2316C5.27461 12.5634 5.05249 12.8606 4.779 13.106C4.21216 13.6628 3.45436 13.9825 2.66 14C2.11992 14.0105 1.59671 13.8116 1.2 13.445C0.99171 13.1964 0.83535 12.9086 0.740161 12.5986C0.644971 12.2885 0.612882 11.9626 0.645789 11.6399C0.678696 11.3173 0.775931 11.0045 0.931751 10.7201C1.08757 10.4357 1.29881 10.1854 1.553 9.98396C2.02293 9.57661 2.59213 9.30063 3.203 9.18396C3.384 9.15296 3.603 8.96496 3.603 8.78996V2.34096C3.59773 2.14755 3.66399 1.95898 3.78909 1.81137C3.91419 1.66376 4.08934 1.56748 4.281 1.54096L12.345 0.00496372C12.3783 0.00322824 12.4117 0.00322824 12.445 0.00496372C12.6462 0.0198261 12.8354 0.106621 12.9779 0.249477C13.1203 0.392333 13.2067 0.581705 13.221 0.782964V0.782964Z" fill="#444A58"/>
</g>
<defs>
<clipPath id="clip0_449_3856">
<rect width="14" height="14" fill="white"/>
</clipPath>
</defs>
</svg>
