<svg width="14" height="14" viewBox="0 0 14 14" fill="none" xmlns="http://www.w3.org/2000/svg">
<g clip-path="url(#clip0_449_3850)">
<path d="M12.27 0.305L1.634 0C1.56586 0.00506903 1.49864 0.0188479 1.434 0.041C1.3931 0.0458137 1.35264 0.0538384 1.313 0.065C1.21354 0.105552 1.12287 0.164979 1.046 0.24H1.04C0.95993 0.318069 0.896293 0.411376 0.852842 0.514421C0.809391 0.617467 0.787005 0.728168 0.787003 0.84V12.491C0.787265 12.602 0.809381 12.7118 0.852089 12.8142C0.894797 12.9166 0.95726 13.0096 1.03591 13.0879C1.11456 13.1662 1.20786 13.2282 1.31048 13.2704C1.4131 13.3127 1.52304 13.3343 1.634 13.334L9.26 14C9.37105 14.0004 9.48109 13.9789 9.58383 13.9367C9.68657 13.8946 9.77998 13.8326 9.85874 13.7543C9.9375 13.676 10.0001 13.5829 10.0428 13.4804C10.0856 13.378 10.1077 13.2681 10.108 13.157V4.2C10.1077 4.08895 10.0856 3.97904 10.0428 3.87655C10.0001 3.77407 9.9375 3.68102 9.85874 3.60273C9.77998 3.52443 9.68657 3.46243 9.58383 3.42027C9.48109 3.3781 9.37105 3.35661 9.26 3.357L3.373 3.047C3.19756 3.04026 3.03155 2.96583 2.90981 2.83932C2.78806 2.71282 2.72006 2.54407 2.72006 2.3685C2.72006 2.19293 2.78806 2.02418 2.90981 1.89768C3.03155 1.77117 3.19756 1.69674 3.373 1.69L10.507 1.99H11.024C11.1301 1.99 11.2318 2.03214 11.3068 2.10716C11.3819 2.18217 11.424 2.28391 11.424 2.39V11.69C11.424 11.9146 11.5132 12.1301 11.6721 12.2889C11.8309 12.4478 12.0464 12.537 12.271 12.537C12.4956 12.537 12.7111 12.4478 12.8699 12.2889C13.0288 12.1301 13.118 11.9146 13.118 11.69V1.152C13.1175 0.927351 13.0279 0.712069 12.869 0.553312C12.71 0.394554 12.4947 0.305264 12.27 0.305Z" fill="#444A58"/>
</g>
<defs>
<clipPath id="clip0_449_3850">
<rect width="14" height="14" fill="white"/>
</clipPath>
</defs>
</svg>
