<svg width="14" height="14" viewBox="0 0 14 14" fill="none" xmlns="http://www.w3.org/2000/svg">
<g clip-path="url(#clip0_449_3596)">
<path fill-rule="evenodd" clip-rule="evenodd" d="M13.209 0.0299002L0.6 4.8769C0.482421 4.92234 0.381642 5.0028 0.311308 5.10741C0.240974 5.21202 0.204483 5.33571 0.206774 5.46174C0.209066 5.58777 0.250029 5.71006 0.324119 5.81204C0.398209 5.91402 0.501847 5.99077 0.621 6.0319L3.421 7.0129C3.54403 7.056 3.67507 7.07136 3.80473 7.05788C3.9344 7.04439 4.05947 7.0024 4.171 6.9349L10.289 3.2459C10.3302 3.22488 10.3775 3.21879 10.4227 3.22869C10.4679 3.23859 10.5082 3.26386 10.5369 3.30018C10.5656 3.33651 10.5807 3.38165 10.5798 3.42792C10.5789 3.47418 10.562 3.5187 10.532 3.5539L5.942 8.2159C5.86068 8.28771 5.7954 8.37585 5.75043 8.47458C5.70546 8.57331 5.6818 8.68041 5.681 8.7889L5.659 13.5999C5.66477 13.6938 5.70142 13.7832 5.76324 13.8542C5.82506 13.9252 5.9086 13.9737 6.00086 13.9923C6.09312 14.0109 6.18894 13.9985 6.27342 13.957C6.3579 13.9155 6.4263 13.8473 6.468 13.7629L8.154 10.3429C8.25361 10.1836 8.41153 10.0696 8.59407 10.0251C8.7766 9.98062 8.96929 10.0093 9.131 10.1049L12.122 11.7549C12.2177 11.8075 12.3251 11.835 12.4343 11.835C12.5435 11.835 12.6509 11.8075 12.7467 11.7549C12.8424 11.7024 12.9233 11.6265 12.9819 11.5344C13.0405 11.4423 13.075 11.3369 13.082 11.2279L13.79 0.4179C13.7903 0.34871 13.7734 0.280531 13.7409 0.219452C13.7084 0.158374 13.6612 0.106296 13.6037 0.0678701C13.5462 0.0294441 13.48 0.00586557 13.4111 -0.000760005C13.3423 -0.00738558 13.2728 0.00314803 13.209 0.0299002V0.0299002Z" fill="#444A58"/>
</g>
<defs>
<clipPath id="clip0_449_3596">
<rect width="14" height="14" fill="white"/>
</clipPath>
</defs>
</svg>
