<svg width="14" height="14" viewBox="0 0 14 14" fill="none" xmlns="http://www.w3.org/2000/svg">
<g clip-path="url(#clip0_449_3952)">
<path d="M9.33 1.6591C9.487 1.3501 9.639 1.0591 9.784 0.759098C9.82088 0.702528 9.84577 0.638998 9.85714 0.57243C9.8685 0.505863 9.86609 0.437673 9.85007 0.372071C9.83404 0.30647 9.80474 0.244851 9.76396 0.19102C9.72319 0.13719 9.67181 0.0922913 9.613 0.0590977C9.55131 0.0291271 9.48393 0.0126947 9.41537 0.0109026C9.34681 0.00911054 9.27866 0.0220003 9.21549 0.0487073C9.15232 0.0754143 9.0956 0.115321 9.04912 0.16575C9.00264 0.21618 8.96748 0.275966 8.946 0.341098C8.832 0.553098 8.717 0.771098 8.622 1.0001C8.552 1.1651 8.482 1.1781 8.3 1.1401C7.84967 1.0307 7.3892 0.968363 6.926 0.954098C6.49076 0.985229 6.05851 1.04941 5.633 1.1461C5.5 0.880098 5.362 0.613098 5.224 0.348098C5.062 0.0370977 4.79 -0.0759023 4.538 0.0590977C4.286 0.194098 4.238 0.465098 4.394 0.775098C4.55 1.0851 4.687 1.3641 4.836 1.6621C4.38073 2.01 4.01124 2.45761 3.7559 2.97055C3.50055 3.48349 3.36615 4.04812 3.363 4.6211H10.8C10.7995 4.04755 10.6666 3.48186 10.4116 2.96809C10.1566 2.45433 9.78647 2.00637 9.33 1.6591V1.6591ZM5.513 3.3591C5.40627 3.35675 5.30468 3.31276 5.22994 3.23653C5.1552 3.16029 5.11323 3.05786 5.113 2.9511C5.11415 2.89787 5.12591 2.84541 5.1476 2.79678C5.16929 2.74816 5.20047 2.70436 5.23931 2.66794C5.27814 2.63152 5.32386 2.60323 5.37378 2.58471C5.4237 2.56619 5.47681 2.55782 5.53 2.5601C5.63346 2.56398 5.73139 2.60783 5.80319 2.68243C5.87499 2.75703 5.91507 2.85656 5.915 2.9601C5.91216 3.06517 5.86867 3.16504 5.7937 3.23871C5.71873 3.31238 5.6181 3.3541 5.513 3.3551V3.3591ZM8.775 3.3591C8.66818 3.357 8.56645 3.31309 8.49166 3.23681C8.41686 3.16052 8.37498 3.05793 8.375 2.9511C8.37672 2.84501 8.42052 2.74395 8.49675 2.67016C8.57299 2.59636 8.67541 2.55587 8.7815 2.5576C8.88759 2.55932 8.98864 2.60312 9.06244 2.67935C9.13623 2.75558 9.17672 2.85801 9.175 2.9641C9.17092 3.06804 9.1272 3.16648 9.05281 3.2392C8.97842 3.31192 8.87901 3.35339 8.775 3.3551V3.3591Z" fill="#444A58"/>
<path d="M0.584 6.95701C0.584 6.19101 0.584 5.42601 0.584 4.65701C0.576301 4.47699 0.623672 4.2989 0.719796 4.14649C0.815919 3.99409 0.956226 3.87462 1.122 3.80401C1.27895 3.7244 1.45628 3.69403 1.63078 3.71686C1.80528 3.7397 1.96882 3.81469 2.1 3.93201C2.20733 4.01661 2.29362 4.12492 2.35209 4.24845C2.41055 4.37198 2.43962 4.50737 2.437 4.64401C2.437 6.19101 2.444 6.87201 2.437 8.41901C2.43891 8.65975 2.34617 8.89161 2.17876 9.06463C2.01136 9.23765 1.78268 9.33798 1.542 9.34401C1.421 9.35048 1.29995 9.33246 1.18609 9.29102C1.07223 9.24957 0.967905 9.18556 0.87938 9.10283C0.790854 9.02009 0.719947 8.92033 0.670909 8.80953C0.621871 8.69873 0.595712 8.57917 0.594 8.45801C0.574 7.66801 0.589 7.74301 0.589 6.95801L0.584 6.95701Z" fill="#444A58"/>
<path d="M13.584 6.96812C13.584 7.71612 13.584 7.59712 13.584 8.34512C13.5933 8.47188 13.5765 8.59919 13.5346 8.71918C13.4927 8.83917 13.4267 8.9493 13.3405 9.04275C13.2544 9.13619 13.15 9.21097 13.0338 9.26245C12.9176 9.31393 12.7921 9.34103 12.665 9.34205C12.5379 9.34308 12.412 9.31802 12.295 9.26843C12.1779 9.21883 12.0723 9.14575 11.9847 9.05372C11.8971 8.96168 11.8292 8.85263 11.7854 8.73333C11.7416 8.61403 11.7228 8.48701 11.73 8.36012C11.724 6.84712 11.724 6.20112 11.73 4.68812C11.725 4.564 11.7451 4.44015 11.7889 4.32393C11.8328 4.20771 11.8995 4.10148 11.9852 4.01156C12.0709 3.92164 12.1738 3.84986 12.2878 3.80049C12.4018 3.75112 12.5245 3.72516 12.6488 3.72415C12.773 3.72315 12.8961 3.74712 13.0109 3.79464C13.1257 3.84216 13.2297 3.91226 13.3169 4.00078C13.404 4.0893 13.4725 4.19443 13.5182 4.30993C13.5639 4.42543 13.5859 4.54894 13.583 4.67312C13.59 5.43812 13.584 6.20012 13.584 6.96812Z" fill="#444A58"/>
<path d="M7.977 11.2291H6.161C6.161 11.7621 6.18 12.2871 6.153 12.8101C6.14838 13.0774 6.08774 13.3407 5.975 13.5831C5.87954 13.7463 5.73257 13.8732 5.55717 13.9438C5.38178 14.0144 5.1879 14.0247 5.006 13.9731C4.82611 13.9339 4.66316 13.839 4.54035 13.7018C4.41754 13.5646 4.34113 13.3922 4.322 13.2091C4.287 12.5561 4.291 11.9011 4.294 11.2471C4.30147 11.1691 4.28664 11.0906 4.25124 11.0206C4.21583 10.9507 4.16131 10.8923 4.094 10.8521C3.86442 10.6947 3.67754 10.4827 3.55013 10.2352C3.42271 9.9877 3.35876 9.71243 3.364 9.43411C3.346 7.86911 3.358 7.29811 3.358 5.71411H10.804V5.98911C10.804 7.38911 10.804 7.78911 10.804 9.18011C10.8324 9.52052 10.7698 9.86237 10.6225 10.1706C10.4753 10.4788 10.2487 10.7423 9.966 10.9341C9.93594 10.9658 9.91257 11.0032 9.89728 11.0441C9.88198 11.0849 9.87509 11.1285 9.877 11.1721C9.87 11.7671 9.877 12.3631 9.877 12.9581C9.88992 13.0874 9.87585 13.2179 9.83569 13.3415C9.79552 13.465 9.73013 13.5788 9.64365 13.6758C9.55718 13.7727 9.45152 13.8507 9.33335 13.9046C9.21518 13.9586 9.08709 13.9874 8.9572 13.9893C8.82731 13.9912 8.69844 13.9661 8.57876 13.9155C8.45909 13.865 8.35121 13.7902 8.26198 13.6958C8.17274 13.6013 8.10409 13.4894 8.06037 13.3671C8.01665 13.2448 7.99881 13.1147 8.008 12.9851C8 12.4151 8 11.8451 8 11.2761C8 11.2681 7.992 11.2611 7.977 11.2291Z" fill="#444A58"/>
</g>
<defs>
<clipPath id="clip0_449_3952">
<rect width="14" height="14" fill="white"/>
</clipPath>
</defs>
</svg>
