<svg width="14" height="14" viewBox="0 0 14 14" fill="none" xmlns="http://www.w3.org/2000/svg">
<g clip-path="url(#clip0_449_3694)">
<path d="M6.884 10.094C8.24699 10.0924 9.5537 9.55026 10.5175 8.58648C11.4813 7.6227 12.0234 6.31599 12.025 4.953V1.205C12.025 0.885414 11.898 0.578918 11.6721 0.352936C11.4461 0.126955 11.1396 0 10.82 0C10.5004 0 10.1939 0.126955 9.96793 0.352936C9.74195 0.578918 9.615 0.885414 9.615 1.205V4.953C9.615 5.67731 9.32727 6.37195 8.8151 6.88411C8.30294 7.39627 7.6083 7.684 6.884 7.684C6.15969 7.684 5.46505 7.39627 4.95289 6.88411C4.44073 6.37195 4.153 5.67731 4.153 4.953V1.205C4.14396 0.891292 4.01299 0.593463 3.7879 0.374763C3.56281 0.156064 3.26134 0.0337239 2.9475 0.0337239C2.63366 0.0337239 2.33218 0.156064 2.10709 0.374763C1.882 0.593463 1.75103 0.891292 1.742 1.205V4.953C1.74359 6.31616 2.28587 7.62303 3.24987 8.58683C4.21387 9.55064 5.52083 10.0927 6.884 10.094V10.094Z" fill="#444A58"/>
<path d="M12.989 11.5811H1.011C0.745078 11.5821 0.490176 11.6874 0.301113 11.8744C0.11205 12.0614 0.00392846 12.3152 4.94605e-07 12.5811V12.9881C-0.000130911 13.1209 0.0259224 13.2525 0.0766711 13.3753C0.12742 13.498 0.201869 13.6096 0.295762 13.7036C0.389655 13.7976 0.501151 13.8721 0.623876 13.923C0.746602 13.9739 0.87815 14.0001 1.011 14.0001H12.989C13.2568 14.0001 13.5136 13.8938 13.7032 13.7046C13.8927 13.5155 13.9995 13.2588 14 12.9911V12.5831C13.9966 12.3168 13.8887 12.0626 13.6996 11.8751C13.5105 11.6877 13.2553 11.5821 12.989 11.5811Z" fill="#444A58"/>
</g>
<defs>
<clipPath id="clip0_449_3694">
<rect width="14" height="14" fill="white"/>
</clipPath>
</defs>
</svg>
