<svg width="14" height="14" viewBox="0 0 14 14" fill="none" xmlns="http://www.w3.org/2000/svg">
<g clip-path="url(#clip0_449_3456)">
<path d="M13.623 0.377012C13.5037 0.257278 13.3618 0.162328 13.2057 0.0976269C13.0495 0.0329256 12.882 -0.000249232 12.713 1.17506e-05H9.488C9.31604 -0.00478309 9.14486 0.0249463 8.98458 0.0874425C8.82431 0.149939 8.67818 0.243933 8.55486 0.36387C8.43153 0.483807 8.3335 0.627251 8.26656 0.785724C8.19962 0.944197 8.16513 1.11448 8.16513 1.28651C8.16513 1.45854 8.19962 1.62883 8.26656 1.7873C8.3335 1.94577 8.43153 2.08922 8.55486 2.20915C8.67818 2.32909 8.82431 2.42308 8.98458 2.48558C9.14486 2.54808 9.31604 2.57781 9.488 2.57301H11.427V11.426H9.488C9.14667 11.426 8.81931 11.5616 8.57796 11.803C8.3366 12.0443 8.201 12.3717 8.201 12.713C8.201 13.0543 8.3366 13.3817 8.57796 13.6231C8.81931 13.8644 9.14667 14 9.488 14H12.713C12.882 14 13.0494 13.9667 13.2055 13.902C13.3617 13.8374 13.5035 13.7426 13.623 13.6231C13.7426 13.5035 13.8374 13.3617 13.902 13.2055C13.9667 13.0494 14 12.882 14 12.713V1.28701C14.0003 1.11796 13.9671 0.950535 13.9024 0.794359C13.8377 0.638184 13.7427 0.496347 13.623 0.377012V0.377012Z" fill="#444A58"/>
<path d="M9.488 7.15909C9.48897 7.00436 9.45925 6.85099 9.40054 6.70783C9.34184 6.56467 9.25532 6.43458 9.146 6.32509L6.43 3.60009C6.2112 3.38062 5.91417 3.25706 5.60427 3.25659C5.29437 3.25612 4.99697 3.37878 4.7775 3.59759C4.55804 3.81639 4.43448 4.11342 4.43401 4.42332C4.43354 4.73322 4.5562 5.03062 4.775 5.25009L5.492 5.97309H4.972C4.41118 5.97193 3.85889 5.83564 3.36191 5.57575C2.86494 5.31586 2.43791 4.94003 2.117 4.48009C1.94592 4.23193 1.68531 4.05974 1.38993 3.99969C1.09455 3.93965 0.787398 3.99642 0.533002 4.15809C0.399023 4.24563 0.284254 4.35952 0.195676 4.49282C0.107098 4.62612 0.0465622 4.77604 0.0177512 4.93348C-0.0110598 5.09091 -0.00754387 5.25255 0.0280852 5.40858C0.0637143 5.56461 0.130712 5.71177 0.225002 5.84109C0.761046 6.60213 1.47199 7.22333 2.29805 7.65245C3.12411 8.08158 4.04113 8.30608 4.972 8.30709H5.462L4.713 9.02109C4.60322 9.12825 4.51561 9.25598 4.45519 9.39699C4.39477 9.53801 4.36272 9.68954 4.36086 9.84295C4.35711 10.1528 4.47659 10.4514 4.693 10.6731C4.90942 10.8948 5.20505 11.0215 5.51486 11.0252C5.82467 11.029 6.12328 10.9095 6.345 10.6931L9.135 7.98709C9.24559 7.87921 9.33373 7.75051 9.39431 7.60839C9.4549 7.46628 9.48674 7.31357 9.488 7.15909V7.15909Z" fill="#444A58"/>
</g>
<defs>
<clipPath id="clip0_449_3456">
<rect width="14" height="14" fill="white"/>
</clipPath>
</defs>
</svg>
