<svg width="14" height="14" viewBox="0 0 14 14" fill="none" xmlns="http://www.w3.org/2000/svg">
<g clip-path="url(#clip0_449_3884)">
<path fill-rule="evenodd" clip-rule="evenodd" d="M2.728 5.61489L7.728 0.414895C7.95861 0.205949 8.24493 0.0684557 8.55218 0.0191113C8.85944 -0.0302331 9.17441 0.0106947 9.45885 0.136924C9.74329 0.263154 9.98496 0.469255 10.1545 0.730199C10.3241 0.991143 10.4142 1.2957 10.414 1.6069V12.3889C10.4142 12.7001 10.3241 13.0046 10.1545 13.2656C9.98496 13.5265 9.74329 13.7326 9.45885 13.8589C9.17441 13.9851 8.85944 14.026 8.55218 13.9767C8.24493 13.9273 7.95861 13.7898 7.728 13.5809L2.728 8.38089C2.53529 8.20572 2.38132 7.9922 2.27595 7.75404C2.17059 7.51588 2.11617 7.25832 2.11617 6.9979C2.11617 6.73747 2.17059 6.47991 2.27595 6.24175C2.38132 6.00359 2.53529 5.79007 2.728 5.61489V5.61489Z" fill="#444A58"/>
</g>
<defs>
<clipPath id="clip0_449_3884">
<rect width="14" height="14" fill="white"/>
</clipPath>
</defs>
</svg>
