<svg width="16" height="16" viewBox="0 0 16 16" fill="none" xmlns="http://www.w3.org/2000/svg">
<path fill-rule="evenodd" clip-rule="evenodd" d="M8 16C12.4183 16 16 12.4183 16 8C16 3.58172 12.4183 0 8 0C3.58172 0 0 3.58172 0 8C0 12.4183 3.58172 16 8 16ZM2.33179 6.02741C2.70542 4.95361 3.37558 4.01864 4.24421 3.32056C4.51209 3.72966 4.97449 3.99991 5.50001 3.99991C6.32844 3.99991 7.00001 4.67148 7.00001 5.49991V5.99991C7.00001 7.10448 7.89545 7.99991 9.00002 7.99991C10.1046 7.99991 11 7.10448 11 5.99991C11 5.05979 11.6487 4.27118 12.5228 4.05719C13.4428 5.11161 14 6.49069 14 7.99992C14 8.34069 13.9716 8.67483 13.917 9.00009H13C11.8954 9.00009 11 9.89552 11 11.0001V13.1973C10.1175 13.7078 9.09276 13.9999 7.99992 13.9999V12C7.99992 10.8954 7.10448 10 5.99992 10C4.89535 10 3.99992 9.10457 3.99992 8C3.99992 7.00849 3.27841 6.1855 2.33179 6.02741Z" fill="#00406D"/>
</svg>
