<svg width="14" height="14" viewBox="0 0 14 14" fill="none" xmlns="http://www.w3.org/2000/svg">
<g clip-path="url(#clip0_449_3428)">
<path d="M7 14.0581C5.61553 14.0581 4.26216 13.6476 3.11101 12.8784C1.95987 12.1092 1.06266 11.016 0.532846 9.73689C0.00303304 8.45781 -0.13559 7.05034 0.134506 5.69248C0.404603 4.33461 1.07129 3.08733 2.05026 2.10836C3.02922 1.12939 4.2765 0.462708 5.63437 0.192612C6.99224 -0.0774849 8.3997 0.0611385 9.67879 0.590952C10.9579 1.12077 12.0511 2.01797 12.8203 3.16912C13.5895 4.32026 14 5.67364 14 7.05811C13.9979 8.91397 13.2597 10.6932 11.9474 12.0055C10.6351 13.3178 8.85587 14.056 7 14.0581V14.0581ZM5.284 11.4001C6.13067 11.736 7.05715 11.8167 7.94914 11.6323C8.84113 11.4478 9.65961 11.0062 10.3036 10.362C10.9476 9.71784 11.3889 8.89922 11.573 8.00717C11.7572 7.11512 11.6762 6.18866 11.34 5.34211C11.3082 5.26688 11.2585 5.20059 11.1951 5.14902C11.1318 5.09746 11.0568 5.06219 10.9767 5.04631C10.8966 5.03042 10.8138 5.0344 10.7356 5.0579C10.6574 5.0814 10.5861 5.1237 10.528 5.18111L5.128 10.5811C5.06891 10.6388 5.02502 10.7102 5.00025 10.789C4.97548 10.8677 4.9706 10.9514 4.98605 11.0325C5.0015 11.1136 5.03679 11.1896 5.08879 11.2538C5.14078 11.3179 5.20785 11.3682 5.284 11.4001V11.4001ZM6.161 2.46711C5.48193 2.59082 4.83877 2.86369 4.27791 3.26604C3.71705 3.66838 3.25247 4.19017 2.91766 4.79379C2.58285 5.3974 2.38616 6.06779 2.34178 6.75661C2.2974 7.44543 2.40643 8.13552 2.661 8.77711C2.69274 8.85252 2.7425 8.91899 2.80592 8.97069C2.86933 9.02239 2.94446 9.05774 3.02472 9.07363C3.10498 9.08953 3.18792 9.08548 3.26625 9.06185C3.34458 9.03822 3.41592 8.99573 3.474 8.93811L8.879 3.53811C8.93641 3.48002 8.97871 3.40875 9.00221 3.33053C9.02571 3.25231 9.02969 3.16953 9.01381 3.08942C8.99792 3.00931 8.96266 2.93431 8.91109 2.87097C8.85952 2.80764 8.79323 2.7579 8.718 2.72611C7.90667 2.40243 7.021 2.31203 6.161 2.46511V2.46711Z" fill="#444A58"/>
</g>
<defs>
<clipPath id="clip0_449_3428">
<rect width="14" height="14" fill="white"/>
</clipPath>
</defs>
</svg>
