<svg width="14" height="14" viewBox="0 0 14 14" fill="none" xmlns="http://www.w3.org/2000/svg">
<g clip-path="url(#clip0_449_3511)">
<path fill-rule="evenodd" clip-rule="evenodd" d="M11.2 14C11.7538 14 12.2951 13.8358 12.7556 13.5281C13.2161 13.2204 13.5749 12.7831 13.7869 12.2715C13.9988 11.7599 14.0542 11.1969 13.9462 10.6537C13.8382 10.1106 13.5715 9.61169 13.1799 9.2201C12.7883 8.82852 12.2894 8.56184 11.7463 8.4538C11.2031 8.34576 10.6401 8.40121 10.1285 8.61314C9.61685 8.82506 9.17955 9.18395 8.87189 9.6444C8.56422 10.1049 8.4 10.6462 8.4 11.2C8.4 11.9426 8.695 12.6548 9.2201 13.1799C9.7452 13.705 10.4574 14 11.2 14ZM11.2 5.6C11.7538 5.6 12.2951 5.43578 12.7556 5.12812C13.2161 4.82045 13.5749 4.38315 13.7869 3.87151C13.9988 3.35988 14.0542 2.79689 13.9462 2.25375C13.8382 1.7106 13.5715 1.21169 13.1799 0.820102C12.7883 0.428515 12.2894 0.161841 11.7463 0.0538025C11.2031 -0.0542361 10.6401 0.00121319 10.1285 0.213139C9.61685 0.425064 9.17955 0.783947 8.87189 1.2444C8.56422 1.70486 8.4 2.24621 8.4 2.8C8.4 3.54261 8.695 4.2548 9.2201 4.7799C9.7452 5.305 10.4574 5.6 11.2 5.6ZM2.8 14C3.35379 14 3.89514 13.8358 4.3556 13.5281C4.81605 13.2204 5.17494 12.7831 5.38686 12.2715C5.59879 11.7599 5.65424 11.1969 5.5462 10.6537C5.43816 10.1106 5.17149 9.61169 4.7799 9.2201C4.38831 8.82852 3.8894 8.56184 3.34625 8.4538C2.80311 8.34576 2.24012 8.40121 1.72849 8.61314C1.21685 8.82506 0.779553 9.18395 0.471885 9.6444C0.164217 10.1049 0 10.6462 0 11.2C0 11.9426 0.294999 12.6548 0.820101 13.1799C1.3452 13.705 2.05739 14 2.8 14ZM2.8 5.6C3.35379 5.6 3.89514 5.43578 4.3556 5.12812C4.81605 4.82045 5.17494 4.38315 5.38686 3.87151C5.59879 3.35988 5.65424 2.79689 5.5462 2.25375C5.43816 1.7106 5.17149 1.21169 4.7799 0.820102C4.38831 0.428515 3.8894 0.161841 3.34625 0.0538025C2.80311 -0.0542361 2.24012 0.00121319 1.72849 0.213139C1.21685 0.425064 0.779553 0.783947 0.471885 1.2444C0.164217 1.70486 0 2.24621 0 2.8C0 3.54261 0.294999 4.2548 0.820101 4.7799C1.3452 5.305 2.05739 5.6 2.8 5.6Z" fill="#444A58"/>
</g>
<defs>
<clipPath id="clip0_449_3511">
<rect width="14" height="14" fill="white"/>
</clipPath>
</defs>
</svg>
