<svg width="14" height="14" viewBox="0 0 14 14" fill="none" xmlns="http://www.w3.org/2000/svg">
<g clip-path="url(#clip0_449_3598)">
<path fill-rule="evenodd" clip-rule="evenodd" d="M12.245 12.791H1.756C1.29222 12.7926 0.846764 12.61 0.517507 12.2834C0.18825 11.9567 0.00211743 11.5128 0 11.049L0 7.99998C3.9688e-05 7.90624 0.0148894 7.81309 0.044 7.72398L1.657 2.21898C1.7622 1.92693 1.95385 1.67385 2.20645 1.49342C2.45905 1.31299 2.76062 1.21378 3.071 1.20898H10.929C11.2397 1.21351 11.5416 1.31272 11.7945 1.49337C12.0473 1.67402 12.239 1.92751 12.344 2.21998L13.956 7.72798C13.9848 7.8158 13.9996 7.90758 14 7.99998V11.045C13.9979 11.5088 13.8117 11.9527 13.4825 12.2794C13.1532 12.606 12.7078 12.7886 12.244 12.787L12.245 12.791ZM10.438 2.95898H3.62C3.51498 2.95907 3.41287 2.99352 3.32927 3.05708C3.24567 3.12064 3.18517 3.20981 3.157 3.31098L2.195 6.75198C2.18328 6.79608 2.18178 6.84227 2.19061 6.88704C2.19944 6.93181 2.21836 6.97397 2.24594 7.01033C2.27351 7.04668 2.30902 7.07626 2.34975 7.09682C2.39049 7.11739 2.43537 7.12838 2.481 7.12898H4.524C4.62979 7.131 4.73439 7.15165 4.833 7.18998C4.86279 7.20304 4.89183 7.21773 4.92 7.23398C4.9831 7.26615 5.04189 7.30613 5.095 7.35298C5.12214 7.37465 5.14725 7.39875 5.17 7.42498C5.21821 7.47988 5.2592 7.5407 5.292 7.60598C5.308 7.63198 5.322 7.65798 5.336 7.68598C5.336 7.69498 5.347 7.70398 5.35 7.71298C5.47105 8.05378 5.69466 8.34874 5.99011 8.55732C6.28556 8.76591 6.63834 8.87789 7 8.87789C7.36166 8.87789 7.71444 8.76591 8.00989 8.55732C8.30534 8.34874 8.52895 8.05378 8.65 7.71298C8.65 7.70398 8.66 7.69498 8.665 7.68598C8.67777 7.65851 8.69213 7.63179 8.708 7.60598C8.74079 7.54046 8.78215 7.4796 8.831 7.42498C8.85178 7.39895 8.87487 7.37485 8.9 7.35298C8.9528 7.30601 9.01166 7.26632 9.075 7.23498L9.163 7.19098C9.26112 7.15216 9.36549 7.13149 9.471 7.12998H11.514C11.5598 7.12958 11.6049 7.11868 11.6459 7.09812C11.6868 7.07757 11.7225 7.0479 11.7503 7.01141C11.778 6.97491 11.7969 6.93256 11.8057 6.88759C11.8145 6.84262 11.8129 6.79623 11.801 6.75198L10.824 3.25198C10.7996 3.16822 10.7489 3.09453 10.6794 3.04177C10.6099 2.98902 10.5252 2.96 10.438 2.95898Z" fill="#444A58"/>
</g>
<defs>
<clipPath id="clip0_449_3598">
<rect width="14" height="14" fill="white"/>
</clipPath>
</defs>
</svg>
