<svg width="14" height="14" viewBox="0 0 14 14" fill="none" xmlns="http://www.w3.org/2000/svg">
<path fill-rule="evenodd" clip-rule="evenodd" d="M7.24 0.10007L11.613 4.47207C11.6602 4.51975 11.6924 4.58031 11.7053 4.64616C11.7183 4.71202 11.7116 4.78023 11.6859 4.84227C11.6603 4.9043 11.6169 4.9574 11.5613 4.99489C11.5056 5.03239 11.4401 5.05263 11.373 5.05307H2.627C2.55988 5.05263 2.49439 5.03239 2.43872 4.99489C2.38305 4.9574 2.33969 4.9043 2.31407 4.84227C2.28844 4.78023 2.28169 4.71202 2.29467 4.64616C2.30764 4.58031 2.33976 4.51975 2.387 4.47207L6.76 0.10007C6.79149 0.068504 6.8289 0.0434598 6.87008 0.0263719C6.91126 0.00928407 6.95541 0.000488281 7 0.000488281C7.04459 0.000488281 7.08874 0.00928407 7.12992 0.0263719C7.1711 0.0434598 7.20851 0.068504 7.24 0.10007V0.10007ZM6.76 13.9001L2.387 9.52807C2.33976 9.48039 2.30764 9.41983 2.29467 9.35398C2.28169 9.28812 2.28844 9.21991 2.31407 9.15787C2.33969 9.09584 2.38305 9.04275 2.43872 9.00525C2.49439 8.96775 2.55988 8.94751 2.627 8.94707H11.373C11.4401 8.94751 11.5056 8.96775 11.5613 9.00525C11.6169 9.04275 11.6603 9.09584 11.6859 9.15787C11.7116 9.21991 11.7183 9.28812 11.7053 9.35398C11.6924 9.41983 11.6602 9.48039 11.613 9.52807L7.24 13.9001C7.20851 13.9316 7.1711 13.9567 7.12992 13.9738C7.08874 13.9909 7.04459 13.9997 7 13.9997C6.95541 13.9997 6.91126 13.9909 6.87008 13.9738C6.8289 13.9567 6.79149 13.9316 6.76 13.9001V13.9001Z" fill="#444A58"/>
</svg>
