<svg width="14" height="14" viewBox="0 0 14 14" fill="none" xmlns="http://www.w3.org/2000/svg">
<g clip-path="url(#clip0_449_3403)">
<path d="M8.4 10.281V12.746C8.4 12.9317 8.47375 13.1097 8.60503 13.241C8.7363 13.3723 8.91435 13.446 9.1 13.446H13.3C13.4857 13.446 13.6637 13.3723 13.795 13.241C13.9262 13.1097 14 12.9317 14 12.746V6.55801C14 6.41093 13.971 6.26528 13.9148 6.12939C13.8585 5.9935 13.776 5.87002 13.672 5.76601L7.791 0.886015C7.68717 0.782063 7.56386 0.699596 7.42814 0.643331C7.29241 0.587066 7.14693 0.558105 7 0.558105C6.85307 0.558105 6.70759 0.587066 6.57186 0.643331C6.43614 0.699596 6.31283 0.782063 6.209 0.886015L0.328 5.76601C0.224001 5.87002 0.141507 5.9935 0.0852285 6.12939C0.0289501 6.26528 -1.06094e-05 6.41093 2.91551e-09 6.55801L2.91551e-09 12.746C2.91551e-09 12.9317 0.0737498 13.1097 0.205025 13.241C0.336301 13.3723 0.514348 13.446 0.7 13.446H4.9C5.08565 13.446 5.2637 13.3723 5.39497 13.241C5.52625 13.1097 5.6 12.9317 5.6 12.746V10.281C5.6 9.90971 5.7475 9.55362 6.01005 9.29107C6.2726 9.02852 6.6287 8.88101 7 8.88101V8.88101C7.3713 8.88101 7.7274 9.02852 7.98995 9.29107C8.2525 9.55362 8.4 9.90971 8.4 10.281Z" fill="#444A58"/>
</g>
<defs>
<clipPath id="clip0_449_3403">
<rect width="14" height="14" fill="white"/>
</clipPath>
</defs>
</svg>
