<svg width="14" height="14" viewBox="0 0 14 14" fill="none" xmlns="http://www.w3.org/2000/svg">
<g clip-path="url(#clip0_449_4024)">
<path d="M11.364 5.27102C11.8854 5.27122 12.3951 5.11679 12.8288 4.82726C13.2624 4.53774 13.6004 4.12612 13.8001 3.64447C13.9997 3.16282 14.0521 2.63278 13.9505 2.12138C13.8489 1.60998 13.5979 1.1402 13.2293 0.771445C12.8607 0.402694 12.391 0.15154 11.8796 0.0497478C11.3683 -0.0520439 10.8382 9.92864e-05 10.3565 0.199582C9.87475 0.399066 9.46301 0.736928 9.17332 1.17044C8.88362 1.60395 8.729 2.11363 8.729 2.63502C8.72887 2.98114 8.79693 3.32389 8.92929 3.6437C9.06165 3.96351 9.25572 4.25411 9.50042 4.4989C9.74512 4.74369 10.0356 4.93787 10.3554 5.07035C10.6752 5.20283 11.0179 5.27102 11.364 5.27102V5.27102Z" fill="#444A58"/>
<path d="M12.216 7.55008C11.8846 7.55035 11.5668 7.68213 11.3324 7.91649C11.098 8.15085 10.9663 8.46864 10.966 8.80008V9.94108C10.9655 10.3542 10.8012 10.7503 10.5091 11.0425C10.2171 11.3347 9.82114 11.4993 9.408 11.5001H4.058C3.64486 11.4993 3.24889 11.3347 2.95685 11.0425C2.66481 10.7503 2.50053 10.3542 2.5 9.94108V4.59108C2.50053 4.17804 2.66484 3.78206 2.95691 3.48999C3.24898 3.19793 3.64496 3.03361 4.058 3.03308H5.181C5.51252 3.03308 5.83046 2.90139 6.06488 2.66696C6.2993 2.43254 6.431 2.1146 6.431 1.78308C6.431 1.45156 6.2993 1.13362 6.06488 0.899198C5.83046 0.664777 5.51252 0.533081 5.181 0.533081H4.058C2.98208 0.53414 1.95052 0.962018 1.18973 1.72281C0.428937 2.4836 0.00105898 3.51516 0 4.59108L0 9.94108C0.00105852 11.0171 0.428905 12.0488 1.18967 12.8097C1.95043 13.5707 2.98198 13.9988 4.058 14.0001H9.408C10.484 13.9988 11.5156 13.5707 12.2763 12.8097C13.0371 12.0488 13.4649 11.0171 13.466 9.94108V8.80008C13.4655 8.46872 13.3336 8.15109 13.0993 7.91678C12.865 7.68248 12.5474 7.55061 12.216 7.55008V7.55008Z" fill="#444A58"/>
</g>
<defs>
<clipPath id="clip0_449_4024">
<rect width="14" height="14" fill="white"/>
</clipPath>
</defs>
</svg>
