<svg width="14" height="14" viewBox="0 0 14 14" fill="none" xmlns="http://www.w3.org/2000/svg">
<g clip-path="url(#clip0_449_4042)">
<path d="M13.677 11.386L9.8 5.147C9.69291 4.96934 9.62474 4.77097 9.6 4.565V4.55C9.58824 4.49019 9.57989 4.42976 9.575 4.369V1.208C9.575 0.888138 9.44814 0.581332 9.22225 0.354874C8.99635 0.128416 8.68986 0.000794777 8.37 4.17036e-07H5.624C5.46503 -0.000131674 5.30759 0.0311162 5.16072 0.0919525C5.01384 0.152789 4.88042 0.242017 4.76811 0.354521C4.65579 0.467026 4.56678 0.600593 4.50619 0.747566C4.44559 0.894539 4.41461 1.05203 4.415 1.211L4.421 4.366C4.42184 4.64202 4.3449 4.91269 4.199 5.147L0.323 11.386C0.114013 11.6471 0.00010229 11.9716 0 12.306L0 12.526C0 12.9169 0.155296 13.2918 0.431725 13.5683C0.708153 13.8447 1.08307 14 1.474 14H12.526C12.9169 14 13.2918 13.8447 13.5683 13.5683C13.8447 13.2918 14 12.9169 14 12.526V12.306C13.9999 11.9716 13.886 11.6471 13.677 11.386V11.386ZM3.867 8.474L5.451 5.924C5.74291 5.45775 5.89845 4.91909 5.9 4.369V2.211C5.9 2.01554 5.97765 1.82808 6.11586 1.68986C6.25408 1.55165 6.44154 1.474 6.637 1.474H7.373C7.56846 1.474 7.75592 1.55165 7.89414 1.68986C8.03235 1.82808 8.11 2.01554 8.11 2.211V4.369C8.11005 4.9186 8.26385 5.45723 8.554 5.924L11.612 10.844L3.867 8.474Z" fill="#444A58"/>
</g>
<defs>
<clipPath id="clip0_449_4042">
<rect width="14" height="14" fill="white"/>
</clipPath>
</defs>
</svg>
