<svg width="14" height="14" viewBox="0 0 14 14" fill="none" xmlns="http://www.w3.org/2000/svg">
<g clip-path="url(#clip0_449_3580)">
<path fill-rule="evenodd" clip-rule="evenodd" d="M12.251 13.416H1.751C1.278 13.4073 0.827818 13.2111 0.499453 12.8706C0.171089 12.53 -0.00856661 12.073 -1.43872e-06 11.6V9.72698C-0.00883671 9.25372 0.170668 8.79632 0.499034 8.45539C0.8274 8.11446 1.27774 7.91792 1.751 7.90898H12.251C12.7239 7.91844 13.1737 8.11522 13.5017 8.45609C13.8296 8.79696 14.0088 9.25406 14 9.72698V11.6C14.0091 12.073 13.83 12.5302 13.502 12.8712C13.174 13.2121 12.724 13.4088 12.251 13.418V13.416ZM12.251 6.09198H1.751C1.27782 6.08279 0.827641 5.88616 0.499332 5.54529C0.171022 5.20442 -0.00857038 4.74717 -1.43872e-06 4.27398V2.39998C-0.00830034 1.92706 0.171443 1.47018 0.499751 1.12969C0.82806 0.78919 1.27809 0.592921 1.751 0.583984H12.251C12.7236 0.593444 13.1731 0.789943 13.501 1.13038C13.8288 1.47082 14.0083 1.9274 14 2.39998V4.27398C14.0088 4.74691 13.8296 5.20401 13.5017 5.54488C13.1737 5.88575 12.7239 6.08253 12.251 6.09198ZM12.251 2.40198H1.751V4.27398H12.251V2.39998V2.40198Z" fill="#444A58"/>
</g>
<defs>
<clipPath id="clip0_449_3580">
<rect width="14" height="14" fill="white"/>
</clipPath>
</defs>
</svg>
