<svg width="14" height="14" viewBox="0 0 14 14" fill="none" xmlns="http://www.w3.org/2000/svg">
<path fill-rule="evenodd" clip-rule="evenodd" d="M13.786 6.5L10.179 2.848C10.0106 2.67839 9.7817 2.58264 9.54268 2.58179C9.30367 2.58095 9.0741 2.67509 8.9045 2.8435C8.73489 3.01191 8.63913 3.2408 8.63829 3.47982C8.63745 3.71883 8.73159 3.94839 8.9 4.118L10.517 5.762C10.531 5.775 11.225 6.499 11.225 6.499C11.3067 6.55966 11.3731 6.63859 11.4188 6.7295C11.4645 6.8204 11.4883 6.92074 11.4883 7.0225C11.4883 7.12426 11.4645 7.2246 11.4188 7.3155C11.3731 7.40641 11.3067 7.48534 11.225 7.546L10.511 8.252L9.944 8.812L8.85 9.881C8.68066 10.0499 8.58536 10.2792 8.58508 10.5184C8.5848 10.7576 8.67956 10.9872 8.8485 11.1565C9.01744 11.3258 9.24674 11.4211 9.48594 11.4214C9.72514 11.4217 9.95466 11.3269 10.124 11.158L13.781 7.546C13.92 7.40778 13.9986 7.22009 13.9996 7.02403C14.0005 6.82798 13.9237 6.63955 13.786 6.5V6.5Z" fill="#444A58"/>
<path fill-rule="evenodd" clip-rule="evenodd" d="M3.49999 5.74803L4.06699 5.18703L5.14999 4.11903C5.23384 4.03538 5.30039 3.93603 5.34585 3.82666C5.3913 3.71728 5.41477 3.60003 5.41491 3.48159C5.41505 3.36315 5.39186 3.24584 5.34666 3.13636C5.30146 3.02688 5.23515 2.92738 5.15149 2.84353C5.06784 2.75968 4.96849 2.69313 4.85912 2.64767C4.74975 2.60222 4.63249 2.57875 4.51405 2.57861C4.27485 2.57833 4.04533 2.67309 3.87599 2.84203L0.218993 6.45403C0.0799531 6.59225 0.00135762 6.77994 0.000420465 6.976C-0.000516692 7.17205 0.0762809 7.36048 0.213993 7.50003L3.82099 11.151C3.90438 11.235 4.0035 11.3017 4.11268 11.3474C4.22186 11.3931 4.33896 11.4168 4.45731 11.4172C4.57566 11.4177 4.69293 11.3948 4.80243 11.3499C4.91193 11.3049 5.01151 11.2389 5.09549 11.1555C5.17947 11.0721 5.24621 10.973 5.29188 10.8638C5.33756 10.7547 5.36128 10.6376 5.3617 10.5192C5.36212 10.4009 5.33922 10.2836 5.29432 10.1741C5.24941 10.0646 5.18338 9.96501 5.09999 9.88103L3.48599 8.23803L2.77799 7.50003C2.69629 7.43937 2.62992 7.36043 2.58419 7.26953C2.53846 7.17863 2.51465 7.07829 2.51465 6.97653C2.51465 6.87477 2.53846 6.77443 2.58419 6.68353C2.62992 6.59262 2.69629 6.51369 2.77799 6.45303L3.49999 5.74803Z" fill="#444A58"/>
</svg>
