<svg width="14" height="14" viewBox="0 0 14 14" fill="none" xmlns="http://www.w3.org/2000/svg">
<g clip-path="url(#clip0_449_3414)">
<path d="M13.228 7.5001C13.076 7.34891 12.8704 7.26403 12.656 7.26403C12.4416 7.26403 12.236 7.34891 12.084 7.5001L8.226 11.3471C7.5614 12.0108 6.66082 12.3839 5.72159 12.3848C4.78235 12.3857 3.88107 12.0143 3.21521 11.3518C2.54936 10.6894 2.17323 9.79008 2.16926 8.85086C2.16528 7.91164 2.53378 7.00913 3.194 6.3411L7.324 2.2301C7.71942 1.83769 8.25392 1.61749 8.811 1.61749C9.36808 1.61749 9.90258 1.83769 10.298 2.2301C10.686 2.61637 10.9068 3.13959 10.9128 3.68706C10.9188 4.23453 10.7095 4.76245 10.33 5.1571L6.169 9.3001C6.04652 9.42042 5.88169 9.48783 5.71 9.48783C5.53831 9.48783 5.37348 9.42042 5.251 9.3001C5.13277 9.18017 5.06649 9.01852 5.06649 8.8501C5.06649 8.68169 5.13277 8.52004 5.251 8.4001L9.11 4.5471C9.26114 4.3953 9.34599 4.18981 9.34599 3.9756C9.34599 3.76139 9.26114 3.55591 9.11 3.4041C9.03523 3.32809 8.94603 3.2678 8.84763 3.22675C8.74923 3.18571 8.64362 3.16475 8.537 3.1651V3.1651C8.43117 3.16463 8.32629 3.18515 8.22845 3.22549C8.13061 3.26583 8.04174 3.32518 7.967 3.4001L4.112 7.2441C3.90189 7.45422 3.73521 7.70366 3.6215 7.97819C3.50779 8.25272 3.44926 8.54696 3.44926 8.8441C3.44926 9.14125 3.50779 9.43549 3.6215 9.71002C3.73521 9.98455 3.90189 10.234 4.112 10.4441C4.32212 10.6542 4.57156 10.8209 4.84609 10.9346C5.12061 11.0483 5.41485 11.1068 5.712 11.1068C6.00915 11.1068 6.30339 11.0483 6.57791 10.9346C6.85244 10.8209 7.10188 10.6542 7.312 10.4441L11.443 6.3321C11.7886 5.98828 12.0628 5.57956 12.25 5.12942C12.4371 4.67928 12.5334 4.19659 12.5334 3.7091C12.5334 3.22162 12.4371 2.73893 12.25 2.28879C12.0628 1.83865 11.7886 1.42993 11.443 1.0861C10.7444 0.392453 9.79994 0.00317383 8.8155 0.00317383C7.83106 0.00317383 6.88655 0.392453 6.188 1.0861L2.054 5.2001C1.33294 5.92189 0.842223 6.84138 0.643965 7.84218C0.445706 8.84297 0.548817 9.8801 0.940247 10.8223C1.33168 11.7644 1.99383 12.5693 2.84289 13.135C3.69195 13.7007 4.68975 14.0018 5.71 14.0001C6.3887 14.0017 7.06105 13.8694 7.68857 13.6108C8.31608 13.3522 8.88644 12.9724 9.367 12.4931L13.227 8.6481C13.3793 8.49597 13.465 8.28958 13.4652 8.07431C13.4653 7.85904 13.38 7.6525 13.228 7.5001V7.5001Z" fill="#444A58"/>
</g>
<defs>
<clipPath id="clip0_449_3414">
<rect width="14" height="14" fill="white"/>
</clipPath>
</defs>
</svg>
