<svg width="14" height="14" viewBox="0 0 14 14" fill="none" xmlns="http://www.w3.org/2000/svg">
<g clip-path="url(#clip0_449_3626)">
<path fill-rule="evenodd" clip-rule="evenodd" d="M7 14.0001C8.44907 14.0001 9.83887 13.4248 10.864 12.4006C11.8891 11.3764 12.4657 9.98715 12.467 8.53808C12.469 5.58908 9.315 2.20008 7.8 0.38708C7.70542 0.264998 7.58415 0.166182 7.44548 0.0981996C7.30682 0.0302175 7.15443 -0.00512695 7 -0.00512695C6.84557 -0.00512695 6.69318 0.0302175 6.55452 0.0981996C6.41585 0.166182 6.29458 0.264998 6.2 0.38708C4.688 2.20008 1.531 5.50008 1.531 8.53808C1.53259 9.98742 2.10952 11.3768 3.13501 12.401C4.16051 13.4252 5.55066 14.0003 7 14.0001V14.0001ZM8.546 11.5601C7.89194 11.9575 7.12345 12.124 6.36354 12.033C5.60363 11.9419 4.89625 11.5984 4.35467 11.0577C3.81308 10.5169 3.4686 9.81002 3.37637 9.05025C3.28415 8.29047 3.44952 7.52173 3.846 6.86708C3.90468 6.78065 3.98238 6.7088 4.07313 6.65706C4.16389 6.60531 4.26529 6.57505 4.36956 6.56858C4.47383 6.56211 4.5782 6.57961 4.67465 6.61974C4.77111 6.65987 4.85709 6.72156 4.926 6.80008L8.611 10.4791C8.69028 10.5475 8.75274 10.6332 8.79355 10.7296C8.83436 10.8261 8.85242 10.9306 8.84633 11.0351C8.84024 11.1397 8.81016 11.2414 8.75842 11.3324C8.70669 11.4235 8.63469 11.5014 8.548 11.5601H8.546Z" fill="#444A58"/>
</g>
<defs>
<clipPath id="clip0_449_3626">
<rect width="14" height="14" fill="white"/>
</clipPath>
</defs>
</svg>
