<svg width="14" height="14" viewBox="0 0 14 14" fill="none" xmlns="http://www.w3.org/2000/svg">
<g clip-path="url(#clip0_449_4028)">
<path d="M5.381 13.762C4.24123 13.4114 3.25361 12.6855 2.57875 11.7023C1.90389 10.7192 1.5815 9.53663 1.664 8.34701C1.67457 7.68866 1.81813 7.03924 2.08603 6.43778C2.35394 5.83632 2.74068 5.29522 3.223 4.84701C3.29743 4.77788 3.38665 4.72664 3.48386 4.69718C3.58107 4.66773 3.68372 4.66083 3.784 4.67701C4.148 4.73601 4.026 5.37701 3.967 5.74201C3.91963 5.97198 3.91869 6.20909 3.96425 6.43943C4.00981 6.66977 4.10095 6.88867 4.23231 7.08329C4.36366 7.2779 4.53259 7.4443 4.72917 7.5727C4.92575 7.70111 5.146 7.78893 5.377 7.83101C7.377 7.83101 4.005 3.83901 7.505 0.0990074C7.54972 0.054118 7.60723 0.0241634 7.66964 0.013253C7.73205 0.0023426 7.79632 0.0110108 7.85361 0.0380686C7.9109 0.0651264 7.95842 0.109248 7.98964 0.164381C8.02086 0.219514 8.03426 0.282957 8.028 0.346007C7.948 2.34601 10.514 4.39801 11.34 5.54601C11.9944 6.45879 12.345 7.55439 12.342 8.67753C12.339 9.80067 11.9827 10.8944 11.3234 11.8037C10.6641 12.713 9.73542 13.3917 8.66886 13.7438C7.60231 14.0958 6.45202 14.1032 5.381 13.765V13.762Z" fill="#444A58"/>
</g>
<defs>
<clipPath id="clip0_449_4028">
<rect width="14" height="14" fill="white"/>
</clipPath>
</defs>
</svg>
