<svg width="14" height="14" viewBox="0 0 14 14" fill="none" xmlns="http://www.w3.org/2000/svg">
<g clip-path="url(#clip0_449_3536)">
<path d="M5.103 0H0.497C0.222514 0 0 0.222514 0 0.497V5.103C0 5.37749 0.222514 5.6 0.497 5.6H5.103C5.37749 5.6 5.6 5.37749 5.6 5.103V0.497C5.6 0.222514 5.37749 0 5.103 0Z" fill="#444A58"/>
<path d="M5.103 8.3999H0.497C0.222514 8.3999 0 8.62242 0 8.8969V13.5029C0 13.7774 0.222514 13.9999 0.497 13.9999H5.103C5.37749 13.9999 5.6 13.7774 5.6 13.5029V8.8969C5.6 8.62242 5.37749 8.3999 5.103 8.3999Z" fill="#444A58"/>
<path d="M13.503 0H8.89699C8.62251 0 8.39999 0.222514 8.39999 0.497V5.103C8.39999 5.37749 8.62251 5.6 8.89699 5.6H13.503C13.7775 5.6 14 5.37749 14 5.103V0.497C14 0.222514 13.7775 0 13.503 0Z" fill="#444A58"/>
<path d="M13.503 8.3999H8.89699C8.62251 8.3999 8.39999 8.62242 8.39999 8.8969V13.5029C8.39999 13.7774 8.62251 13.9999 8.89699 13.9999H13.503C13.7775 13.9999 14 13.7774 14 13.5029V8.8969C14 8.62242 13.7775 8.3999 13.503 8.3999Z" fill="#444A58"/>
</g>
<defs>
<clipPath id="clip0_449_3536">
<rect width="14" height="14" fill="white"/>
</clipPath>
</defs>
</svg>
