<svg width="14" height="14" viewBox="0 0 14 14" fill="none" xmlns="http://www.w3.org/2000/svg">
<g clip-path="url(#clip0_449_3434)">
<path fill-rule="evenodd" clip-rule="evenodd" d="M7 0C5.61553 0 4.26216 0.410543 3.11101 1.17971C1.95987 1.94888 1.06266 3.04213 0.532846 4.32122C0.00303304 5.6003 -0.13559 7.00777 0.134506 8.36563C0.404603 9.7235 1.07129 10.9708 2.05026 11.9497C3.02922 12.9287 4.2765 13.5954 5.63437 13.8655C6.99224 14.1356 8.3997 13.997 9.67879 13.4672C10.9579 12.9373 12.0511 12.0401 12.8203 10.889C13.5895 9.73785 14 8.38447 14 7C14 5.14348 13.2625 3.36301 11.9497 2.05025C10.637 0.737498 8.85652 0 7 0V0ZM10.15 8.4H7.006C6.77593 8.39369 6.55702 8.29948 6.39427 8.13673C6.23152 7.97399 6.13731 7.75507 6.131 7.525V3.509C6.131 3.27694 6.22319 3.05438 6.38728 2.89028C6.55138 2.72619 6.77394 2.634 7.006 2.634C7.23807 2.634 7.46063 2.72619 7.62472 2.89028C7.78882 3.05438 7.881 3.27694 7.881 3.509V6.646H10.15C10.3821 6.646 10.6046 6.73819 10.7687 6.90228C10.9328 7.06638 11.025 7.28894 11.025 7.521C11.025 7.75306 10.9328 7.97562 10.7687 8.13972C10.6046 8.30381 10.3821 8.396 10.15 8.396V8.4Z" fill="#444A58"/>
</g>
<defs>
<clipPath id="clip0_449_3434">
<rect width="14" height="14" fill="white"/>
</clipPath>
</defs>
</svg>
