<svg width="14" height="14" viewBox="0 0 14 14" fill="none" xmlns="http://www.w3.org/2000/svg">
<g clip-path="url(#clip0_449_3860)">
<path fill-rule="evenodd" clip-rule="evenodd" d="M12.259 2.626L8.228 2.617L6.893 1.281C6.62337 1.02788 6.26973 0.883294 5.9 0.875H1.743C1.28008 0.877378 0.836907 1.06288 0.510315 1.39097C0.183724 1.71906 0.000258122 2.16307 0 2.626L0 11.376C0.00185093 11.8406 0.187643 12.2856 0.516727 12.6135C0.845812 12.9415 1.2914 13.1257 1.756 13.126H12.244C12.4744 13.1271 12.7027 13.0826 12.9159 12.9951C13.129 12.9076 13.3227 12.7788 13.4859 12.6162C13.6491 12.4535 13.7785 12.2602 13.8668 12.0474C13.955 11.8346 14.0003 11.6064 14 11.376V4.376C14 3.91343 13.8169 3.46967 13.4906 3.14173C13.1644 2.8138 12.7216 2.62838 12.259 2.626V2.626ZM9.7 8.272L7.328 10.648C7.24834 10.7274 7.14046 10.772 7.028 10.772C6.91554 10.772 6.80766 10.7274 6.728 10.648L4.351 8.272C4.29143 8.21262 4.25082 8.1369 4.23431 8.05442C4.2178 7.97195 4.22613 7.88643 4.25825 7.80869C4.29038 7.73096 4.34484 7.6645 4.41476 7.61774C4.48467 7.57097 4.56689 7.54601 4.651 7.546H6.177V5.53C6.17142 5.41491 6.18926 5.29988 6.22946 5.19189C6.26966 5.0839 6.33136 4.9852 6.41084 4.90177C6.49032 4.81834 6.58592 4.75192 6.69183 4.70654C6.79775 4.66116 6.91177 4.63776 7.027 4.63776C7.14223 4.63776 7.25626 4.66116 7.36217 4.70654C7.46808 4.75192 7.56368 4.81834 7.64316 4.90177C7.72264 4.9852 7.78434 5.0839 7.82454 5.19189C7.86474 5.29988 7.88258 5.41491 7.877 5.53V7.546H9.4C9.48411 7.54601 9.56633 7.57097 9.63624 7.61774C9.70616 7.6645 9.76062 7.73096 9.79275 7.80869C9.82487 7.88643 9.8332 7.97195 9.81669 8.05442C9.80018 8.1369 9.75957 8.21262 9.7 8.272Z" fill="#444A58"/>
</g>
<defs>
<clipPath id="clip0_449_3860">
<rect width="14" height="14" fill="white"/>
</clipPath>
</defs>
</svg>
