<svg width="14" height="14" viewBox="0 0 14 14" fill="none" xmlns="http://www.w3.org/2000/svg">
<g clip-path="url(#clip0_449_3436)">
<path d="M8.683 7.022V12.18C8.68321 12.3297 8.64143 12.4764 8.56241 12.6035C8.48339 12.7306 8.37031 12.833 8.236 12.899L6.136 13.939C6.0466 13.9833 5.94737 14.004 5.84773 13.9992C5.74808 13.9943 5.65131 13.9642 5.56659 13.9115C5.48187 13.8588 5.41199 13.7854 5.36359 13.6981C5.31519 13.6109 5.28986 13.5128 5.29 13.413V7.018C5.29024 6.38986 5.05717 5.78402 4.636 5.318L0.687005 0.953001C0.61279 0.8712 0.563939 0.769599 0.546393 0.660551C0.528847 0.551504 0.54336 0.439707 0.588169 0.338755C0.632978 0.237802 0.706152 0.152043 0.798794 0.0919035C0.891436 0.0317642 0.999554 -0.000164097 1.11 6.34231e-07H12.89C13.0006 0.000115434 13.1087 0.0323241 13.2013 0.0927162C13.2939 0.153108 13.367 0.239086 13.4117 0.340212C13.4564 0.441338 13.4707 0.553261 13.453 0.662395C13.4354 0.771528 13.3864 0.873177 13.312 0.955001L9.34301 5.316C8.91827 5.78266 8.68292 6.39099 8.683 7.022V7.022Z" fill="#444A58"/>
</g>
<defs>
<clipPath id="clip0_449_3436">
<rect width="14" height="14" fill="white"/>
</clipPath>
</defs>
</svg>
