<svg width="14" height="14" viewBox="0 0 14 14" fill="none" xmlns="http://www.w3.org/2000/svg">
<g clip-path="url(#clip0_449_3864)">
<path fill-rule="evenodd" clip-rule="evenodd" d="M12.36 5.49996L3.61 0.251964C3.34448 0.0924987 3.04139 0.00635988 2.73169 0.00234438C2.42199 -0.00167112 2.11677 0.0765806 1.8472 0.229108C1.57763 0.381636 1.35337 0.602975 1.19733 0.870522C1.04128 1.13807 0.959041 1.44224 0.959 1.75196V12.252C0.959041 12.5617 1.04128 12.8659 1.19733 13.1334C1.35337 13.401 1.57763 13.6223 1.8472 13.7748C2.11677 13.9273 2.42199 14.0056 2.73169 14.0016C3.04139 13.9976 3.34448 13.9114 3.61 13.752L12.36 8.49996C12.6189 8.34441 12.8331 8.12452 12.9818 7.86167C13.1305 7.59882 13.2086 7.30196 13.2086 6.99996C13.2086 6.69797 13.1305 6.40111 12.9818 6.13826C12.8331 5.87541 12.6189 5.65552 12.36 5.49996V5.49996Z" fill="#444A58"/>
</g>
<defs>
<clipPath id="clip0_449_3864">
<rect width="14" height="14" fill="white"/>
</clipPath>
</defs>
</svg>
