<svg width="14" height="14" viewBox="0 0 14 14" fill="none" xmlns="http://www.w3.org/2000/svg">
<g clip-path="url(#clip0_449_3619)">
<path d="M1.01 1.20898H12.99C13.1227 1.20898 13.2541 1.23514 13.3767 1.28596C13.4993 1.33678 13.6107 1.41127 13.7045 1.50516C13.7983 1.59905 13.8727 1.71051 13.9234 1.83317C13.9741 1.95582 14.0001 2.08727 14 2.21998V2.61998C14 2.75249 13.9739 2.88369 13.9232 3.00611C13.8725 3.12853 13.7982 3.23976 13.7045 3.33346C13.6108 3.42715 13.4995 3.50147 13.3771 3.55218C13.2547 3.60289 13.1235 3.62898 12.991 3.62898H1.009C0.876412 3.62898 0.745125 3.60285 0.622642 3.55208C0.500159 3.50131 0.388883 3.4269 0.295176 3.3331C0.201469 3.2393 0.127167 3.12795 0.0765188 3.00542C0.0258707 2.88289 -0.00013091 2.75157 4.95585e-07 2.61898V2.21898C4.95585e-07 1.95112 0.106411 1.69422 0.295823 1.50481C0.485234 1.31539 0.742132 1.20898 1.01 1.20898V1.20898Z" fill="#444A58"/>
<path d="M3.242 5.79004H10.758C11.0259 5.79004 11.2828 5.89645 11.4722 6.08586C11.6616 6.27527 11.768 6.53217 11.768 6.80004V7.20004C11.7681 7.33263 11.7421 7.46394 11.6915 7.58647C11.6408 7.70901 11.5665 7.82036 11.4728 7.91416C11.3791 8.00796 11.2678 8.08237 11.1454 8.13314C11.0229 8.18391 10.8916 8.21004 10.759 8.21004H3.241C3.10841 8.21004 2.97713 8.18391 2.85464 8.13314C2.73216 8.08237 2.62089 8.00796 2.52718 7.91416C2.43347 7.82036 2.35917 7.70901 2.30852 7.58647C2.25787 7.46394 2.23187 7.33263 2.232 7.20004V6.80004C2.232 6.53217 2.33841 6.27527 2.52782 6.08586C2.71724 5.89645 2.97413 5.79004 3.242 5.79004Z" fill="#444A58"/>
<path d="M8.6 10.3721H5.4C5.13408 10.3731 4.87918 10.4784 4.69011 10.6654C4.50105 10.8524 4.39293 11.1062 4.389 11.3721V11.7781C4.38874 11.911 4.4147 12.0427 4.46539 12.1656C4.51607 12.2885 4.5905 12.4002 4.68441 12.4942C4.77832 12.5883 4.88986 12.663 5.01265 12.7139C5.13544 12.7649 5.26707 12.7911 5.4 12.7911H8.6C8.86796 12.7911 9.12496 12.6847 9.31453 12.4953C9.5041 12.3059 9.61074 12.049 9.611 11.7811V11.3741C9.60759 11.1078 9.4997 10.8536 9.31058 10.6661C9.12146 10.4787 8.86627 10.3731 8.6 10.3721V10.3721Z" fill="#444A58"/>
</g>
<defs>
<clipPath id="clip0_449_3619">
<rect width="14" height="14" fill="white"/>
</clipPath>
</defs>
</svg>
