<svg width="14" height="14" viewBox="0 0 14 14" fill="none" xmlns="http://www.w3.org/2000/svg">
<g clip-path="url(#clip0_449_3487)">
<path d="M7 0C5.61553 0 4.26215 0.410543 3.11101 1.17971C1.95986 1.94888 1.06266 3.04213 0.532843 4.32122C0.00302923 5.6003 -0.135594 7.00777 0.134502 8.36563C0.404599 9.7235 1.07128 10.9708 2.05025 11.9497C3.02922 12.9287 4.2765 13.5954 5.63437 13.8655C6.99223 14.1356 8.3997 13.997 9.67878 13.4672C10.9579 12.9373 12.0511 12.0401 12.8203 10.889C13.5895 9.73785 14 8.38447 14 7C14 5.14348 13.2625 3.36301 11.9497 2.05025C10.637 0.737498 8.85651 0 7 0V0ZM7 10C6.40666 10 5.82664 9.82405 5.33329 9.49441C4.83994 9.16476 4.45542 8.69623 4.22836 8.14805C4.0013 7.59987 3.94189 6.99667 4.05764 6.41473C4.1734 5.83279 4.45912 5.29824 4.87868 4.87868C5.29824 4.45912 5.83279 4.1734 6.41473 4.05764C6.99667 3.94189 7.59987 4.0013 8.14805 4.22836C8.69623 4.45542 9.16476 4.83994 9.49441 5.33329C9.82405 5.82664 10 6.40666 10 7C10 7.79565 9.68393 8.55871 9.12132 9.12132C8.55871 9.68393 7.79565 10 7 10V10Z" fill="#444A58"/>
</g>
<defs>
<clipPath id="clip0_449_3487">
<rect width="14" height="14" fill="white"/>
</clipPath>
</defs>
</svg>
