<svg width="14" height="14" viewBox="0 0 14 14" fill="none" xmlns="http://www.w3.org/2000/svg">
<g clip-path="url(#clip0_449_4022)">
<path fill-rule="evenodd" clip-rule="evenodd" d="M12.8 8.08199C11.8399 8.42481 10.8021 8.48809 9.80744 8.26445C8.81276 8.04081 7.90197 7.53946 7.18096 6.81866C6.45995 6.09786 5.95833 5.18722 5.73441 4.1926C5.51048 3.19798 5.57345 2.16023 5.916 1.19999C5.97203 1.03989 5.98168 0.867215 5.94383 0.70187C5.90598 0.536525 5.82218 0.385242 5.70208 0.265458C5.58199 0.145675 5.43048 0.0622683 5.26504 0.0248535C5.0996 -0.0125614 4.92695 -0.00246141 4.767 0.0539892C3.62638 0.461523 2.60736 1.15091 1.80473 2.05803C1.00209 2.96514 0.441907 4.06052 0.176287 5.24227C-0.0893319 6.42402 -0.0517603 7.65375 0.285507 8.81708C0.622775 9.98041 1.24878 11.0396 2.1053 11.896C2.96182 12.7524 4.02102 13.3783 5.18439 13.7154C6.34776 14.0526 7.57749 14.09 8.75922 13.8243C9.94094 13.5585 11.0363 12.9982 11.9433 12.1955C12.8503 11.3927 13.5396 10.3736 13.947 9.23299C14.003 9.07304 14.0128 8.90052 13.9751 8.73528C13.9374 8.57004 13.8539 8.41879 13.734 8.29895C13.6142 8.17911 13.4629 8.09554 13.2977 8.05787C13.1325 8.02019 12.9599 8.02994 12.8 8.08599V8.08599V8.08199Z" fill="#444A58"/>
</g>
<defs>
<clipPath id="clip0_449_4022">
<rect width="14" height="14" fill="white"/>
</clipPath>
</defs>
</svg>
