<svg width="14" height="14" viewBox="0 0 14 14" fill="none" xmlns="http://www.w3.org/2000/svg">
<g clip-path="url(#clip0_449_3846)">
<path d="M13.125 6.126C12.8931 6.126 12.6707 6.21805 12.5066 6.38193C12.3426 6.54581 12.2503 6.76811 12.25 7C12.25 8.39239 11.6969 9.72774 10.7123 10.7123C9.72774 11.6969 8.39239 12.25 7 12.25C5.60761 12.25 4.27226 11.6969 3.28769 10.7123C2.30312 9.72774 1.75 8.39239 1.75 7C1.75 6.76794 1.65781 6.54538 1.49372 6.38128C1.32962 6.21719 1.10706 6.125 0.875 6.125C0.642936 6.125 0.420376 6.21719 0.256282 6.38128C0.0921872 6.54538 0 6.76794 0 7C0 8.85652 0.737498 10.637 2.05025 11.9497C3.36301 13.2625 5.14348 14 7 14C8.85652 14 10.637 13.2625 11.9497 11.9497C13.2625 10.637 14 8.85652 14 7C13.9997 6.76811 13.9074 6.54581 13.7434 6.38193C13.5793 6.21805 13.3569 6.126 13.125 6.126V6.126Z" fill="#444A58"/>
<path d="M7 10.5C7.92745 10.4974 8.81615 10.1278 9.47196 9.47196C10.1278 8.81615 10.4974 7.92745 10.5 7V3.5C10.5 2.57174 10.1313 1.6815 9.47487 1.02513C8.8185 0.368749 7.92826 0 7 0C6.07174 0 5.1815 0.368749 4.52513 1.02513C3.86875 1.6815 3.5 2.57174 3.5 3.5V7C3.50264 7.92745 3.87223 8.81615 4.52804 9.47196C5.18385 10.1278 6.07255 10.4974 7 10.5Z" fill="#444A58"/>
</g>
<defs>
<clipPath id="clip0_449_3846">
<rect width="14" height="14" fill="white"/>
</clipPath>
</defs>
</svg>
