<svg width="14" height="14" viewBox="0 0 14 14" fill="none" xmlns="http://www.w3.org/2000/svg">
<g clip-path="url(#clip0_449_3958)">
<path d="M7.856 4.83389V6.08389C7.943 5.96789 8.016 5.86589 8.095 5.76789C8.41106 5.36532 8.82349 5.04892 9.29418 4.84792C9.76488 4.64692 10.2786 4.5678 10.788 4.61789C11.3323 4.63638 11.8635 4.78963 12.334 5.06389C12.7048 5.29004 13.0258 5.58901 13.2778 5.94273C13.5298 6.29645 13.7074 6.69758 13.8 7.12189C13.9169 7.58917 13.975 8.06921 13.973 8.55089C13.973 10.2669 13.973 11.9832 13.973 13.6999C13.973 13.7279 13.973 13.7569 13.973 13.7899H11V13.6999C11 12.0999 11 10.4999 11 8.89989C11.0063 8.54524 10.9477 8.19243 10.827 7.85889C10.7397 7.60304 10.5747 7.38079 10.3552 7.22306C10.1356 7.06534 9.87234 6.97999 9.602 6.97889C9.37734 6.97002 9.15321 7.0065 8.94296 7.08614C8.73272 7.16579 8.54067 7.28697 8.37828 7.44246C8.21588 7.59794 8.08648 7.78454 7.99778 7.99113C7.90907 8.19772 7.8629 8.42006 7.862 8.64489C7.87 9.29489 7.862 9.94489 7.862 10.5929C7.862 11.6282 7.862 12.6632 7.862 13.6979V13.7919H4.883V4.83389H7.856Z" fill="#444A58"/>
<path d="M0.0259933 4.83203H2.99999V13.79H0.0259933V4.83203Z" fill="#444A58"/>
<path d="M1.511 3.27596C2.35765 3.27596 3.044 2.58961 3.044 1.74296C3.044 0.896308 2.35765 0.209961 1.511 0.209961C0.664344 0.209961 -0.0220032 0.896308 -0.0220032 1.74296C-0.0220032 2.58961 0.664344 3.27596 1.511 3.27596Z" fill="#444A58"/>
</g>
<defs>
<clipPath id="clip0_449_3958">
<rect width="14" height="14" fill="white"/>
</clipPath>
</defs>
</svg>
