<svg width="14" height="14" viewBox="0 0 14 14" fill="none" xmlns="http://www.w3.org/2000/svg">
<g clip-path="url(#clip0_449_3808)">
<path d="M13.37 6.286H11.748C11.6738 5.66299 11.4964 5.0567 11.223 4.492C11.7582 4.06774 12.1904 3.52775 12.4871 2.91257C12.7838 2.29738 12.9372 1.62299 12.936 0.94V0.714C12.9291 0.529128 12.8508 0.354134 12.7175 0.225788C12.5843 0.0974416 12.4065 0.0257348 12.2215 0.0257348C12.0365 0.0257348 11.8587 0.0974416 11.7255 0.225788C11.5922 0.354134 11.5139 0.529128 11.507 0.714V0.94C11.508 1.38753 11.4125 1.83 11.2269 2.23727C11.0414 2.64454 10.7703 3.00702 10.432 3.3C10.158 2.9856 9.84476 2.70767 9.5 2.473C9.50108 2.45835 9.50108 2.44365 9.5 2.429C9.5 1.78479 9.24409 1.16696 8.78856 0.711438C8.33303 0.255912 7.71521 0 7.071 0C6.42679 0 5.80896 0.255912 5.35344 0.711438C4.89791 1.16696 4.642 1.78479 4.642 2.429C4.64097 2.44365 4.64097 2.45835 4.642 2.473C4.29891 2.70673 3.98705 2.9833 3.714 3.296C3.37752 3.00284 3.10808 2.6407 2.92397 2.23418C2.73986 1.82765 2.6454 1.38627 2.647 0.94V0.714C2.647 0.524635 2.57177 0.343027 2.43787 0.209126C2.30397 0.0752248 2.12236 0 1.933 0C1.74363 0 1.56203 0.0752248 1.42812 0.209126C1.29422 0.343027 1.219 0.524635 1.219 0.714V0.94C1.21756 1.62292 1.37085 2.29729 1.66736 2.91248C1.96387 3.52767 2.39589 4.06769 2.931 4.492C2.65804 5.05687 2.48063 5.66309 2.406 6.286H0.799999C0.610634 6.286 0.429025 6.36122 0.295124 6.49513C0.161223 6.62903 0.0859985 6.81064 0.0859985 7C0.0859985 7.18936 0.161223 7.37097 0.295124 7.50487C0.429025 7.63878 0.610634 7.714 0.799999 7.714H2.406C2.48049 8.33662 2.6579 8.94253 2.931 9.507C2.39559 9.93127 1.96337 10.4714 1.66684 11.0868C1.37031 11.7022 1.21719 12.3769 1.219 13.06V13.286C1.219 13.4754 1.29422 13.657 1.42812 13.7909C1.56203 13.9248 1.74363 14 1.933 14C2.12236 14 2.30397 13.9248 2.43787 13.7909C2.57177 13.657 2.647 13.4754 2.647 13.286V13.06C2.64607 12.6124 2.74172 12.1698 2.92741 11.7626C3.11311 11.3553 3.38447 10.9928 3.723 10.7C4.13687 11.1877 4.65027 11.5813 5.22875 11.8543C5.80722 12.1274 6.4374 12.2735 7.077 12.283C7.71672 12.2734 8.34701 12.1272 8.92563 11.8542C9.50425 11.5812 10.0178 11.1877 10.432 10.7C10.7698 10.9927 11.0407 11.3548 11.2261 11.7614C11.4116 12.1681 11.5074 12.61 11.507 13.057V13.283C11.5139 13.4679 11.5922 13.6429 11.7255 13.7712C11.8587 13.8996 12.0365 13.9713 12.2215 13.9713C12.4065 13.9713 12.5843 13.8996 12.7175 13.7712C12.8508 13.6429 12.9291 13.4679 12.936 13.283V13.06C12.9376 12.3768 12.7843 11.7021 12.4876 11.0867C12.1909 10.4713 11.7585 9.93122 11.223 9.507C11.4965 8.9427 11.674 8.33671 11.748 7.714H13.37C13.5594 7.714 13.741 7.63878 13.8749 7.50487C14.0088 7.37097 14.084 7.18936 14.084 7C14.084 6.81064 14.0088 6.62903 13.8749 6.49513C13.741 6.36122 13.5594 6.286 13.37 6.286V6.286Z" fill="#444A58"/>
</g>
<defs>
<clipPath id="clip0_449_3808">
<rect width="14" height="14" fill="white"/>
</clipPath>
</defs>
</svg>
