<svg width="14" height="14" viewBox="0 0 14 14" fill="none" xmlns="http://www.w3.org/2000/svg">
<path d="M6.95199 0C7.53703 0 8.11634 0.115232 8.65685 0.339117C9.19735 0.563001 9.68847 0.891154 10.1022 1.30484C10.5158 1.71852 10.844 2.20964 11.0679 2.75015C11.2918 3.29065 11.407 3.86996 11.407 4.455V9.545C11.407 10.7265 10.9376 11.8597 10.1022 12.6952C9.26668 13.5306 8.13353 14 6.95199 14C5.77045 14 4.63731 13.5306 3.80183 12.6952C2.96636 11.8597 2.49699 10.7265 2.49699 9.545V4.455C2.49726 3.27354 2.96671 2.14055 3.80213 1.30513C4.63754 0.469715 5.77054 0.000265109 6.95199 0V0ZM6.95199 1.671C6.73054 1.671 6.51815 1.75897 6.36156 1.91557C6.20497 2.07216 6.11699 2.28454 6.11699 2.506V4.177C6.12449 4.39359 6.2158 4.5988 6.37166 4.74937C6.52753 4.89993 6.73578 4.98409 6.95249 4.98409C7.16921 4.98409 7.37746 4.89993 7.53332 4.74937C7.68919 4.5988 7.7805 4.39359 7.78799 4.177V2.506C7.78799 2.39626 7.76636 2.2876 7.72434 2.18623C7.68231 2.08486 7.62072 1.99276 7.54307 1.91521C7.46543 1.83766 7.37326 1.77618 7.27184 1.73427C7.17042 1.69237 7.06173 1.67087 6.95199 1.671V1.671Z" fill="#444A58"/>
</svg>
