<svg width="14" height="14" viewBox="0 0 14 14" fill="none" xmlns="http://www.w3.org/2000/svg">
<g clip-path="url(#clip0_449_3644)">
<path d="M13.732 2.50795L11.563 0.338948C11.4779 0.253201 11.3766 0.185148 11.265 0.138708C11.1535 0.092268 11.0338 0.0683594 10.913 0.0683594C10.7922 0.0683594 10.6725 0.092268 10.561 0.138708C10.4494 0.185148 10.3481 0.253201 10.263 0.338948L5.493 5.16895L4.832 8.19995C4.79961 8.34985 4.80533 8.50547 4.84863 8.65259C4.89194 8.79971 4.97145 8.93361 5.07989 9.04205C5.18833 9.15049 5.32224 9.23001 5.46936 9.27331C5.61647 9.31662 5.7721 9.32234 5.922 9.28995L8.957 8.62895L13.735 3.79995C13.9056 3.62804 14.0011 3.39551 14.0005 3.15333C13.9999 2.91115 13.9034 2.67906 13.732 2.50795V2.50795Z" fill="#444A58"/>
<path d="M11.99 8.80991H11.582C11.3161 8.81384 11.0624 8.92196 10.8754 9.11102C10.6884 9.30008 10.583 9.55499 10.582 9.82091V11.5099H2.419V3.34891H4.106C4.37379 3.34864 4.63053 3.24215 4.81989 3.05279C5.00924 2.86344 5.11574 2.6067 5.116 2.33891V1.93091C5.11259 1.66502 5.00477 1.41114 4.81581 1.22405C4.62685 1.03696 4.37191 0.931674 4.106 0.930908H1.006C0.769702 0.933726 0.542037 1.02014 0.363379 1.17482C0.18472 1.32949 0.066612 1.54245 0.03 1.77591C0.0161448 1.82709 0.00611709 1.87924 0 1.93191L0 12.9189C0.00253412 13.1672 0.0973508 13.4057 0.266 13.5879C0.278 13.6009 0.283 13.6189 0.296 13.6319C0.309 13.6449 0.323 13.6479 0.335 13.6579C0.517905 13.8292 0.758441 13.9255 1.009 13.9279H11.99C12.2383 13.9254 12.4768 13.8306 12.659 13.6619C12.672 13.6499 12.691 13.6449 12.703 13.6319C12.715 13.6189 12.721 13.6009 12.733 13.5879C12.9018 13.4061 12.9969 13.168 13 12.9199V9.81991C12.9997 9.55212 12.8932 9.29538 12.7039 9.10602C12.5145 8.91667 12.2578 8.81017 11.99 8.80991V8.80991Z" fill="#444A58"/>
</g>
<defs>
<clipPath id="clip0_449_3644">
<rect width="14" height="14" fill="white"/>
</clipPath>
</defs>
</svg>
