<svg width="14" height="14" viewBox="0 0 14 14" fill="none" xmlns="http://www.w3.org/2000/svg">
<g clip-path="url(#clip0_449_3940)">
<path d="M13.275 11.7C13.1596 12.1941 12.8782 12.6337 12.4778 12.9454C12.0775 13.2571 11.5823 13.4222 11.075 13.413L7.548 13.261C5.048 12.909 4.628 10.629 4.628 8.71599V6.29299C4.6281 5.79304 4.81704 5.31157 5.157 4.94499L8.068 1.20799C8.5 0.738988 9.038 0.120988 9.707 1.12999C9.97395 1.4503 10.1378 1.84386 10.177 2.25899C10.1771 2.50734 10.1188 2.75224 10.007 2.97399L8.85 5.19199H12.793C12.9955 5.18853 13.1944 5.24489 13.365 5.35399C13.6042 5.50047 13.791 5.71877 13.8987 5.97773C14.0065 6.23669 14.0297 6.52307 13.965 6.79599L13.275 11.7Z" fill="#444A58"/>
<path d="M1.5 12.4221H2.9C2.9855 12.4216 3.06735 12.3874 3.12782 12.3269C3.18828 12.2665 3.22248 12.1846 3.223 12.0991L3.546 6.3711C3.54574 6.28551 3.51162 6.20351 3.4511 6.14299C3.39059 6.08247 3.30858 6.04836 3.223 6.0481H1.823C1.42574 6.04994 1.04528 6.20856 0.764374 6.48947C0.483467 6.77038 0.324841 7.15084 0.323 7.5481L0 10.9201C0.00131492 11.3177 0.159709 11.6987 0.440672 11.98C0.721635 12.2613 1.1024 12.4203 1.5 12.4221V12.4221Z" fill="#444A58"/>
</g>
<defs>
<clipPath id="clip0_449_3940">
<rect width="14" height="14" fill="white"/>
</clipPath>
</defs>
</svg>
