<svg width="14" height="14" viewBox="0 0 14 14" fill="none" xmlns="http://www.w3.org/2000/svg">
<g clip-path="url(#clip0_449_3630)">
<path d="M12.383 1.82202H4.451C4.19973 1.82191 3.95189 1.88031 3.72711 1.99261C3.50233 2.10492 3.3068 2.26803 3.156 2.46902L0.200003 6.41702C0.0739101 6.58523 0.00575256 6.7898 0.00575256 7.00002C0.00575256 7.21025 0.0739101 7.41481 0.200003 7.58302L3.161 11.531C3.3118 11.732 3.50733 11.8951 3.73211 12.0074C3.95689 12.1197 4.20473 12.1781 4.456 12.178H12.388C12.816 12.1762 13.2259 12.0049 13.5279 11.7017C13.83 11.3985 13.9997 10.988 14 10.56V3.44002C13.9997 3.01116 13.8293 2.59992 13.5262 2.29657C13.223 1.99322 12.8119 1.82255 12.383 1.82202V1.82202ZM9.811 5.92202L8.734 7.00002L9.811 8.07702C9.88574 8.14681 9.94567 8.23094 9.98722 8.32438C10.0288 8.41782 10.0511 8.51867 10.0528 8.62092C10.0546 8.72316 10.0357 8.82472 9.9974 8.91953C9.95908 9.01433 9.90206 9.10046 9.82975 9.17277C9.75744 9.24508 9.67132 9.30209 9.57651 9.34042C9.4817 9.37874 9.38015 9.39759 9.2779 9.39584C9.17565 9.39409 9.0748 9.37178 8.98136 9.33024C8.88792 9.28869 8.8038 9.22876 8.734 9.15402L7.657 8.07702L6.58 9.15402C6.50929 9.22494 6.42529 9.28123 6.33282 9.31968C6.24035 9.35813 6.14121 9.378 6.04106 9.37814C5.94091 9.37828 5.84172 9.35869 5.74914 9.32049C5.65656 9.2823 5.57242 9.22624 5.5015 9.15552C5.43059 9.08481 5.3743 9.00081 5.33584 8.90834C5.29739 8.81587 5.27753 8.71673 5.27739 8.61658C5.27725 8.51643 5.29684 8.41724 5.33503 8.32466C5.37323 8.23208 5.42929 8.14793 5.5 8.07702L6.58 7.00002L5.5 5.92302C5.35718 5.77967 5.27716 5.58546 5.27753 5.38311C5.27791 5.18076 5.35865 4.98684 5.502 4.84402C5.64535 4.7012 5.83956 4.62118 6.04192 4.62155C6.24427 4.62193 6.43818 4.70267 6.581 4.84602L7.657 5.92302L8.734 4.84602C8.8038 4.77128 8.88792 4.71135 8.98136 4.66981C9.0748 4.62826 9.17565 4.60595 9.2779 4.6042C9.38015 4.60245 9.4817 4.6213 9.57651 4.65962C9.67132 4.69795 9.75744 4.75496 9.82975 4.82727C9.90206 4.89958 9.95908 4.98571 9.9974 5.08052C10.0357 5.17533 10.0546 5.27688 10.0528 5.37912C10.0511 5.48137 10.0288 5.58222 9.98722 5.67566C9.94567 5.7691 9.88574 5.85323 9.811 5.92302V5.92202Z" fill="#444A58"/>
</g>
<defs>
<clipPath id="clip0_449_3630">
<rect width="14" height="14" fill="white"/>
</clipPath>
</defs>
</svg>
