<svg width="14" height="14" viewBox="0 0 14 14" fill="none" xmlns="http://www.w3.org/2000/svg">
<g clip-path="url(#clip0_449_3575)">
<path d="M13.227 12.99V1.01C13.2257 0.744251 13.1203 0.489603 12.9333 0.300756C12.7463 0.111908 12.4927 0.00392429 12.227 0L11.82 0C11.5524 0.000529275 11.2959 0.107141 11.1068 0.296467C10.9176 0.485793 10.8113 0.742386 10.811 1.01V12.99C10.8113 13.2571 10.9172 13.5132 11.1057 13.7025C11.2942 13.8917 11.5499 13.9987 11.817 14H12.225C12.4911 13.9966 12.7452 13.8888 12.9326 13.6999C13.12 13.511 13.2257 13.2561 13.227 12.99V12.99Z" fill="#444A58"/>
<path d="M8.294 12.99V1.01C8.29272 0.744251 8.18727 0.489603 8.00029 0.300756C7.81331 0.111908 7.55972 0.00392429 7.294 0H6.884C6.61639 0.000529275 6.3599 0.107141 6.17076 0.296467C5.98162 0.485793 5.87526 0.742386 5.875 1.01V12.99C5.87526 13.2576 5.98162 13.5142 6.17076 13.7035C6.3599 13.8929 6.61639 13.9995 6.884 14H7.292C7.55807 13.9966 7.81217 13.8888 7.99957 13.6999C8.18698 13.511 8.29271 13.2561 8.294 12.99V12.99Z" fill="#444A58"/>
<path d="M3.36 12.987V1.01C3.35872 0.744251 3.25326 0.489603 3.06628 0.300756C2.87931 0.111908 2.62572 0.00392429 2.36 0L1.951 0C1.68321 0.000264743 1.42647 0.10676 1.23711 0.296115C1.04776 0.485469 0.941261 0.742213 0.940996 1.01V12.987C0.940733 13.1199 0.966657 13.2515 1.01728 13.3743C1.06791 13.4971 1.14225 13.6087 1.23605 13.7028C1.32985 13.7969 1.44127 13.8716 1.56395 13.9226C1.68662 13.9736 1.81815 13.9999 1.951 14H2.359C2.62549 13.9966 2.87993 13.8884 3.06726 13.6988C3.25459 13.5092 3.35976 13.2535 3.36 12.987V12.987Z" fill="#444A58"/>
</g>
<defs>
<clipPath id="clip0_449_3575">
<rect width="14" height="14" fill="white"/>
</clipPath>
</defs>
</svg>
