<svg width="14" height="14" viewBox="0 0 14 14" fill="none" xmlns="http://www.w3.org/2000/svg">
<g clip-path="url(#clip0_449_3442)">
<path fill-rule="evenodd" clip-rule="evenodd" d="M12.4 5.77508C12.2663 4.56341 11.6961 3.44186 10.7958 2.61998C9.89553 1.79809 8.7268 1.3321 7.508 1.30908C6.57653 1.31933 5.66701 1.59321 4.88477 2.09901C4.10253 2.60481 3.47956 3.32185 3.088 4.16708C2.10358 4.46808 1.25745 5.10776 0.699466 5.97283C0.141484 6.8379 -0.0923372 7.87253 0.039413 8.89347C0.171163 9.91441 0.659983 10.8558 1.4193 11.5509C2.17861 12.2459 3.15942 12.6499 4.188 12.6911H10.314C10.8069 12.6829 11.2933 12.5776 11.7454 12.3812C12.1975 12.1848 12.6064 11.9011 12.9488 11.5465C13.2912 11.1919 13.5602 10.7732 13.7406 10.3145C13.921 9.85573 14.0091 9.36593 14 8.87308C13.9982 8.26679 13.8522 7.66963 13.574 7.13094C13.2958 6.59225 12.8934 6.12749 12.4 5.77508ZM9.155 6.47508L8.078 7.55208L9.154 8.62908C9.22472 8.69973 9.28083 8.78362 9.31912 8.87596C9.35742 8.96829 9.37715 9.06727 9.3772 9.16723C9.37725 9.26719 9.3576 9.36618 9.31939 9.45855C9.28118 9.55093 9.22515 9.63486 9.1545 9.70558C9.08385 9.7763 8.99996 9.83241 8.90763 9.8707C8.81529 9.909 8.71632 9.92874 8.61635 9.92878C8.51639 9.92883 8.4174 9.90919 8.32503 9.87097C8.23266 9.83276 8.14872 9.77673 8.078 9.70608L7 8.62908L5.925 9.70608C5.85428 9.77673 5.77034 9.83276 5.67797 9.87097C5.5856 9.90919 5.48661 9.92883 5.38665 9.92878C5.18476 9.92869 4.99119 9.8484 4.8485 9.70558C4.77785 9.63486 4.72182 9.55093 4.68361 9.45855C4.6454 9.36618 4.62575 9.26719 4.6258 9.16723C4.62589 8.96535 4.70618 8.77177 4.849 8.62908L5.925 7.55208L4.849 6.47508C4.71493 6.33071 4.64207 6.13997 4.64575 5.94299C4.64944 5.746 4.72938 5.55812 4.86876 5.41886C5.00814 5.27961 5.1961 5.19985 5.39309 5.19634C5.59008 5.19284 5.78076 5.26587 5.925 5.40008L7 6.47508L8.078 5.40008C8.22224 5.26587 8.41292 5.19284 8.60991 5.19634C8.8069 5.19985 8.99486 5.27961 9.13424 5.41886C9.27362 5.55812 9.35356 5.746 9.35724 5.94299C9.36093 6.13997 9.28807 6.33071 9.154 6.47508H9.155Z" fill="#444A58"/>
</g>
<defs>
<clipPath id="clip0_449_3442">
<rect width="14" height="14" fill="white"/>
</clipPath>
</defs>
</svg>
