<svg width="14" height="14" viewBox="0 0 14 14" fill="none" xmlns="http://www.w3.org/2000/svg">
<g clip-path="url(#clip0_449_3526)">
<path fill-rule="evenodd" clip-rule="evenodd" d="M12.25 14C12.5961 14 12.9345 13.8974 13.2222 13.7051C13.51 13.5128 13.7343 13.2395 13.8668 12.9197C13.9992 12.5999 14.0339 12.2481 13.9664 11.9086C13.8989 11.5691 13.7322 11.2573 13.4874 11.0126C13.2427 10.7678 12.9309 10.6012 12.5914 10.5336C12.2519 10.4661 11.9001 10.5008 11.5803 10.6332C11.2605 10.7657 10.9872 10.99 10.7949 11.2778C10.6026 11.5655 10.5 11.9039 10.5 12.25C10.4999 12.4799 10.545 12.7075 10.6329 12.9199C10.7208 13.1322 10.8497 13.3252 11.0123 13.4877C11.1748 13.6503 11.3678 13.7792 11.5801 13.8671C11.7925 13.955 12.0201 14.0001 12.25 14V14ZM12.25 8.75C12.5961 8.75 12.9345 8.64736 13.2222 8.45507C13.51 8.26278 13.7343 7.98947 13.8668 7.6697C13.9992 7.34993 14.0339 6.99806 13.9664 6.65859C13.8989 6.31913 13.7322 6.00731 13.4874 5.76256C13.2427 5.51782 12.9309 5.35115 12.5914 5.28363C12.2519 5.2161 11.9001 5.25076 11.5803 5.38321C11.2605 5.51566 10.9872 5.73997 10.7949 6.02775C10.6026 6.31554 10.5 6.65388 10.5 7C10.4999 7.22985 10.545 7.45747 10.6329 7.66985C10.7208 7.88223 10.8497 8.0752 11.0123 8.23773C11.1748 8.40026 11.3678 8.52916 11.5801 8.61706C11.7925 8.70496 12.0201 8.75013 12.25 8.75V8.75ZM12.25 3.5C12.5961 3.5 12.9345 3.39737 13.2222 3.20507C13.51 3.01278 13.7343 2.73947 13.8668 2.4197C13.9992 2.09993 14.0339 1.74806 13.9664 1.40859C13.8989 1.06913 13.7322 0.757306 13.4874 0.512564C13.2427 0.267822 12.9309 0.101151 12.5914 0.0336265C12.2519 -0.0338976 11.9001 0.00075826 11.5803 0.133212C11.2605 0.265665 10.9872 0.489967 10.7949 0.777753C10.6026 1.06554 10.5 1.40388 10.5 1.75C10.4999 1.97985 10.545 2.20747 10.6329 2.41985C10.7208 2.63223 10.8497 2.8252 11.0123 2.98773C11.1748 3.15026 11.3678 3.27916 11.5801 3.36706C11.7925 3.45496 12.0201 3.50013 12.25 3.5V3.5ZM7 14C7.34612 14 7.68446 13.8974 7.97225 13.7051C8.26003 13.5128 8.48434 13.2395 8.61679 12.9197C8.74924 12.5999 8.7839 12.2481 8.71637 11.9086C8.64885 11.5691 8.48218 11.2573 8.23744 11.0126C7.9927 10.7678 7.68088 10.6012 7.34141 10.5336C7.00194 10.4661 6.65008 10.5008 6.3303 10.6332C6.01053 10.7657 5.73722 10.99 5.54493 11.2778C5.35264 11.5655 5.25 11.9039 5.25 12.25C5.24987 12.4799 5.29504 12.7075 5.38294 12.9199C5.47084 13.1322 5.59974 13.3252 5.76227 13.4877C5.9248 13.6503 6.11777 13.7792 6.33015 13.8671C6.54253 13.955 6.77015 14.0001 7 14V14ZM7 8.75C7.34612 8.75 7.68446 8.64736 7.97225 8.45507C8.26003 8.26278 8.48434 7.98947 8.61679 7.6697C8.74924 7.34993 8.7839 6.99806 8.71637 6.65859C8.64885 6.31913 8.48218 6.00731 8.23744 5.76256C7.9927 5.51782 7.68088 5.35115 7.34141 5.28363C7.00194 5.2161 6.65008 5.25076 6.3303 5.38321C6.01053 5.51566 5.73722 5.73997 5.54493 6.02775C5.35264 6.31554 5.25 6.65388 5.25 7C5.24987 7.22985 5.29504 7.45747 5.38294 7.66985C5.47084 7.88223 5.59974 8.0752 5.76227 8.23773C5.9248 8.40026 6.11777 8.52916 6.33015 8.61706C6.54253 8.70496 6.77015 8.75013 7 8.75V8.75ZM7 3.5C7.34612 3.5 7.68446 3.39737 7.97225 3.20507C8.26003 3.01278 8.48434 2.73947 8.61679 2.4197C8.74924 2.09993 8.7839 1.74806 8.71637 1.40859C8.64885 1.06913 8.48218 0.757306 8.23744 0.512564C7.9927 0.267822 7.68088 0.101151 7.34141 0.0336265C7.00194 -0.0338976 6.65008 0.00075826 6.3303 0.133212C6.01053 0.265665 5.73722 0.489967 5.54493 0.777753C5.35264 1.06554 5.25 1.40388 5.25 1.75C5.24987 1.97985 5.29504 2.20747 5.38294 2.41985C5.47084 2.63223 5.59974 2.8252 5.76227 2.98773C5.9248 3.15026 6.11777 3.27916 6.33015 3.36706C6.54253 3.45496 6.77015 3.50013 7 3.5ZM1.75 14C2.09612 14 2.43446 13.8974 2.72225 13.7051C3.01003 13.5128 3.23434 13.2395 3.36679 12.9197C3.49924 12.5999 3.5339 12.2481 3.46637 11.9086C3.39885 11.5691 3.23218 11.2573 2.98744 11.0126C2.7427 10.7678 2.43088 10.6012 2.09141 10.5336C1.75194 10.4661 1.40007 10.5008 1.0803 10.6332C0.760534 10.7657 0.487221 10.99 0.294928 11.2778C0.102636 11.5655 2.86067e-07 11.9039 2.86067e-07 12.25C-0.00013117 12.4799 0.0450442 12.7075 0.132943 12.9199C0.220843 13.1322 0.349742 13.3252 0.51227 13.4877C0.674799 13.6503 0.86777 13.7792 1.08015 13.8671C1.29253 13.955 1.52015 14.0001 1.75 14V14ZM1.75 8.75C2.09612 8.75 2.43446 8.64736 2.72225 8.45507C3.01003 8.26278 3.23434 7.98947 3.36679 7.6697C3.49924 7.34993 3.5339 6.99806 3.46637 6.65859C3.39885 6.31913 3.23218 6.00731 2.98744 5.76256C2.7427 5.51782 2.43088 5.35115 2.09141 5.28363C1.75194 5.2161 1.40007 5.25076 1.0803 5.38321C0.760534 5.51566 0.487221 5.73997 0.294928 6.02775C0.102636 6.31554 2.86067e-07 6.65388 2.86067e-07 7C-0.00013117 7.22985 0.0450442 7.45747 0.132943 7.66985C0.220843 7.88223 0.349742 8.0752 0.51227 8.23773C0.674799 8.40026 0.86777 8.52916 1.08015 8.61706C1.29253 8.70496 1.52015 8.75013 1.75 8.75V8.75ZM1.75 3.5C2.09612 3.5 2.43446 3.39737 2.72225 3.20507C3.01003 3.01278 3.23434 2.73947 3.36679 2.4197C3.49924 2.09993 3.5339 1.74806 3.46637 1.40859C3.39885 1.06913 3.23218 0.757306 2.98744 0.512564C2.7427 0.267822 2.43088 0.101151 2.09141 0.0336265C1.75194 -0.0338976 1.40007 0.00075826 1.0803 0.133212C0.760534 0.265665 0.487221 0.489967 0.294928 0.777753C0.102636 1.06554 2.86067e-07 1.40388 2.86067e-07 1.75C-0.00013117 1.97985 0.0450442 2.20747 0.132943 2.41985C0.220843 2.63223 0.349742 2.8252 0.51227 2.98773C0.674799 3.15026 0.86777 3.27916 1.08015 3.36706C1.29253 3.45496 1.52015 3.50013 1.75 3.5V3.5Z" fill="#444A58"/>
</g>
<defs>
<clipPath id="clip0_449_3526">
<rect width="14" height="14" fill="white"/>
</clipPath>
</defs>
</svg>
