<svg width="14" height="14" viewBox="0 0 14 14" fill="none" xmlns="http://www.w3.org/2000/svg">
<g clip-path="url(#clip0_449_3822)">
<path d="M12.758 2.05396L7.373 0.0669637C7.13229 -0.0219957 6.86771 -0.0219957 6.627 0.0669637L1.242 2.05396C1.03625 2.13115 0.858976 2.26932 0.733883 2.44999C0.60879 2.63066 0.541844 2.84521 0.541997 3.06496V6.04696C0.491022 7.89871 1.09364 9.70928 2.24415 11.1611C3.39466 12.613 5.01961 13.6134 6.834 13.987C6.94656 14.0056 7.06143 14.0056 7.174 13.987C8.98839 13.6134 10.6133 12.613 11.7638 11.1611C12.9144 9.70928 13.517 7.89871 13.466 6.04696V3.06496C13.4655 2.84427 13.3974 2.62901 13.2708 2.44824C13.1442 2.26746 12.9652 2.12985 12.758 2.05396V2.05396Z" fill="#444A58"/>
</g>
<defs>
<clipPath id="clip0_449_3822">
<rect width="14" height="14" fill="white"/>
</clipPath>
</defs>
</svg>
