<svg width="14" height="14" viewBox="0 0 14 14" fill="none" xmlns="http://www.w3.org/2000/svg">
<g clip-path="url(#clip0_449_3717)">
<path d="M9.142 8.329H11.307V3.686C11.3124 3.53402 11.2872 3.38251 11.2329 3.24045C11.1786 3.09839 11.0963 2.96868 10.991 2.859C10.8804 2.75355 10.7498 2.67128 10.6069 2.61701C10.464 2.56275 10.3117 2.53758 10.159 2.543H4.859V1C4.859 0.734784 4.75365 0.48043 4.56611 0.292893C4.37857 0.105357 4.12422 0 3.859 0L3.67 0C3.40479 0 3.15043 0.105357 2.9629 0.292893C2.77536 0.48043 2.67 0.734784 2.67 1V2.543H2.262C1.908 2.543 1.562 2.543 1.206 2.543C1.05739 2.54471 0.910759 2.57734 0.77544 2.6388C0.64012 2.70026 0.519074 2.78921 0.420002 2.9C0.276561 3.05813 0.18291 3.25503 0.150755 3.46609C0.118601 3.67715 0.149369 3.89301 0.239215 4.08668C0.329061 4.28035 0.473998 4.44324 0.655909 4.55499C0.83782 4.66674 1.04863 4.7224 1.262 4.715H9.142V8.329Z" fill="#444A58"/>
<path d="M12.863 9.29391H4.83801V5.68091H2.67101V10.2999C2.65776 10.4563 2.67869 10.6137 2.73235 10.7612C2.78601 10.9087 2.87112 11.0427 2.98176 11.154C3.09241 11.2653 3.22594 11.3513 3.37311 11.4058C3.52027 11.4603 3.67754 11.4822 3.83401 11.4699H9.11601V12.9999C9.11601 13.2651 9.22136 13.5195 9.4089 13.707C9.59644 13.8946 9.85079 13.9999 10.116 13.9999H10.308C10.5732 13.9999 10.8276 13.8946 11.0151 13.707C11.2027 13.5195 11.308 13.2651 11.308 12.9999V11.4859H12.863C13.1282 11.4859 13.3826 11.3806 13.5701 11.193C13.7576 11.0055 13.863 10.7511 13.863 10.4859V10.2939C13.863 10.0287 13.7576 9.77434 13.5701 9.5868C13.3826 9.39926 13.1282 9.29391 12.863 9.29391Z" fill="#444A58"/>
</g>
<defs>
<clipPath id="clip0_449_3717">
<rect width="14" height="14" fill="white"/>
</clipPath>
</defs>
</svg>
