<svg width="14" height="14" viewBox="0 0 14 14" fill="none" xmlns="http://www.w3.org/2000/svg">
<g clip-path="url(#clip0_449_3862)">
<path fill-rule="evenodd" clip-rule="evenodd" d="M9.288 3.525V0.064L12.749 3.525H9.288ZM7.525 3.525C7.525 3.99258 7.71074 4.441 8.04137 4.77163C8.372 5.10226 8.82042 5.288 9.288 5.288H12.813V12.237C12.813 12.7046 12.6273 13.153 12.2966 13.4836C11.966 13.8143 11.5176 14 11.05 14H3.118C2.88585 14.0001 2.65596 13.9544 2.44155 13.8654C2.22714 13.7764 2.03242 13.6459 1.86859 13.4815C1.70476 13.317 1.57505 13.1217 1.48691 12.907C1.39878 12.6922 1.35394 12.4621 1.355 12.23V1.77C1.35447 1.30162 1.53982 0.852161 1.87036 0.520308C2.2009 0.188454 2.64962 0.00132431 3.118 0L7.525 0V3.525Z" fill="#444A58"/>
</g>
<defs>
<clipPath id="clip0_449_3862">
<rect width="14" height="14" fill="white"/>
</clipPath>
</defs>
</svg>
