<svg width="14" height="14" viewBox="0 0 14 14" fill="none" xmlns="http://www.w3.org/2000/svg">
<g clip-path="url(#clip0_449_3612)">
<path d="M1.012 1.20898H12.991C13.2567 1.21026 13.5114 1.31572 13.7002 1.5027C13.8891 1.68968 13.9971 1.94326 14.001 2.20898V2.61598C14.0005 2.8836 13.8939 3.14009 13.7045 3.32922C13.5152 3.51836 13.2586 3.62472 12.991 3.62498H1.012C0.744557 3.62525 0.487904 3.51954 0.298231 3.33099C0.108559 3.14244 0.00132253 2.88642 0 2.61898L0 2.21098C0.00341142 1.94457 0.111442 1.69017 0.300776 1.50271C0.49011 1.31525 0.745562 1.20975 1.012 1.20898V1.20898Z" fill="#444A58"/>
<path d="M1.012 5.79004H12.991C13.2567 5.79132 13.5114 5.89677 13.7002 6.08375C13.8891 6.27073 13.9971 6.52432 14.001 6.79004V7.20004C14.0007 7.46783 13.8942 7.72457 13.7049 7.91392C13.5155 8.10328 13.2588 8.20977 12.991 8.21004H1.012C0.879234 8.21017 0.747741 8.18415 0.625031 8.13346C0.50232 8.08278 0.390795 8.00842 0.296822 7.91463C0.202849 7.82084 0.128269 7.70947 0.0773403 7.58686C0.0264115 7.46425 0.000131257 7.33281 0 7.20004L0 6.79204C0.00341142 6.52562 0.111442 6.27123 0.300776 6.08377C0.49011 5.8963 0.745562 5.7908 1.012 5.79004Z" fill="#444A58"/>
<path d="M7.506 10.3721H12.991C13.2567 10.3734 13.5114 10.4788 13.7002 10.6658C13.8891 10.8528 13.9971 11.1063 14.001 11.3721V11.7781C14.0007 12.0459 13.8942 12.3026 13.7049 12.492C13.5155 12.6813 13.2588 12.7878 12.991 12.7881H7.506C7.23821 12.7878 6.98147 12.6813 6.79211 12.492C6.60276 12.3026 6.49626 12.0459 6.496 11.7781V11.3711C6.50018 11.1055 6.60828 10.8522 6.7971 10.6654C6.98592 10.4787 7.24042 10.3733 7.506 10.3721V10.3721Z" fill="#444A58"/>
</g>
<defs>
<clipPath id="clip0_449_3612">
<rect width="14" height="14" fill="white"/>
</clipPath>
</defs>
</svg>
