<svg width="14" height="14" viewBox="0 0 14 14" fill="none" xmlns="http://www.w3.org/2000/svg">
<g clip-path="url(#clip0_449_3640)">
<path d="M9.995 3.5H1.01C0.744251 3.50128 0.489603 3.60674 0.300756 3.79371C0.111908 3.98069 0.00392429 4.23428 0 4.5L0 4.906C0.000264743 5.17379 0.10676 5.43053 0.296115 5.61989C0.485469 5.80924 0.742213 5.91574 1.01 5.916H9.995C10.2628 5.91574 10.5195 5.80924 10.7089 5.61989C10.8982 5.43053 11.0047 5.17379 11.005 4.906V4.5C11.0016 4.23411 10.8938 3.98023 10.7048 3.79314C10.5159 3.60605 10.2609 3.50077 9.995 3.5V3.5Z" fill="#444A58"/>
<path d="M12.99 8.08105H1.01C0.744251 8.08233 0.489604 8.18779 0.300756 8.37477C0.111908 8.56175 0.00392479 8.81533 4.95094e-07 9.08105V9.48805C-0.000130892 9.62082 0.0258893 9.75231 0.0765755 9.87502C0.127262 9.99773 0.201621 10.1093 0.295408 10.2032C0.389195 10.2972 0.500574 10.3718 0.623184 10.4227C0.745793 10.4736 0.877234 10.4999 1.01 10.5001H12.99C13.2576 10.4998 13.5142 10.3934 13.7035 10.2043C13.8929 10.0152 13.9995 9.75867 14 9.49105V9.08305C13.9966 8.81698 13.8888 8.56289 13.6999 8.37548C13.511 8.18807 13.2561 8.08234 12.99 8.08105V8.08105Z" fill="#444A58"/>
</g>
<defs>
<clipPath id="clip0_449_3640">
<rect width="14" height="14" fill="white"/>
</clipPath>
</defs>
</svg>
