<svg width="14" height="14" viewBox="0 0 14 14" fill="none" xmlns="http://www.w3.org/2000/svg">
<g clip-path="url(#clip0_449_3918)">
<path fill-rule="evenodd" clip-rule="evenodd" d="M12.534 11.0001C12.1495 11.0034 11.7781 10.8604 11.495 10.6001L7 6.34812L2.506 10.6001C2.2233 10.8606 1.85293 11.0053 1.4685 11.0053C1.08407 11.0053 0.713704 10.8606 0.431001 10.6001C0.295322 10.4754 0.187011 10.3238 0.112923 10.155C0.0388342 9.98625 0.000579834 9.80394 0.000579834 9.61962C0.000579834 9.4353 0.0388342 9.25298 0.112923 9.08421C0.187011 8.91544 0.295322 8.76388 0.431001 8.63912L5.963 3.40712C6.24472 3.14544 6.615 3 6.9995 3C7.38401 3 7.75428 3.14544 8.036 3.40712L13.57 8.63412C13.7057 8.75887 13.814 8.91044 13.8881 9.07921C13.9622 9.24798 14.0004 9.4303 14.0004 9.61462C14.0004 9.79894 13.9622 9.98125 13.8881 10.15C13.814 10.3188 13.7057 10.4704 13.57 10.5951C13.2878 10.8549 12.9175 10.9978 12.534 10.9951" fill="#444A58"/>
</g>
<defs>
<clipPath id="clip0_449_3918">
<rect width="14" height="14" fill="white"/>
</clipPath>
</defs>
</svg>
