<svg width="14" height="14" viewBox="0 0 14 14" fill="none" xmlns="http://www.w3.org/2000/svg">
<g clip-path="url(#clip0_449_4032)">
<path d="M7 0C6.76794 0 6.54538 0.0921872 6.38128 0.256282C6.21719 0.420376 6.125 0.642936 6.125 0.875V2.625C6.125 2.85706 6.21719 3.07962 6.38128 3.24372C6.54538 3.40781 6.76794 3.5 7 3.5C7.23206 3.5 7.45462 3.40781 7.61872 3.24372C7.78281 3.07962 7.875 2.85706 7.875 2.625V0.875C7.875 0.642936 7.78281 0.420376 7.61872 0.256282C7.45462 0.0921872 7.23206 0 7 0V0Z" fill="#444A58"/>
<path d="M7 10.5C6.76794 10.5 6.54538 10.5922 6.38128 10.7563C6.21719 10.9204 6.125 11.1429 6.125 11.375V13.125C6.125 13.3571 6.21719 13.5796 6.38128 13.7437C6.54538 13.9078 6.76794 14 7 14C7.23206 14 7.45462 13.9078 7.61872 13.7437C7.78281 13.5796 7.875 13.3571 7.875 13.125V11.375C7.875 11.1429 7.78281 10.9204 7.61872 10.7563C7.45462 10.5922 7.23206 10.5 7 10.5V10.5Z" fill="#444A58"/>
<path d="M10.093 4.78099C10.208 4.78123 10.3218 4.75873 10.4281 4.7148C10.5343 4.67086 10.6308 4.60636 10.712 4.52499L11.95 3.28799C12.1142 3.12395 12.2064 2.90142 12.2065 2.66934C12.2066 2.43727 12.1145 2.21466 11.9505 2.05049C11.7865 1.88632 11.5639 1.79404 11.3318 1.79395C11.0998 1.79385 10.8772 1.88595 10.713 2.04999L9.47499 3.28699C9.35257 3.4093 9.26916 3.56517 9.23532 3.73489C9.20148 3.9046 9.21873 4.08054 9.28488 4.24045C9.35102 4.40037 9.46311 4.53707 9.60695 4.63329C9.75079 4.7295 9.91994 4.7809 10.093 4.78099V4.78099Z" fill="#444A58"/>
<path d="M3.28799 9.47497L2.04999 10.712C1.88582 10.8761 1.79359 11.0988 1.79359 11.331C1.79359 11.5631 1.88582 11.7858 2.04999 11.95C2.21416 12.1141 2.43682 12.2064 2.66899 12.2064C2.90116 12.2064 3.12382 12.1141 3.28799 11.95L4.52499 10.712C4.60979 10.6316 4.67763 10.535 4.72449 10.4279C4.77136 10.3209 4.7963 10.2055 4.79785 10.0887C4.79941 9.9718 4.77754 9.85582 4.73353 9.74756C4.68953 9.63929 4.62429 9.54094 4.54165 9.45831C4.45902 9.37567 4.36066 9.31043 4.2524 9.26643C4.14414 9.22242 4.02816 9.20055 3.91131 9.2021C3.79445 9.20366 3.6791 9.2286 3.57204 9.27547C3.46499 9.32233 3.3684 9.39016 3.28799 9.47497V9.47497Z" fill="#444A58"/>
<path d="M13.125 6.125H11.375C11.1429 6.125 10.9204 6.21719 10.7563 6.38128C10.5922 6.54538 10.5 6.76794 10.5 7C10.5 7.23206 10.5922 7.45462 10.7563 7.61872C10.9204 7.78281 11.1429 7.875 11.375 7.875H13.125C13.3571 7.875 13.5796 7.78281 13.7437 7.61872C13.9078 7.45462 14 7.23206 14 7C14 6.76794 13.9078 6.54538 13.7437 6.38128C13.5796 6.21719 13.3571 6.125 13.125 6.125V6.125Z" fill="#444A58"/>
<path d="M3.5 7C3.5 6.76794 3.40781 6.54538 3.24372 6.38128C3.07962 6.21719 2.85706 6.125 2.625 6.125H0.875C0.642936 6.125 0.420376 6.21719 0.256282 6.38128C0.0921872 6.54538 0 6.76794 0 7C0 7.23206 0.0921872 7.45462 0.256282 7.61872C0.420376 7.78281 0.642936 7.875 0.875 7.875H2.625C2.85706 7.875 3.07962 7.78281 3.24372 7.61872C3.40781 7.45462 3.5 7.23206 3.5 7V7Z" fill="#444A58"/>
<path d="M10.712 9.47504C10.5478 9.311 10.3252 9.2189 10.0932 9.21899C9.86107 9.21909 9.63854 9.31137 9.4745 9.47554C9.31047 9.63971 9.21837 9.86232 9.21846 10.0944C9.21855 10.3265 9.31084 10.549 9.47501 10.713L10.713 11.95C10.8772 12.1141 11.0998 12.2062 11.3319 12.2061C11.5639 12.206 11.7865 12.1137 11.9505 11.9495C12.1145 11.7854 12.2066 11.5628 12.2065 11.3307C12.2065 11.0986 12.1142 10.8761 11.95 10.712L10.712 9.47504Z" fill="#444A58"/>
<path d="M3.28799 2.04998C3.2067 1.96869 3.1102 1.90421 3.00399 1.86021C2.89778 1.81622 2.78395 1.79358 2.66899 1.79358C2.55403 1.79358 2.4402 1.81622 2.33399 1.86021C2.22778 1.90421 2.13128 1.96869 2.04999 2.04998C1.88582 2.21415 1.79359 2.43681 1.79359 2.66898C1.79359 2.90115 1.88582 3.12381 2.04999 3.28798L3.28799 4.52498C3.3684 4.60978 3.46499 4.67761 3.57204 4.72448C3.6791 4.77134 3.79445 4.79629 3.91131 4.79784C4.02816 4.79939 4.14414 4.77752 4.2524 4.73352C4.36066 4.68951 4.45902 4.62427 4.54165 4.54164C4.62429 4.459 4.68953 4.36065 4.73353 4.25239C4.77754 4.14412 4.79941 4.02814 4.79785 3.91129C4.7963 3.79444 4.77136 3.67908 4.72449 3.57203C4.67763 3.46497 4.60979 3.36839 4.52499 3.28798L3.28799 2.04998Z" fill="#444A58"/>
</g>
<defs>
<clipPath id="clip0_449_4032">
<rect width="14" height="14" fill="white"/>
</clipPath>
</defs>
</svg>
