<svg width="14" height="14" viewBox="0 0 14 14" fill="none" xmlns="http://www.w3.org/2000/svg">
<g clip-path="url(#clip0_449_3466)">
<path fill-rule="evenodd" clip-rule="evenodd" d="M12.4 5.77508C12.2661 4.56316 11.6955 3.44146 10.7948 2.61957C9.89418 1.79768 8.72509 1.33184 7.50601 1.30908C6.57465 1.31928 5.66525 1.59315 4.88316 2.09897C4.10106 2.60479 3.4783 3.32185 3.087 4.16708C2.10143 4.46697 1.25396 5.10631 0.694972 5.97166C0.135982 6.837 -0.0983808 7.87239 0.0334691 8.89411C0.165319 9.91583 0.654856 10.8578 1.41521 11.5529C2.17557 12.248 3.15759 12.6512 4.18701 12.6911H10.312C10.805 12.6831 11.2917 12.578 11.744 12.3817C12.1963 12.1855 12.6055 11.9019 12.9481 11.5472C13.2907 11.1926 13.5599 10.7738 13.7404 10.3149C13.9209 9.85606 14.0091 9.36609 14 8.87308C13.9981 8.26682 13.852 7.66972 13.5738 7.13105C13.2956 6.59239 12.8932 6.12761 12.4 5.77508V5.77508ZM9.674 8.00008L7.30001 10.3771C7.22035 10.4565 7.11247 10.501 7.00001 10.501C6.88754 10.501 6.77967 10.4565 6.70001 10.3771L4.32601 8.00008C4.26643 7.9407 4.22582 7.86498 4.20931 7.7825C4.1928 7.70003 4.20114 7.61451 4.23326 7.53677C4.26538 7.45904 4.31985 7.39258 4.38976 7.34582C4.45968 7.29906 4.54189 7.27409 4.62601 7.27408H6.15001V5.26008C6.15001 5.03465 6.23956 4.81845 6.39896 4.65904C6.55837 4.49964 6.77457 4.41008 7.00001 4.41008C7.22544 4.41008 7.44164 4.49964 7.60105 4.65904C7.76045 4.81845 7.85001 5.03465 7.85001 5.26008V7.27608H9.373C9.45658 7.27675 9.53812 7.30199 9.60745 7.34866C9.67679 7.39532 9.73087 7.46136 9.76296 7.53853C9.79504 7.61571 9.80372 7.70062 9.7879 7.78269C9.77208 7.86475 9.73247 7.94036 9.674 8.00008Z" fill="#444A58"/>
</g>
<defs>
<clipPath id="clip0_449_3466">
<rect width="14" height="14" fill="white"/>
</clipPath>
</defs>
</svg>
