<svg width="14" height="14" viewBox="0 0 14 14" fill="none" xmlns="http://www.w3.org/2000/svg">
<g clip-path="url(#clip0_449_3944)">
<path d="M9.869 0H7.4C7.4 0 7.368 9.472 7.346 9.7C7.27693 10.2038 7.01571 10.6614 6.617 10.977C6.24987 11.2851 5.79002 11.4611 5.311 11.477C4.74118 11.4709 4.19568 11.2452 3.7881 10.8469C3.38052 10.4487 3.14228 9.90853 3.123 9.339C3.1371 8.82283 3.33322 8.32826 3.67669 7.9427C4.02017 7.55713 4.48888 7.30541 5 7.232C5.112 7.223 5.271 7.219 5.424 7.216V4.706C5.05364 4.70031 4.68342 4.72473 4.317 4.779C3.37249 4.97783 2.51255 5.46383 1.85501 6.17043C1.19746 6.87702 0.774479 7.76964 0.644004 8.726C0.532031 9.46359 0.606619 10.2175 0.860956 10.9188C1.11529 11.6202 1.54127 12.2466 2.1 12.741C2.83253 13.4341 3.77295 13.8667 4.77592 13.9719C5.7789 14.0771 6.7886 13.8491 7.649 13.323C8.33655 12.9298 8.90689 12.3604 9.3013 11.6735C9.69571 10.9866 9.89996 10.207 9.893 9.415C9.923 7.768 9.917 5.04 9.924 4.915C10.9436 5.6239 12.1513 6.01279 13.393 6.032V3.581C11.348 3.237 10.063 2.17 9.869 0Z" fill="#444A58"/>
</g>
<defs>
<clipPath id="clip0_449_3944">
<rect width="14" height="14" fill="white"/>
</clipPath>
</defs>
</svg>
