<svg width="14" height="14" viewBox="0 0 14 14" fill="none" xmlns="http://www.w3.org/2000/svg">
<g clip-path="url(#clip0_449_3444)">
<path d="M7 14C5.72985 14.0004 4.48352 13.6552 3.39457 13.0014C2.30562 12.3476 1.41509 11.4098 0.818386 10.2885C0.221686 9.16724 -0.0586894 7.90475 0.00730263 6.63631C0.0732946 5.36787 0.483167 4.14129 1.193 3.088C1.2918 2.9512 1.41936 2.83768 1.56671 2.75543C1.71406 2.67318 1.87763 2.62419 2.04593 2.61189C2.21424 2.5996 2.38319 2.6243 2.54093 2.68427C2.69867 2.74423 2.84137 2.83801 2.959 2.959V2.959C3.1497 3.15625 3.26624 3.41343 3.28885 3.68686C3.31145 3.96029 3.23872 4.23311 3.083 4.459C2.62659 5.16359 2.36868 5.97824 2.33644 6.81712C2.30421 7.656 2.49885 8.48805 2.89984 9.22558C3.30084 9.96312 3.89336 10.5788 4.61495 11.0079C5.33655 11.4369 6.1605 11.6633 7 11.6633C7.8395 11.6633 8.66346 11.4369 9.38505 11.0079C10.1066 10.5788 10.6992 9.96312 11.1002 9.22558C11.5012 8.48805 11.6958 7.656 11.6636 6.81712C11.6313 5.97824 11.3734 5.16359 10.917 4.459C10.7613 4.23311 10.6885 3.96029 10.7112 3.68686C10.7338 3.41343 10.8503 3.15625 11.041 2.959V2.959C11.1586 2.83801 11.3013 2.74423 11.4591 2.68427C11.6168 2.6243 11.7858 2.5996 11.9541 2.61189C12.1224 2.62419 12.2859 2.67318 12.4333 2.75543C12.5806 2.83768 12.7082 2.9512 12.807 3.088C13.5168 4.14129 13.9267 5.36787 13.9927 6.63631C14.0587 7.90475 13.7783 9.16724 13.1816 10.2885C12.5849 11.4098 11.6944 12.3476 10.6054 13.0014C9.51648 13.6552 8.27015 14.0004 7 14V14ZM7 7C6.84671 7.00013 6.6949 6.97004 6.55325 6.91144C6.41161 6.85283 6.28291 6.76688 6.17451 6.65849C6.06612 6.5501 5.98017 6.42139 5.92157 6.27975C5.86296 6.1381 5.83287 5.98629 5.833 5.833V1.167C5.83287 1.01371 5.86296 0.8619 5.92157 0.720253C5.98017 0.578607 6.06612 0.449906 6.17451 0.341513C6.28291 0.233121 6.41161 0.147166 6.55325 0.0885651C6.6949 0.0299645 6.84671 -0.000131093 7 4.29224e-07V4.29224e-07C7.15321 3.7288e-07 7.30491 0.030193 7.44644 0.0888525C7.58797 0.147512 7.71655 0.233488 7.82484 0.341867C7.93313 0.450246 8.01899 0.578903 8.07753 0.720484C8.13607 0.862066 8.16613 1.0138 8.166 1.167V5.833C8.16613 5.98621 8.13607 6.13794 8.07753 6.27952C8.01899 6.4211 7.93313 6.54975 7.82484 6.65813C7.71655 6.76651 7.58797 6.85249 7.44644 6.91115C7.30491 6.96981 7.15321 7 7 7V7Z" fill="#444A58"/>
</g>
<defs>
<clipPath id="clip0_449_3444">
<rect width="14" height="14" fill="white"/>
</clipPath>
</defs>
</svg>
