<svg width="14" height="14" viewBox="0 0 14 14" fill="none" xmlns="http://www.w3.org/2000/svg">
<g clip-path="url(#clip0_449_3908)">
<path fill-rule="evenodd" clip-rule="evenodd" d="M11.612 8.38494L6.612 13.5849C6.38119 13.7956 6.09399 13.9345 5.78553 13.9845C5.47706 14.0346 5.1607 13.9936 4.87511 13.8668C4.58953 13.7399 4.34711 13.5325 4.17748 13.2701C4.00786 13.0076 3.91839 12.7014 3.92 12.3889V1.61094C3.92005 1.29975 4.01039 0.995252 4.18008 0.73439C4.34976 0.473528 4.59149 0.267506 4.87595 0.141315C5.16041 0.0151238 5.47537 -0.025815 5.78264 0.0234643C6.08991 0.0727435 6.37627 0.210123 6.607 0.41894L11.612 5.61894C11.8046 5.7942 11.9584 6.00774 12.0637 6.24589C12.169 6.48404 12.2234 6.74156 12.2234 7.00194C12.2234 7.26232 12.169 7.51984 12.0637 7.75799C11.9584 7.99614 11.8046 8.20968 11.612 8.38494Z" fill="#444A58"/>
</g>
<defs>
<clipPath id="clip0_449_3908">
<rect width="14" height="14" fill="white"/>
</clipPath>
</defs>
</svg>
