<svg width="14" height="14" viewBox="0 0 14 14" fill="none" xmlns="http://www.w3.org/2000/svg">
<g clip-path="url(#clip0_449_3498)">
<path fill-rule="evenodd" clip-rule="evenodd" d="M12.519 6.00001L13.505 5.46801C13.5787 5.42919 13.6439 5.37605 13.6968 5.31171C13.7497 5.24737 13.7893 5.17312 13.8131 5.0933C13.8369 5.01349 13.8446 4.92972 13.8357 4.8469C13.8267 4.76409 13.8013 4.68389 13.761 4.61101L12.686 2.66901C12.6036 2.52099 12.466 2.41148 12.3033 2.3643C12.1406 2.31711 11.9658 2.33605 11.817 2.41701L10.828 2.95201C10.6569 3.02813 10.4697 3.06093 10.2829 3.0475C10.0961 3.03407 9.91546 2.97483 9.757 2.87501C9.622 2.78801 9.484 2.70801 9.346 2.63401C9.18113 2.54669 9.04097 2.41915 8.93853 2.26321C8.83609 2.10728 8.77468 1.928 8.76 1.74201V0.633007C8.75974 0.549533 8.74302 0.46693 8.71081 0.389923C8.67859 0.312916 8.63151 0.243017 8.57225 0.184224C8.51299 0.125432 8.44273 0.0788993 8.36547 0.0472894C8.28821 0.0156795 8.20548 -0.000387676 8.122 7.10205e-06H5.88C5.71167 -0.000259443 5.5501 0.0662186 5.4307 0.184872C5.31129 0.303526 5.2438 0.464676 5.243 0.633007V1.74601C5.22812 1.93143 5.16671 2.1101 5.06446 2.26549C4.9622 2.42089 4.82241 2.54798 4.658 2.63501C4.548 2.69401 4.438 2.75701 4.331 2.82401C4.17014 2.92053 3.98791 2.97578 3.80053 2.98485C3.61315 2.99393 3.42644 2.95653 3.257 2.87601L2.5 2.44901C2.35333 2.36506 2.1795 2.34223 2.01613 2.38546C1.85275 2.42869 1.71297 2.53451 1.627 2.68001L0.509004 4.60001C0.467161 4.67188 0.440085 4.75139 0.429362 4.83387C0.41864 4.91634 0.424486 5.00013 0.446558 5.08031C0.468631 5.1605 0.506485 5.23548 0.557904 5.30085C0.609323 5.36622 0.673272 5.42067 0.746004 5.46101L1.502 5.89201C1.6573 5.99404 1.78399 6.13401 1.87008 6.29868C1.95618 6.46334 1.99883 6.64726 1.994 6.83301C1.994 6.91401 1.994 6.99101 1.994 7.07101C1.99368 7.25665 1.94638 7.43919 1.85651 7.60163C1.76663 7.76406 1.63711 7.90111 1.48 8.00001L0.500004 8.53401C0.426289 8.57281 0.361075 8.62595 0.308195 8.69032C0.255315 8.75469 0.215836 8.82898 0.192079 8.90882C0.168321 8.98866 0.160765 9.07245 0.169854 9.15526C0.178943 9.23806 0.204493 9.31822 0.245004 9.39101L1.314 11.33C1.39644 11.478 1.53396 11.5875 1.69668 11.6347C1.8594 11.6819 2.03417 11.663 2.183 11.582L3.176 11.047C3.34625 10.9702 3.53296 10.937 3.71925 10.9504C3.90555 10.9639 4.08555 11.0235 4.243 11.124C4.378 11.211 4.516 11.292 4.658 11.365C4.8224 11.4528 4.96212 11.5805 5.06433 11.7364C5.16654 11.8922 5.22798 12.0712 5.243 12.257V13.367C5.24406 13.5354 5.31178 13.6966 5.43134 13.8152C5.5509 13.9338 5.71258 14.0003 5.881 14H8.122C8.2906 14.0005 8.45253 13.9342 8.57231 13.8156C8.69209 13.6969 8.75995 13.5356 8.761 13.367V12.253C8.77476 12.0674 8.83573 11.8884 8.93811 11.733C9.0405 11.5776 9.1809 11.4509 9.346 11.365C9.456 11.305 9.565 11.242 9.672 11.176C9.83305 11.0795 10.0154 11.0242 10.203 11.0152C10.3905 11.0061 10.5774 11.0435 10.747 11.124L11.502 11.55C11.6485 11.6339 11.8222 11.6567 11.9854 11.6135C12.1486 11.5702 12.2882 11.4644 12.374 11.319L13.491 9.40001C13.5327 9.32803 13.5596 9.24848 13.5702 9.16599C13.5807 9.08351 13.5748 8.99974 13.5526 8.91958C13.5305 8.83943 13.4925 8.76449 13.4411 8.69914C13.3897 8.6338 13.3257 8.57936 13.253 8.53901L12.495 8.10901C12.3413 8.0053 12.2159 7.8648 12.1303 7.70027C12.0447 7.53575 12.0017 7.35243 12.005 7.16701C12.005 7.08701 12.005 7.00701 12.005 6.92601C12.0058 6.74087 12.0534 6.55895 12.1432 6.39708C12.2331 6.23521 12.3623 6.09863 12.519 6.00001V6.00001ZM7 9.46401C6.51398 9.4571 6.04085 9.30667 5.64009 9.0316C5.23933 8.75654 4.92884 8.36913 4.74765 7.91809C4.56647 7.46705 4.52268 6.97251 4.62179 6.49665C4.7209 6.02078 4.95848 5.58485 5.30467 5.24364C5.65086 4.90244 6.0902 4.6712 6.56745 4.579C7.0447 4.48681 7.53855 4.53777 7.98692 4.72547C8.43528 4.91318 8.81815 5.22926 9.08737 5.63396C9.35659 6.03867 9.50015 6.51393 9.5 7.00001C9.49817 7.3261 9.432 7.64863 9.30527 7.9491C9.17854 8.24957 8.99375 8.52207 8.7615 8.75098C8.52925 8.97989 8.25409 9.1607 7.95182 9.28306C7.64954 9.40542 7.32609 9.46691 7 9.46401V9.46401Z" fill="#444A58"/>
</g>
<defs>
<clipPath id="clip0_449_3498">
<rect width="14" height="14" fill="white"/>
</clipPath>
</defs>
</svg>
