<svg width="14" height="14" viewBox="0 0 14 14" fill="none" xmlns="http://www.w3.org/2000/svg">
<g clip-path="url(#clip0_449_3896)">
<path fill-rule="evenodd" clip-rule="evenodd" d="M2.872 7.17902L5.917 10.26L5.959 1.06602C5.95953 0.925333 5.98779 0.786134 6.04217 0.656385C6.09655 0.526636 6.17599 0.408885 6.27593 0.309872C6.37587 0.210858 6.49436 0.132525 6.62461 0.0793567C6.75486 0.026188 6.89432 -0.000772996 7.035 1.68656e-05V1.68656e-05C7.1756 0.00067166 7.31469 0.0290302 7.44433 0.0834714C7.57396 0.137913 7.69159 0.217369 7.7905 0.317298C7.88941 0.417228 7.96765 0.535671 8.02076 0.665856C8.07386 0.796042 8.10079 0.935418 8.1 1.07602L8.059 10.268L11.135 7.22802C11.2348 7.12893 11.3531 7.05048 11.4832 6.99715C11.6133 6.94383 11.7526 6.91666 11.8932 6.91722C12.0339 6.91778 12.173 6.94604 12.3027 7.0004C12.4323 7.05476 12.55 7.13414 12.649 7.23402V7.23402C12.8488 7.43594 12.9603 7.70891 12.959 7.99297C12.9577 8.27702 12.8437 8.54895 12.642 8.74902L7.593 13.749C7.42723 13.9129 7.20316 14.0042 6.97005 14.0029C6.73695 14.0016 6.51391 13.9078 6.35 13.742L1.35 8.68902C1.15027 8.48726 1.03881 8.21446 1.04012 7.93057C1.04143 7.64667 1.15541 7.37491 1.357 7.17502V7.17502C1.45672 7.07577 1.57502 6.99714 1.70514 6.94363C1.83525 6.89012 1.97464 6.86277 2.11533 6.86314C2.25602 6.86351 2.39526 6.8916 2.52509 6.9458C2.65492 7 2.77281 7.07925 2.872 7.17902V7.17902Z" fill="#444A58"/>
</g>
<defs>
<clipPath id="clip0_449_3896">
<rect width="14" height="14" fill="white"/>
</clipPath>
</defs>
</svg>
