<svg width="14" height="14" viewBox="0 0 14 14" fill="none" xmlns="http://www.w3.org/2000/svg">
<g clip-path="url(#clip0_449_4020)">
<path d="M11.5 8.20895C10.7693 8.20994 10.0472 8.36693 9.38208 8.66941C8.71692 8.9719 8.12402 9.41291 7.643 9.96296V7.51396C8.3692 7.41045 9.05903 7.13079 9.65229 6.69939C10.2456 6.26799 10.7242 5.69795 11.0465 5.03903C11.3689 4.3801 11.525 3.6523 11.5014 2.91915C11.4778 2.186 11.2751 1.46976 10.911 0.832955C10.8617 0.747645 10.7934 0.674818 10.7114 0.620101C10.6294 0.565384 10.536 0.530242 10.4383 0.517387C10.3406 0.504533 10.2412 0.514312 10.1479 0.545967C10.0545 0.577623 9.96973 0.630309 9.9 0.699955L8.933 1.66696L7.455 0.188955C7.39535 0.129029 7.32445 0.0814762 7.24636 0.0490287C7.16828 0.0165812 7.08456 -0.00012207 7 -0.00012207C6.91545 -0.00012207 6.83172 0.0165812 6.75364 0.0490287C6.67556 0.0814762 6.60466 0.129029 6.545 0.188955L5.07 1.66396L4.1 0.699955C4.03027 0.630309 3.94547 0.577623 3.85214 0.545967C3.75881 0.514312 3.65945 0.504533 3.56174 0.517387C3.46403 0.530242 3.37058 0.565384 3.28861 0.620101C3.20664 0.674818 3.13835 0.747645 3.089 0.832955C2.72493 1.46976 2.52224 2.186 2.49861 2.91915C2.47499 3.6523 2.63114 4.3801 2.95346 5.03903C3.27577 5.69795 3.75445 6.26799 4.34771 6.69939C4.94098 7.13079 5.63081 7.41045 6.357 7.51396V9.96296C5.87599 9.41291 5.28308 8.9719 4.61793 8.66941C3.95277 8.36693 3.2307 8.20994 2.5 8.20895C2.41548 8.20882 2.33176 8.22536 2.25363 8.25761C2.1755 8.28987 2.1045 8.33721 2.04469 8.39693C1.98487 8.45665 1.93742 8.52758 1.90504 8.60566C1.87267 8.68374 1.856 8.76743 1.856 8.85196C1.856 10.2178 2.39859 11.5277 3.3644 12.4936C4.33022 13.4594 5.64014 14.002 7.006 14.002C8.37187 14.002 9.68179 13.4594 10.6476 12.4936C11.6134 11.5277 12.156 10.2178 12.156 8.85196C12.156 8.76641 12.139 8.68172 12.1058 8.60285C12.0727 8.52398 12.0242 8.45251 11.9631 8.39263C11.902 8.33275 11.8296 8.28566 11.7501 8.25412C11.6705 8.22258 11.5855 8.20723 11.5 8.20895V8.20895Z" fill="#444A58"/>
</g>
<defs>
<clipPath id="clip0_449_4020">
<rect width="14" height="14" fill="white"/>
</clipPath>
</defs>
</svg>
