<svg width="14" height="14" viewBox="0 0 14 14" fill="none" xmlns="http://www.w3.org/2000/svg">
<g clip-path="url(#clip0_449_3991)">
<path d="M0.845001 11.949V10.943C0.863658 10.5765 0.982146 10.2221 1.18765 9.91804C1.39316 9.61401 1.67787 9.37194 2.011 9.218V9.218C5.21269 7.93196 8.78732 7.93196 11.989 9.218V9.218C12.3221 9.37194 12.6068 9.61401 12.8123 9.91804C13.0179 10.2221 13.1363 10.5765 13.155 10.943V11.949C13.1549 12.2186 13.1016 12.4856 12.9982 12.7347C12.8949 12.9837 12.7434 13.2099 12.5526 13.4004C12.3617 13.5909 12.1352 13.7419 11.886 13.8448C11.6367 13.9476 11.3696 14.0004 11.1 14H2.9C2.63036 14.0004 2.36329 13.9476 2.11404 13.8448C1.8648 13.7419 1.63828 13.5909 1.44743 13.4004C1.25658 13.2099 1.10514 12.9837 1.00177 12.7347C0.898405 12.4856 0.845132 12.2186 0.845001 11.949V11.949ZM7 1.46266e-07C6.32355 -0.000197647 5.66223 0.200214 5.09968 0.575888C4.53713 0.951562 4.09863 1.48562 3.83962 2.11053C3.58062 2.73544 3.51275 3.42311 3.64459 4.0866C3.77644 4.75008 4.10209 5.35956 4.58034 5.83795C5.0586 6.31635 5.66798 6.64217 6.33142 6.77421C6.99487 6.90625 7.68257 6.83859 8.30755 6.57976C8.93253 6.32094 9.46672 5.88259 9.84256 5.32015C10.2184 4.75772 10.419 4.09645 10.419 3.42C10.4191 2.97093 10.3308 2.52623 10.159 2.1113C9.98727 1.69637 9.73545 1.31935 9.41795 1.00176C9.10046 0.684166 8.7235 0.432235 8.30863 0.260352C7.89375 0.0884683 7.44907 1.27058e-07 7 1.46266e-07V1.46266e-07Z" fill="#444A58"/>
</g>
<defs>
<clipPath id="clip0_449_3991">
<rect width="14" height="14" fill="white"/>
</clipPath>
</defs>
</svg>
