<svg width="14" height="14" viewBox="0 0 14 14" fill="none" xmlns="http://www.w3.org/2000/svg">
<g clip-path="url(#clip0_449_4012)">
<path fill-rule="evenodd" clip-rule="evenodd" d="M7 4.17C7.55972 4.17 8.10687 4.33598 8.57226 4.64694C9.03765 4.95791 9.40038 5.39989 9.61458 5.91701C9.82878 6.43412 9.88482 7.00314 9.77562 7.55211C9.66643 8.10107 9.39689 8.60533 9.00111 9.00111C8.60533 9.39689 8.10107 9.66643 7.55211 9.77562C7.00314 9.88482 6.43412 9.82878 5.91701 9.61458C5.39989 9.40038 4.95791 9.03765 4.64694 8.57226C4.33598 8.10687 4.17 7.55972 4.17 7C4.17 6.24944 4.46816 5.52962 4.99889 4.99889C5.52962 4.46816 6.24944 4.17 7 4.17V4.17ZM7 0C7.23206 0 7.45462 0.0921872 7.61872 0.256282C7.78281 0.420376 7.875 0.642936 7.875 0.875V1.75C7.875 1.98206 7.78281 2.20462 7.61872 2.36872C7.45462 2.53281 7.23206 2.625 7 2.625C6.76794 2.625 6.54538 2.53281 6.38128 2.36872C6.21719 2.20462 6.125 1.98206 6.125 1.75V0.875C6.125 0.642936 6.21719 0.420376 6.38128 0.256282C6.54538 0.0921872 6.76794 0 7 0V0ZM7 11.375C7.23206 11.375 7.45462 11.4672 7.61872 11.6313C7.78281 11.7954 7.875 12.0179 7.875 12.25V13.125C7.875 13.3571 7.78281 13.5796 7.61872 13.7437C7.45462 13.9078 7.23206 14 7 14C6.76794 14 6.54538 13.9078 6.38128 13.7437C6.21719 13.5796 6.125 13.3571 6.125 13.125V12.25C6.125 12.0179 6.21719 11.7954 6.38128 11.6313C6.54538 11.4672 6.76794 11.375 7 11.375ZM0.875 6.125H1.75C1.98206 6.125 2.20462 6.21719 2.36872 6.38128C2.53281 6.54538 2.625 6.76794 2.625 7C2.625 7.23206 2.53281 7.45462 2.36872 7.61872C2.20462 7.78281 1.98206 7.875 1.75 7.875H0.875C0.642936 7.875 0.420376 7.78281 0.256282 7.61872C0.0921872 7.45462 0 7.23206 0 7C0 6.76794 0.0921872 6.54538 0.256282 6.38128C0.420376 6.21719 0.642936 6.125 0.875 6.125V6.125ZM12.25 6.125H13.125C13.3571 6.125 13.5796 6.21719 13.7437 6.38128C13.9078 6.54538 14 6.76794 14 7C14 7.23206 13.9078 7.45462 13.7437 7.61872C13.5796 7.78281 13.3571 7.875 13.125 7.875H12.25C12.0179 7.875 11.7954 7.78281 11.6313 7.61872C11.4672 7.45462 11.375 7.23206 11.375 7C11.375 6.76794 11.4672 6.54538 11.6313 6.38128C11.7954 6.21719 12.0179 6.125 12.25 6.125V6.125ZM2.05 2.048C2.13118 1.9667 2.22759 1.90219 2.33372 1.85818C2.43984 1.81417 2.55361 1.79152 2.6685 1.79152C2.78339 1.79152 2.89716 1.81417 3.00328 1.85818C3.10941 1.90219 3.20582 1.9667 3.287 2.048L3.906 2.669C3.99704 2.74778 4.07085 2.8445 4.1228 2.95311C4.17475 3.06172 4.20372 3.17988 4.20791 3.3002C4.21211 3.42053 4.19142 3.54042 4.14716 3.65238C4.10289 3.76434 4.036 3.86596 3.95066 3.95089C3.86532 4.03581 3.76337 4.10221 3.6512 4.14594C3.53902 4.18966 3.41903 4.20976 3.29873 4.20498C3.17843 4.2002 3.06041 4.17065 2.95205 4.11817C2.8437 4.0657 2.74734 3.99142 2.669 3.9L2.05 3.29C1.88622 3.12481 1.79432 2.90162 1.79432 2.669C1.79432 2.43638 1.88622 2.21319 2.05 2.048ZM10.094 10.098C10.1752 10.0167 10.2716 9.95219 10.3777 9.90818C10.4838 9.86417 10.5976 9.84152 10.7125 9.84152C10.8274 9.84152 10.9412 9.86417 11.0473 9.90818C11.1534 9.95219 11.2498 10.0167 11.331 10.098L11.95 10.71C12.1093 10.8752 12.1975 11.0962 12.1957 11.3257C12.1939 11.5551 12.1022 11.7748 11.9404 11.9374C11.7785 12.1001 11.5593 12.1928 11.3299 12.1957C11.1004 12.1986 10.8789 12.1115 10.713 11.953L10.094 11.331C10.0128 11.2502 9.9484 11.1541 9.90444 11.0483C9.86049 10.9425 9.83786 10.8291 9.83786 10.7145C9.83786 10.5999 9.86049 10.4865 9.90444 10.3807C9.9484 10.2749 10.0128 10.1788 10.094 10.098V10.098ZM2.05 10.71L2.669 10.098C2.74791 10.0082 2.84437 9.93556 2.95245 9.8845C3.06052 9.83344 3.17791 9.80506 3.29737 9.80112C3.41683 9.79717 3.53584 9.81775 3.64704 9.86157C3.75825 9.90539 3.85929 9.97154 3.94395 10.0559C4.02861 10.1403 4.09508 10.2411 4.13926 10.3522C4.18344 10.4633 4.2044 10.5822 4.20085 10.7017C4.19729 10.8211 4.16929 10.9386 4.11858 11.0469C4.06787 11.1551 3.99552 11.2518 3.906 11.331L3.287 11.953C3.206 12.037 3.10905 12.104 3.00184 12.15C2.89462 12.1961 2.7793 12.2203 2.66262 12.2212C2.54594 12.2221 2.43024 12.1997 2.32232 12.1554C2.2144 12.111 2.11641 12.0455 2.0341 11.9628C1.95179 11.8801 1.88681 11.7818 1.84298 11.6737C1.79914 11.5656 1.77732 11.4498 1.7788 11.3331C1.78028 11.2164 1.80503 11.1012 1.8516 10.9942C1.89817 10.8872 1.96562 10.7906 2.05 10.71V10.71ZM10.094 2.669L10.713 2.048C10.8777 1.88396 11.1008 1.79207 11.3333 1.79254C11.5657 1.79301 11.7885 1.8858 11.9525 2.0505C12.1165 2.2152 12.2084 2.43832 12.208 2.67077C12.2075 2.90322 12.1147 3.12596 11.95 3.29L11.331 3.902C11.2521 3.99178 11.1556 4.06444 11.0476 4.1155C10.9395 4.16656 10.8221 4.19494 10.7026 4.19888C10.5832 4.20283 10.4642 4.18225 10.353 4.13843C10.2418 4.09461 10.1407 4.02846 10.056 3.94408C9.97139 3.8597 9.90492 3.75887 9.86074 3.6478C9.81656 3.53674 9.7956 3.4178 9.79915 3.29833C9.80271 3.17885 9.83071 3.06137 9.88142 2.95314C9.93213 2.8449 10.0045 2.7482 10.094 2.669V2.669Z" fill="#444A58"/>
</g>
<defs>
<clipPath id="clip0_449_4012">
<rect width="14" height="14" fill="white"/>
</clipPath>
</defs>
</svg>
