<svg width="14" height="14" viewBox="0 0 14 14" fill="none" xmlns="http://www.w3.org/2000/svg">
<g clip-path="url(#clip0_449_3824)">
<path d="M7 0C5.61553 0 4.26215 0.410543 3.11101 1.17971C1.95986 1.94888 1.06266 3.04213 0.532844 4.32122C0.00303018 5.6003 -0.135593 7.00777 0.134503 8.36563C0.4046 9.7235 1.07129 10.9708 2.05025 11.9497C3.02922 12.9287 4.2765 13.5954 5.63437 13.8655C6.99224 14.1356 8.3997 13.997 9.67878 13.4672C10.9579 12.9373 12.0511 12.0401 12.8203 10.889C13.5895 9.73785 14 8.38447 14 7C14 5.14348 13.2625 3.36301 11.9497 2.05025C10.637 0.737498 8.85652 0 7 0V0ZM7 11.8V7H2.2C2.20554 5.72931 2.71325 4.51235 3.61243 3.61448C4.5116 2.71662 5.72931 2.21068 7 2.207V2.207H7.022C8.29058 2.21097 9.50585 2.7177 10.4015 3.61613C11.2971 4.51456 11.8 5.73141 11.8 7C11.8 8.27304 11.2943 9.49394 10.3941 10.3941C9.49394 11.2943 8.27304 11.8 7 11.8V11.8Z" fill="#444A58"/>
</g>
<defs>
<clipPath id="clip0_449_3824">
<rect width="14" height="14" fill="white"/>
</clipPath>
</defs>
</svg>
