<svg width="14" height="14" viewBox="0 0 14 14" fill="none" xmlns="http://www.w3.org/2000/svg">
<g clip-path="url(#clip0_449_3812)">
<path d="M10.924 1.25011e-06H3.076C2.65165 1.25011e-06 2.24469 0.168572 1.94463 0.46863C1.64457 0.768689 1.476 1.17565 1.476 1.6V12.121C1.4757 12.3189 1.55329 12.5089 1.692 12.65L2.797 13.78C2.86474 13.8496 2.94575 13.9049 3.03523 13.9427C3.12472 13.9805 3.22087 14 3.318 14C3.41513 14 3.51128 13.9805 3.60076 13.9427C3.69025 13.9049 3.77125 13.8496 3.839 13.78L4.639 12.962C4.70674 12.8924 4.78775 12.8371 4.87723 12.7993C4.96672 12.7615 5.06287 12.742 5.16 12.742C5.25713 12.742 5.35328 12.7615 5.44276 12.7993C5.53225 12.8371 5.61326 12.8924 5.681 12.962L6.481 13.78C6.5489 13.8495 6.63001 13.9048 6.71957 13.9425C6.80913 13.9802 6.90532 13.9996 7.0025 13.9996C7.09967 13.9996 7.19587 13.9802 7.28543 13.9425C7.37498 13.9048 7.4561 13.8495 7.524 13.78L8.324 12.962C8.39174 12.8924 8.47275 12.8371 8.56223 12.7993C8.65172 12.7615 8.74787 12.742 8.845 12.742C8.94213 12.742 9.03828 12.7615 9.12776 12.7993C9.21725 12.8371 9.29826 12.8924 9.366 12.962L10.166 13.78C10.2337 13.8496 10.3147 13.9049 10.4042 13.9427C10.4937 13.9805 10.5899 14 10.687 14C10.7841 14 10.8803 13.9805 10.9698 13.9427C11.0592 13.9049 11.1403 13.8496 11.208 13.78L12.308 12.653C12.4479 12.5101 12.5262 12.318 12.526 12.118V2.074V2.062V1.6C12.526 1.38972 12.4845 1.1815 12.404 0.987245C12.3235 0.792994 12.2054 0.616523 12.0567 0.467923C11.9079 0.319323 11.7313 0.201509 11.5369 0.121219C11.3426 0.0409297 11.1343 -0.000261604 10.924 1.25011e-06V1.25011e-06ZM4.3 3.5H8.465C8.6602 3.5 8.8474 3.57754 8.98543 3.71557C9.12346 3.8536 9.201 4.0408 9.201 4.236C9.201 4.4312 9.12346 4.61841 8.98543 4.75643C8.8474 4.89446 8.6602 4.972 8.465 4.972H4.3C4.1048 4.972 3.91759 4.89446 3.77957 4.75643C3.64154 4.61841 3.564 4.4312 3.564 4.236C3.564 4.0408 3.64154 3.8536 3.77957 3.71557C3.91759 3.57754 4.1048 3.5 4.3 3.5V3.5ZM4.3 6.188H6.429C6.52565 6.188 6.62136 6.20704 6.71065 6.24403C6.79995 6.28101 6.88109 6.33523 6.94943 6.40357C7.01777 6.47191 7.07199 6.55305 7.10897 6.64235C7.14596 6.73164 7.165 6.82735 7.165 6.924C7.165 7.02065 7.14596 7.11636 7.10897 7.20566C7.07199 7.29495 7.01777 7.37609 6.94943 7.44443C6.88109 7.51278 6.79995 7.56699 6.71065 7.60398C6.62136 7.64096 6.52565 7.66 6.429 7.66H4.3C4.1048 7.66 3.91759 7.58246 3.77957 7.44443C3.64154 7.30641 3.564 7.1192 3.564 6.924C3.564 6.7288 3.64154 6.5416 3.77957 6.40357C3.91759 6.26554 4.1048 6.188 4.3 6.188V6.188Z" fill="#444A58"/>
</g>
<defs>
<clipPath id="clip0_449_3812">
<rect width="14" height="14" fill="white"/>
</clipPath>
</defs>
</svg>
