<svg width="14" height="14" viewBox="0 0 14 14" fill="none" xmlns="http://www.w3.org/2000/svg">
<path d="M13.226 8.24512H0.774C0.346532 8.24512 0 8.59165 0 9.01912V9.02012C0 9.44759 0.346532 9.79412 0.774 9.79412H13.226C13.6535 9.79412 14 9.44759 14 9.02012V9.01912C14 8.59165 13.6535 8.24512 13.226 8.24512Z" fill="#444A58"/>
<path d="M13.226 4.20605H0.774C0.346532 4.20605 0 4.55259 0 4.98005V4.98105C0 5.40852 0.346532 5.75505 0.774 5.75505H13.226C13.6535 5.75505 14 5.40852 14 4.98105V4.98005C14 4.55259 13.6535 4.20605 13.226 4.20605Z" fill="#444A58"/>
</svg>
