<svg width="14" height="14" viewBox="0 0 14 14" fill="none" xmlns="http://www.w3.org/2000/svg">
<g clip-path="url(#clip0_449_3870)">
<path fill-rule="evenodd" clip-rule="evenodd" d="M12.26 2.625L8.23 2.616L6.9 1.28C6.62843 1.02565 6.27203 0.881301 5.9 0.875H1.745C1.28174 0.876324 0.837902 1.06128 0.510794 1.38933C0.183686 1.71737 -1.89086e-06 2.16174 0 2.625L0 11.375C0.00185093 11.8396 0.187643 12.2846 0.516727 12.6125C0.845812 12.9405 1.2914 13.1247 1.756 13.125H12.245C12.4753 13.1259 12.7035 13.0813 12.9165 12.9938C13.1296 12.9062 13.3232 12.7774 13.4863 12.6148C13.6493 12.4522 13.7787 12.2589 13.8669 12.0462C13.955 11.8334 14.0003 11.6053 14 11.375V4.375C14 3.9126 13.817 3.46899 13.491 3.14109C13.1649 2.81318 12.7224 2.62764 12.26 2.625V2.625Z" fill="#444A58"/>
</g>
<defs>
<clipPath id="clip0_449_3870">
<rect width="14" height="14" fill="white"/>
</clipPath>
</defs>
</svg>
