<svg width="14" height="14" viewBox="0 0 14 14" fill="none" xmlns="http://www.w3.org/2000/svg">
<g clip-path="url(#clip0_449_3854)">
<path fill-rule="evenodd" clip-rule="evenodd" d="M12.334 0H1.834C1.60194 0 1.37938 0.0921872 1.21528 0.256282C1.05119 0.420376 0.959 0.642936 0.959 0.875V13.125C0.959 13.3571 1.05119 13.5796 1.21528 13.7437C1.37938 13.9078 1.60194 14 1.834 14H12.334C12.5661 14 12.7886 13.9078 12.9527 13.7437C13.1168 13.5796 13.209 13.3571 13.209 13.125V0.875C13.209 0.642936 13.1168 0.420376 12.9527 0.256282C12.7886 0.0921872 12.5661 0 12.334 0ZM8.834 7.875H5.334C5.10194 7.875 4.87938 7.78281 4.71528 7.61872C4.55119 7.45462 4.459 7.23206 4.459 7C4.459 6.76794 4.55119 6.54538 4.71528 6.38128C4.87938 6.21719 5.10194 6.125 5.334 6.125H8.834C9.06606 6.125 9.28862 6.21719 9.45272 6.38128C9.61681 6.54538 9.709 6.76794 9.709 7C9.709 7.23206 9.61681 7.45462 9.45272 7.61872C9.28862 7.78281 9.06606 7.875 8.834 7.875V7.875ZM8.834 4.375H5.334C5.10194 4.375 4.87938 4.28281 4.71528 4.11872C4.55119 3.95462 4.459 3.73206 4.459 3.5C4.459 3.26794 4.55119 3.04538 4.71528 2.88128C4.87938 2.71719 5.10194 2.625 5.334 2.625H8.834C9.06606 2.625 9.28862 2.71719 9.45272 2.88128C9.61681 3.04538 9.709 3.26794 9.709 3.5C9.709 3.73206 9.61681 3.95462 9.45272 4.11872C9.28862 4.28281 9.06606 4.375 8.834 4.375V4.375ZM8.834 11.375H5.334C5.10194 11.375 4.87938 11.2828 4.71528 11.1187C4.55119 10.9546 4.459 10.7321 4.459 10.5C4.459 10.2679 4.55119 10.0454 4.71528 9.88128C4.87938 9.71719 5.10194 9.625 5.334 9.625H8.834C9.06606 9.625 9.28862 9.71719 9.45272 9.88128C9.61681 10.0454 9.709 10.2679 9.709 10.5C9.709 10.7321 9.61681 10.9546 9.45272 11.1187C9.28862 11.2828 9.06606 11.375 8.834 11.375V11.375Z" fill="#444A58"/>
</g>
<defs>
<clipPath id="clip0_449_3854">
<rect width="14" height="14" fill="white"/>
</clipPath>
</defs>
</svg>
