<svg width="14" height="14" viewBox="0 0 14 14" fill="none" xmlns="http://www.w3.org/2000/svg">
<g clip-path="url(#clip0_449_3474)">
<path fill-rule="evenodd" clip-rule="evenodd" d="M7 13.764C7.59335 13.7984 8.17902 13.6163 8.64833 13.2517C9.11764 12.887 9.43873 12.3645 9.552 11.781H4.452C4.565 12.3638 4.88544 12.8859 5.35396 13.2506C5.82247 13.6152 6.40728 13.7976 7 13.764V13.764Z" fill="#444A58"/>
<path fill-rule="evenodd" clip-rule="evenodd" d="M9.414 0.933867C8.72852 0.511113 7.94654 0.270185 7.142 0.233867C5.8606 0.186006 4.61199 0.645253 3.66699 1.512C2.72199 2.37875 2.1568 3.58311 2.094 4.86387V6.58187C2.094 6.9325 1.95481 7.2688 1.707 7.51687L0.194 9.30587C0.0771611 9.42229 0.00823109 9.57831 0.000825313 9.74308C-0.00658047 9.90786 0.0480764 10.0694 0.154 10.1959L9.414 0.933867Z" fill="#444A58"/>
<path fill-rule="evenodd" clip-rule="evenodd" d="M12.263 7.5169C12.0152 7.26883 11.876 6.93254 11.876 6.5819V5.0579C11.8709 4.56268 11.7813 4.07196 11.611 3.6069L13.749 1.4689C13.9065 1.3067 13.9939 1.08904 13.9923 0.862934C13.9907 0.636832 13.9002 0.420436 13.7404 0.260488C13.5806 0.10054 13.3643 0.00987731 13.1382 0.00808376C12.9121 0.00629021 12.6943 0.0935093 12.532 0.250902L10.732 2.0509L6.707 6.0769L0.255003 12.5309C0.0974772 12.6931 0.0100793 12.9108 0.0116871 13.1369C0.013295 13.363 0.10378 13.5794 0.263596 13.7393C0.423413 13.8993 0.639735 13.9899 0.865836 13.9917C1.09194 13.9935 1.30967 13.9063 1.472 13.7489L4.785 10.4349H13.337C13.4677 10.4347 13.5954 10.3957 13.704 10.323C13.8126 10.2504 13.8973 10.1471 13.9473 10.0264C13.9974 9.90567 14.0106 9.77282 13.9852 9.6446C13.9599 9.51639 13.8972 9.39853 13.805 9.3059L12.263 7.5169Z" fill="#444A58"/>
</g>
<defs>
<clipPath id="clip0_449_3474">
<rect width="14" height="14" fill="white"/>
</clipPath>
</defs>
</svg>
