<svg width="14" height="14" viewBox="0 0 14 14" fill="none" xmlns="http://www.w3.org/2000/svg">
<g clip-path="url(#clip0_449_3472)">
<path d="M7 0C5.61553 0 4.26215 0.410543 3.11101 1.17971C1.95986 1.94888 1.06266 3.04213 0.532843 4.32122C0.00302923 5.6003 -0.135594 7.00777 0.134502 8.36563C0.404599 9.7235 1.07128 10.9708 2.05025 11.9497C3.02922 12.9287 4.2765 13.5954 5.63437 13.8655C6.99223 14.1356 8.3997 13.997 9.67878 13.4672C10.9579 12.9373 12.0511 12.0401 12.8203 10.889C13.5895 9.73785 14 8.38447 14 7C14 5.14348 13.2625 3.36301 11.9497 2.05025C10.637 0.737498 8.85651 0 7 0V0ZM7 11C6.20887 11 5.43552 10.7654 4.77772 10.3259C4.11992 9.88635 3.60723 9.26164 3.30448 8.53073C3.00173 7.79983 2.92252 6.99556 3.07686 6.21964C3.2312 5.44371 3.61216 4.73098 4.17157 4.17157C4.73098 3.61216 5.44371 3.2312 6.21964 3.07686C6.99556 2.92252 7.79983 3.00173 8.53073 3.30448C9.26164 3.60723 9.88635 4.11992 10.3259 4.77772C10.7654 5.43552 11 6.20887 11 7C11 8.06087 10.5786 9.07828 9.82843 9.82843C9.07828 10.5786 8.06087 11 7 11V11Z" fill="#444A58"/>
</g>
<defs>
<clipPath id="clip0_449_3472">
<rect width="14" height="14" fill="white"/>
</clipPath>
</defs>
</svg>
