<svg width="14" height="14" viewBox="0 0 14 14" fill="none" xmlns="http://www.w3.org/2000/svg">
<g clip-path="url(#clip0_449_3974)">
<path d="M6.75399 8.72411C6.47005 8.04163 5.93951 7.4911 5.26799 7.18211L0.504993 5.40011C0.351792 5.34406 0.220084 5.24128 0.128493 5.10628C0.0369017 4.97129 -0.00993903 4.81092 -0.00540627 4.64785C-0.000873506 4.48479 0.0548034 4.32727 0.153752 4.19757C0.252701 4.06787 0.389915 3.97256 0.545993 3.92511L12.989 0.0371118C13.1244 -0.00539534 13.269 -0.00997952 13.4068 0.023857C13.5447 0.0576936 13.6707 0.128658 13.7711 0.229043C13.8714 0.329428 13.9424 0.455398 13.9762 0.593273C14.0101 0.731148 14.0055 0.875659 13.963 1.01111L10.075 13.4541C10.0271 13.6072 9.93308 13.7418 9.80576 13.8394C9.67844 13.937 9.52407 13.9928 9.36378 13.9993C9.20348 14.0058 9.04511 13.9625 8.91035 13.8755C8.77559 13.7884 8.67103 13.6619 8.61099 13.5131C8.56766 13.4064 7.94866 11.8101 6.75399 8.72411Z" fill="#444A58"/>
</g>
<defs>
<clipPath id="clip0_449_3974">
<rect width="14" height="14" fill="white"/>
</clipPath>
</defs>
</svg>
