<svg width="14" height="14" viewBox="0 0 14 14" fill="none" xmlns="http://www.w3.org/2000/svg">
<g clip-path="url(#clip0_449_3803)">
<path d="M13.2 0.100098H0.805C0.592444 0.100355 0.388595 0.184566 0.237828 0.334396C0.0870606 0.484227 0.00158215 0.687548 0 0.900098L0 9.5931C0.0013113 9.80487 0.0860178 10.0076 0.235764 10.1573C0.385509 10.3071 0.588232 10.3918 0.8 10.3931H13.2C13.4117 10.3915 13.6143 10.3067 13.764 10.157C13.9136 10.0074 13.9984 9.80479 14 9.5931V0.900098C13.9984 0.68841 13.9136 0.485838 13.764 0.336147C13.6143 0.186457 13.4117 0.101668 13.2 0.100098V0.100098ZM12.4 6.9791C11.9744 7.11214 11.5874 7.34627 11.272 7.66148C10.9566 7.97669 10.7223 8.36359 10.589 8.7891H3.421C3.28755 8.36352 3.05303 7.97658 2.73747 7.66138C2.42192 7.34617 2.03473 7.11207 1.609 6.9791V3.5181C2.03473 3.38512 2.42192 3.15102 2.73747 2.83582C3.05303 2.52061 3.28755 2.13368 3.421 1.7081H10.58C10.7131 2.13369 10.9474 2.52067 11.2628 2.8359C11.5782 3.15113 11.9653 3.38521 12.391 3.5181L12.4 6.9791Z" fill="#444A58"/>
<path d="M7.00001 3.1001C6.47963 3.15259 6.00052 3.40685 5.66536 3.80836C5.3302 4.20988 5.16566 4.72672 5.20701 5.2481C5.16456 5.77014 5.3286 6.288 5.66387 6.69039C5.99914 7.09279 6.47888 7.34761 7.00001 7.4001C7.52113 7.34761 8.00088 7.09279 8.33614 6.69039C8.67141 6.288 8.83545 5.77014 8.79301 5.2481C8.83435 4.72672 8.66981 4.20988 8.33465 3.80836C7.99949 3.40685 7.52038 3.15259 7.00001 3.1001Z" fill="#444A58"/>
<path d="M5.50711e-07 12.991C-0.000131029 13.1106 0.023317 13.2289 0.0690022 13.3394C0.114687 13.4499 0.181712 13.5502 0.26624 13.6348C0.350767 13.7193 0.451137 13.7863 0.561603 13.832C0.672069 13.8777 0.790461 13.9011 0.910001 13.901H13.089C13.2085 13.9011 13.3269 13.8777 13.4374 13.832C13.5479 13.7863 13.6482 13.7193 13.7328 13.6348C13.8173 13.5502 13.8843 13.4499 13.93 13.3394C13.9757 13.2289 13.9991 13.1106 13.999 12.991V12.291H5.50711e-07V12.991Z" fill="#444A58"/>
</g>
<defs>
<clipPath id="clip0_449_3803">
<rect width="14" height="14" fill="white"/>
</clipPath>
</defs>
</svg>
