<svg width="16" height="12" viewBox="0 0 16 12" fill="none" xmlns="http://www.w3.org/2000/svg">
<path fill-rule="evenodd" clip-rule="evenodd" d="M2 0C0.895431 0 0 0.895431 0 2V10C0 11.1046 0.895431 12 2 12H14C15.1046 12 16 11.1046 16 10V4C16 2.89543 15.1046 2 14 2H9L7 0H2ZM9 5C9 4.44772 8.55228 4 8 4C7.44772 4 7 4.44772 7 5V6H6C5.44772 6 5 6.44772 5 7C5 7.55228 5.44772 8 6 8H7V9C7 9.55228 7.44772 10 8 10C8.55228 10 9 9.55228 9 9V8H10C10.5523 8 11 7.55228 11 7C11 6.44772 10.5523 6 10 6H9V5Z" fill="#00406D"/>
</svg>
