<svg width="14" height="14" viewBox="0 0 14 14" fill="none" xmlns="http://www.w3.org/2000/svg">
<g clip-path="url(#clip0_449_3401)">
<path d="M9.15 0H4.85C3.56401 0.00158826 2.33117 0.513216 1.42193 1.42264C0.512697 2.33206 0.00132314 3.56501 0 4.851L0 9.151C0.00185229 10.4366 0.51346 11.6691 1.42264 12.5781C2.33182 13.4871 3.56436 13.9984 4.85 14H9.15C10.436 13.9984 11.6688 13.4868 12.5781 12.5774C13.4873 11.6679 13.9987 10.435 14 9.149V4.849C13.9981 3.56336 13.4865 2.33092 12.5774 1.42193C11.6682 0.51294 10.4356 0.00158718 9.15 0V0ZM9.758 7.993H7.993V9.758C7.98482 10.0158 7.87666 10.2603 7.69143 10.4397C7.50619 10.6192 7.2584 10.7195 7.0005 10.7195C6.7426 10.7195 6.49481 10.6192 6.30957 10.4397C6.12434 10.2603 6.01618 10.0158 6.008 9.758V7.993H4.243C4.11001 7.99722 3.97753 7.97467 3.85343 7.9267C3.72933 7.87872 3.61613 7.80629 3.52056 7.71371C3.425 7.62113 3.34901 7.51029 3.29712 7.38777C3.24523 7.26525 3.21849 7.13355 3.21849 7.0005C3.21849 6.86745 3.24523 6.73575 3.29712 6.61323C3.34901 6.49071 3.425 6.37987 3.52056 6.28729C3.61613 6.19471 3.72933 6.12228 3.85343 6.0743C3.97753 6.02633 4.11001 6.00378 4.243 6.008H6.008V4.243C6.00378 4.11001 6.02633 3.97753 6.0743 3.85343C6.12228 3.72933 6.19471 3.61613 6.28729 3.52056C6.37987 3.425 6.49071 3.34901 6.61323 3.29712C6.73575 3.24523 6.86745 3.21849 7.0005 3.21849C7.13355 3.21849 7.26525 3.24523 7.38777 3.29712C7.51029 3.34901 7.62113 3.425 7.71371 3.52056C7.80629 3.61613 7.87872 3.72933 7.9267 3.85343C7.97467 3.97753 7.99722 4.11001 7.993 4.243V6.008H9.758C10.0158 6.01618 10.2603 6.12434 10.4397 6.30957C10.6192 6.49481 10.7195 6.7426 10.7195 7.0005C10.7195 7.2584 10.6192 7.50619 10.4397 7.69143C10.2603 7.87666 10.0158 7.98482 9.758 7.993V7.993Z" fill="#444A58"/>
</g>
<defs>
<clipPath id="clip0_449_3401">
<rect width="14" height="14" fill="white"/>
</clipPath>
</defs>
</svg>
