<svg width="14" height="14" viewBox="0 0 14 14" fill="none" xmlns="http://www.w3.org/2000/svg">
<g clip-path="url(#clip0_449_3391)">
<path d="M12.235 9.244L11.964 9.1C11.8914 9.06252 11.8292 9.00783 11.7826 8.94071C11.7361 8.8736 11.7067 8.7961 11.697 8.715L11.605 7.933C11.5889 7.7961 11.5354 7.66627 11.4504 7.55778C11.3654 7.44928 11.2521 7.36632 11.123 7.318L9.92 6.87C9.85458 6.84534 9.79506 6.80724 9.74528 6.75815C9.6955 6.70906 9.65657 6.65007 9.631 6.585L9.1 5.231C9.08108 5.18412 9.06798 5.13508 9.061 5.085C9.03785 4.91841 9.08153 4.74942 9.18251 4.61491C9.28349 4.48039 9.43356 4.39128 9.6 4.367L10.528 4.239C10.6293 4.22481 10.7266 4.1902 10.8141 4.13725C10.9016 4.08431 10.9774 4.01414 11.037 3.931L11.465 3.331C10.9287 2.66241 10.249 2.12288 9.47619 1.7523C8.70334 1.38172 7.8571 1.18955 7 1.19H6.908L7.108 2.278C7.12015 2.34262 7.11944 2.409 7.10591 2.47334C7.09238 2.53768 7.06628 2.59872 7.02913 2.65297C6.99198 2.70722 6.94449 2.7536 6.88938 2.78947C6.83428 2.82534 6.77264 2.84999 6.708 2.862C6.65236 2.871 6.59564 2.871 6.54 2.862C6.38556 2.82962 6.22464 2.85279 6.08561 2.92743C5.94658 3.00207 5.83835 3.12339 5.78 3.27L5.524 3.981C5.48076 4.1012 5.39315 4.20029 5.27916 4.25794C5.16517 4.31558 5.03344 4.32741 4.911 4.291L4.447 4.153C4.31505 4.11034 4.17172 4.12037 4.047 4.181C3.95158 4.22749 3.86691 4.29337 3.7984 4.37443C3.72989 4.4555 3.67904 4.54996 3.64911 4.65179C3.61919 4.75363 3.61083 4.86058 3.62459 4.96583C3.63834 5.07107 3.6739 5.17228 3.729 5.263L4.24 6.103C4.30724 6.21272 4.40145 6.30341 4.51365 6.36642C4.62585 6.42943 4.75231 6.46268 4.881 6.463H5.821C5.89956 6.4627 5.97706 6.48122 6.047 6.517L7 7C7.07287 7.03693 7.13558 7.09115 7.18265 7.15791C7.22971 7.22468 7.25971 7.30196 7.27 7.383L7.298 7.602C7.31028 7.69991 7.34341 7.79404 7.39516 7.87805C7.44691 7.96206 7.51608 8.034 7.598 8.089L8.132 8.446C8.27229 8.53963 8.36965 8.68515 8.40265 8.85056C8.43566 9.01596 8.40161 9.1877 8.308 9.328C8.28685 9.36018 8.26275 9.39031 8.236 9.418L7.471 10.208C7.3823 10.2993 7.31859 10.4119 7.286 10.535L6.719 12.635C7.87318 12.6922 9.01766 12.3989 10.0021 11.7937C10.9866 11.1885 11.7649 10.2997 12.235 9.244V9.244ZM4.359 12.083L4.421 11.577C4.44914 11.344 4.39078 11.1088 4.257 10.916L3.325 9.574C3.24705 9.4619 3.21122 9.32586 3.22385 9.18991C3.23647 9.05395 3.29674 8.92683 3.394 8.831C3.4285 8.79655 3.45587 8.75563 3.47454 8.71059C3.49321 8.66554 3.50283 8.61726 3.50283 8.5685C3.50283 8.51974 3.49321 8.47146 3.47454 8.42642C3.45587 8.38138 3.4285 8.34046 3.394 8.306C3.37076 8.28237 3.34454 8.26187 3.316 8.245L1.273 7.063C1.28421 8.10086 1.57726 9.11616 2.12082 10.0004C2.66437 10.8846 3.438 11.6044 4.359 12.083V12.083ZM7 14C5.61553 14 4.26215 13.5895 3.11101 12.8203C1.95986 12.0511 1.06266 10.9579 0.532843 9.67879C0.00302923 8.3997 -0.135594 6.99224 0.134502 5.63437C0.404599 4.2765 1.07128 3.02922 2.05025 2.05026C3.02922 1.07129 4.2765 0.404603 5.63437 0.134506C6.99223 -0.13559 8.3997 0.00303304 9.67878 0.532846C10.9579 1.06266 12.0511 1.95987 12.8203 3.11101C13.5895 4.26216 14 5.61553 14 7C14 8.85652 13.2625 10.637 11.9497 11.9497C10.637 13.2625 8.85651 14 7 14V14Z" fill="#444A58"/>
</g>
<defs>
<clipPath id="clip0_449_3391">
<rect width="14" height="14" fill="white"/>
</clipPath>
</defs>
</svg>
