<svg width="14" height="14" viewBox="0 0 14 14" fill="none" xmlns="http://www.w3.org/2000/svg">
<g clip-path="url(#clip0_449_3866)">
<path fill-rule="evenodd" clip-rule="evenodd" d="M2.075 0.822022C1.80222 0.82189 1.53209 0.87557 1.28009 0.97999C1.02808 1.08441 0.799149 1.23752 0.606402 1.43054C0.413655 1.62357 0.260879 1.85272 0.156823 2.10488C0.0527682 2.35703 -0.000522273 2.62724 3.8581e-06 2.90002V11.433C0.00185479 11.8976 0.187646 12.3426 0.516731 12.6705C0.845816 12.9985 1.2914 13.1828 1.756 13.183H12.244C12.4747 13.1841 12.7034 13.1394 12.9168 13.0517C13.1302 12.964 13.3241 12.8348 13.4873 12.6718C13.6506 12.5087 13.7799 12.3149 13.8679 12.1017C13.9559 11.8884 14.0008 11.6598 14 11.429V2.90002C14.0001 2.62766 13.9466 2.35794 13.8425 2.10626C13.7384 1.85458 13.5857 1.62587 13.3933 1.43319C13.2008 1.24051 12.9722 1.08763 12.7206 0.983278C12.469 0.878929 12.1994 0.825153 11.927 0.825022L2.075 0.822022ZM12.242 10.29C12.2425 10.4488 12.2117 10.6062 12.1513 10.753C12.0908 10.8998 12.002 11.0333 11.8898 11.1457C11.7777 11.2582 11.6444 11.3473 11.4978 11.4081C11.3511 11.4689 11.1938 11.5002 11.035 11.5H2.965C2.80621 11.5002 2.64895 11.4689 2.50225 11.4081C2.35556 11.3473 2.22231 11.2582 2.11017 11.1457C1.99802 11.0333 1.90918 10.8998 1.84875 10.753C1.78832 10.6062 1.75748 10.4488 1.758 10.29V6.03502C1.75787 5.87648 1.789 5.71947 1.84961 5.57297C1.91022 5.42647 1.99913 5.29336 2.11123 5.18125C2.22334 5.06914 2.35645 4.98024 2.50295 4.91963C2.64945 4.85902 2.80646 4.82789 2.965 4.82802H11.035C11.1935 4.82789 11.3506 4.85902 11.4971 4.91963C11.6436 4.98024 11.7767 5.06914 11.8888 5.18125C12.0009 5.29336 12.0898 5.42647 12.1504 5.57297C12.211 5.71947 12.2421 5.87648 12.242 6.03502V10.29Z" fill="#444A58"/>
</g>
<defs>
<clipPath id="clip0_449_3866">
<rect width="14" height="14" fill="white"/>
</clipPath>
</defs>
</svg>
