<svg width="14" height="14" viewBox="0 0 14 14" fill="none" xmlns="http://www.w3.org/2000/svg">
<g clip-path="url(#clip0_449_3721)">
<path d="M12.88 5.88007H7C6.47504 5.91894 5.95584 5.74991 5.55438 5.40944C5.15292 5.06896 4.90137 4.58433 4.854 4.06007C4.89986 3.5352 5.15098 3.04962 5.5528 2.70884C5.95463 2.36806 6.47469 2.19961 7 2.24007C7.36698 2.23343 7.72991 2.31759 8.05651 2.48508C8.3831 2.65256 8.66324 2.89818 8.872 3.20007C8.95062 3.32375 9.05295 3.43064 9.1731 3.51457C9.29324 3.5985 9.42882 3.65781 9.572 3.68907C9.78859 3.73661 10.0144 3.71879 10.2209 3.63786C10.4273 3.55694 10.6051 3.41655 10.7317 3.23448C10.8583 3.05242 10.928 2.83687 10.932 2.61516C10.9359 2.39345 10.874 2.17555 10.754 1.98907C10.3454 1.36916 9.78742 0.862057 9.13138 0.514464C8.47534 0.166871 7.74237 -0.0100274 7 6.65947e-05C5.88066 -0.0402708 4.79087 0.364144 3.96882 1.12492C3.14677 1.8857 2.65932 2.94096 2.613 4.06007C2.61283 4.69779 2.77748 5.32473 3.091 5.88007H1.12C0.822958 5.88007 0.538081 5.99807 0.32804 6.20811C0.118 6.41815 0 6.70302 0 7.00007C0 7.29711 0.118 7.58199 0.32804 7.79203C0.538081 8.00207 0.822958 8.12007 1.12 8.12007H7C7.52496 8.08119 8.04416 8.25022 8.44562 8.5907C8.84708 8.93117 9.09863 9.41581 9.146 9.94007C9.10014 10.4649 8.84902 10.9505 8.4472 11.2913C8.04537 11.6321 7.52531 11.8005 7 11.7601C6.63285 11.7669 6.26972 11.6828 5.94294 11.5153C5.61615 11.3478 5.33585 11.1021 5.127 10.8001C5.04807 10.6746 4.94501 10.566 4.8238 10.4806C4.70258 10.3952 4.56563 10.3348 4.42087 10.3028C4.27611 10.2707 4.12644 10.2678 3.98053 10.294C3.83461 10.3203 3.69536 10.3753 3.57086 10.4557C3.44635 10.5362 3.33906 10.6406 3.25522 10.7629C3.17137 10.8852 3.11264 11.0229 3.08242 11.168C3.0522 11.3132 3.0511 11.4629 3.07918 11.6085C3.10726 11.754 3.16396 11.8926 3.246 12.0161C3.65516 12.635 4.21342 13.1412 4.86942 13.4879C5.52543 13.8346 6.25809 14.0107 7 14.0001C8.11934 14.0404 9.20913 13.636 10.0312 12.8752C10.8532 12.1144 11.3407 11.0592 11.387 9.94007C11.3872 9.30234 11.2225 8.6754 10.909 8.12007H12.88C13.177 8.12007 13.4619 8.00207 13.672 7.79203C13.882 7.58199 14 7.29711 14 7.00007C14 6.70302 13.882 6.41815 13.672 6.20811C13.4619 5.99807 13.177 5.88007 12.88 5.88007V5.88007Z" fill="#444A58"/>
</g>
<defs>
<clipPath id="clip0_449_3721">
<rect width="14" height="14" fill="white"/>
</clipPath>
</defs>
</svg>
