<svg width="14" height="14" viewBox="0 0 14 14" fill="none" xmlns="http://www.w3.org/2000/svg">
<g clip-path="url(#clip0_449_3906)">
<path d="M12.479 7.91608H11.179C11.0422 7.91708 10.9099 7.96544 10.8047 8.05295C10.6995 8.14047 10.6279 8.26171 10.602 8.39608C10.505 9.24864 10.1 10.0364 9.46302 10.6113C8.82604 11.1863 8.00101 11.5087 7.143 11.5181C6.65473 11.5382 6.16759 11.457 5.71225 11.2796C5.25691 11.1022 4.84323 10.8324 4.49725 10.4873C4.15128 10.1422 3.88051 9.72915 3.702 9.27424C3.52348 8.81934 3.44109 8.33239 3.46 7.84408C3.50275 7.02099 3.86549 6.2472 4.47081 5.68784C5.07614 5.12848 5.8761 4.82784 6.7 4.85008V6.48208C6.70008 6.55001 6.71922 6.61656 6.75525 6.67416C6.79127 6.73175 6.84274 6.77808 6.90379 6.80787C6.96484 6.83767 7.03302 6.84974 7.10059 6.8427C7.16816 6.83567 7.2324 6.80981 7.286 6.76808L11.052 3.83608C11.1109 3.78926 11.1585 3.72973 11.1913 3.66194C11.224 3.59416 11.241 3.51985 11.241 3.44458C11.241 3.36931 11.224 3.295 11.1913 3.22722C11.1585 3.15943 11.1109 3.0999 11.052 3.05308L7.291 0.0790802C7.23752 0.0359098 7.17288 0.00880883 7.10461 0.000929021C7.03633 -0.00695079 6.96722 0.00471439 6.90532 0.0345679C6.84341 0.0644215 6.79125 0.111237 6.7549 0.169569C6.71856 0.227901 6.69952 0.295353 6.7 0.36408V2.16408C5.20435 2.20839 3.78192 2.82153 2.72276 3.87846C1.66359 4.93539 1.04746 6.35653 1 7.85208C0.920568 9.44338 1.47653 11.0011 2.54558 12.1824C3.61463 13.3638 5.1092 14.0721 6.7005 14.1516C8.2918 14.231 9.84948 13.6751 11.0309 12.606C12.2122 11.5369 12.9206 10.0424 13 8.45108C13.0036 8.38106 12.9927 8.31105 12.968 8.24544C12.9433 8.17983 12.9052 8.12004 12.8563 8.06981C12.8074 8.01958 12.7486 7.98 12.6837 7.95354C12.6188 7.92709 12.5491 7.91433 12.479 7.91608Z" fill="#444A58"/>
</g>
<defs>
<clipPath id="clip0_449_3906">
<rect width="14" height="14" fill="white"/>
</clipPath>
</defs>
</svg>
