<svg width="14" height="14" viewBox="0 0 14 14" fill="none" xmlns="http://www.w3.org/2000/svg">
<g clip-path="url(#clip0_449_3997)">
<path d="M1.79001 4.724C3.26734 3.53768 5.10531 2.89106 7.00001 2.89106C8.89471 2.89106 10.7327 3.53768 12.21 4.724C12.3229 4.81442 12.4525 4.88172 12.5913 4.92205C12.7302 4.96239 12.8757 4.97498 13.0194 4.9591C13.1632 4.94323 13.3024 4.89919 13.4291 4.82951C13.5558 4.75983 13.6676 4.66587 13.758 4.553C13.8484 4.44013 13.9157 4.31056 13.9561 4.17168C13.9964 4.0328 14.009 3.88733 13.9931 3.74359C13.9772 3.59984 13.9332 3.46063 13.8635 3.33391C13.7938 3.20718 13.6999 3.09542 13.587 3.005C11.7188 1.50596 9.39525 0.688965 7.00001 0.688965C4.60477 0.688965 2.28117 1.50596 0.413007 3.005C0.185054 3.1876 0.0389748 3.45328 0.00690612 3.74359C-0.0251626 4.03389 0.0594059 4.32505 0.242007 4.553C0.424609 4.78096 0.690286 4.92704 0.980592 4.9591C1.2709 4.99117 1.56205 4.9066 1.79001 4.724V4.724ZM11.124 7.846C11.3063 7.6183 11.3907 7.32751 11.3586 7.03759C11.3266 6.74767 11.1807 6.48236 10.953 6.3C9.8371 5.38881 8.44067 4.89111 7.00001 4.89111C5.55934 4.89111 4.16291 5.38881 3.04701 6.3C2.93427 6.39042 2.84044 6.50215 2.77088 6.62883C2.70132 6.75551 2.6574 6.89464 2.64161 7.03829C2.60973 7.32841 2.69441 7.61931 2.87701 7.847C3.05961 8.07469 3.32518 8.22052 3.6153 8.2524C3.90542 8.28428 4.19632 8.1996 4.42401 8.017C5.15335 7.42799 6.06252 7.10671 7.00001 7.10671C7.93749 7.10671 8.84667 7.42799 9.57601 8.017C9.68881 8.10758 9.81837 8.17501 9.95728 8.21544C10.0962 8.25587 10.2417 8.26851 10.3855 8.25262C10.5293 8.23674 10.6685 8.19265 10.7952 8.12287C10.922 8.0531 11.0337 7.95901 11.124 7.846V7.846ZM7.00001 10.021C6.67466 10.021 6.35661 10.1175 6.08609 10.2982C5.81558 10.479 5.60473 10.7359 5.48023 11.0365C5.35572 11.3371 5.32314 11.6678 5.38662 11.9869C5.45009 12.306 5.60676 12.5991 5.83682 12.8292C6.06687 13.0593 6.35999 13.2159 6.67908 13.2794C6.99818 13.3429 7.32894 13.3103 7.62952 13.1858C7.93011 13.0613 8.18702 12.8504 8.36777 12.5799C8.54853 12.3094 8.64501 11.9914 8.64501 11.666C8.64501 11.2297 8.4717 10.8113 8.1632 10.5028C7.8547 10.1943 7.43629 10.021 7.00001 10.021V10.021Z" fill="#444A58"/>
</g>
<defs>
<clipPath id="clip0_449_3997">
<rect width="14" height="14" fill="white"/>
</clipPath>
</defs>
</svg>
