<svg width="14" height="14" viewBox="0 0 14 14" fill="none" xmlns="http://www.w3.org/2000/svg">
<g clip-path="url(#clip0_449_3519)">
<path d="M13.999 13.503V0.497C13.999 0.222515 13.7765 0 13.502 0L8.896 0C8.62151 0 8.399 0.222515 8.399 0.497V13.503C8.399 13.7775 8.62151 14 8.896 14H13.502C13.7765 14 13.999 13.7775 13.999 13.503Z" fill="#444A58"/>
<path d="M5.599 5.103V0.497C5.599 0.222514 5.37648 0 5.102 0L0.495999 0C0.221513 0 -0.00100088 0.222514 -0.00100088 0.497V5.103C-0.00100088 5.37749 0.221513 5.6 0.495999 5.6H5.102C5.37648 5.6 5.599 5.37749 5.599 5.103Z" fill="#444A58"/>
<path d="M5.599 13.5029V8.8969C5.599 8.62242 5.37648 8.3999 5.102 8.3999H0.495998C0.221513 8.3999 -0.00100136 8.62242 -0.00100136 8.8969V13.5029C-0.00100136 13.7774 0.221513 13.9999 0.495998 13.9999H5.102C5.37648 13.9999 5.599 13.7774 5.599 13.5029Z" fill="#444A58"/>
</g>
<defs>
<clipPath id="clip0_449_3519">
<rect width="14" height="14" fill="white"/>
</clipPath>
</defs>
</svg>
