<svg width="14" height="14" viewBox="0 0 14 14" fill="none" xmlns="http://www.w3.org/2000/svg">
<g clip-path="url(#clip0_449_3980)">
<path d="M14 4.422V3.514C14 3.43166 13.9838 3.35013 13.9523 3.27406C13.9208 3.19799 13.8746 3.12887 13.8164 3.07064C13.7581 3.01242 13.689 2.96624 13.6129 2.93473C13.5369 2.90322 13.4553 2.887 13.373 2.887H12.488C12.3953 2.88688 12.3038 2.86621 12.22 2.82647C12.1363 2.78673 12.0624 2.72891 12.0037 2.65718C11.9449 2.58545 11.9029 2.5016 11.8804 2.41165C11.858 2.3217 11.8558 2.2279 11.874 2.137L12.151 0.751001C12.1694 0.659948 12.1673 0.565951 12.1449 0.475805C12.1225 0.385658 12.0803 0.301615 12.0215 0.22975C11.9626 0.157884 11.8885 0.0999925 11.8046 0.0602593C11.7206 0.020526 11.6289 -5.60781e-05 11.536 7.92658e-07H10.582C10.4377 -0.000186254 10.2978 0.0494772 10.1859 0.140588C10.074 0.2317 9.99704 0.358664 9.968 0.500001L9.592 2.383C9.56275 2.52442 9.48558 2.6514 9.37353 2.7425C9.26147 2.8336 9.12141 2.88323 8.977 2.883H6.919C6.82627 2.88285 6.73473 2.86216 6.65095 2.82243C6.56717 2.7827 6.49322 2.72491 6.43442 2.6532C6.37563 2.5815 6.33344 2.49767 6.31089 2.40772C6.28834 2.31778 6.28599 2.22396 6.304 2.133L6.582 0.751001C6.60037 0.659948 6.59828 0.565951 6.57588 0.475805C6.55348 0.385658 6.51133 0.301615 6.45248 0.22975C6.39363 0.157884 6.31955 0.0999925 6.23559 0.0602593C6.15163 0.020526 6.05989 -5.60781e-05 5.967 7.92658e-07H5.013C4.86859 -0.000228741 4.72853 0.0493984 4.61647 0.140498C4.50442 0.231597 4.42725 0.358583 4.398 0.500001L4.023 2.383C3.99375 2.52442 3.91658 2.6514 3.80453 2.7425C3.69248 2.8336 3.55241 2.88323 3.408 2.883H1.649C1.48271 2.883 1.32323 2.94906 1.20564 3.06664C1.08806 3.18423 1.022 3.34371 1.022 3.51V4.418C1.022 4.50029 1.03823 4.58178 1.06975 4.65779C1.10127 4.73381 1.14747 4.80286 1.2057 4.861C1.26394 4.91915 1.33307 4.96524 1.40913 4.99664C1.4852 5.02804 1.56671 5.04413 1.649 5.044H2.725C2.81773 5.04415 2.90927 5.06484 2.99305 5.10457C3.07684 5.1443 3.15078 5.2021 3.20958 5.2738C3.26837 5.3455 3.31056 5.42933 3.33311 5.51928C3.35566 5.60922 3.35801 5.70304 3.34 5.794L2.809 8.45C2.77996 8.59134 2.70298 8.7183 2.5911 8.80941C2.47921 8.90052 2.33929 8.95019 2.195 8.95H0.627C0.544324 8.95 0.462463 8.96635 0.38613 8.99811C0.309797 9.02987 0.240499 9.07641 0.182224 9.13506C0.123949 9.1937 0.0778484 9.2633 0.0465749 9.33983C0.0153014 9.41636 -0.000527079 9.49833 3.62621e-07 9.581V10.488C3.62621e-07 10.6543 0.0660591 10.8138 0.183644 10.9314C0.30123 11.0489 0.46071 11.115 0.627 11.115H1.512C1.6047 11.1151 1.69622 11.1358 1.77997 11.1755C1.86372 11.2153 1.93762 11.2731 1.99634 11.3448C2.05506 11.4165 2.09715 11.5004 2.11957 11.5904C2.14199 11.6803 2.14419 11.7741 2.126 11.865L1.849 13.251C1.8308 13.342 1.83302 13.4359 1.85549 13.5259C1.87797 13.6159 1.92015 13.6998 1.97898 13.7716C2.03781 13.8433 2.11183 13.9011 2.19571 13.9408C2.27958 13.9805 2.37122 14.001 2.464 14.001H3.418C3.56229 14.0012 3.70221 13.9515 3.8141 13.8604C3.92598 13.7693 4.00296 13.6423 4.032 13.501L4.408 11.623C4.43725 11.4816 4.51442 11.3546 4.62647 11.2635C4.73853 11.1724 4.87859 11.1228 5.023 11.123H7.081C7.17373 11.1232 7.26527 11.1438 7.34905 11.1836C7.43284 11.2233 7.50678 11.2811 7.56558 11.3528C7.62437 11.4245 7.66656 11.5083 7.68911 11.5983C7.71166 11.6882 7.71401 11.782 7.696 11.873L7.418 13.259C7.3998 13.35 7.40202 13.4439 7.42449 13.5339C7.44697 13.6239 7.48915 13.7078 7.54798 13.7796C7.60681 13.8513 7.68083 13.9091 7.76471 13.9488C7.84858 13.9885 7.94022 14.009 8.033 14.009H8.987C9.13141 14.0092 9.27147 13.9596 9.38353 13.8685C9.49558 13.7774 9.57275 13.6504 9.602 13.509L9.977 11.631C10.0063 11.4896 10.0834 11.3626 10.1955 11.2715C10.3075 11.1804 10.4476 11.1308 10.592 11.131H12.211C12.2933 11.131 12.3749 11.1148 12.4509 11.0833C12.527 11.0518 12.5961 11.0056 12.6544 10.9474C12.7126 10.8891 12.7588 10.82 12.7903 10.7439C12.8218 10.6679 12.838 10.5863 12.838 10.504V9.581C12.8381 9.49863 12.822 9.41703 12.7905 9.3409C12.7591 9.26477 12.7129 9.1956 12.6546 9.13735C12.5964 9.0791 12.5272 9.03292 12.4511 9.00146C12.375 8.97 12.2934 8.95387 12.211 8.954H11.275C11.1823 8.95385 11.0907 8.93316 11.0069 8.89343C10.9232 8.8537 10.8492 8.79591 10.7904 8.7242C10.7316 8.6525 10.6894 8.56867 10.6669 8.47872C10.6443 8.38878 10.642 8.29496 10.66 8.204L11.191 5.552C11.22 5.41066 11.297 5.2837 11.4089 5.19259C11.5208 5.10148 11.6607 5.05181 11.805 5.052H13.373C13.4556 5.052 13.5374 5.03569 13.6136 5.00399C13.6899 4.97229 13.7592 4.92584 13.8174 4.8673C13.8757 4.80876 13.9218 4.73928 13.9531 4.66286C13.9845 4.58645 14.0004 4.50459 14 4.422V4.422ZM7.764 8.954H5.706C5.61322 8.95403 5.52158 8.93346 5.43771 8.89379C5.35383 8.85411 5.27981 8.79632 5.22098 8.72457C5.16215 8.65282 5.11997 8.56891 5.09749 8.47889C5.07502 8.38887 5.0728 8.29498 5.091 8.204L5.622 5.552C5.65104 5.41066 5.72802 5.2837 5.8399 5.19259C5.95179 5.10148 6.09171 5.05181 6.236 5.052H8.294C8.38678 5.05197 8.47842 5.07254 8.56229 5.11222C8.64617 5.15189 8.72019 5.20969 8.77902 5.28143C8.83785 5.35318 8.88003 5.43709 8.90251 5.52711C8.92498 5.61713 8.9272 5.71102 8.909 5.802L8.378 8.45C8.34977 8.59207 8.27314 8.71996 8.16118 8.81187C8.04922 8.90377 7.90885 8.954 7.764 8.954V8.954Z" fill="#444A58"/>
</g>
<defs>
<clipPath id="clip0_449_3980">
<rect width="14" height="14" fill="white"/>
</clipPath>
</defs>
</svg>
