<svg width="14" height="14" viewBox="0 0 14 14" fill="none" xmlns="http://www.w3.org/2000/svg">
<g clip-path="url(#clip0_449_3379)">
<path d="M13.177 4.77208L9.585 4.39108L7.831 0.688077C7.75634 0.530903 7.63863 0.398127 7.49154 0.305158C7.34445 0.21219 7.17401 0.162842 7 0.162842C6.82599 0.162842 6.65555 0.21219 6.50846 0.305158C6.36137 0.398127 6.24367 0.530903 6.169 0.688077L4.415 4.38808L0.823001 4.77208C0.64189 4.79031 0.470273 4.86192 0.329913 4.97782C0.189553 5.09372 0.0867724 5.24869 0.0346051 5.42308C-0.0175621 5.59747 -0.0167662 5.78342 0.0368921 5.95736C0.0905503 6.1313 0.194654 6.28538 0.336001 6.40008L3.2 8.75408L2.314 12.7141C2.27472 12.8901 2.28804 13.0738 2.3523 13.2423C2.41656 13.4108 2.52893 13.5567 2.67543 13.6618C2.82193 13.767 2.99611 13.8268 3.17632 13.8338C3.35652 13.8407 3.5348 13.7946 3.689 13.7011L7 11.6861L10.316 13.7001C10.4701 13.7938 10.6484 13.8401 10.8286 13.8331C11.0089 13.8262 11.1831 13.7664 11.3296 13.6612C11.4761 13.556 11.5884 13.41 11.6524 13.2414C11.7165 13.0728 11.7296 12.889 11.69 12.7131L10.8 8.75408L13.664 6.40008C13.8053 6.28538 13.9095 6.1313 13.9631 5.95736C14.0168 5.78342 14.0176 5.59747 13.9654 5.42308C13.9132 5.24869 13.8104 5.09372 13.6701 4.97782C13.5297 4.86192 13.3581 4.79031 13.177 4.77208V4.77208ZM9.377 7.90008C9.3051 7.95953 9.25101 8.03766 9.22066 8.12588C9.19031 8.2141 9.18489 8.30898 9.205 8.40008L9.694 11.0301L7.589 9.68408C7.48526 9.64464 7.37497 9.62529 7.264 9.62708V3.46608L8.48 5.77808C8.51743 5.85677 8.5744 5.92456 8.64548 5.97497C8.71655 6.02539 8.79936 6.05676 8.886 6.06608L11.129 6.30408L9.377 7.90008Z" fill="#444A58"/>
</g>
<defs>
<clipPath id="clip0_449_3379">
<rect width="14" height="14" fill="white"/>
</clipPath>
</defs>
</svg>
