<svg width="14" height="14" viewBox="0 0 14 14" fill="none" xmlns="http://www.w3.org/2000/svg">
<g clip-path="url(#clip0_449_3993)">
<path d="M7.00001 5.11304C6.62682 5.11205 6.26174 5.2218 5.95095 5.42839C5.64016 5.63498 5.39765 5.92913 5.25411 6.2736C5.11056 6.61808 5.07244 6.99739 5.14457 7.36354C5.21669 7.72969 5.39582 8.06621 5.65928 8.33051C5.92275 8.59482 6.2587 8.77502 6.62461 8.84831C6.99053 8.9216 7.36997 8.88469 7.7149 8.74224C8.05983 8.59979 8.35475 8.35822 8.56232 8.04809C8.7699 7.73797 8.88081 7.37323 8.88101 7.00004C8.88075 6.5007 8.68268 6.02179 8.33015 5.66814C7.97762 5.31449 7.49935 5.1149 7.00001 5.11304V5.11304Z" fill="#444A58"/>
<path d="M13.95 4.12194C13.9405 3.71475 13.8855 3.3099 13.786 2.91494C13.6116 2.17895 13.2133 1.51514 12.646 1.01494C12.0513 0.499971 11.3125 0.18051 10.53 0.099937C10.1317 0.0522218 9.73114 0.0248529 9.33 0.017937C8.538 -6.30002e-05 7.75 -6.30005e-05 6.962 -6.30005e-05C6.031 -6.30005e-05 5.1 -0.009063 4.167 0.038937C3.81407 0.0513366 3.46265 0.0914602 3.116 0.158937C2.35489 0.30066 1.65627 0.67442 1.116 1.22894C0.564481 1.8236 0.213338 2.57625 0.112003 3.38094C0.0495514 3.83124 0.0184765 4.28533 0.0190029 4.73994C0.0063362 5.48194 2.86585e-06 6.2246 2.86585e-06 6.96794C2.86585e-06 7.99994 -0.0119971 9.03494 0.0530029 10.0669C0.076917 10.5084 0.156204 10.9452 0.289003 11.3669C0.55213 12.2137 1.12298 12.9312 1.889 13.3779C2.46398 13.7061 3.10788 13.8948 3.769 13.9289C4.223 13.9629 4.68 13.9849 5.136 13.9869C6.62 13.9959 8.105 14.0159 9.59 13.9679C10.058 13.9627 10.5242 13.9111 10.982 13.8139C11.741 13.6543 12.4301 13.2589 12.9509 12.6842C13.4718 12.1095 13.7976 11.3849 13.882 10.6139C13.9434 10.1635 13.9745 9.70951 13.975 9.25494C13.989 8.50494 13.991 7.75494 14.002 6.67694C13.988 6.04094 13.973 5.08094 13.95 4.12194ZM6.992 10.5909C6.28166 10.5903 5.58744 10.3791 4.99711 9.98405C4.40678 9.58895 3.94685 9.02769 3.67547 8.37123C3.40409 7.71476 3.33344 6.99258 3.47246 6.29597C3.61148 5.59936 3.95392 4.95961 4.45649 4.4576C4.95906 3.95559 5.59919 3.61386 6.29595 3.47562C6.99272 3.33737 7.71483 3.40883 8.37099 3.68094C9.02715 3.95305 9.58789 4.4136 9.98234 5.00437C10.3768 5.59514 10.5872 6.28959 10.587 6.99994C10.5873 7.47192 10.4944 7.93933 10.3138 8.37539C10.1332 8.81145 9.86833 9.2076 9.5344 9.54116C9.20046 9.87472 8.80402 10.1391 8.36776 10.3193C7.9315 10.4994 7.46399 10.5917 6.992 10.5909V10.5909ZM11.081 4.19094C10.8411 4.19173 10.6063 4.12129 10.4065 3.98856C10.2066 3.85582 10.0506 3.66675 9.95832 3.4453C9.866 3.22385 9.84148 2.97998 9.88788 2.74458C9.93427 2.50919 10.0495 2.29286 10.2189 2.12299C10.3884 1.95313 10.6044 1.83738 10.8397 1.7904C11.075 1.74343 11.3189 1.76734 11.5406 1.8591C11.7623 1.95087 11.9517 2.10637 12.0849 2.3059C12.2182 2.50543 12.2892 2.74001 12.289 2.97994C12.2866 3.2995 12.1586 3.60529 11.9325 3.83116C11.7065 4.05704 11.4006 4.18484 11.081 4.18694V4.19094Z" fill="#444A58"/>
</g>
<defs>
<clipPath id="clip0_449_3993">
<rect width="14" height="14" fill="white"/>
</clipPath>
</defs>
</svg>
