<svg width="14" height="14" viewBox="0 0 14 14" fill="none" xmlns="http://www.w3.org/2000/svg">
<g clip-path="url(#clip0_449_3608)">
<path fill-rule="evenodd" clip-rule="evenodd" d="M13 4.87012H10.938C10.6728 4.87012 10.4184 4.97547 10.2309 5.16301C10.0434 5.35055 9.938 5.6049 9.938 5.87012V6.25612C9.938 6.52133 10.0434 6.77569 10.2309 6.96322C10.4184 7.15076 10.6728 7.25612 10.938 7.25612H11.613V11.8481C11.613 12.1133 11.7184 12.3677 11.9059 12.5552C12.0934 12.7428 12.3478 12.8481 12.613 12.8481H13C13.2652 12.8481 13.5196 12.7428 13.7071 12.5552C13.8946 12.3677 14 12.1133 14 11.8481V5.86912C13.9997 5.60407 13.8943 5.34998 13.7068 5.16266C13.5192 4.97534 13.265 4.87012 13 4.87012Z" fill="#444A58"/>
<path fill-rule="evenodd" clip-rule="evenodd" d="M7.2 0.987061H6.812C6.54678 0.987061 6.29243 1.09242 6.10489 1.27995C5.91736 1.46749 5.812 1.72184 5.812 1.98706V6.02006H5.799H2.387V1.98706C2.387 1.72184 2.28164 1.46749 2.09411 1.27995C1.90657 1.09242 1.65222 0.987061 1.387 0.987061H1C0.734784 0.987061 0.48043 1.09242 0.292893 1.27995C0.105357 1.46749 0 1.72184 0 1.98706L0 12.0131C0 12.2783 0.105357 12.5326 0.292893 12.7202C0.48043 12.9077 0.734784 13.0131 1 13.0131H1.388C1.65322 13.0131 1.90757 12.9077 2.09511 12.7202C2.28264 12.5326 2.388 12.2783 2.388 12.0131V8.43206H5.8H5.813V12.0151C5.813 12.2803 5.91836 12.5346 6.10589 12.7222C6.29343 12.9097 6.54778 13.0151 6.813 13.0151H7.2C7.46522 13.0151 7.71957 12.9097 7.90711 12.7222C8.09464 12.5346 8.2 12.2803 8.2 12.0151V1.98706C8.2 1.72184 8.09464 1.46749 7.90711 1.27995C7.71957 1.09242 7.46522 0.987061 7.2 0.987061V0.987061Z" fill="#444A58"/>
</g>
<defs>
<clipPath id="clip0_449_3608">
<rect width="14" height="14" fill="white"/>
</clipPath>
</defs>
</svg>
