<svg width="14" height="14" viewBox="0 0 14 14" fill="none" xmlns="http://www.w3.org/2000/svg">
<g clip-path="url(#clip0_449_3776)">
<path d="M0.482006 8.437L5.56301 13.518C5.87187 13.8268 6.29075 14.0003 6.72751 14.0003C7.16427 14.0003 7.58314 13.8268 7.89201 13.518L13.277 8.134C13.7401 7.67054 14.0001 7.04215 14 6.387V1.236C14.0003 1.0737 13.9685 0.912936 13.9066 0.762924C13.8446 0.612912 13.7536 0.476596 13.6389 0.361783C13.5242 0.246971 13.388 0.155917 13.238 0.0938366C13.088 0.0317561 12.9273 -0.000131333 12.765 4.06539e-07H7.61301C7.28869 9.14328e-05 6.96756 0.0640776 6.66798 0.188304C6.3684 0.31253 6.09622 0.494561 5.86701 0.724L0.482006 6.109C0.32913 6.26185 0.207861 6.44332 0.125124 6.64304C0.0423863 6.84276 -0.000198364 7.05682 -0.000198364 7.273C-0.000198364 7.48918 0.0423863 7.70324 0.125124 7.90296C0.207861 8.10268 0.32913 8.28415 0.482006 8.437V8.437ZM11.055 3.913C10.8377 3.91201 10.6255 3.84666 10.4452 3.72519C10.265 3.60372 10.1248 3.43158 10.0423 3.2305C9.95982 3.02942 9.93875 2.8084 9.98176 2.59535C10.0248 2.3823 10.1299 2.18677 10.284 2.03343C10.438 1.88009 10.634 1.77583 10.8472 1.73379C11.0605 1.69174 11.2814 1.71382 11.4821 1.79722C11.6828 1.88062 11.8543 2.02161 11.975 2.2024C12.0956 2.38318 12.16 2.59565 12.16 2.813C12.16 2.95788 12.1314 3.10133 12.0758 3.23511C12.0202 3.3689 11.9387 3.49038 11.8361 3.59259C11.7334 3.6948 11.6115 3.77572 11.4775 3.83071C11.3435 3.88569 11.1999 3.91366 11.055 3.913V3.913ZM4.56901 6.35L7.51401 9.3C7.65205 9.43805 7.7296 9.62528 7.7296 9.8205C7.7296 10.0157 7.65205 10.203 7.51401 10.341C7.37596 10.479 7.18873 10.5566 6.99351 10.5566C6.79828 10.5566 6.61105 10.479 6.47301 10.341L3.52801 7.391C3.38996 7.25296 3.31241 7.06573 3.31241 6.8705C3.31241 6.67528 3.38996 6.48805 3.52801 6.35C3.66605 6.21196 3.85328 6.1344 4.04851 6.1344C4.24373 6.1344 4.43096 6.21196 4.56901 6.35Z" fill="#444A58"/>
</g>
<defs>
<clipPath id="clip0_449_3776">
<rect width="14" height="14" fill="white"/>
</clipPath>
</defs>
</svg>
