<svg width="14" height="14" viewBox="0 0 14 14" fill="none" xmlns="http://www.w3.org/2000/svg">
<g clip-path="url(#clip0_449_3912)">
<path fill-rule="evenodd" clip-rule="evenodd" d="M11 12.5339C11.0031 12.1491 10.8602 11.7774 10.6 11.4939L6.348 6.99989L10.6 2.50589C10.8605 2.22319 11.0051 1.85282 11.0051 1.46839C11.0051 1.08396 10.8605 0.713593 10.6 0.430891C10.4754 0.294941 10.3239 0.186387 10.1551 0.112124C9.98631 0.037861 9.80391 -0.000488281 9.6195 -0.000488281C9.43509 -0.000488281 9.2527 0.037861 9.0839 0.112124C8.91511 0.186387 8.7636 0.294941 8.639 0.430891L3.407 5.96289C3.14539 6.24445 2.99998 6.61455 2.99998 6.99889C2.99998 7.38323 3.14539 7.75333 3.407 8.03489L8.634 13.5689C8.7586 13.7048 8.91011 13.8134 9.0789 13.8877C9.2477 13.9619 9.43009 14.0003 9.6145 14.0003C9.79891 14.0003 9.98131 13.9619 10.1501 13.8877C10.3189 13.8134 10.4704 13.7048 10.595 13.5689C10.8549 13.2872 10.9979 12.9172 10.995 12.5339" fill="#444A58"/>
</g>
<defs>
<clipPath id="clip0_449_3912">
<rect width="14" height="14" fill="white"/>
</clipPath>
</defs>
</svg>
