<svg width="14" height="14" viewBox="0 0 14 14" fill="none" xmlns="http://www.w3.org/2000/svg">
<path d="M6.834 4.376C8.0424 4.376 9.022 3.3964 9.022 2.188C9.022 0.979601 8.0424 0 6.834 0C5.6256 0 4.646 0.979601 4.646 2.188C4.646 3.3964 5.6256 4.376 6.834 4.376Z" fill="#444A58"/>
<path d="M9.35 12.25C9.17592 12.25 9.00896 12.1809 8.88578 12.0579C8.7626 11.9349 8.69326 11.7681 8.693 11.594V6.59399C8.693 6.42001 8.62388 6.25315 8.50086 6.13013C8.37783 6.0071 8.21098 5.93799 8.037 5.93799H4.649C4.47501 5.93799 4.30816 6.0071 4.18513 6.13013C4.06211 6.25315 3.993 6.42001 3.993 6.59399V7.03199C3.993 7.20597 4.06211 7.37283 4.18513 7.49585C4.30816 7.61887 4.47501 7.68799 4.649 7.68799C4.82298 7.68799 4.98983 7.7571 5.11286 7.88013C5.23588 8.00315 5.305 8.17001 5.305 8.34399V11.599C5.305 11.773 5.23588 11.9398 5.11286 12.0629C4.98983 12.1859 4.82298 12.255 4.649 12.255C4.47501 12.255 4.30816 12.3241 4.18513 12.4471C4.06211 12.5701 3.993 12.737 3.993 12.911V13.349C3.99432 13.5221 4.06401 13.6877 4.18689 13.8096C4.30977 13.9316 4.47588 14 4.649 14H9.349C9.43514 14 9.52045 13.983 9.60004 13.9501C9.67963 13.9171 9.75194 13.8688 9.81286 13.8079C9.87377 13.7469 9.92209 13.6746 9.95506 13.595C9.98803 13.5154 10.005 13.4301 10.005 13.344V12.906C10.005 12.7322 9.93602 12.5655 9.81321 12.4425C9.6904 12.3195 9.52381 12.2503 9.35 12.25V12.25Z" fill="#444A58"/>
</svg>
