<svg width="14" height="14" viewBox="0 0 14 14" fill="none" xmlns="http://www.w3.org/2000/svg">
<path fill-rule="evenodd" clip-rule="evenodd" d="M9.43 2.48311L6.9 5.01111L4.37 2.48111C4.23671 2.34229 4.07704 2.23148 3.90037 2.15516C3.7237 2.07885 3.53357 2.03857 3.34113 2.03669C3.14868 2.03481 2.9578 2.07136 2.77967 2.1442C2.60154 2.21704 2.43974 2.32471 2.30376 2.4609C2.16777 2.59708 2.06034 2.75904 1.98776 2.93728C1.91518 3.11551 1.87891 3.30645 1.88107 3.49889C1.88324 3.69133 1.9238 3.8814 2.00037 4.05796C2.07694 4.23452 2.18799 4.39402 2.327 4.52711L4.856 7.05711L2.329 9.58411C2.06481 9.85707 1.91846 10.2229 1.92152 10.6028C1.92457 10.9827 2.07678 11.3461 2.34533 11.6148C2.61388 11.8835 2.97726 12.0359 3.35712 12.0391C3.73698 12.0423 4.10291 11.8962 4.376 11.6321L6.9 9.10011L9.428 11.6291C9.5614 11.7677 9.72108 11.8782 9.8977 11.9543C10.0743 12.0305 10.2644 12.0706 10.4567 12.0724C10.649 12.0742 10.8397 12.0377 11.0178 11.9649C11.1958 11.8922 11.3576 11.7847 11.4936 11.6487C11.6296 11.5127 11.7371 11.3509 11.8098 11.1729C11.8826 10.9949 11.9191 10.8041 11.9173 10.6118C11.9155 10.4195 11.8753 10.2294 11.7992 10.0528C11.7231 9.87619 11.6125 9.71651 11.474 9.58311L8.95 7.05811L11.477 4.53111C11.7412 4.25814 11.8875 3.89229 11.8845 3.51243C11.8814 3.13256 11.7292 2.76911 11.4607 2.50043C11.1921 2.23175 10.8287 2.07936 10.4489 2.07612C10.069 2.07288 9.70309 2.21905 9.43 2.48311V2.48311Z" fill="#444A58"/>
</svg>
