<svg width="14" height="14" viewBox="0 0 14 14" fill="none" xmlns="http://www.w3.org/2000/svg">
<g clip-path="url(#clip0_449_3586)">
<path fill-rule="evenodd" clip-rule="evenodd" d="M6.09999 0.263993C4.9397 0.449418 3.84702 0.931562 2.92795 1.66366C2.00888 2.39575 1.29461 3.35295 0.85442 4.44239C0.414234 5.53184 0.263076 6.71656 0.415609 7.88163C0.568141 9.0467 1.01919 10.1526 1.72499 11.092L0.169993 12.761C0.0863595 12.8507 0.030762 12.9628 0.0100392 13.0837C-0.0106836 13.2046 0.00437222 13.3288 0.0533546 13.4413C0.102337 13.5537 0.18311 13.6493 0.285737 13.7164C0.388364 13.7835 0.50837 13.8192 0.630993 13.819H6.89999C8.69174 13.8462 10.4257 13.1853 11.7447 11.9723C13.0637 10.7594 13.8673 9.08674 13.99 7.29899C14.0339 6.28815 13.8524 5.2802 13.4587 4.34813C13.065 3.41606 12.469 2.58319 11.7138 1.90983C10.9586 1.23647 10.0632 0.739473 9.09223 0.454821C8.1213 0.170168 7.09922 0.104986 6.09999 0.263993V0.263993Z" fill="#444A58"/>
</g>
<defs>
<clipPath id="clip0_449_3586">
<rect width="14" height="14" fill="white"/>
</clipPath>
</defs>
</svg>
