<svg width="14" height="14" viewBox="0 0 14 14" fill="none" xmlns="http://www.w3.org/2000/svg">
<path d="M12.339 4.093C12.3371 3.00804 11.9053 1.96804 11.1381 1.20086C10.371 0.433671 9.33096 0.0018508 8.246 0L2.846 0C2.53171 0.000529447 2.23045 0.125685 2.00831 0.348017C1.78616 0.570349 1.66126 0.871707 1.661 1.186V12.814C1.66126 13.1285 1.7863 13.43 2.00866 13.6523C2.23102 13.8747 2.53253 13.9997 2.847 14H8.247C9.33196 13.9981 10.372 13.5663 11.1391 12.7991C11.9063 12.032 12.3381 10.992 12.34 9.907C12.3387 9.36408 12.2282 8.82697 12.0152 8.32759C11.8022 7.8282 11.4909 7.37673 11.1 7C11.4909 6.62325 11.8019 6.17176 12.0148 5.67236C12.2276 5.17296 12.3379 4.63586 12.339 4.093V4.093ZM8.246 5.814H4.034V2.373H8.246C8.69512 2.38383 9.12221 2.56985 9.43603 2.89132C9.74985 3.2128 9.92552 3.64425 9.92552 4.0935C9.92552 4.54275 9.74985 4.9742 9.43603 5.29568C9.12221 5.61715 8.69512 5.80317 8.246 5.814ZM8.246 11.627H4.034V8.186H8.246C8.69512 8.19683 9.12221 8.38285 9.43603 8.70432C9.74985 9.0258 9.92552 9.45725 9.92552 9.9065C9.92552 10.3558 9.74985 10.7872 9.43603 11.1087C9.12221 11.4302 8.69512 11.6162 8.246 11.627V11.627Z" fill="#444A58"/>
</svg>
