<svg width="14" height="14" viewBox="0 0 14 14" fill="none" xmlns="http://www.w3.org/2000/svg">
<g clip-path="url(#clip0_449_3500)">
<path d="M11.363 5.134V4.363C11.363 3.20586 10.9033 2.09611 10.0851 1.27789C9.26689 0.459672 8.15714 0 7 0C5.84286 0 4.73312 0.459672 3.91489 1.27789C3.09667 2.09611 2.637 3.20586 2.637 4.363V5.134C2.32361 5.2425 2.05101 5.44446 1.85594 5.71267C1.66087 5.98087 1.55269 6.30243 1.546 6.634V12.361C1.55581 12.5886 1.61086 12.8121 1.70793 13.0182C1.805 13.2243 1.94215 13.4091 2.11138 13.5616C2.28062 13.7142 2.47854 13.8316 2.6936 13.9068C2.90867 13.9821 3.13656 14.0138 3.364 14H10.636C10.8632 14.0138 11.0909 13.9822 11.3057 13.9071C11.5206 13.832 11.7184 13.715 11.8876 13.5627C12.0568 13.4104 12.194 13.2261 12.2912 13.0203C12.3885 12.8145 12.4438 12.5914 12.454 12.364V6.637C12.4479 6.30491 12.34 5.98269 12.1449 5.71389C11.9498 5.4451 11.6769 5.24268 11.363 5.134V5.134ZM7 2.182C7.57837 2.18253 8.13291 2.41245 8.54197 2.82132C8.95103 3.2302 9.18121 3.78463 9.182 4.363V5H4.818V4.363C4.8188 3.78463 5.04897 3.2302 5.45803 2.82132C5.86709 2.41245 6.42163 2.18253 7 2.182V2.182Z" fill="#444A58"/>
</g>
<defs>
<clipPath id="clip0_449_3500">
<rect width="14" height="14" fill="white"/>
</clipPath>
</defs>
</svg>
